<svg xmlns="http://www.w3.org/2000/svg" viewBox="0 0 511.994 511.994"><g fill="#fff"><path d="M511.986 56.391l.007-.182c.002-.07-.002-.139-.002-.209 0-.13.002-.26-.004-.389-.005-.11-.017-.219-.027-.328l-.004-.043c-.006-.063-.008-.127-.016-.19-.008-.071-.018-.141-.028-.211-.015-.103-.037-.205-.056-.308-.026-.143-.051-.286-.086-.428l-.011-.045c-.025-.1-.058-.198-.087-.298-.04-.139-.079-.277-.127-.414-.023-.066-.049-.13-.073-.195-.023-.06-.049-.117-.073-.177a.008.008 0 0 0-.002-.004c-.046-.113-.089-.226-.14-.337-.057-.124-.123-.243-.186-.364-.031-.06-.061-.12-.094-.179-.028-.05-.053-.1-.082-.149a8.592 8.592 0 0 0-.32-.491c-.036-.052-.066-.107-.103-.159l-.006-.008-.016-.021c-.099-.135-.21-.264-.319-.394-.068-.081-.132-.167-.202-.244l-.097-.102c-.05-.054-.105-.104-.157-.156-.11-.111-.218-.224-.333-.328l-.021-.021c-.047-.042-.097-.076-.145-.116l-.068-.056c-.034-.029-.063-.062-.098-.09-.023-.018-.048-.031-.071-.05-.075-.059-.148-.119-.224-.175-.074-.054-.152-.101-.227-.153-.14-.095-.28-.191-.425-.276-.106-.063-.216-.117-.324-.174-.118-.063-.235-.127-.356-.184-.05-.023-.1-.047-.151-.069-.032-.014-.064-.024-.096-.038-.052-.022-.104-.041-.156-.062-.102-.041-.203-.084-.306-.121-.111-.04-.223-.072-.335-.106-.065-.02-.129-.04-.195-.058-.069-.019-.138-.04-.208-.058-.148-.037-.297-.064-.447-.093-.084-.016-.167-.038-.252-.051-.022-.003-.045-.004-.067-.008-.138-.02-.277-.032-.415-.045-.119-.011-.237-.024-.356-.031-.054-.003-.107-.006-.161-.007-.063-.002-.126.002-.189.002h-.027c-.134 0-.268-.002-.402.004-.107.005-.214.017-.321.026-.071.006-.142.01-.213.018-.08.009-.159.018-.238.03-.106.015-.211.038-.317.057-.132.025-.265.046-.396.077l-.046.013c-.111.027-.221.062-.331.094-.135.039-.27.077-.403.124-.065.022-.128.048-.192.072l-.051.016-496 192a8 8 0 0 0 .016 14.927l147.877 56.876 47.385 146.125c.007.021.018.039.025.059.014.043.024.087.039.13a8 8 0 0 0 .404.934c.032.063.065.124.098.186.149.279.313.551.497.813.024.035.045.072.07.106l.037.051c.014.018.029.034.043.053.06.08.127.157.191.235.076.094.148.19.228.281.062.069.13.133.195.2l.09.093c.046.046.089.095.136.14.049.047.096.095.146.141.048.044.1.084.15.126.154.135.31.266.474.39l.029.024c.015.011.033.019.048.03.05.036.101.069.151.104.257.179.527.344.808.493.046.024.089.055.135.078l.045.021c.264.131.535.252.819.356.06.022.121.037.181.057a8.174 8.174 0 0 0 1.275.323l.047.011c.033.005.066.004.099.009.383.056.767.09 1.147.09h.002c.031 0 .061-.007.092-.007.329-.004.657-.031.983-.075.049-.007.099-.006.147-.013.07-.011.14-.036.21-.049.253-.046.503-.104.751-.175.081-.023.163-.038.243-.063l.042-.01c.038-.012.074-.03.112-.043.119-.04.235-.088.352-.134.156-.062.311-.125.461-.195.023-.01.046-.018.069-.029.013-.007.028-.011.041-.017.075-.036.146-.08.22-.119a8.044 8.044 0 0 0 .744-.441l.003-.002c.028-.019.057-.035.085-.054.133-.092.259-.193.386-.292.074-.058.149-.112.221-.173.079-.067.155-.138.231-.208.059-.053.115-.109.173-.165.246-.239.48-.489.693-.756l.055-.066c.023-.03.043-.063.065-.093.017-.022.037-.041.054-.064l58.457-78.995a8 8 0 0 0-12.861-9.517l-25.398 34.322 20.186-55.106 191.072 72.521a8.006 8.006 0 0 0 6.869-.568 8.001 8.001 0 0 0 3.877-5.698l55.275-360.502c.003-.017.002-.034.004-.051.019-.133.03-.266.043-.399.011-.121.024-.242.03-.364zm-62.429 29.255L221.052 251.603a8 8 0 1 0 9.402 12.945l218.284-158.534-204.293 229.394a7.95 7.95 0 0 0-1.861 2.848c-.072.188-.127.379-.184.569l-33.94 92.653-41.413-127.707a7.982 7.982 0 0 0-4.728-4.993l-.036-.016-132.06-50.793L449.557 85.646zm-7.241 319.86l-178.528-67.76L491.995 81.501l-49.679 324.005z"/><path d="M185.506 295.311c1.63 0 3.275-.497 4.695-1.528l15.55-11.294a8 8 0 0 0-9.402-12.946l-15.55 11.294a8 8 0 0 0 4.707 14.474z"/></g></svg>