<?xml version="1.0" standalone="no"?>
<!DOCTYPE svg PUBLIC "-//W3C//DTD SVG 1.1//EN" "http://www.w3.org/Graphics/SVG/1.1/DTD/svg11.dtd" >
<svg>
<metadata>
Created by FontForge 20090914 at Thu Dec 21 11:36:28 2017
 By www-data
Digitized data copyright 2012-2016, The Mozilla Foundation and Telefonica S.A.
</metadata>
<defs>
<font id="FiraSans-ExtraLightItalic" horiz-adv-x="560" >
  <font-face 
    font-family="Fira Sans ExtraLight"
    font-weight="275"
    font-style="italic"
    font-stretch="normal"
    units-per-em="1000"
    panose-1="2 11 4 3 5 0 0 2 0 4"
    ascent="800"
    descent="-200"
    x-height="522"
    cap-height="684"
    bbox="-760 -350 1417 1050"
    underline-thickness="50"
    underline-position="-50"
    slope="-8"
    unicode-range="U+000D-U+FEFF"
  />
<missing-glyph horiz-adv-x="664" 
d="M653 1050l-198 -1400h-419l198 1400h419zM591 998h-310l-183 -1296h310zM422.5 425.5c15.667 -17 23.499 -39.165 23.499 -66.498c0 -5.33301 -0.666992 -14 -2 -26c-4.66699 -34.667 -15.667 -61.334 -33 -80.001s-43 -30.334 -77 -35.001l-7 -47
c-0.666992 -6.66699 -3.66699 -12 -9 -16s-11 -6 -17 -6c-7.33301 0 -13.333 2.5 -18 7.5s-6.66699 11.167 -6 18.5l11 82c35.333 2 60.333 9 75 21s24 31.667 28 59c0.666992 4.66699 1 11.334 1 20.001c0 14.667 -3.66699 26 -11 34s-20.333 12 -39 12
c-11.333 0 -21 -0.833008 -29 -2.5s-16.333 -4.83398 -25 -9.50098l-13 -2c-8 0 -14.167 2.5 -18.5 7.5s-5.83301 11.167 -4.5 18.5c1.33301 12 12 21 32 27s41 9 63 9c34.667 0 59.834 -8.5 75.501 -25.5zM314.999 111.002c6 -6 9 -13.667 9 -23
c0 -11.333 -3.66699 -20.833 -11 -28.5s-16 -11.5 -26 -11.5s-17.833 3.16699 -23.5 9.5s-8.5 14.5 -8.5 24.5c0 10.667 3.5 19.667 10.5 27s15.833 11 26.5 11c9.33301 0 17 -3 23 -9z" />
    <glyph glyph-name="fi" unicode="fi" 
d="M414 0l-46.999 0.000976562l68 483h-245l-65 -470c-6 -44.667 -15.167 -79.834 -27.5 -105.501s-28.333 -46 -48 -61s-47.167 -30.5 -82.5 -46.5l-15 35c27.333 13.333 49 26.333 65 39s29.167 30 39.5 52s18.166 51.667 23.499 89l65 468h-90l6 39h89l13 91
c6 40.667 23.333 72.167 52 94.5s66.667 33.5 114 33.5c48 0 93 -13.667 135 -41l-20 -32c-38.667 23.333 -77 35 -115 35c-36 0 -64 -7.66699 -84 -23s-32.333 -39 -37 -71l-12 -87h292z" />
    <glyph glyph-name="fl" unicode="fl" horiz-adv-x="580" 
d="M501 38l10.0029 -35.999c-18.667 -8.66699 -37.334 -13 -56.001 -13c-24 0 -42.667 6.33301 -56 19s-20 31.667 -20 57c0 4 0.666992 12 2 24l83 588c-24.667 8.66699 -47.334 15 -68.001 19s-43.667 6 -69 6c-70.667 0 -110.334 -31 -119.001 -93l-12 -87h141l-11 -39
h-136l-65 -470c-6 -44.667 -15.167 -79.834 -27.5 -105.501s-28.333 -46 -48 -61s-47.167 -30.5 -82.5 -46.5l-15 35c27.333 13.333 49 26.333 65 39s29.167 30 39.5 52s18.166 51.667 23.499 89l65 468h-90l6 39h89l13 91c6 40.667 23.333 72.167 52 94.5
s66.334 33.5 113.001 33.5c51.333 0 99 -9 143 -27l44 6l-89 -637c-0.666992 -4 -1 -9.33301 -1 -16c0 -12.667 2.83301 -22 8.5 -28s15.167 -9 28.5 -9c10 0 23 2.66699 39 8z" />
    <glyph glyph-name=".notdef" horiz-adv-x="664" 
d="M653 1050l-198 -1400h-419l198 1400h419zM591 998h-310l-183 -1296h310zM422.5 425.5c15.667 -17 23.499 -39.165 23.499 -66.498c0 -5.33301 -0.666992 -14 -2 -26c-4.66699 -34.667 -15.667 -61.334 -33 -80.001s-43 -30.334 -77 -35.001l-7 -47
c-0.666992 -6.66699 -3.66699 -12 -9 -16s-11 -6 -17 -6c-7.33301 0 -13.333 2.5 -18 7.5s-6.66699 11.167 -6 18.5l11 82c35.333 2 60.333 9 75 21s24 31.667 28 59c0.666992 4.66699 1 11.334 1 20.001c0 14.667 -3.66699 26 -11 34s-20.333 12 -39 12
c-11.333 0 -21 -0.833008 -29 -2.5s-16.333 -4.83398 -25 -9.50098l-13 -2c-8 0 -14.167 2.5 -18.5 7.5s-5.83301 11.167 -4.5 18.5c1.33301 12 12 21 32 27s41 9 63 9c34.667 0 59.834 -8.5 75.501 -25.5zM314.999 111.002c6 -6 9 -13.667 9 -23
c0 -11.333 -3.66699 -20.833 -11 -28.5s-16 -11.5 -26 -11.5s-17.833 3.16699 -23.5 9.5s-8.5 14.5 -8.5 24.5c0 10.667 3.5 19.667 10.5 27s15.833 11 26.5 11c9.33301 0 17 -3 23 -9z" />
    <glyph glyph-name="nonmarkingreturn" unicode="&#xd;" horiz-adv-x="282" 
 />
    <glyph glyph-name="space" unicode=" " horiz-adv-x="282" 
 />
    <glyph glyph-name="exclam" unicode="!" horiz-adv-x="239" 
d="M91 214l63 470h48l-68 -470h-43zM60.5 0c-7 7.33301 -10.5 16 -10.5 26c0 12.667 4.16699 23 12.5 31s18.5 12 30.5 12c11.333 0 20.333 -3.5 27 -10.5s10 -15.833 10 -26.5c0 -12 -4 -22.167 -12 -30.5s-18.333 -12.5 -31 -12.5c-10.667 0 -19.5 3.66699 -26.5 11z" />
    <glyph glyph-name="quotedbl" unicode="&#x22;" horiz-adv-x="348" 
d="M105 436l28 248h50l-42 -248h-36zM255 436l28 248h50l-42 -248h-36z" />
    <glyph glyph-name="numbersign" unicode="#" horiz-adv-x="497" 
d="M509 454h-79l-63 -229h73l-6 -39h-77l-51 -186h-46l51 186h-187l-51 -186h-45l51 186h-75l6 39h79l63 229h-73l5 39h78l47 171h45l-47 -171h187l47 171h46l-47 -171h74zM321 225l63 229h-187l-63 -229h187z" />
    <glyph glyph-name="dollar" unicode="$" horiz-adv-x="521" 
d="M193 600c-28.667 -22.667 -43 -55.0039 -43 -97.0039c0 -31.333 10.333 -56.666 31 -75.999s56 -37 106 -53c56 -18 98 -40.333 126 -67s42 -61.667 42 -105c0 -34 -7.33301 -66.5 -22 -97.5s-38.167 -57 -70.5 -78s-72.833 -33.167 -121.5 -36.5l-19 -139h-41l19 138
c-37.333 2 -71.333 10.333 -102 25s-57.667 34 -81 58l30 27c44.667 -46 101 -69 169 -69c43.333 0 79.333 7.83301 108 23.5s49.834 36.334 63.501 62.001s20.5 53.5 20.5 83.5c0 32.667 -10.833 59.334 -32.5 80.001s-57.5 39.334 -107.5 56.001
c-58 19.333 -100 41.833 -126 67.5s-39 58.5 -39 98.5c0 50 17.333 90.5 52 121.5s81.667 47.833 141 50.5l21 144h41l-21 -145c31.333 -2.66699 59.333 -10 84 -22s48 -28.667 70 -50l-29 -29c-44 42 -95 63 -153 63c-48.667 0 -87.334 -11.333 -116.001 -34z" />
    <glyph glyph-name="percent" unicode="%" horiz-adv-x="780" 
d="M669 701l-560 -700l33 -22l560 699zM124.5 390c-23 24 -34.5 56 -34.5 96c0 28.667 5.83301 57.5 17.5 86.5s30 53.333 55 73s56.167 29.5 93.5 29.5c38.667 0 69.5 -11.833 92.5 -35.5s34.5 -55.5 34.5 -95.5c0 -28 -5.66699 -56.667 -17 -86s-29.5 -54 -54.5 -74
s-56.5 -30 -94.5 -30c-38.667 0 -69.5 12 -92.5 36zM289.5 416c18.333 17.333 31.332 38 38.999 62s11.5 46.667 11.5 68c0 28 -6.66699 50.667 -20 68s-34.333 26 -63 26c-30.667 0 -55.167 -8.66699 -73.5 -26s-31.166 -37.833 -38.499 -61.5s-11 -46.5 -11 -68.5
c0 -28.667 6.66699 -51.5 20 -68.5s34.333 -25.5 63 -25.5c30 0 54.167 8.66699 72.5 26zM451.499 25c-23 24 -34.501 56 -34.501 96c0 28.667 5.83301 57.667 17.5 87s29.834 53.833 54.501 73.5s56 29.5 94 29.5c38.667 0 69.5 -12 92.5 -36s34.5 -56 34.5 -96
c0 -28 -5.66699 -56.667 -17 -86s-29.5 -54 -54.5 -74s-56.5 -30 -94.5 -30c-38.667 0 -69.5 12 -92.5 36zM616.498 51.5c18.333 17.667 31.332 38.5 38.999 62.5s11.5 46.333 11.5 67c0 28 -6.66699 50.667 -20 68s-34.333 26 -63 26c-30.667 0 -55.167 -8.66699 -73.5 -26
s-31.166 -37.833 -38.499 -61.5s-11 -46.5 -11 -68.5c0 -28.667 6.66699 -51.5 20 -68.5s34.333 -25.5 63 -25.5c30 0 54.167 8.83301 72.5 26.5z" />
    <glyph glyph-name="ampersand" unicode="&#x26;" horiz-adv-x="719" 
d="M461 657.5c28.667 -24.333 43 -55.499 43 -93.499c0 -27.333 -6 -51.666 -18 -72.999s-31.333 -42 -58 -62s-63.334 -42 -110.001 -66l185 -201c32 52 62.667 112 92 180l41 -16c-33.333 -74.667 -68.666 -139 -105.999 -193l107 -117l-38 -26l-98 110
c-31.333 -36 -66 -63.5 -104 -82.5s-81.667 -28.5 -131 -28.5c-55.333 0 -99.5 15 -132.5 45s-49.5 69.333 -49.5 118c0 44 12.5 83.167 37.5 117.5s68.833 68.166 131.5 101.499c-26.667 29.333 -46.334 56.666 -59.001 81.999s-19 52 -19 80s6.83301 54.333 20.5 79
s33.834 44.5 60.501 59.5s58 22.5 94 22.5c45.333 0 82.333 -12.167 111 -36.5zM254.5 620.001c-22.333 -24.667 -33.502 -53.668 -33.502 -87.001c0 -22 5.16699 -44.167 15.5 -66.5s28.5 -47.833 54.5 -76.5c43.333 22 77 41.833 101 59.5s41 35.5 51 53.5
s15 38.333 15 61c0 28.667 -10.167 51.334 -30.5 68.001s-46.166 25 -77.499 25c-41.333 0 -73.166 -12.333 -95.499 -37zM162.998 255.5c-21.333 -30.333 -32.001 -64.834 -32.001 -103.501c0 -37.333 12 -67.166 36 -89.499s57.667 -33.5 101 -33.5
c42 0 79.667 8.5 113 25.5s64.333 41.833 93 74.5l-196 214c-55.333 -28 -93.666 -57.167 -114.999 -87.5z" />
    <glyph glyph-name="quotesingle" unicode="'" horiz-adv-x="198" 
d="M105 436l28 248h50l-42 -248h-36z" />
    <glyph glyph-name="parenleft" unicode="(" horiz-adv-x="322" 
d="M342 814c-54.667 -66.667 -98.6689 -128.666 -132.002 -185.999s-58.666 -117.833 -75.999 -181.5s-26 -134.834 -26 -213.501c0 -67.333 8.66699 -126.5 26 -177.5s43.333 -108.5 78 -172.5l-32 -16c-26.667 45.333 -48 85 -64 119s-29 71.667 -39 113s-15 87 -15 137
c0 82.667 9.5 157 28.5 223s46.333 127.833 82 185.5s82.834 121.5 141.501 191.5z" />
    <glyph glyph-name="parenright" unicode=")" horiz-adv-x="322" 
d="M231 713.5c15.333 -33 28.1689 -70.167 38.502 -111.5s15.5 -87 15.5 -137c0 -83.333 -9.33301 -158 -28 -224s-45.834 -128 -81.501 -186s-83.167 -121.667 -142.5 -191l-28 22c54.667 67.333 98.667 129.5 132 186.5s58.666 117.5 75.999 181.5s26 135.667 26 215
c0 66.667 -8.66699 125.667 -26 177s-43 108.333 -77 171l32 16c26.667 -46.667 47.667 -86.5 63 -119.5z" />
    <glyph glyph-name="asterisk" unicode="*" horiz-adv-x="433" 
d="M441 589l-158 -42l80 -125l-39 -27l-69 132l-106 -132l-34 27l115 124l-146 43l18 40l142 -54l17 160h46l-29 -158l154 54z" />
    <glyph glyph-name="plus" unicode="+" horiz-adv-x="489" 
d="M302 504l-22 -153h151l-6 -41h-151l-21 -153h-45l21 153h-151l6 41h151l22 153h45z" />
    <glyph glyph-name="comma" unicode="," horiz-adv-x="195" 
d="M94 58.5c6.66699 -7 10 -15.8311 10 -26.498c0 -7.33301 -1.5 -14.833 -4.5 -22.5s-7.83301 -17.834 -14.5 -30.501l-70 -125h-35l61 141c-11.333 6 -17 16.667 -17 32c0 11.333 4.16699 21.166 12.5 29.499s18.5 12.5 30.5 12.5c11.333 0 20.333 -3.5 27 -10.5z" />
    <glyph glyph-name="hyphen" unicode="-" horiz-adv-x="398" 
d="M74 292l6 42h258l-6 -42h-258z" />
    <glyph glyph-name="period" unicode="." horiz-adv-x="196" 
d="M35.5 0c-7 7.33301 -10.5 16 -10.5 26c0 12.667 4.16699 23 12.5 31s18.5 12 30.5 12c11.333 0 20.333 -3.5 27 -10.5s10 -15.833 10 -26.5c0 -12 -4 -22.167 -12 -30.5s-18.333 -12.5 -31 -12.5c-10.667 0 -19.5 3.66699 -26.5 11z" />
    <glyph glyph-name="slash" unicode="/" horiz-adv-x="518" 
d="M430 802l40 -11l-357 -889l-39 11z" />
    <glyph glyph-name="zero" unicode="0" horiz-adv-x="545" 
d="M183.5 604.5c-39 -47 -67.5 -105.332 -85.5 -174.999s-27 -138.834 -27 -207.501c0 -76 14 -133.833 42 -173.5s68.667 -59.5 122 -59.5c58.667 0 107.5 23.5 146.5 70.5s67.5 105.333 85.5 175s27 139.167 27 208.5c0 76.667 -13.833 134.5 -41.5 173.5
s-68.167 58.5 -121.5 58.5c-59.333 0 -108.5 -23.5 -147.5 -70.5zM447 450.001c0 -66 -7.5 -131.331 -22.5 -195.998s-38.5 -118.334 -70.5 -161.001s-71.333 -64 -118 -64c-78.667 0 -118 62.333 -118 187c0 65.333 7.66699 130.166 23 194.499s39 118 71 161
s71.333 64.5 118 64.5c78 0 117 -62 117 -186z" />
    <glyph glyph-name="one" unicode="1" horiz-adv-x="404" 
d="M336 664l-93 -664h-46l86 608l-181 -104l-17 38l212 122h39z" />
    <glyph glyph-name="two" unicode="2" horiz-adv-x="471" 
d="M394.5 633.5c29 -27.667 43.499 -64.832 43.499 -111.499c0 -38.667 -9.33301 -76.334 -28 -113.001s-53.667 -82.667 -105 -138s-129.666 -132 -234.999 -230l317 1l-13 -42h-367l5 42c112 104.667 194.333 185.334 247 242.001s87.667 101.5 105 134.5
s26 67.167 26 102.5c0 36 -10.5 64 -31.5 84s-49.833 30 -86.5 30c-32 0 -60.5 -6.5 -85.5 -19.5s-50.167 -32.5 -75.5 -58.5l-31 28c30 31.333 60.5 54.166 91.5 68.499s65.5 21.5 103.5 21.5c50.667 0 90.5 -13.833 119.5 -41.5z" />
    <glyph glyph-name="three" unicode="3" horiz-adv-x="480" 
d="M391.5 634.5c27.667 -27 41.499 -62.5 41.499 -106.5c0 -26 -5.66699 -51.5 -17 -76.5s-28.833 -46.333 -52.5 -64s-52.834 -29.167 -87.501 -34.5c38.667 -1.33301 70 -14.5 94 -39.5s36 -59.833 36 -104.5c0 -34 -8.33301 -67.833 -25 -101.5
s-42.5 -61.834 -77.5 -84.501s-78.5 -34 -130.5 -34c-38.667 0 -72.5 7.33301 -101.5 22s-54.167 36.334 -75.5 65.001l33 25c19.333 -26 40.5 -44.333 63.5 -55s49.833 -16 80.5 -16c43.333 0 78.833 9.33301 106.5 28s47.667 42 60 70s18.5 56.333 18.5 85
c0 79.333 -45 119 -135 119h-43l11 38h32c34.667 0 64.334 7.5 89.001 22.5s43.167 34.667 55.5 59s18.5 49.833 18.5 76.5c0 34 -10.167 60.667 -30.5 80s-47.833 29 -82.5 29c-29.333 0 -56.666 -5.33301 -81.999 -16s-52.333 -27.667 -81 -51l-23 31
c30 25.333 60 44 90 56s63 18 99 18c49.333 0 87.833 -13.5 115.5 -40.5z" />
    <glyph glyph-name="four" unicode="4" horiz-adv-x="512" 
d="M469 218l-6 -40h-91l-25 -178h-45l25 178h-292l6 36l265 461l39 -16l-254 -441h242l33 200h40l-28 -200h91z" />
    <glyph glyph-name="five" unicode="5" horiz-adv-x="480" 
d="M450 624l-272 0.00195312l-34 -238c37.333 22 76.666 33 117.999 33c50.667 0 90.334 -15.667 119.001 -47s43 -74 43 -128c0 -38 -8.33301 -76.667 -25 -116s-42.834 -72.333 -78.501 -99s-80.834 -40 -135.501 -40c-38.667 0 -72 6.83301 -100 20.5s-53 33.5 -75 59.5
l32 27c18.667 -22.667 39.334 -39.334 62.001 -50.001s50 -16 82 -16c44 0 80.333 11.333 109 34s49.5 50.667 62.5 84s19.5 65.666 19.5 96.999c0 43.333 -11.167 76.833 -33.5 100.5s-52.166 35.5 -89.499 35.5c-23.333 0 -43.833 -2.66699 -61.5 -8
s-38.167 -14.333 -61.5 -27h-37l44 318h325z" />
    <glyph glyph-name="six" unicode="6" horiz-adv-x="519" 
d="M421.5 388c28.333 -28.667 42.502 -69.665 42.502 -122.998c0 -40.667 -8 -82.334 -24 -125.001s-40.833 -78.5 -74.5 -107.5s-75.167 -43.5 -124.5 -43.5c-60 0 -103.833 19.5 -131.5 58.5s-41.5 92.5 -41.5 160.5c0 75.333 11.5 149 34.5 221s56.667 131 101 177
s96.5 69 156.5 69c24 0 45 -3.33301 63 -10s35.667 -16.334 53 -29.001l-25 -32c-27.333 21.333 -58 32 -92 32c-56.667 0 -105.834 -28.333 -147.501 -85s-70.834 -131 -87.501 -223c52 68.667 114.667 103 188 103c44.667 0 81.167 -14.333 109.5 -43zM342.002 68.002
c26.667 26 45.833 57.168 57.5 93.501s17.5 70.5 17.5 102.5c0 42.667 -10 74.667 -30 96s-47 32 -81 32c-36 0 -69.833 -10.667 -101.5 -32s-60.834 -51 -87.501 -89c-2 -24.667 -3 -47.334 -3 -68.001c0 -116 42.333 -174 127 -174c40.667 0 74.334 13 101.001 39z" />
    <glyph glyph-name="seven" unicode="7" horiz-adv-x="433" 
d="M452 664l-5 -37l-353 -634l-43 15l345 616h-313l5 40h364z" />
    <glyph glyph-name="eight" unicode="8" horiz-adv-x="532" 
d="M434 284.5c20.667 -24.333 31 -54.167 31 -89.5c0 -40.667 -10 -76.667 -30 -108s-47.833 -55.5 -83.5 -72.5s-76.5 -25.5 -122.5 -25.5c-58 0 -103.833 15 -137.5 45s-50.5 69.333 -50.5 118c0 44 13.667 84 41 120s72.333 65 135 87
c-32.667 16 -57.167 35.167 -73.5 57.5s-24.5 49.166 -24.5 80.499c0 35.333 9.16699 66.5 27.5 93.5s43 47.833 74 62.5s64.5 22 100.5 22c45.333 0 83.833 -12.667 115.5 -38s47.5 -60.333 47.5 -105c0 -42 -11.5 -76.833 -34.5 -104.5s-60.167 -53.5 -111.5 -77.5
c43.333 -19.333 75.333 -41.166 96 -65.499zM188 427.999c16 -18.667 43.001 -35.332 81.001 -49.999l34 -13c48.667 24 83.5 49 104.5 75s31.5 56.667 31.5 92c0 33.333 -10.833 59.166 -32.5 77.499s-50.5 27.5 -86.5 27.5c-44.667 0 -81.834 -13 -111.501 -39
s-44.5 -59.333 -44.5 -100c0 -28 8 -51.333 24 -70zM365.001 73.501c35.333 29.667 53.001 70.832 53.001 123.499c0 30.667 -10 55.834 -30 75.501s-52.667 38.5 -98 56.5l-34 14c-64 -22.667 -107.833 -50.167 -131.5 -82.5s-35.5 -68.5 -35.5 -108.5
c0 -38 12.667 -68 38 -90s59.666 -33 102.999 -33c54.667 0 99.667 14.833 135 44.5z" />
    <glyph glyph-name="nine" unicode="9" horiz-adv-x="514" 
d="M432.5 622.5c28.333 -35 42.5 -83.8311 42.5 -146.498c0 -118 -28.167 -220.333 -84.5 -307s-158.166 -149.334 -305.499 -188.001l-9 37c96.667 30 172.834 70.167 228.501 120.5s92.834 119.833 111.501 208.5c-24.667 -30.667 -52.334 -54.5 -83.001 -71.5
s-63.334 -25.5 -98.001 -25.5c-46 0 -83.333 16.167 -112 48.5s-43 75.166 -43 128.499c0 38.667 8 77.167 24 115.5s40.833 70 74.5 95s75.5 37.5 125.5 37.5c57.333 0 100.166 -17.5 128.499 -52.5zM337.5 318.002c29.667 18.667 58.499 45.998 86.499 81.998
c2.66699 26 4 51 4 75c0 53.333 -10 93.5 -30 120.5s-51.667 40.5 -95 40.5c-42 0 -76.167 -11.167 -102.5 -33.5s-45.166 -49.666 -56.499 -81.999s-17 -64.166 -17 -95.499c0 -42 10.167 -75 30.5 -99s48.5 -36 84.5 -36c34 0 65.833 9.33301 95.5 28z" />
    <glyph glyph-name="colon" unicode=":" horiz-adv-x="196" 
d="M35.5 0c-7 7.33301 -10.5 16 -10.5 26c0 12.667 4.16699 23 12.5 31s18.5 12 30.5 12c11.333 0 20.333 -3.5 27 -10.5s10 -15.833 10 -26.5c0 -12 -4 -22.167 -12 -30.5s-18.333 -12.5 -31 -12.5c-10.667 0 -19.5 3.66699 -26.5 11zM91.5 398
c-7 7.33301 -10.5 16 -10.5 26c0 12.667 4.16699 23 12.5 31s18.5 12 30.5 12c11.333 0 20.333 -3.5 27 -10.5s10 -15.833 10 -26.5c0 -12 -4 -22.167 -12 -30.5s-18.333 -12.5 -31 -12.5c-10.667 0 -19.5 3.66699 -26.5 11z" />
    <glyph glyph-name="semicolon" unicode=";" horiz-adv-x="197" 
d="M94 58.5c6.66699 -7 10 -15.8311 10 -26.498c0 -7.33301 -1.5 -14.833 -4.5 -22.5s-7.83301 -17.834 -14.5 -30.501l-70 -125h-35l61 141c-11.333 6 -17 16.667 -17 32c0 11.333 4.16699 21.166 12.5 29.499s18.5 12.5 30.5 12.5c11.333 0 20.333 -3.5 27 -10.5z
M92.5 398.002c-7 7.33301 -10.5 16 -10.5 26c0 12.667 4.16699 23 12.5 31s18.5 12 30.5 12c11.333 0 20.333 -3.5 27 -10.5s10 -15.833 10 -26.5c0 -12 -4 -22.167 -12 -30.5s-18.333 -12.5 -31 -12.5c-10.667 0 -19.5 3.66699 -26.5 11z" />
    <glyph glyph-name="less" unicode="&#x3c;" horiz-adv-x="494" 
d="M444 521l14 -40l-336 -149l292 -152l-22 -38l-316 171l5 40z" />
    <glyph glyph-name="equal" unicode="=" horiz-adv-x="491" 
d="M91 394l6 42h347l-6 -42h-347zM66 225l6 42h347l-6 -42h-347z" />
    <glyph glyph-name="greater" unicode="&#x3e;" horiz-adv-x="494" 
d="M122 521l317 -168l-6 -40l-364 -171l-13 39l336 154l-293 147z" />
    <glyph glyph-name="question" unicode="?" horiz-adv-x="442" 
d="M400 659c26 -23.333 38.999 -53.001 38.999 -89.001c0 -29.333 -5.83301 -54.5 -17.5 -75.5s-26 -38.167 -43 -51.5s-39.167 -28.666 -66.5 -45.999c-24 -15.333 -42.667 -28.166 -56 -38.499s-24.666 -23 -33.999 -38s-14 -32.167 -14 -51.5c0 -12.667 2 -27.667 6 -45
l-42 -9c-6.66699 20 -10 38.667 -10 56c0 24.667 5.33301 46.167 16 64.5s23.667 33.666 39 45.999s36 26.5 62 42.5c25.333 16 45.333 29.833 60 41.5s27 26 37 43s15 37.167 15 60.5c0 26 -9.16699 46.833 -27.5 62.5s-43.5 23.5 -75.5 23.5
c-31.333 0 -59.833 -6.16699 -85.5 -18.5s-52.167 -31.833 -79.5 -58.5l-30 27c30.667 31.333 61.667 54 93 68s66.333 21 105 21c46.667 0 83 -11.667 109 -35zM154.499 -1.00098c-7 7.33301 -10.5 16 -10.5 26c0 12.667 4.16699 23 12.5 31s18.5 12 30.5 12
c11.333 0 20.333 -3.5 27 -10.5s10 -15.833 10 -26.5c0 -12 -4 -22.167 -12 -30.5s-18.333 -12.5 -31 -12.5c-10.667 0 -19.5 3.66699 -26.5 11z" />
    <glyph glyph-name="at" unicode="@" horiz-adv-x="1018" 
d="M772 650c54.667 -29.333 95.999 -69.5029 123.999 -120.503s42 -108.833 42 -173.5c0 -54.667 -7.66699 -108.167 -23 -160.5s-39.333 -95.833 -72 -130.5s-73.667 -52 -123 -52c-32 0 -57.167 10.167 -75.5 30.5s-28.5 47.166 -30.5 80.499
c-41.333 -72.667 -95 -109 -161 -109c-42 0 -76.333 14.833 -103 44.5s-40 71.5 -40 125.5c0 45.333 8.5 90.833 25.5 136.5s43.667 83.834 80 114.501s81.833 46 136.5 46c44.667 0 90.334 -12 137.001 -36l-36 -265c-2 -12.667 -3 -26 -3 -40c0 -60 23 -90 69 -90
c39.333 0 72 15.667 98 47s45 70.5 57 117.5s18 94.167 18 141.5c0 59.333 -12.333 111.333 -37 156s-61.167 79.334 -109.5 104.001s-106.166 37 -173.499 37c-101.333 0 -185.333 -24.667 -252 -74s-115.5 -110.666 -146.5 -183.999s-46.5 -146.333 -46.5 -219
c0 -67.333 14.333 -126.666 43 -177.999s69 -91 121 -119s112.333 -42 181 -42c36 0 69.333 2.83301 100 8.5s61.667 13.834 93 24.501l9 -39c-34.667 -11.333 -67.334 -20 -98.001 -26s-66 -9 -106 -9c-75.333 0 -142.5 15.667 -201.5 47s-105 75.666 -138 132.999
s-49.5 124 -49.5 200c0 78.667 17.167 157.667 51.5 237s88.333 145.833 162 199.5s166.5 80.5 278.5 80.5c78 0 144.333 -14.667 199 -44zM546.999 88.4971c26.667 23 47.001 50.499 61.001 82.499l36 251c-15.333 7.33301 -30 12.833 -44 16.5s-29.667 5.5 -47 5.5
c-46.667 0 -84.834 -13.833 -114.501 -41.5s-50.834 -61.667 -63.501 -102s-19 -80.166 -19 -119.499c0 -41.333 9 -72.833 27 -94.5s43 -32.5 75 -32.5c32.667 0 62.334 11.5 89.001 34.5z" />
    <glyph glyph-name="A" unicode="A" 
d="M454 0l-36 192h-296l-90 -192h-49l327 684h59l134 -684h-49zM142 234h268l-76 411z" />
    <glyph glyph-name="B" unicode="B" horiz-adv-x="592" 
d="M490.5 319.5c25.667 -23 38.501 -57.1689 38.501 -102.502c0 -37.333 -8.33301 -72.333 -25 -105s-44.834 -59.5 -84.501 -80.5s-91.5 -31.5 -155.5 -31.5h-187l97 684h162c64 0 114.167 -12.667 150.5 -38s54.5 -62.666 54.5 -111.999c0 -46.667 -14 -85.167 -42 -115.5
s-65.333 -49.166 -112 -56.499c43.333 -5.33301 77.833 -19.5 103.5 -42.5zM215.001 642.998l-36 -263h142c54.667 0 97 14.5 127 43.5s45 65.5 45 109.5c0 73.333 -51.333 110 -154 110h-124zM430.501 91.998c32.333 34 48.5 76 48.5 126c0 41.333 -13.5 72 -40.5 92
s-64.167 30 -111.5 30h-154l-41 -299h136c76 0 130.167 17 162.5 51z" />
    <glyph glyph-name="C" unicode="C" horiz-adv-x="545" 
d="M493.5 678.5c25.667 -10.333 49.5029 -25.833 71.5029 -46.5l-28 -29c-21.333 18 -42.166 30.833 -62.499 38.5s-44.5 11.5 -72.5 11.5c-64.667 0 -117.834 -20.333 -159.501 -61s-71.834 -91.167 -90.501 -151.5s-28 -120.5 -28 -180.5
c0 -74.667 16.667 -131.167 50 -169.5s78 -57.5 134 -57.5c33.333 0 62.166 4.83301 86.499 14.5s49.166 24.167 74.499 43.5l25 -35c-56.667 -44.667 -119.667 -67 -189 -67c-70 0 -125.833 23.667 -167.5 71s-62.5 114.333 -62.5 201c0 66.667 11.333 133.167 34 199.5
s58.5 121.833 107.5 166.5s110.5 67 184.5 67c36 0 66.833 -5.16699 92.5 -15.5z" />
    <glyph glyph-name="D" unicode="D" horiz-adv-x="626" 
d="M500 628.5c49.333 -37 74 -103.5 74 -199.5c0 -76 -11.833 -146.333 -35.5 -211s-62 -117.167 -115 -157.5s-121.167 -60.5 -204.5 -60.5h-142l97 684h131c80.667 0 145.667 -18.5 195 -55.5zM215 643l-83.001 -602.001h94c71.333 0 129.333 18.833 174 56.5
s76.834 85.834 96.501 144.501s29.5 121.334 29.5 188.001c0 83.333 -20.167 139.666 -60.5 168.999s-93.833 44 -160.5 44h-90z" />
    <glyph glyph-name="E" unicode="E" horiz-adv-x="502" 
d="M512 684l-12 -41h-285l-37 -266h247l-6 -41h-246l-42 -295h298l-7 -41h-345l97 684h338z" />
    <glyph glyph-name="F" unicode="F" horiz-adv-x="475" 
d="M506 684l-11 -41h-280l-38 -279h241l-6 -40h-241l-46 -324h-48l97 684h332z" />
    <glyph glyph-name="G" unicode="G" horiz-adv-x="612" 
d="M503 678c28.667 -10.667 55.3311 -27.002 79.998 -49.002l-31 -28c-22 18 -44.333 31.167 -67 39.5s-49 12.5 -79 12.5c-61.333 0 -113.166 -19.5 -155.499 -58.5s-74 -89 -95 -150s-31.5 -124.167 -31.5 -189.5c0 -74.667 16.833 -130.667 50.5 -168
s80.834 -56 141.501 -56c54.667 0 105.667 12.667 153 38l37 254h-137v42h190l-45 -321c-64.667 -36.667 -132 -55 -202 -55c-74 0 -132 23.167 -174 69.5s-63 113.5 -63 201.5c0 70.667 12.5 139.334 37.5 206.001s62.5 121.334 112.5 164.001s110.333 64 181 64
c36 0 68.333 -5.33301 97 -16z" />
    <glyph glyph-name="H" unicode="H" horiz-adv-x="665" 
d="M125 0h-48l97 684h47l-42 -303h341l42 303h48l-96 -684h-48l48 339h-341z" />
    <glyph glyph-name="I" unicode="I" horiz-adv-x="277" 
d="M221 684l-96 -684h-48l97 684h47z" />
    <glyph glyph-name="J" unicode="J" horiz-adv-x="285" 
d="M152 89c-6 -38.667 -14.999 -69.833 -26.999 -93.5s-29.333 -43.667 -52 -60s-54.334 -32.5 -95.001 -48.5l-11 36c32.667 14.667 58 29 76 43s31.667 31 41 51s16 46 20 78l83 589h48z" />
    <glyph glyph-name="K" unicode="K" horiz-adv-x="531" 
d="M77 0l97 684h48l-97 -684h-48zM438 0l-257 367l335 317h58l-338 -319l258 -365h-56z" />
    <glyph glyph-name="L" unicode="L" horiz-adv-x="465" 
d="M221 684l-89 -640h286l-13 -44h-328l97 684h47z" />
    <glyph glyph-name="M" unicode="M" horiz-adv-x="766" 
d="M658 0h-46l13 335c5.33301 153.333 10.333 255 15 305l-259 -558h-46l-107 557c-8 -42 -30.667 -142.667 -68 -302l-80 -337h-45l163 684h65l102 -546l250 546h70z" />
    <glyph glyph-name="N" unicode="N" horiz-adv-x="667" 
d="M516 0h-60l-250 639c-2 -52 -10.667 -130.333 -26 -235l-57 -404h-46l97 684h61l250 -638c3.33301 58 10.333 127.667 21 209l61 429h45z" />
    <glyph glyph-name="O" unicode="O" horiz-adv-x="689" 
d="M575 624.5c41.333 -46.333 62.002 -112.832 62.002 -199.499c0 -66.667 -10.833 -133.334 -32.5 -200.001s-57.167 -122.667 -106.5 -168s-112.333 -68 -189 -68c-72.667 0 -129.834 23.667 -171.501 71s-62.5 114.333 -62.5 201c0 64.667 11.167 130.167 33.5 196.5
s58.166 122.333 107.499 168s112 68.5 188 68.5c72.667 0 129.667 -23.167 171 -69.5zM241.502 590.501c-41.667 -41.667 -71.668 -92.835 -90.001 -153.502s-27.5 -120 -27.5 -178c0 -75.333 16.5 -132.166 49.5 -170.499s78.5 -57.5 136.5 -57.5
c67.333 0 121.833 21 163.5 63s71.167 93.333 88.5 154s26 120.334 26 179.001c0 75.333 -16.167 131.833 -48.5 169.5s-78.166 56.5 -137.499 56.5c-65.333 0 -118.833 -20.833 -160.5 -62.5z" />
    <glyph glyph-name="P" unicode="P" horiz-adv-x="565" 
d="M492 642c38 -28 57.001 -70.667 57.001 -128c0 -70 -21.833 -128 -65.5 -174s-115.834 -69 -216.501 -69h-104l-38 -271h-48l97 684h152c72.667 0 128 -14 166 -42zM448.001 369.5c34.667 37.667 52 85.833 52 144.5c0 46 -15 79 -45 99s-74.333 30 -133 30h-107
l-46 -330h102c83.333 0 142.333 18.833 177 56.5z" />
    <glyph glyph-name="Q" unicode="Q" horiz-adv-x="676" 
d="M615 259c-14.667 -56 -38.666 -106.332 -71.999 -150.999s-75.666 -75.334 -126.999 -92.001c78 -3.33301 139 -26 183 -68l-35 -38c-30.667 30.667 -65 51.5 -103 62.5s-88.667 16.5 -152 16.5c-72.667 0 -129.834 23.667 -171.501 71s-62.5 114.333 -62.5 201
c0 64.667 11.167 130.167 33.5 196.5s58.166 122.333 107.499 168s112 68.5 188 68.5c72.667 0 129.667 -23.167 171 -69.5s62 -112.833 62 -199.5c0 -54.667 -7.33301 -110 -22 -166zM173.501 88.001c33 -38 78.498 -57 136.498 -57c67.333 0 121.833 21.167 163.5 63.5
s71.167 93.833 88.5 154.5s26 121 26 181c0 74 -16.167 129.667 -48.5 167s-78.166 56 -137.499 56c-66 0 -119.667 -21 -161 -63s-71.166 -93.333 -89.499 -154s-27.5 -120.667 -27.5 -180c0 -74 16.5 -130 49.5 -168z" />
    <glyph glyph-name="R" unicode="R" horiz-adv-x="583" 
d="M502.5 396.5c-29.667 -38.333 -75.5 -64.167 -137.5 -77.5l145 -319h-53l-140 313h-148l-44 -313h-48l97 684h165c138.667 0 208 -52.333 208 -157c0 -48.667 -14.833 -92.167 -44.5 -130.5zM299 352.999c70 0 120.501 17.168 151.501 51.501s46.5 75.166 46.5 122.499
c0 39.333 -12.833 68.5 -38.5 87.5s-66.834 28.5 -123.501 28.5h-120l-41 -290h125z" />
    <glyph glyph-name="S" unicode="S" horiz-adv-x="535" 
d="M426 675c29.333 -12.667 56 -31.333 80 -56l-31 -29c-22 22 -44.833 38 -68.5 48s-51.167 15 -82.5 15c-50.667 0 -91.5 -12.5 -122.5 -37.5s-46.5 -57.5 -46.5 -97.5c0 -33.333 10.5 -59.5 31.5 -78.5s57.833 -36.833 110.5 -53.5
c58.667 -18.667 102 -41.834 130 -69.501s42 -65.5 42 -113.5c0 -35.333 -8.83301 -69.333 -26.5 -102s-45.167 -59.5 -82.5 -80.5s-83.666 -31.5 -138.999 -31.5c-44 0 -82.5 7.5 -115.5 22.5s-62.5 36.5 -88.5 64.5l32 29c22.667 -24 47.667 -42.333 75 -55
s59.666 -19 96.999 -19c45.333 0 83 8.33301 113 25s51.833 38 65.5 64s20.5 53.333 20.5 82c0 36 -10.833 64.833 -32.5 86.5s-58.5 41.5 -110.5 59.5c-61.333 20 -105 42.333 -131 67s-39 58.334 -39 101.001c0 31.333 8.5 60.5 25.5 87.5s42 48.833 75 65.5
s71.833 25 116.5 25c38.667 0 72.667 -6.33301 102 -19z" />
    <glyph glyph-name="T" unicode="T" horiz-adv-x="486" 
d="M535 684l-12 -44h-203l-90 -640h-48l90 640h-204l6 44h461z" />
    <glyph glyph-name="U" unicode="U" horiz-adv-x="647" 
d="M535 210c-9.33301 -67.333 -35 -120.999 -77 -160.999s-98.667 -60 -170 -60c-64.667 0 -113.167 15.833 -145.5 47.5s-48.5 75.167 -48.5 130.5c0 9.33301 1.33301 24.666 4 45.999l66 471h47l-65 -470c-2 -16 -3 -30.667 -3 -44c0 -44 12 -78 36 -102
s60.667 -36 110 -36c58.667 0 104.5 16.5 137.5 49.5s53.5 78.167 61.5 135.5l66 467h47z" />
    <glyph glyph-name="V" unicode="V" horiz-adv-x="541" 
d="M580 684l-319 -684h-55l-127 684h49l111 -636l291 636h50z" />
    <glyph glyph-name="W" unicode="W" horiz-adv-x="802" 
d="M829 684l-250 -684h-58l-68 632l-246 -632h-58l-57 684h47l47 -636l246 636h55l68 -638l228 638h46z" />
    <glyph glyph-name="X" unicode="X" horiz-adv-x="504" 
d="M521 684l-229 -314l162 -370h-51l-142 336l-233 -336h-53l260 369l-142 315h52l122 -282l201 282h53z" />
    <glyph glyph-name="Y" unicode="Y" horiz-adv-x="512" 
d="M555 684l-273 -415l-38 -269h-48l38 268l-159 416h51l136 -371l239 371h54z" />
    <glyph glyph-name="Z" unicode="Z" horiz-adv-x="512" 
d="M0 0l6 41l456 600h-334l6 43h389l-5 -40l-455 -601h362l-13 -43h-412z" />
    <glyph glyph-name="bracketleft" unicode="[" horiz-adv-x="314" 
d="M319 803l-5 -37h-110l-119 -840h110l-5 -37h-152l129 914h152z" />
    <glyph glyph-name="backslash" unicode="\" horiz-adv-x="518" 
d="M239 801l106 -889l-41 -10l-106 889z" />
    <glyph glyph-name="bracketright" unicode="]" horiz-adv-x="314" 
d="M300 803l-129 -914h-152l5 37h110l118 840h-109l5 37h152z" />
    <glyph glyph-name="asciicircum" unicode="^" horiz-adv-x="526" 
d="M362 830l140 -303h-53l-111 254l-184 -254h-54l225 303h37z" />
    <glyph glyph-name="underscore" unicode="_" horiz-adv-x="518" 
d="M-20 -115l5 42h455l-6 -42h-454z" />
    <glyph glyph-name="grave" unicode="`" horiz-adv-x="262" 
d="M122 776l169 -101l-17 -27l-178 84z" />
    <glyph glyph-name="a" unicode="a" horiz-adv-x="556" 
d="M410.5 521.5c24.333 -7 49.835 -17.5 76.502 -31.5l-55 -378c-2 -12.667 -3 -24 -3 -34c0 -14 2.5 -25.5 7.5 -34.5s13.833 -15.833 26.5 -20.5l-13 -34c-20.667 6 -36.334 15 -47.001 27s-16 30.333 -16 55l1 15c-20.667 -30 -44.834 -53.667 -72.501 -71
s-57.834 -26 -90.501 -26c-51.333 0 -91.5 18 -120.5 54s-43.5 85.667 -43.5 149c0 52 9.16699 104.167 27.5 156.5s47.333 96 87 131s89.834 52.5 150.501 52.5c32 0 60.167 -3.5 84.5 -10.5zM203.502 447c-32.333 -31.333 -55.999 -70.168 -70.999 -116.501
s-22.5 -92.166 -22.5 -137.499c0 -53.333 10.5 -94 31.5 -122s50.5 -42 88.5 -42c32 0 61.167 9.83301 87.5 29.5s51.166 48.5 74.499 86.5l46 322c-32 18 -69 27 -111 27c-50 0 -91.167 -15.667 -123.5 -47z" />
    <glyph glyph-name="b" unicode="b" horiz-adv-x="569" 
d="M468 482c27.333 -33.333 41.0029 -81.667 41.0029 -145c0 -53.333 -8.83301 -106.5 -26.5 -159.5s-46.334 -97.667 -86.001 -134s-90.834 -54.5 -153.501 -54.5c-28.667 0 -55.334 2.66699 -80.001 8s-53.667 14 -87 26l101 712l46 6l-40 -290c50.667 54 107 81 169 81
c50 0 88.667 -16.667 116 -50zM256.003 468.999c-26 -16 -52.668 -39 -80.001 -69l-48 -348c18 -8 35.833 -13.833 53.5 -17.5s38.5 -5.5 62.5 -5.5c52 0 94.333 16.5 127 49.5s56 73.167 70 120.5s21 94 21 140c0 51.333 -10.167 89.833 -30.5 115.5
s-49.166 38.5 -86.499 38.5c-33.333 0 -63 -8 -89 -24z" />
    <glyph glyph-name="c" unicode="c" horiz-adv-x="465" 
d="M457 480l-27.002 -29.001c-15.333 14 -31.833 24.5 -49.5 31.5s-38.167 10.5 -61.5 10.5c-48.667 0 -88.667 -15.5 -120 -46.5s-54 -69.333 -68 -115s-21 -90.5 -21 -134.5c0 -55.333 12.333 -96.833 37 -124.5s59 -41.5 103 -41.5s87.667 15 131 45l21 -33
c-46.667 -36 -98 -54 -154 -54c-57.333 0 -102.666 18.333 -135.999 55s-50 88.334 -50 155.001c0 50 9 100.667 27 152s46.333 94.333 85 129s87.334 52 146.001 52c56 0 101.667 -17.333 137 -52z" />
    <glyph glyph-name="d" unicode="d" horiz-adv-x="574" 
d="M532 735l-104.005 -735h-39l9 113c-47.333 -82.667 -106.666 -124 -177.999 -124c-49.333 0 -88.166 18.167 -116.499 54.5s-42.5 86.5 -42.5 150.5c0 50.667 8.33301 102 25 154s43.334 95.667 80.001 131s83.334 53 140.001 53c62.667 0 109.334 -24.667 140.001 -74
l40 283zM196.495 446c-30.333 -31.333 -52.3301 -70 -65.9971 -116s-20.5 -91.667 -20.5 -137c0 -52.667 10.167 -93.167 30.5 -121.5s48.833 -42.5 85.5 -42.5c37.333 0 69.666 12.667 96.999 38s55.666 63 84.999 113l32 232c-28.667 54 -71.334 81 -128.001 81
c-46.667 0 -85.167 -15.667 -115.5 -47z" />
    <glyph glyph-name="e" unicode="e" horiz-adv-x="512" 
d="M382.5 268.5c-63.667 -31.667 -154.5 -51.501 -272.5 -59.501v-10c0 -57.333 12.5 -99.833 37.5 -127.5s59.167 -41.5 102.5 -41.5c28 0 53.5 4.33301 76.5 13s47.5 22.334 73.5 41.001l22 -33c-28 -20.667 -56 -36.167 -84 -46.5s-58 -15.5 -90 -15.5
c-58.667 0 -104.334 18.167 -137.001 54.5s-49 87.833 -49 154.5c0 52.667 9.66699 104.667 29 156s48.833 93.833 88.5 127.5s88.834 50.5 147.501 50.5c46.667 0 83.5 -11.5 110.5 -34.5s40.5 -52.5 40.5 -88.5c0 -62 -31.833 -108.833 -95.5 -140.5zM216.5 457.499
c-30.333 -23.667 -54.001 -54.167 -71.001 -91.5s-27.833 -77 -32.5 -119c106 7.33301 185.333 24 238 50s79 62.667 79 110c0 25.333 -8.66699 46 -26 62s-43 24 -77 24c-43.333 0 -80.166 -11.833 -110.499 -35.5z" />
    <glyph glyph-name="f" unicode="f" horiz-adv-x="315" 
d="M208 609l-11.998 -86.999h141l-11 -39h-136l-65 -470c-6 -44.667 -15.167 -79.834 -27.5 -105.501s-28.333 -46 -48 -61s-47.167 -30.5 -82.5 -46.5l-15 35c27.333 13.333 49 26.333 65 39s29.167 30 39.5 52s18.166 51.667 23.499 89l65 468h-90l6 39h89l13 91
c6 40.667 22.667 72.167 50 94.5s62.666 33.5 105.999 33.5c20.667 0 40.334 -2.83301 59.001 -8.5s37.667 -14.5 57 -26.5l-20 -32c-17.333 10 -33.333 17.167 -48 21.5s-30.334 6.5 -47.001 6.5c-66 0 -103.333 -31 -112 -93z" />
    <glyph glyph-name="g" unicode="g" horiz-adv-x="563" 
d="M414 521.5c24.667 -7 50.3311 -17.501 76.998 -31.501l-71 -488c-10.667 -72.667 -34.5 -125 -71.5 -157s-83.5 -48 -139.5 -48c-58 0 -114.667 16 -170 48l19 34c24 -13.333 48 -23.833 72 -31.5s50 -11.5 78 -11.5c43.333 0 79.833 12.667 109.5 38s48.5 67 56.5 125
l14 95c-20 -29.333 -43.833 -52.333 -71.5 -69s-57.5 -25 -89.5 -25c-51.333 0 -91.666 18.333 -120.999 55s-44 86.334 -44 149.001c0 50 9.33301 100.167 28 150.5s48 92.5 88 126.5s90 51 150 51c32.667 0 61.334 -3.5 86.001 -10.5zM204.997 447.999
c-32.667 -30.667 -56.6689 -68.5 -72.002 -113.5s-22.666 -89.5 -21.999 -133.5c0 -51.333 10.667 -91 32 -119s51 -42 89 -42c62.667 0 117.334 38 164.001 114l45 313c-32 18 -69.333 27 -112 27c-50 0 -91.333 -15.333 -124 -46z" />
    <glyph glyph-name="h" unicode="h" horiz-adv-x="582" 
d="M464 500c20.667 -21.333 30.999 -51.999 30.999 -91.999c0 -11.333 -1 -24 -3 -38l-52 -370h-46l52 367c2 13.333 3 25.666 3 36.999c0 59.333 -27.667 89 -83 89c-38.667 0 -74.667 -16 -108 -48s-65.333 -76.333 -96 -133l-44 -312h-46l104 735l47 6l-51 -357
c26 46.667 56.333 83 91 109s71.334 39 110.001 39c40 0 70.333 -10.667 91 -32z" />
    <glyph glyph-name="i" unicode="i" horiz-adv-x="265" 
d="M192 522l-74 -522h-46l74 522h46zM169 682.5c-6 5.66699 -8.99902 13.167 -8.99902 22.5c0 11.333 3.66699 20.666 11 27.999s16.666 11 27.999 11c10 0 17.833 -2.83301 23.5 -8.5s8.5 -13.167 8.5 -22.5c0 -11.333 -3.66699 -20.666 -11 -27.999s-16.333 -11 -27 -11
c-10 0 -18 2.83301 -24 8.5z" />
    <glyph glyph-name="j" unicode="j" horiz-adv-x="266" 
d="M-51 -166c27.333 13.333 48.835 26.5 64.502 39.5s28.667 30.5 39 52.5s18.166 51.667 23.499 89l71 507h46l-72 -509c-6 -44.667 -15.333 -79.834 -28 -105.501s-28.834 -46.167 -48.501 -61.5s-47.167 -30.666 -82.5 -45.999zM170.002 682.5
c-6 5.66699 -8.99902 13.167 -8.99902 22.5c0 11.333 3.66699 20.666 11 27.999s16.666 11 27.999 11c10 0 17.833 -2.83301 23.5 -8.5s8.5 -13.167 8.5 -22.5c0 -11.333 -3.66699 -20.666 -11 -27.999s-16.333 -11 -27 -11c-10 0 -18 2.83301 -24 8.5z" />
    <glyph glyph-name="k" unicode="k" horiz-adv-x="515" 
d="M172 381c28 52 59.001 90.168 93.001 114.501s70 36.5 108 36.5c35.333 0 63.666 -9.66699 84.999 -29s32 -46 32 -80c0 -42.667 -15 -79.834 -45 -111.501s-73.667 -56.5 -131 -74.5l119 -237h-51l-124 253c122 33.333 183 89 183 167c0 49.333 -25.667 74 -77 74
c-38 0 -74.167 -16.667 -108.5 -50s-65.833 -81 -94.5 -143l-43 -301h-46l104 735l47 6z" />
    <glyph glyph-name="l" unicode="l" horiz-adv-x="280" 
d="M126 83c-0.666992 -4 -1 -9.33301 -1 -16c0 -12.667 2.83301 -22 8.5 -28s14.834 -9 27.501 -9c11.333 0 24.333 2.66699 39 8l11 -36c-18.667 -8.66699 -37.334 -13 -56.001 -13c-24 0 -42.667 6.33301 -56 19s-20 31.667 -20 57c0 4 0.666992 12 2 24l91 646l46 6z" />
    <glyph glyph-name="m" unicode="m" horiz-adv-x="849" 
d="M734.5 499.5c19 -21.667 28.501 -52.1689 28.501 -91.502c0 -11.333 -1 -23.666 -3 -36.999l-53 -371h-46l52 367c2 14 3 26.667 3 38c0 58.667 -24.333 88 -73 88c-33.333 0 -65 -15.667 -95 -47s-60.333 -75.333 -91 -132l-44 -314h-46l52 367c2 13.333 3 25.333 3 36
c0 60 -24.333 90 -73 90c-33.333 0 -65 -15.667 -95 -47s-60.667 -76 -92 -134l-44 -312h-46l74 522h39l-15 -140c55.333 100 118.666 150 189.999 150c35.333 0 62.666 -12 81.999 -36s27.666 -58 24.999 -102c26.667 44.667 55.834 78.834 87.501 102.501
s64.834 35.5 99.501 35.5s61.5 -10.833 80.5 -32.5z" />
    <glyph glyph-name="n" unicode="n" horiz-adv-x="581" 
d="M463.5 499.5c21 -21.667 31.5 -52.5 31.5 -92.5c0 -12 -1 -24.667 -3 -38l-52 -369h-46l52 367c2 13.333 3 25 3 35c0 60.667 -27.667 91 -83 91c-70.667 0 -138.667 -60.333 -204 -181l-44 -312h-46l74 522h39l-15 -140c26.667 48 57.5 85 92.5 111s72.167 39 111.5 39
c38.667 0 68.5 -10.833 89.5 -32.5z" />
    <glyph glyph-name="o" unicode="o" horiz-adv-x="566" 
d="M111 44.5c-32.667 37 -48.999 88.501 -48.999 154.501c0 50 8.66699 100.5 26 151.5s45.333 94 84 129s88 52.5 148 52.5c58.667 0 104.167 -18 136.5 -54s48.5 -87 48.5 -153c0 -49.333 -8.5 -99.833 -25.5 -151.5s-44.833 -95.334 -83.5 -131.001
s-88.334 -53.5 -149.001 -53.5c-58 0 -103.333 18.5 -136 55.5zM369.001 77.001c31.333 31.333 53.834 69.832 67.501 115.499s20.5 90.5 20.5 134.5c0 54 -12 95.167 -36 123.5s-58 42.5 -102 42.5c-50 0 -90.5 -16 -121.5 -48s-53.333 -70.667 -67 -116
s-20.5 -89.666 -20.5 -132.999c0 -54 12 -95.167 36 -123.5s58 -42.5 102 -42.5c49.333 0 89.666 15.667 120.999 47z" />
    <glyph glyph-name="p" unicode="p" horiz-adv-x="569" 
d="M146 522l40.001 -0.000976562l-6 -74c52 56 109 84 171 84c50 0 88.667 -16.667 116 -50s41 -81.666 41 -144.999c0 -53.333 -8.66699 -106.5 -26 -159.5s-45.833 -97.667 -85.5 -134s-90.834 -54.5 -153.501 -54.5c-42.667 0 -83.667 7.66699 -123 23l-30 -209l-46 -6z
M370.001 78.499c32.667 33 56 73.167 70 120.5s21 94 21 140c0 102.667 -39 154 -117 154c-33.333 0 -63 -8 -89 -24s-52.333 -39 -79 -69l-49 -348c18 -8 35.833 -13.833 53.5 -17.5s38.5 -5.5 62.5 -5.5c52 0 94.333 16.5 127 49.5z" />
    <glyph glyph-name="q" unicode="q" horiz-adv-x="563" 
d="M387 82c-19.333 -28 -43 -50.5 -71 -67.5s-58.333 -25.5 -91 -25.5c-51.333 0 -91.5 18 -120.5 54s-43.5 85.667 -43.5 149c0 52 9.16699 104.167 27.5 156.5s47.333 96 87 131s89.834 52.5 150.501 52.5c32 0 60.667 -3.5 86 -10.5s51.666 -17.5 78.999 -31.5l-98 -687
l-46 -6zM395 145l46 321.998c-32 18 -70 27 -114 27c-50 0 -91.167 -15.667 -123.5 -47s-56 -70.166 -71 -116.499s-22.5 -92.166 -22.5 -137.499c0 -53.333 10.5 -94 31.5 -122s50.5 -42 88.5 -42c62 0 117 38.667 165 116z" />
    <glyph glyph-name="r" unicode="r" horiz-adv-x="368" 
d="M391 525l-13 -42.001c-14.667 4 -28.334 6 -41.001 6c-38 0 -70.333 -15.333 -97 -46s-52.667 -76.667 -78 -138l-44 -305h-46l74 522h40l-16 -134c20.667 46.667 44.834 82.334 72.501 107.001s60.5 37 98.5 37c19.333 0 36 -2.33301 50 -7z" />
    <glyph glyph-name="s" unicode="s" horiz-adv-x="461" 
d="M344 518c25.333 -9.33301 49 -23.6709 71 -43.0039l-25 -28c-20 15.333 -40.333 26.833 -61 34.5s-44 11.5 -70 11.5c-39.333 0 -70.833 -8.5 -94.5 -25.5s-35.5 -40.5 -35.5 -70.5c0 -23.333 8.5 -42.666 25.5 -57.999s47.5 -29.666 91.5 -42.999
c52 -16.667 89.333 -36.5 112 -59.5s34 -52.833 34 -89.5c0 -46 -17.333 -83.833 -52 -113.5s-83.334 -44.5 -146.001 -44.5c-40 0 -74.333 6.16699 -103 18.5s-54.667 29.166 -78 50.499l27 28c22.667 -18.667 46 -32.667 70 -42s51.667 -14 83 -14
c46.667 0 83.5 9.83301 110.5 29.5s40.5 47.834 40.5 84.501c0 28.667 -8.66699 51.334 -26 68.001s-49.666 32.334 -96.999 47.001c-52 16 -88.167 34.667 -108.5 56s-30.5 48.333 -30.5 81c0 25.333 7.33301 48.333 22 69s35.334 37 62.001 49s57.667 18 93 18
c31.333 0 59.666 -4.66699 84.999 -14z" />
    <glyph glyph-name="t" unicode="t" horiz-adv-x="333" 
d="M134 125c-1.33301 -13.333 -2 -22.334 -2 -27.001c0 -45.333 22.333 -68 67 -68c25.333 0 54.666 8.33301 87.999 25l17 -34c-35.333 -21.333 -72 -32 -110 -32c-33.333 0 -59.666 9.16699 -78.999 27.5s-29 44.5 -29 78.5c0 12.667 0.666992 22.334 2 29.001l51 359h-88
l6 39h88l27 128l36 4l-18 -132h137l-11 -39h-132z" />
    <glyph glyph-name="u" unicode="u" horiz-adv-x="577" 
d="M119 22.5c-21.333 22.333 -31.999 53.499 -31.999 93.499c0 15.333 0.666992 27 2 35l52 371h46l-52 -370c-1.33301 -8 -2 -19 -2 -33c0 -60 27.667 -90 83 -90c39.333 0 75.666 16.333 108.999 49s63 76.334 89 131.001l44 313h46l-74 -522h-37l16 145
c-23.333 -48 -52 -86 -86 -114s-72 -42 -114 -42c-38.667 0 -68.667 11.167 -90 33.5z" />
    <glyph glyph-name="v" unicode="v" horiz-adv-x="461" 
d="M481 522l-255 -522h-58l-114 522h50l98 -481l227 481h52z" />
    <glyph glyph-name="w" unicode="w" horiz-adv-x="690" 
d="M700 522l-204 -522h-61l-57 478l-192 -478h-62l-59 522h45l52 -484l195 484h55l58 -485l184 485h46z" />
    <glyph glyph-name="x" unicode="x" horiz-adv-x="448" 
d="M449 522l-195 -246l145 -276h-52l-124 249l-193 -249h-55l224 281l-125 241h50l106 -214l165 214h54z" />
    <glyph glyph-name="y" unicode="y" horiz-adv-x="458" 
d="M226 -4c-28 -59.333 -58.499 -103.667 -91.499 -133s-79.5 -50.666 -139.5 -63.999l-3 37c36 9.33301 64.667 20.5 86 33.5s39.166 29.167 53.499 48.5s30.833 46.666 49.5 81.999h-18l-109 522h49l96 -487l229 487h50z" />
    <glyph glyph-name="z" unicode="z" horiz-adv-x="416" 
d="M418 522l-5 -37l-357 -444h290l-10 -41h-345l6 37l357 444h-270l6 41h328z" />
    <glyph glyph-name="braceleft" unicode="{" horiz-adv-x="326" 
d="M331 790c-30 0 -52.666 -6.8291 -67.999 -20.4961s-25.333 -34.834 -30 -63.501l-36 -258c-4 -32.667 -12.667 -55.834 -26 -69.501s-34 -23.834 -62 -30.501c21.333 -4.66699 37 -12.334 47 -23.001s15 -27 15 -49c0 -12 -0.666992 -21.333 -2 -28l-37 -258
c-0.666992 -5.33301 -1 -12.333 -1 -21c0 -21.333 5.66699 -36.833 17 -46.5s30 -14.5 56 -14.5l-2 -35c-36.667 0 -64.834 7.83301 -84.501 23.5s-29.5 39.5 -29.5 71.5c0 4 0.666992 12 2 24l38 266c0.666992 4 1 9.33301 1 16c0 20 -5.83301 34.167 -17.5 42.5
s-29.167 12.5 -52.5 12.5l5 40c52.667 0 82.667 25 90 75l37 266c6 40.667 20.167 70.167 42.5 88.5s55.5 27.5 99.5 27.5z" />
    <glyph glyph-name="bar" unicode="|" horiz-adv-x="407" 
d="M301 803l-126 -903h-44l126 903h44z" />
    <glyph glyph-name="braceright" unicode="}" horiz-adv-x="325" 
d="M19 -92c30.667 0 53.498 6.83203 68.498 20.499s24.833 35.167 29.5 64.5l36 258c4 32.667 12.833 55.667 26.5 69s34.5 23.333 62.5 30c-21.333 4.66699 -37.166 12.334 -47.499 23.001s-15.5 27.334 -15.5 50.001c0 11.333 0.666992 20.666 2 27.999l37 258
c1.33301 10.667 2 18.334 2 23.001c0 20 -5.83301 34.667 -17.5 44s-30.5 14 -56.5 14l2 36c36 0 64 -8 84 -24s30 -40 30 -72c0 -4.66699 -0.666992 -12.334 -2 -23.001l-38 -266c-0.666992 -4 -1 -9.66699 -1 -17c0 -20 5.83301 -34 17.5 -42s29.5 -12 53.5 -12l-5 -41
c-53.333 0 -83.666 -24.667 -90.999 -74l-37 -266c-6 -40.667 -20.5 -70.167 -43.5 -88.5s-55.833 -27.5 -98.5 -27.5z" />
    <glyph glyph-name="asciitilde" unicode="~" horiz-adv-x="464" 
d="M273.5 276c-12.333 5.33301 -26.501 12.999 -42.501 22.999c-13.333 8.66699 -24.833 15.167 -34.5 19.5s-19.167 6.5 -28.5 6.5c-16 0 -29.5 -3.66699 -40.5 -11s-23.5 -18.666 -37.5 -33.999l-28 19c17.333 22 34 38.667 50 50s35.333 17 58 17
c14.667 0 27.834 -2.66699 39.501 -8s25.834 -13 42.501 -23c13.333 -8.66699 24.666 -15 33.999 -19s19 -6 29 -6c15.333 0 28.333 3.66699 39 11s22.667 18.333 36 33l28 -19c-16.667 -22 -33 -38.667 -49 -50s-34.667 -17 -56 -17c-14 0 -27.167 2.66699 -39.5 8z" />
    <glyph glyph-name="uni00A0" unicode="&#xa0;" horiz-adv-x="283" 
 />
    <glyph glyph-name="exclamdown" unicode="&#xa1;" horiz-adv-x="239" 
d="M117.5 398c-7 7.33301 -10.5 16 -10.5 26c0 12.667 4.16699 23 12.5 31s18.5 12 30.5 12c11.333 0 20.333 -3.5 27 -10.5s10 -15.833 10 -26.5c0 -12 -4 -22.167 -12 -30.5s-18.333 -12.5 -31 -12.5c-10.667 0 -19.5 3.66699 -26.5 11zM143 250l-60 -445h-48l65 445h43z
" />
    <glyph glyph-name="cent" unicode="&#xa2;" horiz-adv-x="465" 
d="M199 446.5c-31.333 -31 -53.999 -69.334 -67.999 -115.001s-21 -90.5 -21 -134.5c0 -55.333 12.333 -96.833 37 -124.5s59 -41.5 103 -41.5s87.667 15 131 45l21 -33c-44.667 -35.333 -94 -53.333 -148 -54l-20 -138h-40l19 141
c-47.333 7.33301 -84.333 28.833 -111 64.5s-40 83.167 -40 142.5c0 46.667 8 94.334 24 143.001s41 90.667 75 126s77 56 129 62l21 149h40l-21 -147c51.333 -2 93.666 -19.333 126.999 -52l-27 -29c-15.333 14 -31.833 24.5 -49.5 31.5s-38.167 10.5 -61.5 10.5
c-48.667 0 -88.667 -15.5 -120 -46.5z" />
    <glyph glyph-name="sterling" unicode="&#xa3;" horiz-adv-x="504" 
d="M443.5 656.5c23.667 -12.333 44.498 -30.832 62.498 -55.499l-32 -23c-15.333 20 -31.666 34.5 -48.999 43.5s-39 13.5 -65 13.5c-40 0 -72.333 -12.333 -97 -37s-40 -57.334 -46 -98.001l-18 -129h216l-6 -36h-215l-24 -177c-4.66699 -32 -13.167 -56.333 -25.5 -73
s-31.833 -31.334 -58.5 -44.001h329l-12 -41h-386l5 40c34 14.667 58.333 30.334 73 47.001s24.334 41 29.001 73l24 175h-65l5 36h66l18 132c7.33301 50.667 27.166 92 59.499 124s74.833 48 127.5 48c32.667 0 60.834 -6.16699 84.501 -18.5z" />
    <glyph glyph-name="currency" unicode="&#xa4;" 
d="M424 214l80.001 -78.001l-29 -30l-81 80c-31.333 -24 -69.333 -36 -114 -36c-44 0 -82 12.333 -114 37l-81 -81l-29 30l81 80c-27.333 34.667 -41 76.334 -41 125.001s13.667 89.667 41 123l-81 80l29 30l81 -81c32 25.333 70 38 114 38c45.333 0 83.666 -12 114.999 -36
l80 79l29 -30l-79 -78c27.333 -34.667 41 -76.334 41 -125.001c0 -49.333 -14 -91.666 -42 -126.999zM177.001 230.999c24 -27.333 58.667 -41 104 -41s80 13.667 104 41s36 64 36 110s-12 82.667 -36 110s-58.667 41 -104 41s-80 -13.667 -104 -41s-36 -64 -36 -110
s12 -82.667 36 -110z" />
    <glyph glyph-name="yen" unicode="&#xa5;" horiz-adv-x="502" 
d="M542 664l-239 -328h117l-5 -37h-133l-16 -107h134l-5 -38h-134l-22 -154h-48l22 154h-134l5 38h134l16 107h-135l6 37h117l-150 328h53l139 -320l227 320h51z" />
    <glyph glyph-name="brokenbar" unicode="&#xa6;" horiz-adv-x="407" 
d="M301 803l-50 -360h-44l50 360h44zM225 262l-50 -362h-44l50 362h44z" />
    <glyph glyph-name="section" unicode="&#xa7;" horiz-adv-x="531" 
d="M229.5 608.5c-20.333 -18.333 -30.502 -41.168 -30.502 -68.501c0 -24 8 -43.5 24 -58.5s46.667 -30.5 92 -46.5c47.333 -17.333 81.333 -36.333 102 -57s31 -46.667 31 -78c0 -29.333 -7.66699 -54.666 -23 -75.999s-41 -42.333 -77 -63c30 -22 45 -51.667 45 -89
c0 -24.667 -6.5 -47.5 -19.5 -68.5s-33.167 -38 -60.5 -51s-61.666 -19.5 -102.999 -19.5c-58.667 0 -111 15.333 -157 46l23 33c37.333 -26.667 82.333 -40 135 -40c48 0 82.5 9.5 103.5 28.5s31.5 42.5 31.5 70.5c0 22.667 -8 41.334 -24 56.001s-45 29.667 -87 45
c-51.333 19.333 -87.5 38.833 -108.5 58.5s-31.5 45.167 -31.5 76.5c0 29.333 8.16699 55.166 24.5 77.499s42.5 43.5 78.5 63.5c-16 12 -27.5 25.167 -34.5 39.5s-10.5 31.166 -10.5 50.499c0 39.333 15.5 71.833 46.5 97.5s73.167 38.5 126.5 38.5
c31.333 0 59 -4.16699 83 -12.5s47.333 -20.166 70 -35.499l-23 -30c-20.667 13.333 -41.167 23.333 -61.5 30s-43.166 10 -68.499 10c-44 0 -76.167 -9.16699 -96.5 -27.5zM379.498 353.998c-15 16 -42.167 31 -81.5 45c-23.333 8 -47 18.333 -71 31
c-31.333 -19.333 -53.5 -38.166 -66.5 -56.499s-19.5 -39.5 -19.5 -63.5c0 -22.667 7.83301 -41.5 23.5 -56.5s44.5 -30.167 86.5 -45.5c25.333 -8.66699 48 -18.334 68 -29.001c32 20 53.833 39 65.5 57s17.5 38.333 17.5 61c0 22 -7.5 41 -22.5 57z" />
    <glyph glyph-name="dieresis" unicode="&#xa8;" horiz-adv-x="309" 
d="M100.5 674c-5.66699 5.33301 -8.49902 12.333 -8.49902 21c0 10.667 3.5 19.5 10.5 26.5s15.833 10.5 26.5 10.5c9.33301 0 16.833 -2.66699 22.5 -8s8.5 -12.333 8.5 -21c0 -10.667 -3.66699 -19.5 -11 -26.5s-16.333 -10.5 -27 -10.5
c-8.66699 0 -15.834 2.66699 -21.501 8zM281.501 674c-5.66699 5.33301 -8.5 12.333 -8.5 21c0 10.667 3.5 19.5 10.5 26.5s15.833 10.5 26.5 10.5c9.33301 0 16.833 -2.66699 22.5 -8s8.5 -12.333 8.5 -21c0 -10.667 -3.5 -19.5 -10.5 -26.5s-15.833 -10.5 -26.5 -10.5
c-9.33301 0 -16.833 2.66699 -22.5 8z" />
    <glyph glyph-name="copyright" unicode="&#xa9;" horiz-adv-x="810" 
d="M578.5 694c44.333 -25.333 79.166 -60.5 104.499 -105.5s38 -96.167 38 -153.5c0 -56.667 -12.667 -107.667 -38 -153s-60.166 -80.666 -104.499 -105.999s-93.833 -38 -148.5 -38s-104.167 12.667 -148.5 38s-79.166 60.5 -104.499 105.5s-38 96.167 -38 153.5
c0 56.667 12.667 107.667 38 153s60.166 80.666 104.499 105.999s93.833 38 148.5 38s104.167 -12.667 148.5 -38zM300.5 664c-38.333 -22 -68.332 -53 -89.999 -93s-32.5 -85.333 -32.5 -136c0 -51.333 10.833 -96.833 32.5 -136.5s51.667 -70.5 90 -92.5
s81.833 -33 130.5 -33c47.333 0 90.166 11 128.499 33s68.333 53 90 93s32.5 85.333 32.5 136c0 51.333 -10.833 96.833 -32.5 136.5s-51.5 70.5 -89.5 92.5s-81 33 -129 33c-48.667 0 -92.167 -11 -130.5 -33zM483.501 604c15 -5.33301 29.8301 -13.334 44.4971 -24.001
l-21 -28c-11.333 8.66699 -22.666 14.834 -33.999 18.501s-25 5.5 -41 5.5c-26.667 0 -50.167 -11.167 -70.5 -33.5s-30.5 -57.833 -30.5 -106.5c0 -46 9.33301 -81 28 -105s43.334 -36 74.001 -36c17.333 0 32.333 2.5 45 7.5s25.334 12.167 38.001 21.5l19 -29
c-29.333 -24.667 -63.666 -37 -102.999 -37c-42.667 0 -77.334 16 -104.001 48s-40 75.333 -40 130c0 38.667 6.83301 71.167 20.5 97.5s31.5 46 53.5 59s45 19.5 69 19.5c20 0 37.5 -2.66699 52.5 -8z" />
    <glyph glyph-name="ordfeminine" unicode="&#xaa;" horiz-adv-x="505" 
d="M130.5 305c-20.333 20 -30.498 45.998 -30.498 77.998c0 40 15.833 72.833 47.5 98.5s78.5 38.5 140.5 38.5h84l5 37c1.33301 10.667 2 18.334 2 23.001c0 23.333 -6.66699 40 -20 50s-33.666 15 -60.999 15c-36.667 0 -76 -7.66699 -118 -23l-11 36
c50 17.333 95 26 135 26c39.333 0 69.166 -8.33301 89.499 -25s30.5 -41.667 30.5 -75c0 -4.66699 -0.666992 -13 -2 -25l-25 -188c-0.666992 -3.33301 -1.33398 -7.16602 -2.00098 -11.499s-1 -8.83301 -1 -13.5c0 -20 8.66699 -33.333 26 -40l-13 -31
c-17.333 4 -30.333 10.667 -39 20s-13.667 24.333 -15 45c-18.667 -22.667 -39.334 -39.167 -62.001 -49.5s-48 -15.5 -76 -15.5c-36 0 -64.167 10 -84.5 30zM295.002 331.998c22.667 12.667 41.999 30.333 57.999 53l14 100h-79c-48 0 -83.5 -9 -106.5 -27
s-34.5 -42.667 -34.5 -74c0 -22.667 6.5 -40.167 19.5 -52.5s31.167 -18.5 54.5 -18.5c26.667 0 51.334 6.33301 74.001 19zM42.001 -0.00292969l6 42h347l-6 -42h-347z" />
    <glyph glyph-name="guillemotleft" unicode="&#xab;" horiz-adv-x="547" 
d="M269 514l29 -19l-167 -207l109 -207l-31 -19l-130 210l3 31zM474 514l29 -19l-167 -207l109 -207l-31 -19l-130 210l3 31z" />
    <glyph glyph-name="logicalnot" unicode="&#xac;" horiz-adv-x="498" 
d="M437 340l-22 -162h-47l17 121h-308l5 41h355z" />
    <glyph glyph-name="uni00AD" unicode="&#xad;" horiz-adv-x="398" 
d="M74 292l6 42h258l-6 -42h-258z" />
    <glyph glyph-name="registered" unicode="&#xae;" horiz-adv-x="639" 
d="M472 701.5c36 -20.333 64.5 -48.333 85.5 -84s31.5 -75.167 31.5 -118.5c0 -42.667 -10.5 -82 -31.5 -118s-49.5 -64.667 -85.5 -86s-75.667 -32 -119 -32s-83 10.167 -119 30.5s-64.333 48.333 -85 84s-31 75.167 -31 118.5c0 42.667 10.333 82 31 118s49 64.667 85 86
s75.667 32 119 32s83 -10.167 119 -30.5zM454 322c30.667 18 54.8301 42.499 72.4971 73.499s26.5 65.5 26.5 103.5s-8.66699 72.333 -26 103s-41.333 54.667 -72 72s-64.667 26 -102 26c-36.667 0 -70.167 -9 -100.5 -27s-54.5 -42.667 -72.5 -74s-27 -65.666 -27 -102.999
c0 -38 8.83301 -72.333 26.5 -103s41.834 -54.667 72.501 -72s64.334 -26 101.001 -26s70.334 9 101.001 27zM385.996 483.999l74 -118h-44l-66 113h-40v-113h-37v270h66c37.333 0 65 -6.5 83 -19.5s27 -33.167 27 -60.5c0 -36.667 -21 -60.667 -63 -72zM309.996 509.999h42
c40 0 60 15.333 60 46c0 18 -5.5 30.667 -16.5 38s-27.833 11 -50.5 11h-35v-95z" />
    <glyph glyph-name="macron" unicode="&#xaf;" horiz-adv-x="289" 
d="M317 679h-229l7 39h228z" />
    <glyph glyph-name="degree" unicode="&#xb0;" horiz-adv-x="518" 
d="M147.5 433c-23.667 22 -35.5 53.001 -35.5 93.001c0 32 7.5 60.833 22.5 86.5s34.833 45.667 59.5 60s51 21.5 79 21.5c38 0 68.833 -11 92.5 -33s35.5 -52.667 35.5 -92c0 -32.667 -7.66699 -61.834 -23 -87.501s-35.333 -45.667 -60 -60s-51 -21.5 -79 -21.5
c-37.333 0 -67.833 11 -91.5 33zM324 473.501c22.667 24.333 34 56.167 34 95.5c0 28 -7.5 49.667 -22.5 65s-35.833 23 -62.5 23c-34 0 -62.333 -12 -85 -36s-34 -56 -34 -96c0 -28 7.66699 -49.667 23 -65s36.333 -23 63 -23c33.333 0 61.333 12.167 84 36.5z" />
    <glyph glyph-name="plusminus" unicode="&#xb1;" horiz-adv-x="490" 
d="M35 0l6 42h347l-6 -42h-347zM303 510l-22 -153h151l-6 -41h-151l-21 -153h-45l21 153h-151l6 41h151l22 153h45z" />
    <glyph glyph-name="uni00B2" unicode="&#xb2;" horiz-adv-x="398" 
d="M341 713c19.333 -18.667 28.998 -43.002 28.998 -73.002c0 -28 -8 -55.167 -24 -81.5s-36.667 -51.5 -62 -75.5s-61.666 -55.667 -108.999 -95c-21.333 -17.333 -32.666 -26.666 -33.999 -27.999h202l-12 -37h-245l5 36l39 33c48 41.333 84.833 74.333 110.5 99
s46.5 49.5 62.5 74.5s24 49.833 24 74.5c0 20.667 -6.16699 36.667 -18.5 48s-29.166 17 -50.499 17c-20 0 -38.167 -4.16699 -54.5 -12.5s-32.5 -20.166 -48.5 -35.499l-27 25c21.333 20.667 42.666 35.667 63.999 45s44.333 14 69 14c34 0 60.667 -9.33301 80 -28z" />
    <glyph glyph-name="uni00B3" unicode="&#xb3;" horiz-adv-x="398" 
d="M345 717.5c19.333 -17 28.9951 -39.1689 28.9951 -66.502c0 -28.667 -9.16699 -52.667 -27.5 -72s-42.5 -31.666 -72.5 -36.999c24 -1.33301 43.833 -9.5 59.5 -24.5s23.5 -35.167 23.5 -60.5c0 -41.333 -14.667 -75.333 -44 -102s-66.666 -40 -111.999 -40
c-49.333 0 -89.333 19 -120 57l29 20c12.667 -14.667 26.334 -25.167 41.001 -31.5s31.334 -9.5 50.001 -9.5c34.667 0 62.334 10 83.001 30s31 45.667 31 77c0 43.333 -28 65 -84 65h-30l11 34h18c28.667 0 52.834 8.83301 72.501 26.5s29.5 39.834 29.5 66.501
c0 18.667 -6.33301 33 -19 43s-29.667 15 -51 15c-18.667 0 -36 -3 -52 -9s-33.333 -15.667 -52 -29l-21 27c20.667 15.333 41.167 26.833 61.5 34.5s42.5 11.5 66.5 11.5c34 0 60.667 -8.5 80 -25.5z" />
    <glyph glyph-name="acute" unicode="&#xb4;" horiz-adv-x="265" 
d="M284 776l17 -44l-201 -84l-13 27z" />
    <glyph glyph-name="uni00B5" unicode="&#xb5;" horiz-adv-x="582" 
d="M446 87c0 -27.333 2.99902 -56.668 8.99902 -88.001l-42 -6c-4.66699 21.333 -7.66699 39.833 -9 55.5s-1.66602 34.834 -0.999023 57.501c-26 -36 -53.5 -64.5 -82.5 -85.5s-62.167 -31.5 -99.5 -31.5c-51.333 0 -85.333 19.333 -102 58
c0 -26.667 -3.66699 -67.667 -11 -123l-17 -119l-46 -5l101 722h46l-53 -376c-1.33301 -13.333 -2 -22.333 -2 -27c0 -31.333 8.16699 -54 24.5 -68s37.833 -21 64.5 -21c65.333 0 125 42.333 179 127l51 365h46l-49 -348c-4.66699 -30.667 -7 -59.667 -7 -87z" />
    <glyph glyph-name="paragraph" unicode="&#xb6;" horiz-adv-x="698" 
d="M603 684l-124 -879l-44 -8l119 847h-135l-117 -839l-45 -8l71 501c-67.333 2.66699 -116.5 18.5 -147.5 47.5s-46.5 67.5 -46.5 115.5c0 70 23 124.667 69 164s108 59 186 59h214z" />
    <glyph glyph-name="periodcentered" unicode="&#xb7;" horiz-adv-x="195" 
d="M76.5 292c-7 7.33301 -10.5 16 -10.5 26c0 12.667 4.16699 23 12.5 31s18.5 12 30.5 12c11.333 0 20.333 -3.5 27 -10.5s10 -15.833 10 -26.5c0 -12 -4 -22.167 -12 -30.5s-18.333 -12.5 -31 -12.5c-10.667 0 -19.5 3.66699 -26.5 11z" />
    <glyph glyph-name="cedilla" unicode="&#xb8;" horiz-adv-x="236" 
d="M65 -67c56 -4 83.999 -27.333 83.999 -70c0 -26 -10.167 -46.833 -30.5 -62.5s-46.166 -23.5 -77.499 -23.5c-30 0 -55.333 7.33301 -76 22l19 29c16 -10 35 -15 57 -15c19.333 0 35 4.16699 47 12.5s18 20.5 18 36.5c0 15.333 -6 26.333 -18 33s-33.333 10 -64 10
l23 111h33z" />
    <glyph glyph-name="uni00B9" unicode="&#xb9;" horiz-adv-x="398" 
d="M318 736l-58 -413h-42l52 366l-112 -61l-16 30l141 78h35z" />
    <glyph glyph-name="ordmasculine" unicode="&#xba;" horiz-adv-x="498" 
d="M419 642.5c26.667 -27.667 39.998 -67.499 39.998 -119.499c0 -46 -8.16699 -87.833 -24.5 -125.5s-40.166 -67.5 -71.499 -89.5s-68 -33 -110 -33c-48.667 0 -86.167 14.167 -112.5 42.5s-39.5 68.166 -39.5 119.499c0 45.333 8.33301 86.833 25 124.5
s40.5 67.5 71.5 89.5s67.167 33 108.5 33c48.667 0 86.334 -13.833 113.001 -41.5zM188.498 584.501c-27 -40.333 -40.5 -90.166 -40.5 -149.499c0 -39.333 9.16699 -69.5 27.5 -90.5s44.5 -31.5 78.5 -31.5c51.333 0 90.5 20.667 117.5 62s40.5 91.666 40.5 150.999
c0 39.333 -9 69 -27 89s-44.333 30 -79 30c-51.333 0 -90.5 -20.167 -117.5 -60.5zM37.998 0.000976562l6 42h347l-6 -42h-347z" />
    <glyph glyph-name="guillemotright" unicode="&#xbb;" horiz-adv-x="547" 
d="M140 514l130 -211l-3 -31l-188 -210l-28 19l167 207l-109 207zM345 514l130 -211l-3 -31l-188 -210l-28 19l167 207l-109 207z" />
    <glyph glyph-name="onequarter" unicode="&#xbc;" horiz-adv-x="903" 
d="M311 684l-58 -413h-42l52 366l-112 -61l-16 30l141 78h35zM706 746l32 -16l-519 -798l-32 16zM830 141l-5 -35h-56l-15 -106h-42l16 106h-189l4 31l170 283l34 -14l-159 -265h145l21 119h37l-17 -119h56z" />
    <glyph glyph-name="onehalf" unicode="&#xbd;" horiz-adv-x="903" 
d="M311 684l-58 -413h-42l52 366l-112 -61l-16 30l141 78h35zM706 746l32 -16l-519 -798l-32 16zM801 390c19.333 -18.667 28.998 -43.002 28.998 -73.002c0 -28 -8 -55.167 -24 -81.5s-36.667 -51.5 -62 -75.5s-61.666 -55.667 -108.999 -95
c-21.333 -17.333 -32.666 -26.666 -33.999 -27.999h202l-12 -37h-245l5 36l39 33c48 41.333 84.833 74.333 110.5 99s46.5 49.5 62.5 74.5s24 49.833 24 74.5c0 20.667 -6.16699 36.667 -18.5 48s-29.166 17 -50.499 17c-20 0 -38.167 -4.16699 -54.5 -12.5
s-32.5 -20.166 -48.5 -35.499l-27 25c21.333 20.667 42.666 35.667 63.999 45s44.333 14 69 14c34 0 60.667 -9.33301 80 -28z" />
    <glyph glyph-name="threequarters" unicode="&#xbe;" horiz-adv-x="903" 
d="M338 665.5c19.333 -17 28.9951 -39.1689 28.9951 -66.502c0 -28.667 -9.16699 -52.667 -27.5 -72s-42.5 -31.666 -72.5 -36.999c24 -1.33301 43.833 -9.5 59.5 -24.5s23.5 -35.167 23.5 -60.5c0 -41.333 -14.667 -75.333 -44 -102s-66.666 -40 -111.999 -40
c-49.333 0 -89.333 19 -120 57l29 20c12.667 -14.667 26.334 -25.167 41.001 -31.5s31.334 -9.5 50.001 -9.5c34.667 0 62.334 10 83.001 30s31 45.667 31 77c0 43.333 -28 65 -84 65h-30l11 34h18c28.667 0 52.834 8.83301 72.501 26.5s29.5 39.834 29.5 66.501
c0 18.667 -6.33301 33 -19 43s-29.667 15 -51 15c-18.667 0 -36 -3 -52 -9s-33.333 -15.667 -52 -29l-21 27c20.667 15.333 41.167 26.833 61.5 34.5s42.5 11.5 66.5 11.5c34 0 60.667 -8.5 80 -25.5zM705.995 745.998l32 -16l-519 -798l-32 16zM829.995 140.998l-5 -35h-56
l-15 -106h-42l16 106h-189l4 31l170 283l34 -14l-159 -265h145l21 119h37l-17 -119h56z" />
    <glyph glyph-name="questiondown" unicode="&#xbf;" horiz-adv-x="441" 
d="M283.5 494c7 -7.33301 10.5 -16 10.5 -26c0 -12.667 -4.16699 -23 -12.5 -31s-18.5 -12 -30.5 -12c-11.333 0 -20.333 3.5 -27 10.5s-10 15.833 -10 26.5c0 12 4 22.167 12 30.5s18.333 12.5 31 12.5c10.667 0 19.5 -3.66699 26.5 -11zM37 -168
c-26 23.333 -38.999 53.001 -38.999 89.001c0 29.333 5.83301 54.5 17.5 75.5s26 38.167 43 51.5s39.167 28.666 66.5 45.999c24 15.333 42.667 28.166 56 38.499s24.666 23 33.999 38s14 32.167 14 51.5c0 15.333 -1.66699 30.333 -5 45l41 9
c6.66699 -20 10 -38.667 10 -56c0 -24.667 -5.33301 -46.167 -16 -64.5s-23.667 -33.666 -39 -45.999s-36 -26.833 -62 -43.5c-25.333 -16 -45.333 -29.833 -60 -41.5s-27 -26 -37 -43s-15 -36.833 -15 -59.5c0 -26 9.16699 -46.833 27.5 -62.5s43.5 -23.5 75.5 -23.5
c31.333 0 60 6.16699 86 18.5s52.667 31.833 80 58.5l29 -28c-30.667 -30.667 -61.667 -53 -93 -67s-66 -21 -104 -21c-47.333 0 -84 11.667 -110 35z" />
    <glyph glyph-name="Agrave" unicode="&#xc0;" 
d="M454 0l-36 192h-296l-90 -192h-49l327 684h59l134 -684h-49zM142 234h268l-76 411zM287 877l171 -90l-17 -28l-177 75z" />
    <glyph glyph-name="Aacute" unicode="&#xc1;" 
d="M454 0l-36 192h-296l-90 -192h-49l327 684h59l134 -684h-49zM142 234h268l-76 411zM437 878l16 -44l-201 -75l-11 28z" />
    <glyph glyph-name="Acircumflex" unicode="&#xc2;" 
d="M454 0l-36 192h-296l-90 -192h-49l327 684h59l134 -684h-49zM142 234h268l-76 411zM228 763l-19 26l140 98h27l113 -99l-22 -25l-108 80z" />
    <glyph glyph-name="Atilde" unicode="&#xc3;" 
d="M454 0l-36 192h-296l-90 -192h-49l327 684h59l134 -684h-49zM142 234h268l-76 411zM385.5 802.5c-9.66699 4.33301 -21.167 10.501 -34.5 18.501c-9.33301 6.66699 -17.5 11.5 -24.5 14.5s-14.167 4.5 -21.5 4.5c-12.667 0 -23.167 -2.83301 -31.5 -8.5
s-18.833 -16.167 -31.5 -31.5l-27 19c29.333 40 59.333 60 90 60c11.333 0 21.5 -2 30.5 -6s19.833 -10 32.5 -18c10 -6.66699 18.833 -11.834 26.5 -15.501s15.5 -5.5 23.5 -5.5c10.667 0 20.834 3.5 30.501 10.5s20.5 18.167 32.5 33.5l28 -17
c-27.333 -43.333 -57.333 -65 -90 -65c-12.667 0 -23.834 2.16699 -33.501 6.5z" />
    <glyph glyph-name="Adieresis" unicode="&#xc4;" 
d="M454 0l-36 192h-296l-90 -192h-49l327 684h59l134 -684h-49zM142 234h268l-76 411zM244.5 800c-5.66699 5.33301 -8.49902 12.333 -8.49902 21c0 10.667 3.5 19.5 10.5 26.5s15.833 10.5 26.5 10.5c9.33301 0 16.833 -2.66699 22.5 -8s8.5 -12.333 8.5 -21
c0 -10.667 -3.66699 -19.5 -11 -26.5s-16.333 -10.5 -27 -10.5c-8.66699 0 -15.834 2.66699 -21.501 8zM425.501 800c-5.66699 5.33301 -8.5 12.333 -8.5 21c0 10.667 3.5 19.5 10.5 26.5s15.833 10.5 26.5 10.5c9.33301 0 16.833 -2.66699 22.5 -8s8.5 -12.333 8.5 -21
c0 -10.667 -3.5 -19.5 -10.5 -26.5s-15.833 -10.5 -26.5 -10.5c-9.33301 0 -16.833 2.66699 -22.5 8z" />
    <glyph glyph-name="Aring" unicode="&#xc5;" 
d="M454 0l-36 192h-296l-90 -192h-49l327 684h59l134 -684h-49zM142 234h268l-76 411zM436 919c15.333 -14.667 23 -33.333 23 -56c0 -29.333 -10 -53.5 -30 -72.5s-44.667 -28.5 -74 -28.5c-25.333 0 -45.666 7.5 -60.999 22.5s-23 33.833 -23 56.5
c0 29.333 10 53.333 30 72s44.667 28 74 28c25.333 0 45.666 -7.33301 60.999 -22zM326 891.001c-12 -13.333 -18.001 -30 -18.001 -50c0 -14.667 4.16699 -26.334 12.5 -35.001s20.166 -13 35.499 -13c20.667 0 36.834 6.83301 48.501 20.5s17.5 29.834 17.5 48.501
c0 15.333 -4.16699 27.333 -12.5 36s-20.166 13 -35.499 13c-20 0 -36 -6.66699 -48 -20z" />
    <glyph glyph-name="AE" unicode="&#xc6;" horiz-adv-x="770" 
d="M725 643h-329l32 -266h258l-5 -41h-248l35 -295h229l-7 -41h-264l-21 188h-290l-98 -188h-51l361 684h410zM400 229l-47 416l-217 -416h264z" />
    <glyph glyph-name="Ccedilla" unicode="&#xc7;" horiz-adv-x="545" 
d="M242.5 592c-41.667 -40.667 -71.8311 -91.167 -90.498 -151.5s-28 -120.5 -28 -180.5c0 -74.667 16.667 -131.167 50 -169.5s78 -57.5 134 -57.5c33.333 0 62.166 4.83301 86.499 14.5s49.166 24.167 74.499 43.5l25 -35c-52.667 -42 -111.334 -64.333 -176.001 -67
l-10 -56c56 -4 84 -27.333 84 -70c0 -26 -10.167 -46.833 -30.5 -62.5s-46.166 -23.5 -77.499 -23.5c-30 0 -55.333 7.33301 -76 22l19 29c16 -10 35 -15 57 -15c19.333 0 35 4.16699 47 12.5s18 20.5 18 36.5c0 15.333 -6 26.333 -18 33s-33.333 10 -64 10l18 85
c-64 4.66699 -115 30.5 -153 77.5s-57 111.5 -57 193.5c0 66.667 11.333 133.167 34 199.5s58.5 121.833 107.5 166.5s110.5 67 184.5 67c36 0 66.833 -5.16699 92.5 -15.5s49.5 -25.833 71.5 -46.5l-28 -29c-21.333 18 -42.166 30.833 -62.499 38.5s-44.5 11.5 -72.5 11.5
c-64.667 0 -117.834 -20.333 -159.501 -61z" />
    <glyph glyph-name="Egrave" unicode="&#xc8;" horiz-adv-x="502" 
d="M512 684l-12 -41h-285l-37 -266h247l-6 -41h-246l-42 -295h298l-7 -41h-345l97 684h338zM294 877l171 -90l-17 -28l-177 75z" />
    <glyph glyph-name="Eacute" unicode="&#xc9;" horiz-adv-x="502" 
d="M512 684l-12 -41h-285l-37 -266h247l-6 -41h-246l-42 -295h298l-7 -41h-345l97 684h338zM444 878l16 -44l-201 -75l-11 28z" />
    <glyph glyph-name="Ecircumflex" unicode="&#xca;" horiz-adv-x="502" 
d="M512 684l-12 -41h-285l-37 -266h247l-6 -41h-246l-42 -295h298l-7 -41h-345l97 684h338zM235 763l-19 26l140 98h27l113 -99l-22 -25l-108 80z" />
    <glyph glyph-name="Edieresis" unicode="&#xcb;" horiz-adv-x="502" 
d="M512 684l-12 -41h-285l-37 -266h247l-6 -41h-246l-42 -295h298l-7 -41h-345l97 684h338zM251.5 800c-5.66699 5.33301 -8.49902 12.333 -8.49902 21c0 10.667 3.5 19.5 10.5 26.5s15.833 10.5 26.5 10.5c9.33301 0 16.833 -2.66699 22.5 -8s8.5 -12.333 8.5 -21
c0 -10.667 -3.66699 -19.5 -11 -26.5s-16.333 -10.5 -27 -10.5c-8.66699 0 -15.834 2.66699 -21.501 8zM432.501 800c-5.66699 5.33301 -8.5 12.333 -8.5 21c0 10.667 3.5 19.5 10.5 26.5s15.833 10.5 26.5 10.5c9.33301 0 16.833 -2.66699 22.5 -8s8.5 -12.333 8.5 -21
c0 -10.667 -3.5 -19.5 -10.5 -26.5s-15.833 -10.5 -26.5 -10.5c-9.33301 0 -16.833 2.66699 -22.5 8z" />
    <glyph glyph-name="Igrave" unicode="&#xcc;" horiz-adv-x="277" 
d="M221 684l-96 -684h-48l97 684h47zM145 877l171 -90l-17 -28l-177 75z" />
    <glyph glyph-name="Iacute" unicode="&#xcd;" horiz-adv-x="277" 
d="M221 684l-96 -684h-48l97 684h47zM295 878l16 -44l-201 -75l-11 28z" />
    <glyph glyph-name="Icircumflex" unicode="&#xce;" horiz-adv-x="277" 
d="M221 684l-96 -684h-48l97 684h47zM86 763l-19 26l140 98h27l113 -99l-22 -25l-108 80z" />
    <glyph glyph-name="Idieresis" unicode="&#xcf;" horiz-adv-x="277" 
d="M221 684l-96 -684h-48l97 684h47zM102.5 800c-5.66699 5.33301 -8.49902 12.333 -8.49902 21c0 10.667 3.5 19.5 10.5 26.5s15.833 10.5 26.5 10.5c9.33301 0 16.833 -2.66699 22.5 -8s8.5 -12.333 8.5 -21c0 -10.667 -3.66699 -19.5 -11 -26.5s-16.333 -10.5 -27 -10.5
c-8.66699 0 -15.834 2.66699 -21.501 8zM283.501 800c-5.66699 5.33301 -8.5 12.333 -8.5 21c0 10.667 3.5 19.5 10.5 26.5s15.833 10.5 26.5 10.5c9.33301 0 16.833 -2.66699 22.5 -8s8.5 -12.333 8.5 -21c0 -10.667 -3.5 -19.5 -10.5 -26.5s-15.833 -10.5 -26.5 -10.5
c-9.33301 0 -16.833 2.66699 -22.5 8z" />
    <glyph glyph-name="Eth" unicode="&#xd0;" horiz-adv-x="630" 
d="M503 628.5c49.333 -37 74 -103.5 74 -199.5c0 -76 -11.833 -146.333 -35.5 -211s-62 -117.167 -115 -157.5s-121.167 -60.5 -204.5 -60.5h-142l47 333h-85l5 40h86l44 311h131c80.667 0 145.667 -18.5 195 -55.5zM403 97.5c44.667 37.667 76.833 85.833 96.5 144.5
s29.5 121.334 29.5 188.001c0 83.333 -20.167 139.666 -60.5 168.999s-93.833 44 -160.5 44h-90l-37 -270h185l-5 -40h-186l-40 -292h94c71.333 0 129.333 18.833 174 56.5z" />
    <glyph glyph-name="Ntilde" unicode="&#xd1;" horiz-adv-x="667" 
d="M516 0h-60l-250 639c-2 -52 -10.667 -130.333 -26 -235l-57 -404h-46l97 684h61l250 -638c3.33301 58 10.333 127.667 21 209l61 429h45zM446.5 802.5c-9.66699 4.33301 -21.167 10.501 -34.5 18.501c-9.33301 6.66699 -17.5 11.5 -24.5 14.5s-14.167 4.5 -21.5 4.5
c-12.667 0 -23.167 -2.83301 -31.5 -8.5s-18.833 -16.167 -31.5 -31.5l-27 19c29.333 40 59.333 60 90 60c11.333 0 21.5 -2 30.5 -6s19.833 -10 32.5 -18c10 -6.66699 18.833 -11.834 26.5 -15.501s15.5 -5.5 23.5 -5.5c10.667 0 20.834 3.5 30.501 10.5
s20.5 18.167 32.5 33.5l28 -17c-27.333 -43.333 -57.333 -65 -90 -65c-12.667 0 -23.834 2.16699 -33.501 6.5z" />
    <glyph glyph-name="Ograve" unicode="&#xd2;" horiz-adv-x="689" 
d="M575 624.5c41.333 -46.333 62.002 -112.832 62.002 -199.499c0 -66.667 -10.833 -133.334 -32.5 -200.001s-57.167 -122.667 -106.5 -168s-112.333 -68 -189 -68c-72.667 0 -129.834 23.667 -171.501 71s-62.5 114.333 -62.5 201c0 64.667 11.167 130.167 33.5 196.5
s58.166 122.333 107.499 168s112 68.5 188 68.5c72.667 0 129.667 -23.167 171 -69.5zM241.502 590.501c-41.667 -41.667 -71.668 -92.835 -90.001 -153.502s-27.5 -120 -27.5 -178c0 -75.333 16.5 -132.166 49.5 -170.499s78.5 -57.5 136.5 -57.5
c67.333 0 121.833 21 163.5 63s71.167 93.333 88.5 154s26 120.334 26 179.001c0 75.333 -16.167 131.833 -48.5 169.5s-78.166 56.5 -137.499 56.5c-65.333 0 -118.833 -20.833 -160.5 -62.5zM352.001 877l171 -90l-17 -28l-177 75z" />
    <glyph glyph-name="Oacute" unicode="&#xd3;" horiz-adv-x="689" 
d="M575 624.5c41.333 -46.333 62.002 -112.832 62.002 -199.499c0 -66.667 -10.833 -133.334 -32.5 -200.001s-57.167 -122.667 -106.5 -168s-112.333 -68 -189 -68c-72.667 0 -129.834 23.667 -171.501 71s-62.5 114.333 -62.5 201c0 64.667 11.167 130.167 33.5 196.5
s58.166 122.333 107.499 168s112 68.5 188 68.5c72.667 0 129.667 -23.167 171 -69.5zM241.502 590.501c-41.667 -41.667 -71.668 -92.835 -90.001 -153.502s-27.5 -120 -27.5 -178c0 -75.333 16.5 -132.166 49.5 -170.499s78.5 -57.5 136.5 -57.5
c67.333 0 121.833 21 163.5 63s71.167 93.333 88.5 154s26 120.334 26 179.001c0 75.333 -16.167 131.833 -48.5 169.5s-78.166 56.5 -137.499 56.5c-65.333 0 -118.833 -20.833 -160.5 -62.5zM502.001 878l16 -44l-201 -75l-11 28z" />
    <glyph glyph-name="Ocircumflex" unicode="&#xd4;" horiz-adv-x="689" 
d="M575 624.5c41.333 -46.333 62.002 -112.832 62.002 -199.499c0 -66.667 -10.833 -133.334 -32.5 -200.001s-57.167 -122.667 -106.5 -168s-112.333 -68 -189 -68c-72.667 0 -129.834 23.667 -171.501 71s-62.5 114.333 -62.5 201c0 64.667 11.167 130.167 33.5 196.5
s58.166 122.333 107.499 168s112 68.5 188 68.5c72.667 0 129.667 -23.167 171 -69.5zM241.502 590.501c-41.667 -41.667 -71.668 -92.835 -90.001 -153.502s-27.5 -120 -27.5 -178c0 -75.333 16.5 -132.166 49.5 -170.499s78.5 -57.5 136.5 -57.5
c67.333 0 121.833 21 163.5 63s71.167 93.333 88.5 154s26 120.334 26 179.001c0 75.333 -16.167 131.833 -48.5 169.5s-78.166 56.5 -137.499 56.5c-65.333 0 -118.833 -20.833 -160.5 -62.5zM293.001 763l-19 26l140 98h27l113 -99l-22 -25l-108 80z" />
    <glyph glyph-name="Otilde" unicode="&#xd5;" horiz-adv-x="689" 
d="M575 624.5c41.333 -46.333 62.002 -112.832 62.002 -199.499c0 -66.667 -10.833 -133.334 -32.5 -200.001s-57.167 -122.667 -106.5 -168s-112.333 -68 -189 -68c-72.667 0 -129.834 23.667 -171.501 71s-62.5 114.333 -62.5 201c0 64.667 11.167 130.167 33.5 196.5
s58.166 122.333 107.499 168s112 68.5 188 68.5c72.667 0 129.667 -23.167 171 -69.5zM241.502 590.501c-41.667 -41.667 -71.668 -92.835 -90.001 -153.502s-27.5 -120 -27.5 -178c0 -75.333 16.5 -132.166 49.5 -170.499s78.5 -57.5 136.5 -57.5
c67.333 0 121.833 21 163.5 63s71.167 93.333 88.5 154s26 120.334 26 179.001c0 75.333 -16.167 131.833 -48.5 169.5s-78.166 56.5 -137.499 56.5c-65.333 0 -118.833 -20.833 -160.5 -62.5zM450.501 802.5c-9.66699 4.33301 -21.167 10.501 -34.5 18.501
c-9.33301 6.66699 -17.5 11.5 -24.5 14.5s-14.167 4.5 -21.5 4.5c-12.667 0 -23.167 -2.83301 -31.5 -8.5s-18.833 -16.167 -31.5 -31.5l-27 19c29.333 40 59.333 60 90 60c11.333 0 21.5 -2 30.5 -6s19.833 -10 32.5 -18c10 -6.66699 18.833 -11.834 26.5 -15.501
s15.5 -5.5 23.5 -5.5c10.667 0 20.834 3.5 30.501 10.5s20.5 18.167 32.5 33.5l28 -17c-27.333 -43.333 -57.333 -65 -90 -65c-12.667 0 -23.834 2.16699 -33.501 6.5z" />
    <glyph glyph-name="Odieresis" unicode="&#xd6;" horiz-adv-x="689" 
d="M575 624.5c41.333 -46.333 62.002 -112.832 62.002 -199.499c0 -66.667 -10.833 -133.334 -32.5 -200.001s-57.167 -122.667 -106.5 -168s-112.333 -68 -189 -68c-72.667 0 -129.834 23.667 -171.501 71s-62.5 114.333 -62.5 201c0 64.667 11.167 130.167 33.5 196.5
s58.166 122.333 107.499 168s112 68.5 188 68.5c72.667 0 129.667 -23.167 171 -69.5zM241.502 590.501c-41.667 -41.667 -71.668 -92.835 -90.001 -153.502s-27.5 -120 -27.5 -178c0 -75.333 16.5 -132.166 49.5 -170.499s78.5 -57.5 136.5 -57.5
c67.333 0 121.833 21 163.5 63s71.167 93.333 88.5 154s26 120.334 26 179.001c0 75.333 -16.167 131.833 -48.5 169.5s-78.166 56.5 -137.499 56.5c-65.333 0 -118.833 -20.833 -160.5 -62.5zM309.501 800c-5.66699 5.33301 -8.49902 12.333 -8.49902 21
c0 10.667 3.5 19.5 10.5 26.5s15.833 10.5 26.5 10.5c9.33301 0 16.833 -2.66699 22.5 -8s8.5 -12.333 8.5 -21c0 -10.667 -3.66699 -19.5 -11 -26.5s-16.333 -10.5 -27 -10.5c-8.66699 0 -15.834 2.66699 -21.501 8zM490.502 800c-5.66699 5.33301 -8.5 12.333 -8.5 21
c0 10.667 3.5 19.5 10.5 26.5s15.833 10.5 26.5 10.5c9.33301 0 16.833 -2.66699 22.5 -8s8.5 -12.333 8.5 -21c0 -10.667 -3.5 -19.5 -10.5 -26.5s-15.833 -10.5 -26.5 -10.5c-9.33301 0 -16.833 2.66699 -22.5 8z" />
    <glyph glyph-name="multiply" unicode="&#xd7;" horiz-adv-x="490" 
d="M398 466l28 -30l-145 -129l109 -129l-34 -29l-107 129l-144 -129l-28 30l144 128l-108 130l34 29l106 -130z" />
    <glyph glyph-name="Oslash" unicode="&#xd8;" horiz-adv-x="689" 
d="M606.5 576.5c20.333 -41 30.502 -91.498 30.502 -151.498c0 -66.667 -10.833 -133.334 -32.5 -200.001s-57.167 -122.667 -106.5 -168s-112.333 -68 -189 -68c-29.333 0 -56.666 4 -81.999 12l-51 -118l-40 12l54 122c-36.667 20.667 -65 51.667 -85 93
s-30 91.666 -30 150.999c0 64.667 11.167 130.167 33.5 196.5s58.166 122.333 107.499 168s112 68.5 188 68.5c27.333 0 53.666 -3.66699 78.999 -11l52 124l41 -12l-56 -127c37.333 -20 66.166 -50.5 86.499 -91.5zM211.002 55.002l257.999 589c-20 6 -42.333 9 -67 9
c-66 0 -119.667 -21 -161 -63s-71.166 -93.333 -89.499 -154s-27.5 -120.667 -27.5 -180c0 -99.333 29 -166.333 87 -201zM473.501 94.502c41.667 42.333 71.167 93.833 88.5 154.5s26 121 26 181c0 102 -30 169 -90 201l-257 -589c22 -7.33301 45 -11 69 -11
c67.333 0 121.833 21.167 163.5 63.5z" />
    <glyph glyph-name="Ugrave" unicode="&#xd9;" horiz-adv-x="647" 
d="M535 210c-9.33301 -67.333 -35 -120.999 -77 -160.999s-98.667 -60 -170 -60c-64.667 0 -113.167 15.833 -145.5 47.5s-48.5 75.167 -48.5 130.5c0 9.33301 1.33301 24.666 4 45.999l66 471h47l-65 -470c-2 -16 -3 -30.667 -3 -44c0 -44 12 -78 36 -102
s60.667 -36 110 -36c58.667 0 104.5 16.5 137.5 49.5s53.5 78.167 61.5 135.5l66 467h47zM330 877.001l171 -90l-17 -28l-177 75z" />
    <glyph glyph-name="Uacute" unicode="&#xda;" horiz-adv-x="647" 
d="M535 210c-9.33301 -67.333 -35 -120.999 -77 -160.999s-98.667 -60 -170 -60c-64.667 0 -113.167 15.833 -145.5 47.5s-48.5 75.167 -48.5 130.5c0 9.33301 1.33301 24.666 4 45.999l66 471h47l-65 -470c-2 -16 -3 -30.667 -3 -44c0 -44 12 -78 36 -102
s60.667 -36 110 -36c58.667 0 104.5 16.5 137.5 49.5s53.5 78.167 61.5 135.5l66 467h47zM480 878.001l16 -44l-201 -75l-11 28z" />
    <glyph glyph-name="Ucircumflex" unicode="&#xdb;" horiz-adv-x="647" 
d="M535 210c-9.33301 -67.333 -35 -120.999 -77 -160.999s-98.667 -60 -170 -60c-64.667 0 -113.167 15.833 -145.5 47.5s-48.5 75.167 -48.5 130.5c0 9.33301 1.33301 24.666 4 45.999l66 471h47l-65 -470c-2 -16 -3 -30.667 -3 -44c0 -44 12 -78 36 -102
s60.667 -36 110 -36c58.667 0 104.5 16.5 137.5 49.5s53.5 78.167 61.5 135.5l66 467h47zM271 763.001l-19 26l140 98h27l113 -99l-22 -25l-108 80z" />
    <glyph glyph-name="Udieresis" unicode="&#xdc;" horiz-adv-x="647" 
d="M535 210c-9.33301 -67.333 -35 -120.999 -77 -160.999s-98.667 -60 -170 -60c-64.667 0 -113.167 15.833 -145.5 47.5s-48.5 75.167 -48.5 130.5c0 9.33301 1.33301 24.666 4 45.999l66 471h47l-65 -470c-2 -16 -3 -30.667 -3 -44c0 -44 12 -78 36 -102
s60.667 -36 110 -36c58.667 0 104.5 16.5 137.5 49.5s53.5 78.167 61.5 135.5l66 467h47zM287.5 800.001c-5.66699 5.33301 -8.49902 12.333 -8.49902 21c0 10.667 3.5 19.5 10.5 26.5s15.833 10.5 26.5 10.5c9.33301 0 16.833 -2.66699 22.5 -8s8.5 -12.333 8.5 -21
c0 -10.667 -3.66699 -19.5 -11 -26.5s-16.333 -10.5 -27 -10.5c-8.66699 0 -15.834 2.66699 -21.501 8zM468.501 800.001c-5.66699 5.33301 -8.5 12.333 -8.5 21c0 10.667 3.5 19.5 10.5 26.5s15.833 10.5 26.5 10.5c9.33301 0 16.833 -2.66699 22.5 -8s8.5 -12.333 8.5 -21
c0 -10.667 -3.5 -19.5 -10.5 -26.5s-15.833 -10.5 -26.5 -10.5c-9.33301 0 -16.833 2.66699 -22.5 8z" />
    <glyph glyph-name="Yacute" unicode="&#xdd;" horiz-adv-x="512" 
d="M555 684l-273 -415l-38 -269h-48l38 268l-159 416h51l136 -371l239 371h54zM410 878l16 -44l-201 -75l-11 28z" />
    <glyph glyph-name="Thorn" unicode="&#xde;" horiz-adv-x="565" 
d="M475 518c38 -28 57 -72.333 57 -133c0 -42 -8.83301 -81.5 -26.5 -118.5s-47.5 -67.333 -89.5 -91s-97.667 -35.5 -167 -35.5h-104l-20 -140h-48l97 684h47l-17 -124h105c72.667 0 128 -14 166 -42zM429 239.5c36 39 54.001 87.166 54.001 144.499
c0 48.667 -14.833 83.334 -44.5 104.001s-73.834 31 -132.501 31h-108l-48 -338h103c81.333 0 140 19.5 176 58.5z" />
    <glyph glyph-name="germandbls" unicode="&#xdf;" horiz-adv-x="578" 
d="M-51 -165c27.333 13.333 48.8359 26.332 64.5029 38.999s28.667 30 39 52s18.166 51.667 23.499 89l75 527c8.66699 63.333 31.667 112.333 69 147s83.333 52 138 52c43.333 0 78.166 -10.667 104.499 -32s39.5 -49.333 39.5 -84c0 -31.333 -7.5 -56.666 -22.5 -75.999
s-36.5 -38.666 -64.5 -57.999c-20.667 -14.667 -35.834 -27.334 -45.501 -38.001s-14.5 -23.667 -14.5 -39c0 -14 4.66699 -26.333 14 -37s24.333 -24 45 -40c21.333 -16.667 38.5 -31.667 51.5 -45s24.333 -30.5 34 -51.5s14.5 -45.5 14.5 -73.5
c0 -26.667 -6.66699 -53.667 -20 -81s-33.833 -50.333 -61.5 -69s-61.834 -28 -102.501 -28c-20.667 0 -40.667 2.83301 -60 8.5s-35.666 12.167 -48.999 19.5l18 33c30 -13.333 59.333 -20 88 -20c32 0 58.5 7.33301 79.5 22s36.333 32.5 46 53.5s14.5 41.167 14.5 60.5
c0 33.333 -7.66699 60.333 -23 81s-37.333 42.334 -66 65.001c-23.333 19.333 -40.333 35.666 -51 48.999s-16 29.666 -16 48.999c0 22.667 5.83301 41 17.5 55s29.167 29 52.5 45c24.667 18 43.334 35 56.001 51s19 37 19 63c0 24.667 -8.83301 43.834 -26.5 57.501
s-41.5 20.5 -71.5 20.5c-42 0 -77.5 -14 -106.5 -42s-47.5 -69.333 -55.5 -124l-74 -523c-6 -44.667 -15.333 -79.834 -28 -105.501s-28.834 -46.167 -48.501 -61.5s-47.167 -30.666 -82.5 -45.999z" />
    <glyph glyph-name="agrave" unicode="&#xe0;" horiz-adv-x="556" 
d="M410.5 521.5c24.333 -7 49.835 -17.5 76.502 -31.5l-55 -378c-2 -12.667 -3 -24 -3 -34c0 -14 2.5 -25.5 7.5 -34.5s13.833 -15.833 26.5 -20.5l-13 -34c-20.667 6 -36.334 15 -47.001 27s-16 30.333 -16 55l1 15c-20.667 -30 -44.834 -53.667 -72.501 -71
s-57.834 -26 -90.501 -26c-51.333 0 -91.5 18 -120.5 54s-43.5 85.667 -43.5 149c0 52 9.16699 104.167 27.5 156.5s47.333 96 87 131s89.834 52.5 150.501 52.5c32 0 60.167 -3.5 84.5 -10.5zM203.502 447c-32.333 -31.333 -55.999 -70.168 -70.999 -116.501
s-22.5 -92.166 -22.5 -137.499c0 -53.333 10.5 -94 31.5 -122s50.5 -42 88.5 -42c32 0 61.167 9.83301 87.5 29.5s51.166 48.5 74.499 86.5l46 322c-32 18 -69 27 -111 27c-50 0 -91.167 -15.667 -123.5 -47zM303.003 775.998l169 -101l-17 -27l-178 84z" />
    <glyph glyph-name="aacute" unicode="&#xe1;" horiz-adv-x="556" 
d="M410.5 521.5c24.333 -7 49.835 -17.5 76.502 -31.5l-55 -378c-2 -12.667 -3 -24 -3 -34c0 -14 2.5 -25.5 7.5 -34.5s13.833 -15.833 26.5 -20.5l-13 -34c-20.667 6 -36.334 15 -47.001 27s-16 30.333 -16 55l1 15c-20.667 -30 -44.834 -53.667 -72.501 -71
s-57.834 -26 -90.501 -26c-51.333 0 -91.5 18 -120.5 54s-43.5 85.667 -43.5 149c0 52 9.16699 104.167 27.5 156.5s47.333 96 87 131s89.834 52.5 150.501 52.5c32 0 60.167 -3.5 84.5 -10.5zM203.502 447c-32.333 -31.333 -55.999 -70.168 -70.999 -116.501
s-22.5 -92.166 -22.5 -137.499c0 -53.333 10.5 -94 31.5 -122s50.5 -42 88.5 -42c32 0 61.167 9.83301 87.5 29.5s51.166 48.5 74.499 86.5l46 322c-32 18 -69 27 -111 27c-50 0 -91.167 -15.667 -123.5 -47zM454.003 775.998l17 -44l-201 -84l-13 27z" />
    <glyph glyph-name="acircumflex" unicode="&#xe2;" horiz-adv-x="556" 
d="M410.5 521.5c24.333 -7 49.835 -17.5 76.502 -31.5l-55 -378c-2 -12.667 -3 -24 -3 -34c0 -14 2.5 -25.5 7.5 -34.5s13.833 -15.833 26.5 -20.5l-13 -34c-20.667 6 -36.334 15 -47.001 27s-16 30.333 -16 55l1 15c-20.667 -30 -44.834 -53.667 -72.501 -71
s-57.834 -26 -90.501 -26c-51.333 0 -91.5 18 -120.5 54s-43.5 85.667 -43.5 149c0 52 9.16699 104.167 27.5 156.5s47.333 96 87 131s89.834 52.5 150.501 52.5c32 0 60.167 -3.5 84.5 -10.5zM203.502 447c-32.333 -31.333 -55.999 -70.168 -70.999 -116.501
s-22.5 -92.166 -22.5 -137.499c0 -53.333 10.5 -94 31.5 -122s50.5 -42 88.5 -42c32 0 61.167 9.83301 87.5 29.5s51.166 48.5 74.499 86.5l46 322c-32 18 -69 27 -111 27c-50 0 -91.167 -15.667 -123.5 -47zM237.003 646.998l-21 25l142 103h27l113 -103l-23 -25l-108 84z
" />
    <glyph glyph-name="atilde" unicode="&#xe3;" horiz-adv-x="556" 
d="M410.5 521.5c24.333 -7 49.835 -17.5 76.502 -31.5l-55 -378c-2 -12.667 -3 -24 -3 -34c0 -14 2.5 -25.5 7.5 -34.5s13.833 -15.833 26.5 -20.5l-13 -34c-20.667 6 -36.334 15 -47.001 27s-16 30.333 -16 55l1 15c-20.667 -30 -44.834 -53.667 -72.501 -71
s-57.834 -26 -90.501 -26c-51.333 0 -91.5 18 -120.5 54s-43.5 85.667 -43.5 149c0 52 9.16699 104.167 27.5 156.5s47.333 96 87 131s89.834 52.5 150.501 52.5c32 0 60.167 -3.5 84.5 -10.5zM203.502 447c-32.333 -31.333 -55.999 -70.168 -70.999 -116.501
s-22.5 -92.166 -22.5 -137.499c0 -53.333 10.5 -94 31.5 -122s50.5 -42 88.5 -42c32 0 61.167 9.83301 87.5 29.5s51.166 48.5 74.499 86.5l46 322c-32 18 -69 27 -111 27c-50 0 -91.167 -15.667 -123.5 -47zM388.503 676.498c-9.66699 4.33301 -21.167 10.501 -34.5 18.501
c-9.33301 6.66699 -17.5 11.5 -24.5 14.5s-14.167 4.5 -21.5 4.5c-12.667 0 -23.167 -2.83301 -31.5 -8.5s-18.833 -16.167 -31.5 -31.5l-27 19c29.333 40 59.333 60 90 60c11.333 0 21.5 -2 30.5 -6s19.833 -10 32.5 -18c10 -6.66699 18.833 -11.834 26.5 -15.501
s15.5 -5.5 23.5 -5.5c10.667 0 20.834 3.5 30.501 10.5s20.5 18.167 32.5 33.5l28 -17c-27.333 -43.333 -57.333 -65 -90 -65c-12.667 0 -23.834 2.16699 -33.501 6.5z" />
    <glyph glyph-name="adieresis" unicode="&#xe4;" horiz-adv-x="556" 
d="M410.5 521.5c24.333 -7 49.835 -17.5 76.502 -31.5l-55 -378c-2 -12.667 -3 -24 -3 -34c0 -14 2.5 -25.5 7.5 -34.5s13.833 -15.833 26.5 -20.5l-13 -34c-20.667 6 -36.334 15 -47.001 27s-16 30.333 -16 55l1 15c-20.667 -30 -44.834 -53.667 -72.501 -71
s-57.834 -26 -90.501 -26c-51.333 0 -91.5 18 -120.5 54s-43.5 85.667 -43.5 149c0 52 9.16699 104.167 27.5 156.5s47.333 96 87 131s89.834 52.5 150.501 52.5c32 0 60.167 -3.5 84.5 -10.5zM203.502 447c-32.333 -31.333 -55.999 -70.168 -70.999 -116.501
s-22.5 -92.166 -22.5 -137.499c0 -53.333 10.5 -94 31.5 -122s50.5 -42 88.5 -42c32 0 61.167 9.83301 87.5 29.5s51.166 48.5 74.499 86.5l46 322c-32 18 -69 27 -111 27c-50 0 -91.167 -15.667 -123.5 -47zM246.503 673.998c-5.66699 5.33301 -8.49902 12.333 -8.49902 21
c0 10.667 3.5 19.5 10.5 26.5s15.833 10.5 26.5 10.5c9.33301 0 16.833 -2.66699 22.5 -8s8.5 -12.333 8.5 -21c0 -10.667 -3.66699 -19.5 -11 -26.5s-16.333 -10.5 -27 -10.5c-8.66699 0 -15.834 2.66699 -21.501 8zM427.504 673.998c-5.66699 5.33301 -8.5 12.333 -8.5 21
c0 10.667 3.5 19.5 10.5 26.5s15.833 10.5 26.5 10.5c9.33301 0 16.833 -2.66699 22.5 -8s8.5 -12.333 8.5 -21c0 -10.667 -3.5 -19.5 -10.5 -26.5s-15.833 -10.5 -26.5 -10.5c-9.33301 0 -16.833 2.66699 -22.5 8z" />
    <glyph glyph-name="aring" unicode="&#xe5;" horiz-adv-x="556" 
d="M410.5 521.5c24.333 -7 49.835 -17.5 76.502 -31.5l-55 -378c-2 -12.667 -3 -24 -3 -34c0 -14 2.5 -25.5 7.5 -34.5s13.833 -15.833 26.5 -20.5l-13 -34c-20.667 6 -36.334 15 -47.001 27s-16 30.333 -16 55l1 15c-20.667 -30 -44.834 -53.667 -72.501 -71
s-57.834 -26 -90.501 -26c-51.333 0 -91.5 18 -120.5 54s-43.5 85.667 -43.5 149c0 52 9.16699 104.167 27.5 156.5s47.333 96 87 131s89.834 52.5 150.501 52.5c32 0 60.167 -3.5 84.5 -10.5zM203.502 447c-32.333 -31.333 -55.999 -70.168 -70.999 -116.501
s-22.5 -92.166 -22.5 -137.499c0 -53.333 10.5 -94 31.5 -122s50.5 -42 88.5 -42c32 0 61.167 9.83301 87.5 29.5s51.166 48.5 74.499 86.5l46 322c-32 18 -69 27 -111 27c-50 0 -91.167 -15.667 -123.5 -47zM438.003 792.998c15.333 -14.667 23 -33.333 23 -56
c0 -29.333 -10 -53.5 -30 -72.5s-44.667 -28.5 -74 -28.5c-25.333 0 -45.666 7.5 -60.999 22.5s-23 33.833 -23 56.5c0 29.333 10 53.333 30 72s44.667 28 74 28c25.333 0 45.666 -7.33301 60.999 -22zM328.003 764.999c-12 -13.333 -18.001 -30 -18.001 -50
c0 -14.667 4.16699 -26.334 12.5 -35.001s20.166 -13 35.499 -13c20.667 0 36.834 6.83301 48.501 20.5s17.5 29.834 17.5 48.501c0 15.333 -4.16699 27.333 -12.5 36s-20.166 13 -35.499 13c-20 0 -36 -6.66699 -48 -20z" />
    <glyph glyph-name="ae" unicode="&#xe6;" horiz-adv-x="818" 
d="M389 502.5c25.333 -19.667 41.665 -45.835 48.998 -78.502c14.667 28 39.667 53 75 75s74.666 33 117.999 33c46.667 0 83.834 -11.5 111.501 -34.5s41.5 -52.833 41.5 -89.5c0 -61.333 -32 -107.666 -96 -138.999s-155.333 -51 -274 -59c0 -120 47.333 -180 142 -180
c28 0 53.333 4.33301 76 13s47.334 22.334 74.001 41.001l22 -33c-28 -20.667 -56 -36.167 -84 -46.5s-58 -15.5 -90 -15.5c-41.333 0 -76.666 9.33301 -105.999 28s-50.333 45.667 -63 81c-31.333 -39.333 -63.333 -67.333 -96 -84s-67.667 -25 -105 -25
c-45.333 0 -81.333 12.333 -108 37s-40 57.667 -40 99c0 50.667 19 92.834 57 126.501s97.667 50.5 179 50.5h109c8.66699 33.333 17 60 25 80c-1.33301 33.333 -13 60.166 -35 80.499s-52 30.5 -90 30.5c-23.333 0 -46.333 -2.5 -69 -7.5s-48 -12.833 -76 -23.5l-11 37
c57.333 22 110.333 33 159 33c44.667 0 79.667 -9.83301 105 -29.5zM520.999 457.499c-30.667 -23.667 -54.332 -54.165 -70.999 -91.498s-27.667 -77 -33 -119c106.667 8 186.5 24.667 239.5 50s79.5 61.666 79.5 108.999c0 25.333 -9 46.166 -27 62.499s-44 24.5 -78 24.5
c-42.667 0 -79.334 -11.833 -110.001 -35.5zM275.001 266.001c-66 0 -114.166 -12.668 -144.499 -38.001s-45.5 -59.666 -45.5 -102.999c0 -31.333 9.16699 -55.333 27.5 -72s43.5 -25 75.5 -25c34 0 66.167 8.83301 96.5 26.5s60.166 45.5 89.499 83.5
c-3.33301 20 -5 41 -5 63s1.66699 43.667 5 65h-99z" />
    <glyph glyph-name="ccedilla" unicode="&#xe7;" horiz-adv-x="465" 
d="M199 446.5c-31.333 -31 -54.001 -69.3311 -68.001 -114.998s-21 -90.5 -21 -134.5c0 -55.333 12.333 -96.833 37 -124.5s59 -41.5 103 -41.5s87.667 15 131 45l21 -33c-44.667 -34 -93.334 -52 -146.001 -54l-10 -56c56 -4 84 -27.333 84 -70
c0 -26 -10.167 -46.833 -30.5 -62.5s-46.166 -23.5 -77.499 -23.5c-30 0 -55.333 7.33301 -76 22l19 29c16 -10 35 -15 57 -15c19.333 0 35 4.16699 47 12.5s18 20.5 18 36.5c0 15.333 -6 26.333 -18 33s-33.333 10 -64 10l18 85c-50 5.33301 -89.333 26.166 -118 62.499
s-43 85.166 -43 146.499c0 50 9 100.667 27 152s46.333 94.333 85 129s87.334 52 146.001 52c56 0 101.667 -17.333 137 -52l-27 -29c-15.333 14 -31.833 24.5 -49.5 31.5s-38.167 10.5 -61.5 10.5c-48.667 0 -88.667 -15.5 -120 -46.5z" />
    <glyph glyph-name="egrave" unicode="&#xe8;" horiz-adv-x="512" 
d="M382.5 268.5c-63.667 -31.667 -154.5 -51.501 -272.5 -59.501v-10c0 -57.333 12.5 -99.833 37.5 -127.5s59.167 -41.5 102.5 -41.5c28 0 53.5 4.33301 76.5 13s47.5 22.334 73.5 41.001l22 -33c-28 -20.667 -56 -36.167 -84 -46.5s-58 -15.5 -90 -15.5
c-58.667 0 -104.334 18.167 -137.001 54.5s-49 87.833 -49 154.5c0 52.667 9.66699 104.667 29 156s48.833 93.833 88.5 127.5s88.834 50.5 147.501 50.5c46.667 0 83.5 -11.5 110.5 -34.5s40.5 -52.5 40.5 -88.5c0 -62 -31.833 -108.833 -95.5 -140.5zM216.5 457.499
c-30.333 -23.667 -54.001 -54.167 -71.001 -91.5s-27.833 -77 -32.5 -119c106 7.33301 185.333 24 238 50s79 62.667 79 110c0 25.333 -8.66699 46 -26 62s-43 24 -77 24c-43.333 0 -80.166 -11.833 -110.499 -35.5zM276.999 775.999l169 -101l-17 -27l-178 84z" />
    <glyph glyph-name="eacute" unicode="&#xe9;" horiz-adv-x="512" 
d="M382.5 268.5c-63.667 -31.667 -154.5 -51.501 -272.5 -59.501v-10c0 -57.333 12.5 -99.833 37.5 -127.5s59.167 -41.5 102.5 -41.5c28 0 53.5 4.33301 76.5 13s47.5 22.334 73.5 41.001l22 -33c-28 -20.667 -56 -36.167 -84 -46.5s-58 -15.5 -90 -15.5
c-58.667 0 -104.334 18.167 -137.001 54.5s-49 87.833 -49 154.5c0 52.667 9.66699 104.667 29 156s48.833 93.833 88.5 127.5s88.834 50.5 147.501 50.5c46.667 0 83.5 -11.5 110.5 -34.5s40.5 -52.5 40.5 -88.5c0 -62 -31.833 -108.833 -95.5 -140.5zM216.5 457.499
c-30.333 -23.667 -54.001 -54.167 -71.001 -91.5s-27.833 -77 -32.5 -119c106 7.33301 185.333 24 238 50s79 62.667 79 110c0 25.333 -8.66699 46 -26 62s-43 24 -77 24c-43.333 0 -80.166 -11.833 -110.499 -35.5zM427.999 775.999l17 -44l-201 -84l-13 27z" />
    <glyph glyph-name="ecircumflex" unicode="&#xea;" horiz-adv-x="512" 
d="M382.5 268.5c-63.667 -31.667 -154.5 -51.501 -272.5 -59.501v-10c0 -57.333 12.5 -99.833 37.5 -127.5s59.167 -41.5 102.5 -41.5c28 0 53.5 4.33301 76.5 13s47.5 22.334 73.5 41.001l22 -33c-28 -20.667 -56 -36.167 -84 -46.5s-58 -15.5 -90 -15.5
c-58.667 0 -104.334 18.167 -137.001 54.5s-49 87.833 -49 154.5c0 52.667 9.66699 104.667 29 156s48.833 93.833 88.5 127.5s88.834 50.5 147.501 50.5c46.667 0 83.5 -11.5 110.5 -34.5s40.5 -52.5 40.5 -88.5c0 -62 -31.833 -108.833 -95.5 -140.5zM216.5 457.499
c-30.333 -23.667 -54.001 -54.167 -71.001 -91.5s-27.833 -77 -32.5 -119c106 7.33301 185.333 24 238 50s79 62.667 79 110c0 25.333 -8.66699 46 -26 62s-43 24 -77 24c-43.333 0 -80.166 -11.833 -110.499 -35.5zM210.999 646.999l-21 25l142 103h27l113 -103l-23 -25
l-108 84z" />
    <glyph glyph-name="edieresis" unicode="&#xeb;" horiz-adv-x="512" 
d="M382.5 268.5c-63.667 -31.667 -154.5 -51.501 -272.5 -59.501v-10c0 -57.333 12.5 -99.833 37.5 -127.5s59.167 -41.5 102.5 -41.5c28 0 53.5 4.33301 76.5 13s47.5 22.334 73.5 41.001l22 -33c-28 -20.667 -56 -36.167 -84 -46.5s-58 -15.5 -90 -15.5
c-58.667 0 -104.334 18.167 -137.001 54.5s-49 87.833 -49 154.5c0 52.667 9.66699 104.667 29 156s48.833 93.833 88.5 127.5s88.834 50.5 147.501 50.5c46.667 0 83.5 -11.5 110.5 -34.5s40.5 -52.5 40.5 -88.5c0 -62 -31.833 -108.833 -95.5 -140.5zM216.5 457.499
c-30.333 -23.667 -54.001 -54.167 -71.001 -91.5s-27.833 -77 -32.5 -119c106 7.33301 185.333 24 238 50s79 62.667 79 110c0 25.333 -8.66699 46 -26 62s-43 24 -77 24c-43.333 0 -80.166 -11.833 -110.499 -35.5zM220.499 673.999
c-5.66699 5.33301 -8.49902 12.333 -8.49902 21c0 10.667 3.5 19.5 10.5 26.5s15.833 10.5 26.5 10.5c9.33301 0 16.833 -2.66699 22.5 -8s8.5 -12.333 8.5 -21c0 -10.667 -3.66699 -19.5 -11 -26.5s-16.333 -10.5 -27 -10.5c-8.66699 0 -15.834 2.66699 -21.501 8z
M401.5 673.999c-5.66699 5.33301 -8.5 12.333 -8.5 21c0 10.667 3.5 19.5 10.5 26.5s15.833 10.5 26.5 10.5c9.33301 0 16.833 -2.66699 22.5 -8s8.5 -12.333 8.5 -21c0 -10.667 -3.5 -19.5 -10.5 -26.5s-15.833 -10.5 -26.5 -10.5c-9.33301 0 -16.833 2.66699 -22.5 8z" />
    <glyph glyph-name="igrave" unicode="&#xec;" horiz-adv-x="265" 
d="M192 522l-74 -522h-46l74 522h46zM134 776l169 -101l-17 -27l-178 84z" />
    <glyph glyph-name="iacute" unicode="&#xed;" horiz-adv-x="265" 
d="M192 522l-74 -522h-46l74 522h46zM285 776l17 -44l-201 -84l-13 27z" />
    <glyph glyph-name="icircumflex" unicode="&#xee;" horiz-adv-x="265" 
d="M192 522l-74 -522h-46l74 522h46zM68 647l-21 25l142 103h27l113 -103l-23 -25l-108 84z" />
    <glyph glyph-name="idieresis" unicode="&#xef;" horiz-adv-x="265" 
d="M192 522l-74 -522h-46l74 522h46zM77.5 674c-5.66699 5.33301 -8.49902 12.333 -8.49902 21c0 10.667 3.5 19.5 10.5 26.5s15.833 10.5 26.5 10.5c9.33301 0 16.833 -2.66699 22.5 -8s8.5 -12.333 8.5 -21c0 -10.667 -3.66699 -19.5 -11 -26.5s-16.333 -10.5 -27 -10.5
c-8.66699 0 -15.834 2.66699 -21.501 8zM258.501 674c-5.66699 5.33301 -8.5 12.333 -8.5 21c0 10.667 3.5 19.5 10.5 26.5s15.833 10.5 26.5 10.5c9.33301 0 16.833 -2.66699 22.5 -8s8.5 -12.333 8.5 -21c0 -10.667 -3.5 -19.5 -10.5 -26.5s-15.833 -10.5 -26.5 -10.5
c-9.33301 0 -16.833 2.66699 -22.5 8z" />
    <glyph glyph-name="eth" unicode="&#xf0;" horiz-adv-x="561" 
d="M461 546c19.333 -44.667 28.999 -97.6689 28.999 -159.002c0 -70 -9.16699 -135.167 -27.5 -195.5s-46.666 -109.166 -84.999 -146.499s-85.5 -56 -141.5 -56s-99.5 17 -130.5 51s-46.5 80.667 -46.5 140c0 46.667 8 91.834 24 135.501s41 79.667 75 108
s76.667 42.5 128 42.5c66 0 118.667 -27.333 158 -82c0.666992 52.667 -6.83301 99.5 -22.5 140.5s-41.5 77.833 -77.5 110.5l-91 -79l-33 15l95 86c-39.333 22.667 -78.333 38.334 -117 47.001l12 38c48 -10 93 -29.333 135 -58l80 73l26 -25l-77 -70
c38.667 -32.667 67.667 -71.334 87 -116.001zM379.499 116.498c34.333 58.333 54.833 130.831 61.5 217.498c-38.667 62 -88.667 93 -150 93c-43.333 0 -78.666 -12.167 -105.999 -36.5s-47.166 -55.166 -59.499 -92.499s-18.5 -76.666 -18.5 -117.999
c0 -48.667 11.167 -86 33.5 -112s54.166 -39 95.499 -39c61.333 0 109.166 29.167 143.499 87.5z" />
    <glyph glyph-name="ntilde" unicode="&#xf1;" horiz-adv-x="581" 
d="M463.5 499.5c21 -21.667 31.5 -52.5 31.5 -92.5c0 -12 -1 -24.667 -3 -38l-52 -369h-46l52 367c2 13.333 3 25 3 35c0 60.667 -27.667 91 -83 91c-70.667 0 -138.667 -60.333 -204 -181l-44 -312h-46l74 522h39l-15 -140c26.667 48 57.5 85 92.5 111s72.167 39 111.5 39
c38.667 0 68.5 -10.833 89.5 -32.5zM378.5 676.5c-9.66699 4.33301 -21.167 10.501 -34.5 18.501c-9.33301 6.66699 -17.5 11.5 -24.5 14.5s-14.167 4.5 -21.5 4.5c-12.667 0 -23.167 -2.83301 -31.5 -8.5s-18.833 -16.167 -31.5 -31.5l-27 19c29.333 40 59.333 60 90 60
c11.333 0 21.5 -2 30.5 -6s19.833 -10 32.5 -18c10 -6.66699 18.833 -11.834 26.5 -15.501s15.5 -5.5 23.5 -5.5c10.667 0 20.834 3.5 30.501 10.5s20.5 18.167 32.5 33.5l28 -17c-27.333 -43.333 -57.333 -65 -90 -65c-12.667 0 -23.834 2.16699 -33.501 6.5z" />
    <glyph glyph-name="ograve" unicode="&#xf2;" horiz-adv-x="566" 
d="M111 44.5c-32.667 37 -48.999 88.501 -48.999 154.501c0 50 8.66699 100.5 26 151.5s45.333 94 84 129s88 52.5 148 52.5c58.667 0 104.167 -18 136.5 -54s48.5 -87 48.5 -153c0 -49.333 -8.5 -99.833 -25.5 -151.5s-44.833 -95.334 -83.5 -131.001
s-88.334 -53.5 -149.001 -53.5c-58 0 -103.333 18.5 -136 55.5zM369.001 77.001c31.333 31.333 53.834 69.832 67.501 115.499s20.5 90.5 20.5 134.5c0 54 -12 95.167 -36 123.5s-58 42.5 -102 42.5c-50 0 -90.5 -16 -121.5 -48s-53.333 -70.667 -67 -116
s-20.5 -89.666 -20.5 -132.999c0 -54 12 -95.167 36 -123.5s58 -42.5 102 -42.5c49.333 0 89.666 15.667 120.999 47zM286.002 776l169 -101l-17 -27l-178 84z" />
    <glyph glyph-name="oacute" unicode="&#xf3;" horiz-adv-x="566" 
d="M111 44.5c-32.667 37 -48.999 88.501 -48.999 154.501c0 50 8.66699 100.5 26 151.5s45.333 94 84 129s88 52.5 148 52.5c58.667 0 104.167 -18 136.5 -54s48.5 -87 48.5 -153c0 -49.333 -8.5 -99.833 -25.5 -151.5s-44.833 -95.334 -83.5 -131.001
s-88.334 -53.5 -149.001 -53.5c-58 0 -103.333 18.5 -136 55.5zM369.001 77.001c31.333 31.333 53.834 69.832 67.501 115.499s20.5 90.5 20.5 134.5c0 54 -12 95.167 -36 123.5s-58 42.5 -102 42.5c-50 0 -90.5 -16 -121.5 -48s-53.333 -70.667 -67 -116
s-20.5 -89.666 -20.5 -132.999c0 -54 12 -95.167 36 -123.5s58 -42.5 102 -42.5c49.333 0 89.666 15.667 120.999 47zM437.002 776l17 -44l-201 -84l-13 27z" />
    <glyph glyph-name="ocircumflex" unicode="&#xf4;" horiz-adv-x="566" 
d="M111 44.5c-32.667 37 -48.999 88.501 -48.999 154.501c0 50 8.66699 100.5 26 151.5s45.333 94 84 129s88 52.5 148 52.5c58.667 0 104.167 -18 136.5 -54s48.5 -87 48.5 -153c0 -49.333 -8.5 -99.833 -25.5 -151.5s-44.833 -95.334 -83.5 -131.001
s-88.334 -53.5 -149.001 -53.5c-58 0 -103.333 18.5 -136 55.5zM369.001 77.001c31.333 31.333 53.834 69.832 67.501 115.499s20.5 90.5 20.5 134.5c0 54 -12 95.167 -36 123.5s-58 42.5 -102 42.5c-50 0 -90.5 -16 -121.5 -48s-53.333 -70.667 -67 -116
s-20.5 -89.666 -20.5 -132.999c0 -54 12 -95.167 36 -123.5s58 -42.5 102 -42.5c49.333 0 89.666 15.667 120.999 47zM220.002 647l-21 25l142 103h27l113 -103l-23 -25l-108 84z" />
    <glyph glyph-name="otilde" unicode="&#xf5;" horiz-adv-x="566" 
d="M111 44.5c-32.667 37 -48.999 88.501 -48.999 154.501c0 50 8.66699 100.5 26 151.5s45.333 94 84 129s88 52.5 148 52.5c58.667 0 104.167 -18 136.5 -54s48.5 -87 48.5 -153c0 -49.333 -8.5 -99.833 -25.5 -151.5s-44.833 -95.334 -83.5 -131.001
s-88.334 -53.5 -149.001 -53.5c-58 0 -103.333 18.5 -136 55.5zM369.001 77.001c31.333 31.333 53.834 69.832 67.501 115.499s20.5 90.5 20.5 134.5c0 54 -12 95.167 -36 123.5s-58 42.5 -102 42.5c-50 0 -90.5 -16 -121.5 -48s-53.333 -70.667 -67 -116
s-20.5 -89.666 -20.5 -132.999c0 -54 12 -95.167 36 -123.5s58 -42.5 102 -42.5c49.333 0 89.666 15.667 120.999 47zM371.502 676.5c-9.66699 4.33301 -21.167 10.501 -34.5 18.501c-9.33301 6.66699 -17.5 11.5 -24.5 14.5s-14.167 4.5 -21.5 4.5
c-12.667 0 -23.167 -2.83301 -31.5 -8.5s-18.833 -16.167 -31.5 -31.5l-27 19c29.333 40 59.333 60 90 60c11.333 0 21.5 -2 30.5 -6s19.833 -10 32.5 -18c10 -6.66699 18.833 -11.834 26.5 -15.501s15.5 -5.5 23.5 -5.5c10.667 0 20.834 3.5 30.501 10.5
s20.5 18.167 32.5 33.5l28 -17c-27.333 -43.333 -57.333 -65 -90 -65c-12.667 0 -23.834 2.16699 -33.501 6.5z" />
    <glyph glyph-name="odieresis" unicode="&#xf6;" horiz-adv-x="566" 
d="M111 44.5c-32.667 37 -48.999 88.501 -48.999 154.501c0 50 8.66699 100.5 26 151.5s45.333 94 84 129s88 52.5 148 52.5c58.667 0 104.167 -18 136.5 -54s48.5 -87 48.5 -153c0 -49.333 -8.5 -99.833 -25.5 -151.5s-44.833 -95.334 -83.5 -131.001
s-88.334 -53.5 -149.001 -53.5c-58 0 -103.333 18.5 -136 55.5zM369.001 77.001c31.333 31.333 53.834 69.832 67.501 115.499s20.5 90.5 20.5 134.5c0 54 -12 95.167 -36 123.5s-58 42.5 -102 42.5c-50 0 -90.5 -16 -121.5 -48s-53.333 -70.667 -67 -116
s-20.5 -89.666 -20.5 -132.999c0 -54 12 -95.167 36 -123.5s58 -42.5 102 -42.5c49.333 0 89.666 15.667 120.999 47zM229.502 674c-5.66699 5.33301 -8.49902 12.333 -8.49902 21c0 10.667 3.5 19.5 10.5 26.5s15.833 10.5 26.5 10.5c9.33301 0 16.833 -2.66699 22.5 -8
s8.5 -12.333 8.5 -21c0 -10.667 -3.66699 -19.5 -11 -26.5s-16.333 -10.5 -27 -10.5c-8.66699 0 -15.834 2.66699 -21.501 8zM410.503 674c-5.66699 5.33301 -8.5 12.333 -8.5 21c0 10.667 3.5 19.5 10.5 26.5s15.833 10.5 26.5 10.5c9.33301 0 16.833 -2.66699 22.5 -8
s8.5 -12.333 8.5 -21c0 -10.667 -3.5 -19.5 -10.5 -26.5s-15.833 -10.5 -26.5 -10.5c-9.33301 0 -16.833 2.66699 -22.5 8z" />
    <glyph glyph-name="divide" unicode="&#xf7;" horiz-adv-x="490" 
d="M196.5 86c-7 7.33301 -10.5 16 -10.5 26c0 12.667 4.16699 23 12.5 31s18.5 12 30.5 12c11.333 0 20.333 -3.5 27 -10.5s10 -15.833 10 -26.5c0 -12 -4 -22.167 -12 -30.5s-18.333 -12.5 -31 -12.5c-10.667 0 -19.5 3.66699 -26.5 11zM256.5 517
c-7 7.33301 -10.5 16 -10.5 26c0 12.667 4.16699 23 12.5 31s18.5 12 30.5 12c11.333 0 20.333 -3.5 27 -10.5s10 -15.833 10 -26.5c0 -12 -4 -22.167 -12 -30.5s-18.333 -12.5 -31 -12.5c-10.667 0 -19.5 3.66699 -26.5 11zM78 310l6 42h347l-6 -42h-347z" />
    <glyph glyph-name="oslash" unicode="&#xf8;" horiz-adv-x="566" 
d="M484 436c14 -30.667 21.002 -67.665 21.002 -110.998c0 -49.333 -8.5 -99.833 -25.5 -151.5s-44.833 -95.334 -83.5 -131.001s-88.334 -53.5 -149.001 -53.5c-24.667 0 -46.667 3.33301 -66 10l-59 -122l-37 11l60 127c-26.667 17.333 -47.167 41.666 -61.5 72.999
s-21.5 68.333 -21.5 111c0 50 8.66699 100.5 26 151.5s45.333 94 84 129s88 52.5 148 52.5c25.333 0 47.666 -3.33301 66.999 -10l57 124l38 -12l-59 -128c26.667 -16 47 -39.333 61 -70zM168.002 51.002l204 433.999c-17.333 5.33301 -35 8 -53 8
c-50 0 -90.5 -16 -121.5 -48s-53.333 -70.667 -67 -116s-20.5 -89.666 -20.5 -132.999c0 -70 19.333 -118.333 58 -145zM369.002 77.001c31.333 31.333 53.834 69.832 67.501 115.499s20.5 90.5 20.5 134.5c0 68.667 -18.667 116.334 -56 143.001l-204 -433
c14 -4.66699 31 -7 51 -7c49.333 0 89.666 15.667 120.999 47z" />
    <glyph glyph-name="ugrave" unicode="&#xf9;" horiz-adv-x="577" 
d="M119 22.5c-21.333 22.333 -31.999 53.499 -31.999 93.499c0 15.333 0.666992 27 2 35l52 371h46l-52 -370c-1.33301 -8 -2 -19 -2 -33c0 -60 27.667 -90 83 -90c39.333 0 75.666 16.333 108.999 49s63 76.334 89 131.001l44 313h46l-74 -522h-37l16 145
c-23.333 -48 -52 -86 -86 -114s-72 -42 -114 -42c-38.667 0 -68.667 11.167 -90 33.5zM288.001 775.999l169 -101l-17 -27l-178 84z" />
    <glyph glyph-name="uacute" unicode="&#xfa;" horiz-adv-x="577" 
d="M119 22.5c-21.333 22.333 -31.999 53.499 -31.999 93.499c0 15.333 0.666992 27 2 35l52 371h46l-52 -370c-1.33301 -8 -2 -19 -2 -33c0 -60 27.667 -90 83 -90c39.333 0 75.666 16.333 108.999 49s63 76.334 89 131.001l44 313h46l-74 -522h-37l16 145
c-23.333 -48 -52 -86 -86 -114s-72 -42 -114 -42c-38.667 0 -68.667 11.167 -90 33.5zM439.001 775.999l17 -44l-201 -84l-13 27z" />
    <glyph glyph-name="ucircumflex" unicode="&#xfb;" horiz-adv-x="577" 
d="M119 22.5c-21.333 22.333 -31.999 53.499 -31.999 93.499c0 15.333 0.666992 27 2 35l52 371h46l-52 -370c-1.33301 -8 -2 -19 -2 -33c0 -60 27.667 -90 83 -90c39.333 0 75.666 16.333 108.999 49s63 76.334 89 131.001l44 313h46l-74 -522h-37l16 145
c-23.333 -48 -52 -86 -86 -114s-72 -42 -114 -42c-38.667 0 -68.667 11.167 -90 33.5zM222.001 646.999l-21 25l142 103h27l113 -103l-23 -25l-108 84z" />
    <glyph glyph-name="udieresis" unicode="&#xfc;" horiz-adv-x="577" 
d="M119 22.5c-21.333 22.333 -31.999 53.499 -31.999 93.499c0 15.333 0.666992 27 2 35l52 371h46l-52 -370c-1.33301 -8 -2 -19 -2 -33c0 -60 27.667 -90 83 -90c39.333 0 75.666 16.333 108.999 49s63 76.334 89 131.001l44 313h46l-74 -522h-37l16 145
c-23.333 -48 -52 -86 -86 -114s-72 -42 -114 -42c-38.667 0 -68.667 11.167 -90 33.5zM231.501 673.999c-5.66699 5.33301 -8.49902 12.333 -8.49902 21c0 10.667 3.5 19.5 10.5 26.5s15.833 10.5 26.5 10.5c9.33301 0 16.833 -2.66699 22.5 -8s8.5 -12.333 8.5 -21
c0 -10.667 -3.66699 -19.5 -11 -26.5s-16.333 -10.5 -27 -10.5c-8.66699 0 -15.834 2.66699 -21.501 8zM412.502 673.999c-5.66699 5.33301 -8.5 12.333 -8.5 21c0 10.667 3.5 19.5 10.5 26.5s15.833 10.5 26.5 10.5c9.33301 0 16.833 -2.66699 22.5 -8s8.5 -12.333 8.5 -21
c0 -10.667 -3.5 -19.5 -10.5 -26.5s-15.833 -10.5 -26.5 -10.5c-9.33301 0 -16.833 2.66699 -22.5 8z" />
    <glyph glyph-name="yacute" unicode="&#xfd;" horiz-adv-x="458" 
d="M226 -4c-28 -59.333 -58.499 -103.667 -91.499 -133s-79.5 -50.666 -139.5 -63.999l-3 37c36 9.33301 64.667 20.5 86 33.5s39.166 29.167 53.499 48.5s30.833 46.666 49.5 81.999h-18l-109 522h49l96 -487l229 487h50zM376.001 775.999l17 -44l-201 -84l-13 27z" />
    <glyph glyph-name="thorn" unicode="&#xfe;" horiz-adv-x="569" 
d="M468 482c26.667 -33.333 39.999 -81.667 39.999 -145c0 -53.333 -8.66699 -106.5 -26 -159.5s-45.666 -97.667 -84.999 -134s-90.333 -54.5 -153 -54.5c-44.667 0 -86 8.33301 -124 25l-29 -211l-47 -7l132 939l47 6l-41 -290c50.667 54 107 81 169 81
c51.333 0 90.333 -16.667 117 -50zM370.499 78.499c32.333 33 55.501 73.334 69.501 121.001s21 94.5 21 140.5c0 102 -39.333 153 -118 153c-32.667 0 -62.167 -7.83301 -88.5 -23.5s-52.833 -38.834 -79.5 -69.501l-48 -348c20 -7.33301 38.833 -13 56.5 -17
s38.167 -6 61.5 -6c51.333 0 93.166 16.5 125.499 49.5z" />
    <glyph glyph-name="ydieresis" unicode="&#xff;" horiz-adv-x="458" 
d="M226 -4c-28 -59.333 -58.499 -103.667 -91.499 -133s-79.5 -50.666 -139.5 -63.999l-3 37c36 9.33301 64.667 20.5 86 33.5s39.166 29.167 53.499 48.5s30.833 46.666 49.5 81.999h-18l-109 522h49l96 -487l229 487h50zM168.501 673.999
c-5.66699 5.33301 -8.49902 12.333 -8.49902 21c0 10.667 3.5 19.5 10.5 26.5s15.833 10.5 26.5 10.5c9.33301 0 16.833 -2.66699 22.5 -8s8.5 -12.333 8.5 -21c0 -10.667 -3.66699 -19.5 -11 -26.5s-16.333 -10.5 -27 -10.5c-8.66699 0 -15.834 2.66699 -21.501 8z
M349.502 673.999c-5.66699 5.33301 -8.5 12.333 -8.5 21c0 10.667 3.5 19.5 10.5 26.5s15.833 10.5 26.5 10.5c9.33301 0 16.833 -2.66699 22.5 -8s8.5 -12.333 8.5 -21c0 -10.667 -3.5 -19.5 -10.5 -26.5s-15.833 -10.5 -26.5 -10.5c-9.33301 0 -16.833 2.66699 -22.5 8z
" />
    <glyph glyph-name="Amacron" unicode="&#x100;" 
d="M454 0l-36 192h-296l-90 -192h-49l327 684h59l134 -684h-49zM142 234h268l-76 411zM471 805h-229l7 39h228z" />
    <glyph glyph-name="amacron" unicode="&#x101;" horiz-adv-x="556" 
d="M410.5 521.5c24.333 -7 49.835 -17.5 76.502 -31.5l-55 -378c-2 -12.667 -3 -24 -3 -34c0 -14 2.5 -25.5 7.5 -34.5s13.833 -15.833 26.5 -20.5l-13 -34c-20.667 6 -36.334 15 -47.001 27s-16 30.333 -16 55l1 15c-20.667 -30 -44.834 -53.667 -72.501 -71
s-57.834 -26 -90.501 -26c-51.333 0 -91.5 18 -120.5 54s-43.5 85.667 -43.5 149c0 52 9.16699 104.167 27.5 156.5s47.333 96 87 131s89.834 52.5 150.501 52.5c32 0 60.167 -3.5 84.5 -10.5zM203.502 447c-32.333 -31.333 -55.999 -70.168 -70.999 -116.501
s-22.5 -92.166 -22.5 -137.499c0 -53.333 10.5 -94 31.5 -122s50.5 -42 88.5 -42c32 0 61.167 9.83301 87.5 29.5s51.166 48.5 74.499 86.5l46 322c-32 18 -69 27 -111 27c-50 0 -91.167 -15.667 -123.5 -47zM474.003 678.998h-229l7 39h228z" />
    <glyph glyph-name="Abreve" unicode="&#x102;" 
d="M454 0l-36 192h-296l-90 -192h-49l327 684h59l134 -684h-49zM142 234h268l-76 411zM271 794c-20.667 18 -31.668 40.333 -33.001 67l32 4c3.33301 -18 12 -32.167 26 -42.5s32 -15.5 54 -15.5c23.333 0 43.833 5.5 61.5 16.5s30.834 25.833 39.501 44.5l32 -10
c-8 -26.667 -24.333 -48.5 -49 -65.5s-52.667 -25.5 -84 -25.5c-32 0 -58.333 9 -79 27z" />
    <glyph glyph-name="abreve" unicode="&#x103;" horiz-adv-x="556" 
d="M410.5 521.5c24.333 -7 49.835 -17.5 76.502 -31.5l-55 -378c-2 -12.667 -3 -24 -3 -34c0 -14 2.5 -25.5 7.5 -34.5s13.833 -15.833 26.5 -20.5l-13 -34c-20.667 6 -36.334 15 -47.001 27s-16 30.333 -16 55l1 15c-20.667 -30 -44.834 -53.667 -72.501 -71
s-57.834 -26 -90.501 -26c-51.333 0 -91.5 18 -120.5 54s-43.5 85.667 -43.5 149c0 52 9.16699 104.167 27.5 156.5s47.333 96 87 131s89.834 52.5 150.501 52.5c32 0 60.167 -3.5 84.5 -10.5zM203.502 447c-32.333 -31.333 -55.999 -70.168 -70.999 -116.501
s-22.5 -92.166 -22.5 -137.499c0 -53.333 10.5 -94 31.5 -122s50.5 -42 88.5 -42c32 0 61.167 9.83301 87.5 29.5s51.166 48.5 74.499 86.5l46 322c-32 18 -69 27 -111 27c-50 0 -91.167 -15.667 -123.5 -47zM276.503 684.998c-20.333 19.333 -30.499 44.668 -30.499 76.001
l33 4c6 -46 31.667 -69 77 -69c24 0 45 6.16699 63 18.5s31.667 29.833 41 52.5l31 -9c-8.66699 -30.667 -25.334 -55.334 -50.001 -74.001s-53 -28 -85 -28c-32.667 0 -59.167 9.66699 -79.5 29z" />
    <glyph glyph-name="Aogonek" unicode="&#x104;" 
d="M386.5 -59.5c-22.333 -19 -33.501 -40.5 -33.501 -64.5c0 -32 19.333 -48 58 -48c16 0 35 2 57 6l-8 -41c-20 -4 -38.333 -6 -55 -6c-31.333 0 -55.333 7.16699 -72 21.5s-25 32.833 -25 55.5c0 32 11.333 59.5 34 82.5s59.334 44.5 110.001 64.5l-34 181h-296l-90 -192
h-49l327 684h59l134 -684h-10c-48.667 -20.667 -84.167 -40.5 -106.5 -59.5zM141.999 234h268l-76 411z" />
    <glyph glyph-name="aogonek" unicode="&#x105;" horiz-adv-x="556" 
d="M429 78c0 -14 2.50098 -25.499 7.50098 -34.499s13.833 -15.833 26.5 -20.5l-13 -34h-1v0c-48.667 -20.667 -84.167 -40.5 -106.5 -59.5s-33.5 -40.5 -33.5 -64.5c0 -32 19.333 -48 58 -48c16 0 35 2 57 6l-8 -41c-20 -4 -38.333 -6 -55 -6
c-31.333 0 -55.333 7.16699 -72 21.5s-25 32.833 -25 55.5c0 33.333 12 61.666 36 84.999s63.333 45 118 65c-20.667 14 -31 36.333 -31 67c0 6.66699 0.333008 12 1 16c-20.667 -30 -44.834 -53.667 -72.501 -71s-57.834 -26 -90.501 -26c-51.333 0 -91.5 18 -120.5 54
s-43.5 85.667 -43.5 149c0 52 9.16699 104.167 27.5 156.5s47.333 96 87 131s89.834 52.5 150.501 52.5c32 0 60.167 -3.5 84.5 -10.5s49.833 -17.5 76.5 -31.5l-55 -378c-2 -12.667 -3 -24 -3 -34zM438.001 467.001c-32 18 -68.999 26.998 -110.999 26.998
c-50 0 -91.167 -15.667 -123.5 -47s-56 -70.166 -71 -116.499s-22.5 -92.166 -22.5 -137.499c0 -53.333 10.5 -94 31.5 -122s50.5 -42 88.5 -42c32 0 61.167 9.83301 87.5 29.5s51.166 48.5 74.499 86.5z" />
    <glyph glyph-name="Cacute" unicode="&#x106;" horiz-adv-x="545" 
d="M493.5 678.5c25.667 -10.333 49.5029 -25.833 71.5029 -46.5l-28 -29c-21.333 18 -42.166 30.833 -62.499 38.5s-44.5 11.5 -72.5 11.5c-64.667 0 -117.834 -20.333 -159.501 -61s-71.834 -91.167 -90.501 -151.5s-28 -120.5 -28 -180.5
c0 -74.667 16.667 -131.167 50 -169.5s78 -57.5 134 -57.5c33.333 0 62.166 4.83301 86.499 14.5s49.166 24.167 74.499 43.5l25 -35c-56.667 -44.667 -119.667 -67 -189 -67c-70 0 -125.833 23.667 -167.5 71s-62.5 114.333 -62.5 201c0 66.667 11.333 133.167 34 199.5
s58.5 121.833 107.5 166.5s110.5 67 184.5 67c36 0 66.833 -5.16699 92.5 -15.5zM498.003 878l16 -44l-201 -75l-11 28z" />
    <glyph glyph-name="cacute" unicode="&#x107;" horiz-adv-x="465" 
d="M457 480l-27.002 -29.001c-15.333 14 -31.833 24.5 -49.5 31.5s-38.167 10.5 -61.5 10.5c-48.667 0 -88.667 -15.5 -120 -46.5s-54 -69.333 -68 -115s-21 -90.5 -21 -134.5c0 -55.333 12.333 -96.833 37 -124.5s59 -41.5 103 -41.5s87.667 15 131 45l21 -33
c-46.667 -36 -98 -54 -154 -54c-57.333 0 -102.666 18.333 -135.999 55s-50 88.334 -50 155.001c0 50 9 100.667 27 152s46.333 94.333 85 129s87.334 52 146.001 52c56 0 101.667 -17.333 137 -52zM439.998 775.999l17 -44l-201 -84l-13 27z" />
    <glyph glyph-name="Ccircumflex" unicode="&#x108;" horiz-adv-x="545" 
d="M493.5 678.5c25.667 -10.333 49.5029 -25.833 71.5029 -46.5l-28 -29c-21.333 18 -42.166 30.833 -62.499 38.5s-44.5 11.5 -72.5 11.5c-64.667 0 -117.834 -20.333 -159.501 -61s-71.834 -91.167 -90.501 -151.5s-28 -120.5 -28 -180.5
c0 -74.667 16.667 -131.167 50 -169.5s78 -57.5 134 -57.5c33.333 0 62.166 4.83301 86.499 14.5s49.166 24.167 74.499 43.5l25 -35c-56.667 -44.667 -119.667 -67 -189 -67c-70 0 -125.833 23.667 -167.5 71s-62.5 114.333 -62.5 201c0 66.667 11.333 133.167 34 199.5
s58.5 121.833 107.5 166.5s110.5 67 184.5 67c36 0 66.833 -5.16699 92.5 -15.5zM289.003 763l-19 26l140 98h27l113 -99l-22 -25l-108 80z" />
    <glyph glyph-name="ccircumflex" unicode="&#x109;" horiz-adv-x="465" 
d="M457 480l-27.002 -29.001c-15.333 14 -31.833 24.5 -49.5 31.5s-38.167 10.5 -61.5 10.5c-48.667 0 -88.667 -15.5 -120 -46.5s-54 -69.333 -68 -115s-21 -90.5 -21 -134.5c0 -55.333 12.333 -96.833 37 -124.5s59 -41.5 103 -41.5s87.667 15 131 45l21 -33
c-46.667 -36 -98 -54 -154 -54c-57.333 0 -102.666 18.333 -135.999 55s-50 88.334 -50 155.001c0 50 9 100.667 27 152s46.333 94.333 85 129s87.334 52 146.001 52c56 0 101.667 -17.333 137 -52zM222.998 646.999l-21 25l142 103h27l113 -103l-23 -25l-108 84z" />
    <glyph glyph-name="Cdotaccent" unicode="&#x10a;" horiz-adv-x="545" 
d="M493.5 678.5c25.667 -10.333 49.5029 -25.833 71.5029 -46.5l-28 -29c-21.333 18 -42.166 30.833 -62.499 38.5s-44.5 11.5 -72.5 11.5c-64.667 0 -117.834 -20.333 -159.501 -61s-71.834 -91.167 -90.501 -151.5s-28 -120.5 -28 -180.5
c0 -74.667 16.667 -131.167 50 -169.5s78 -57.5 134 -57.5c33.333 0 62.166 4.83301 86.499 14.5s49.166 24.167 74.499 43.5l25 -35c-56.667 -44.667 -119.667 -67 -189 -67c-70 0 -125.833 23.667 -167.5 71s-62.5 114.333 -62.5 201c0 66.667 11.333 133.167 34 199.5
s58.5 121.833 107.5 166.5s110.5 67 184.5 67c36 0 66.833 -5.16699 92.5 -15.5zM397.003 808.5c-6 5.66699 -8.99902 13.167 -8.99902 22.5c0 11.333 3.66699 20.666 11 27.999s16.666 11 27.999 11c10 0 17.833 -2.83301 23.5 -8.5s8.5 -13.167 8.5 -22.5
c0 -11.333 -3.66699 -20.666 -11 -27.999s-16.333 -11 -27 -11c-10 0 -18 2.83301 -24 8.5z" />
    <glyph glyph-name="cdotaccent" unicode="&#x10b;" horiz-adv-x="465" 
d="M457 480l-27.002 -29.001c-15.333 14 -31.833 24.5 -49.5 31.5s-38.167 10.5 -61.5 10.5c-48.667 0 -88.667 -15.5 -120 -46.5s-54 -69.333 -68 -115s-21 -90.5 -21 -134.5c0 -55.333 12.333 -96.833 37 -124.5s59 -41.5 103 -41.5s87.667 15 131 45l21 -33
c-46.667 -36 -98 -54 -154 -54c-57.333 0 -102.666 18.333 -135.999 55s-50 88.334 -50 155.001c0 50 9 100.667 27 152s46.333 94.333 85 129s87.334 52 146.001 52c56 0 101.667 -17.333 137 -52zM323.998 682.499c-6 5.66699 -8.99902 13.167 -8.99902 22.5
c0 11.333 3.66699 20.666 11 27.999s16.666 11 27.999 11c10 0 17.833 -2.83301 23.5 -8.5s8.5 -13.167 8.5 -22.5c0 -11.333 -3.66699 -20.666 -11 -27.999s-16.333 -11 -27 -11c-10 0 -18 2.83301 -24 8.5z" />
    <glyph glyph-name="Ccaron" unicode="&#x10c;" horiz-adv-x="545" 
d="M493.5 678.5c25.667 -10.333 49.5029 -25.833 71.5029 -46.5l-28 -29c-21.333 18 -42.166 30.833 -62.499 38.5s-44.5 11.5 -72.5 11.5c-64.667 0 -117.834 -20.333 -159.501 -61s-71.834 -91.167 -90.501 -151.5s-28 -120.5 -28 -180.5
c0 -74.667 16.667 -131.167 50 -169.5s78 -57.5 134 -57.5c33.333 0 62.166 4.83301 86.499 14.5s49.166 24.167 74.499 43.5l25 -35c-56.667 -44.667 -119.667 -67 -189 -67c-70 0 -125.833 23.667 -167.5 71s-62.5 114.333 -62.5 201c0 66.667 11.333 133.167 34 199.5
s58.5 121.833 107.5 166.5s110.5 67 184.5 67c36 0 66.833 -5.16699 92.5 -15.5zM545.003 880l20 -25l-140 -98h-28l-114 98l23 24l110 -78z" />
    <glyph glyph-name="ccaron" unicode="&#x10d;" horiz-adv-x="465" 
d="M457 480l-27.002 -29.001c-15.333 14 -31.833 24.5 -49.5 31.5s-38.167 10.5 -61.5 10.5c-48.667 0 -88.667 -15.5 -120 -46.5s-54 -69.333 -68 -115s-21 -90.5 -21 -134.5c0 -55.333 12.333 -96.833 37 -124.5s59 -41.5 103 -41.5s87.667 15 131 45l21 -33
c-46.667 -36 -98 -54 -154 -54c-57.333 0 -102.666 18.333 -135.999 55s-50 88.334 -50 155.001c0 50 9 100.667 27 152s46.333 94.333 85 129s87.334 52 146.001 52c56 0 101.667 -17.333 137 -52zM473.998 763.999l20 -25l-141 -104h-28l-113 104l23 25l108 -85z" />
    <glyph glyph-name="Dcaron" unicode="&#x10e;" horiz-adv-x="626" 
d="M500 628.5c49.333 -37 74 -103.5 74 -199.5c0 -76 -11.833 -146.333 -35.5 -211s-62 -117.167 -115 -157.5s-121.167 -60.5 -204.5 -60.5h-142l97 684h131c80.667 0 145.667 -18.5 195 -55.5zM215 643l-83.001 -602.001h94c71.333 0 129.333 18.833 174 56.5
s76.834 85.834 96.501 144.501s29.5 121.334 29.5 188.001c0 83.333 -20.167 139.666 -60.5 168.999s-93.833 44 -160.5 44h-90zM500.999 879.999l20 -25l-140 -98h-28l-114 98l23 24l110 -78z" />
    <glyph glyph-name="dcaron" unicode="&#x10f;" horiz-adv-x="574" 
d="M532 735l-104.005 -735h-39l9 113c-47.333 -82.667 -106.666 -124 -177.999 -124c-49.333 0 -88.166 18.167 -116.499 54.5s-42.5 86.5 -42.5 150.5c0 50.667 8.33301 102 25 154s43.334 95.667 80.001 131s83.334 53 140.001 53c62.667 0 109.334 -24.667 140.001 -74
l40 283zM196.495 446c-30.333 -31.333 -52.3301 -70 -65.9971 -116s-20.5 -91.667 -20.5 -137c0 -52.667 10.167 -93.167 30.5 -121.5s48.833 -42.5 85.5 -42.5c37.333 0 69.666 12.667 96.999 38s55.666 63 84.999 113l32 232c-28.667 54 -71.334 81 -128.001 81
c-46.667 0 -85.167 -15.667 -115.5 -47zM612.998 740l46 -6l-56 -157l-29 5z" />
    <glyph glyph-name="Dcroat" unicode="&#x110;" horiz-adv-x="630" 
d="M503 628.5c49.333 -37 74 -103.5 74 -199.5c0 -76 -11.833 -146.333 -35.5 -211s-62 -117.167 -115 -157.5s-121.167 -60.5 -204.5 -60.5h-142l47 333h-85l5 40h86l44 311h131c80.667 0 145.667 -18.5 195 -55.5zM403 97.5c44.667 37.667 76.833 85.833 96.5 144.5
s29.5 121.334 29.5 188.001c0 83.333 -20.167 139.666 -60.5 168.999s-93.833 44 -160.5 44h-90l-37 -270h185l-5 -40h-186l-40 -292h94c71.333 0 129.333 18.833 174 56.5z" />
    <glyph glyph-name="dcroat" unicode="&#x111;" horiz-adv-x="581" 
d="M591 620h-75.0049l-88 -620h-39l9 113c-47.333 -82.667 -106.666 -124 -177.999 -124c-49.333 0 -88.166 18.167 -116.499 54.5s-42.5 86.5 -42.5 150.5c0 50.667 8.33301 102 25 154s43.334 95.667 80.001 131s83.334 53 140.001 53
c62.667 0 109.334 -24.667 140.001 -74l23 162h-163v38h168l12 83l46 -6l-11 -77h76zM439.995 412c-28.667 54 -71.3311 81 -127.998 81c-46.667 0 -85.167 -15.667 -115.5 -47s-52.333 -70 -66 -116s-20.5 -91.667 -20.5 -137c0 -52.667 10.167 -93.167 30.5 -121.5
s48.833 -42.5 85.5 -42.5c37.333 0 69.666 12.667 96.999 38s55.666 63 84.999 113z" />
    <glyph glyph-name="Emacron" unicode="&#x112;" horiz-adv-x="502" 
d="M512 684l-12 -41h-285l-37 -266h247l-6 -41h-246l-42 -295h298l-7 -41h-345l97 684h338zM478 805h-229l7 39h228z" />
    <glyph glyph-name="emacron" unicode="&#x113;" horiz-adv-x="512" 
d="M382.5 268.5c-63.667 -31.667 -154.5 -51.501 -272.5 -59.501v-10c0 -57.333 12.5 -99.833 37.5 -127.5s59.167 -41.5 102.5 -41.5c28 0 53.5 4.33301 76.5 13s47.5 22.334 73.5 41.001l22 -33c-28 -20.667 -56 -36.167 -84 -46.5s-58 -15.5 -90 -15.5
c-58.667 0 -104.334 18.167 -137.001 54.5s-49 87.833 -49 154.5c0 52.667 9.66699 104.667 29 156s48.833 93.833 88.5 127.5s88.834 50.5 147.501 50.5c46.667 0 83.5 -11.5 110.5 -34.5s40.5 -52.5 40.5 -88.5c0 -62 -31.833 -108.833 -95.5 -140.5zM216.5 457.499
c-30.333 -23.667 -54.001 -54.167 -71.001 -91.5s-27.833 -77 -32.5 -119c106 7.33301 185.333 24 238 50s79 62.667 79 110c0 25.333 -8.66699 46 -26 62s-43 24 -77 24c-43.333 0 -80.166 -11.833 -110.499 -35.5zM447.999 678.999h-229l7 39h228z" />
    <glyph glyph-name="Ebreve" unicode="&#x114;" horiz-adv-x="502" 
d="M512 684l-12 -41h-285l-37 -266h247l-6 -41h-246l-42 -295h298l-7 -41h-345l97 684h338zM278 794c-20.667 18 -31.668 40.333 -33.001 67l32 4c3.33301 -18 12 -32.167 26 -42.5s32 -15.5 54 -15.5c23.333 0 43.833 5.5 61.5 16.5s30.834 25.833 39.501 44.5l32 -10
c-8 -26.667 -24.333 -48.5 -49 -65.5s-52.667 -25.5 -84 -25.5c-32 0 -58.333 9 -79 27z" />
    <glyph glyph-name="ebreve" unicode="&#x115;" horiz-adv-x="512" 
d="M382.5 268.5c-63.667 -31.667 -154.5 -51.501 -272.5 -59.501v-10c0 -57.333 12.5 -99.833 37.5 -127.5s59.167 -41.5 102.5 -41.5c28 0 53.5 4.33301 76.5 13s47.5 22.334 73.5 41.001l22 -33c-28 -20.667 -56 -36.167 -84 -46.5s-58 -15.5 -90 -15.5
c-58.667 0 -104.334 18.167 -137.001 54.5s-49 87.833 -49 154.5c0 52.667 9.66699 104.667 29 156s48.833 93.833 88.5 127.5s88.834 50.5 147.501 50.5c46.667 0 83.5 -11.5 110.5 -34.5s40.5 -52.5 40.5 -88.5c0 -62 -31.833 -108.833 -95.5 -140.5zM216.5 457.499
c-30.333 -23.667 -54.001 -54.167 -71.001 -91.5s-27.833 -77 -32.5 -119c106 7.33301 185.333 24 238 50s79 62.667 79 110c0 25.333 -8.66699 46 -26 62s-43 24 -77 24c-43.333 0 -80.166 -11.833 -110.499 -35.5zM250.499 684.999
c-20.333 19.333 -30.499 44.668 -30.499 76.001l33 4c6 -46 31.667 -69 77 -69c24 0 45 6.16699 63 18.5s31.667 29.833 41 52.5l31 -9c-8.66699 -30.667 -25.334 -55.334 -50.001 -74.001s-53 -28 -85 -28c-32.667 0 -59.167 9.66699 -79.5 29z" />
    <glyph glyph-name="Edotaccent" unicode="&#x116;" horiz-adv-x="502" 
d="M512 684l-12 -41h-285l-37 -266h247l-6 -41h-246l-42 -295h298l-7 -41h-345l97 684h338zM343 808.5c-6 5.66699 -8.99902 13.167 -8.99902 22.5c0 11.333 3.66699 20.666 11 27.999s16.666 11 27.999 11c10 0 17.833 -2.83301 23.5 -8.5s8.5 -13.167 8.5 -22.5
c0 -11.333 -3.66699 -20.666 -11 -27.999s-16.333 -11 -27 -11c-10 0 -18 2.83301 -24 8.5z" />
    <glyph glyph-name="edotaccent" unicode="&#x117;" horiz-adv-x="512" 
d="M382.5 268.5c-63.667 -31.667 -154.5 -51.501 -272.5 -59.501v-10c0 -57.333 12.5 -99.833 37.5 -127.5s59.167 -41.5 102.5 -41.5c28 0 53.5 4.33301 76.5 13s47.5 22.334 73.5 41.001l22 -33c-28 -20.667 -56 -36.167 -84 -46.5s-58 -15.5 -90 -15.5
c-58.667 0 -104.334 18.167 -137.001 54.5s-49 87.833 -49 154.5c0 52.667 9.66699 104.667 29 156s48.833 93.833 88.5 127.5s88.834 50.5 147.501 50.5c46.667 0 83.5 -11.5 110.5 -34.5s40.5 -52.5 40.5 -88.5c0 -62 -31.833 -108.833 -95.5 -140.5zM216.5 457.499
c-30.333 -23.667 -54.001 -54.167 -71.001 -91.5s-27.833 -77 -32.5 -119c106 7.33301 185.333 24 238 50s79 62.667 79 110c0 25.333 -8.66699 46 -26 62s-43 24 -77 24c-43.333 0 -80.166 -11.833 -110.499 -35.5zM311.999 682.499
c-6 5.66699 -8.99902 13.167 -8.99902 22.5c0 11.333 3.66699 20.666 11 27.999s16.666 11 27.999 11c10 0 17.833 -2.83301 23.5 -8.5s8.5 -13.167 8.5 -22.5c0 -11.333 -3.66699 -20.666 -11 -27.999s-16.333 -11 -27 -11c-10 0 -18 2.83301 -24 8.5z" />
    <glyph glyph-name="Eogonek" unicode="&#x118;" horiz-adv-x="502" 
d="M215 643l-37 -265.999h247l-6 -41h-246l-42 -295h298l-7 -41h-28c-48.667 -20.667 -84.167 -40.5 -106.5 -59.5s-33.5 -40.5 -33.5 -64.5c0 -32 19.333 -48 58 -48c16 0 35 2 57 6l-8 -41c-20 -4 -38.333 -6 -55 -6c-31.333 0 -55.333 7.16699 -72 21.5
s-25 32.833 -25 55.5c0 29.333 9.33301 54.666 28 75.999s49 41.333 91 60h-251l97 684h338l-12 -41h-285z" />
    <glyph glyph-name="eogonek" unicode="&#x119;" horiz-adv-x="512" 
d="M382.5 268.5c-63.667 -31.667 -154.5 -51.501 -272.5 -59.501v-10c0 -57.333 12.5 -99.833 37.5 -127.5s59.167 -41.5 102.5 -41.5c28 0 53.5 4.33301 76.5 13s47.5 22.334 73.5 41.001l22 -33c-35.333 -25.333 -67 -42 -95 -50c-40 -18.667 -68.667 -36.5 -86 -53.5
s-26 -37.5 -26 -61.5c0 -16.667 5.5 -29.667 16.5 -39s27.833 -14 50.5 -14c14.667 0 33 2 55 6l-5 -41c-20 -4 -38.667 -6 -56 -6c-34.667 0 -61.167 8.33301 -79.5 25s-27.5 38 -27.5 64c0 44 27 80 81 108h-2c-58.667 0 -104.334 18.167 -137.001 54.5
s-49 87.833 -49 154.5c0 52.667 9.66699 104.667 29 156s48.833 93.833 88.5 127.5s88.834 50.5 147.501 50.5c46.667 0 83.5 -11.5 110.5 -34.5s40.5 -52.5 40.5 -88.5c0 -62 -31.833 -108.833 -95.5 -140.5zM216.5 457.499c-30.333 -23.667 -54.001 -54.167 -71.001 -91.5
s-27.833 -77 -32.5 -119c106 7.33301 185.333 24 238 50s79 62.667 79 110c0 25.333 -8.66699 46 -26 62s-43 24 -77 24c-43.333 0 -80.166 -11.833 -110.499 -35.5z" />
    <glyph glyph-name="Ecaron" unicode="&#x11a;" horiz-adv-x="502" 
d="M512 684l-12 -41h-285l-37 -266h247l-6 -41h-246l-42 -295h298l-7 -41h-345l97 684h338zM491 880l20 -25l-140 -98h-28l-114 98l23 24l110 -78z" />
    <glyph glyph-name="ecaron" unicode="&#x11b;" horiz-adv-x="512" 
d="M382.5 268.5c-63.667 -31.667 -154.5 -51.501 -272.5 -59.501v-10c0 -57.333 12.5 -99.833 37.5 -127.5s59.167 -41.5 102.5 -41.5c28 0 53.5 4.33301 76.5 13s47.5 22.334 73.5 41.001l22 -33c-28 -20.667 -56 -36.167 -84 -46.5s-58 -15.5 -90 -15.5
c-58.667 0 -104.334 18.167 -137.001 54.5s-49 87.833 -49 154.5c0 52.667 9.66699 104.667 29 156s48.833 93.833 88.5 127.5s88.834 50.5 147.501 50.5c46.667 0 83.5 -11.5 110.5 -34.5s40.5 -52.5 40.5 -88.5c0 -62 -31.833 -108.833 -95.5 -140.5zM216.5 457.499
c-30.333 -23.667 -54.001 -54.167 -71.001 -91.5s-27.833 -77 -32.5 -119c106 7.33301 185.333 24 238 50s79 62.667 79 110c0 25.333 -8.66699 46 -26 62s-43 24 -77 24c-43.333 0 -80.166 -11.833 -110.499 -35.5zM461.999 763.999l20 -25l-141 -104h-28l-113 104l23 25
l108 -85z" />
    <glyph glyph-name="Gcircumflex" unicode="&#x11c;" horiz-adv-x="612" 
d="M503 678c28.667 -10.667 55.3311 -27.002 79.998 -49.002l-31 -28c-22 18 -44.333 31.167 -67 39.5s-49 12.5 -79 12.5c-61.333 0 -113.166 -19.5 -155.499 -58.5s-74 -89 -95 -150s-31.5 -124.167 -31.5 -189.5c0 -74.667 16.833 -130.667 50.5 -168
s80.834 -56 141.501 -56c54.667 0 105.667 12.667 153 38l37 254h-137v42h190l-45 -321c-64.667 -36.667 -132 -55 -202 -55c-74 0 -132 23.167 -174 69.5s-63 113.5 -63 201.5c0 70.667 12.5 139.334 37.5 206.001s62.5 121.334 112.5 164.001s110.333 64 181 64
c36 0 68.333 -5.33301 97 -16zM295.997 762.998l-19 26l140 98h27l113 -99l-22 -25l-108 80z" />
    <glyph glyph-name="gcircumflex" unicode="&#x11d;" horiz-adv-x="563" 
d="M414 521.5c24.667 -7 50.3311 -17.501 76.998 -31.501l-71 -488c-10.667 -72.667 -34.5 -125 -71.5 -157s-83.5 -48 -139.5 -48c-58 0 -114.667 16 -170 48l19 34c24 -13.333 48 -23.833 72 -31.5s50 -11.5 78 -11.5c43.333 0 79.833 12.667 109.5 38s48.5 67 56.5 125
l14 95c-20 -29.333 -43.833 -52.333 -71.5 -69s-57.5 -25 -89.5 -25c-51.333 0 -91.666 18.333 -120.999 55s-44 86.334 -44 149.001c0 50 9.33301 100.167 28 150.5s48 92.5 88 126.5s90 51 150 51c32.667 0 61.334 -3.5 86.001 -10.5zM204.997 447.999
c-32.667 -30.667 -56.6689 -68.5 -72.002 -113.5s-22.666 -89.5 -21.999 -133.5c0 -51.333 10.667 -91 32 -119s51 -42 89 -42c62.667 0 117.334 38 164.001 114l45 313c-32 18 -69.333 27 -112 27c-50 0 -91.333 -15.333 -124 -46zM218.995 646.999l-21 25l142 103h27
l113 -103l-23 -25l-108 84z" />
    <glyph glyph-name="Gbreve" unicode="&#x11e;" horiz-adv-x="612" 
d="M503 678c28.667 -10.667 55.3311 -27.002 79.998 -49.002l-31 -28c-22 18 -44.333 31.167 -67 39.5s-49 12.5 -79 12.5c-61.333 0 -113.166 -19.5 -155.499 -58.5s-74 -89 -95 -150s-31.5 -124.167 -31.5 -189.5c0 -74.667 16.833 -130.667 50.5 -168
s80.834 -56 141.501 -56c54.667 0 105.667 12.667 153 38l37 254h-137v42h190l-45 -321c-64.667 -36.667 -132 -55 -202 -55c-74 0 -132 23.167 -174 69.5s-63 113.5 -63 201.5c0 70.667 12.5 139.334 37.5 206.001s62.5 121.334 112.5 164.001s110.333 64 181 64
c36 0 68.333 -5.33301 97 -16zM338.997 793.998c-20.667 18 -31.668 40.333 -33.001 67l32 4c3.33301 -18 12 -32.167 26 -42.5s32 -15.5 54 -15.5c23.333 0 43.833 5.5 61.5 16.5s30.834 25.833 39.501 44.5l32 -10c-8 -26.667 -24.333 -48.5 -49 -65.5
s-52.667 -25.5 -84 -25.5c-32 0 -58.333 9 -79 27z" />
    <glyph glyph-name="gbreve" unicode="&#x11f;" horiz-adv-x="563" 
d="M414 521.5c24.667 -7 50.3311 -17.501 76.998 -31.501l-71 -488c-10.667 -72.667 -34.5 -125 -71.5 -157s-83.5 -48 -139.5 -48c-58 0 -114.667 16 -170 48l19 34c24 -13.333 48 -23.833 72 -31.5s50 -11.5 78 -11.5c43.333 0 79.833 12.667 109.5 38s48.5 67 56.5 125
l14 95c-20 -29.333 -43.833 -52.333 -71.5 -69s-57.5 -25 -89.5 -25c-51.333 0 -91.666 18.333 -120.999 55s-44 86.334 -44 149.001c0 50 9.33301 100.167 28 150.5s48 92.5 88 126.5s90 51 150 51c32.667 0 61.334 -3.5 86.001 -10.5zM204.997 447.999
c-32.667 -30.667 -56.6689 -68.5 -72.002 -113.5s-22.666 -89.5 -21.999 -133.5c0 -51.333 10.667 -91 32 -119s51 -42 89 -42c62.667 0 117.334 38 164.001 114l45 313c-32 18 -69.333 27 -112 27c-50 0 -91.333 -15.333 -124 -46zM258.495 684.999
c-20.333 19.333 -30.499 44.668 -30.499 76.001l33 4c6 -46 31.667 -69 77 -69c24 0 45 6.16699 63 18.5s31.667 29.833 41 52.5l31 -9c-8.66699 -30.667 -25.334 -55.334 -50.001 -74.001s-53 -28 -85 -28c-32.667 0 -59.167 9.66699 -79.5 29z" />
    <glyph glyph-name="Gdotaccent" unicode="&#x120;" horiz-adv-x="612" 
d="M503 678c28.667 -10.667 55.3311 -27.002 79.998 -49.002l-31 -28c-22 18 -44.333 31.167 -67 39.5s-49 12.5 -79 12.5c-61.333 0 -113.166 -19.5 -155.499 -58.5s-74 -89 -95 -150s-31.5 -124.167 -31.5 -189.5c0 -74.667 16.833 -130.667 50.5 -168
s80.834 -56 141.501 -56c54.667 0 105.667 12.667 153 38l37 254h-137v42h190l-45 -321c-64.667 -36.667 -132 -55 -202 -55c-74 0 -132 23.167 -174 69.5s-63 113.5 -63 201.5c0 70.667 12.5 139.334 37.5 206.001s62.5 121.334 112.5 164.001s110.333 64 181 64
c36 0 68.333 -5.33301 97 -16zM403.997 808.498c-6 5.66699 -8.99902 13.167 -8.99902 22.5c0 11.333 3.66699 20.666 11 27.999s16.666 11 27.999 11c10 0 17.833 -2.83301 23.5 -8.5s8.5 -13.167 8.5 -22.5c0 -11.333 -3.66699 -20.666 -11 -27.999s-16.333 -11 -27 -11
c-10 0 -18 2.83301 -24 8.5z" />
    <glyph glyph-name="gdotaccent" unicode="&#x121;" horiz-adv-x="563" 
d="M414 521.5c24.667 -7 50.3311 -17.501 76.998 -31.501l-71 -488c-10.667 -72.667 -34.5 -125 -71.5 -157s-83.5 -48 -139.5 -48c-58 0 -114.667 16 -170 48l19 34c24 -13.333 48 -23.833 72 -31.5s50 -11.5 78 -11.5c43.333 0 79.833 12.667 109.5 38s48.5 67 56.5 125
l14 95c-20 -29.333 -43.833 -52.333 -71.5 -69s-57.5 -25 -89.5 -25c-51.333 0 -91.666 18.333 -120.999 55s-44 86.334 -44 149.001c0 50 9.33301 100.167 28 150.5s48 92.5 88 126.5s90 51 150 51c32.667 0 61.334 -3.5 86.001 -10.5zM204.997 447.999
c-32.667 -30.667 -56.6689 -68.5 -72.002 -113.5s-22.666 -89.5 -21.999 -133.5c0 -51.333 10.667 -91 32 -119s51 -42 89 -42c62.667 0 117.334 38 164.001 114l45 313c-32 18 -69.333 27 -112 27c-50 0 -91.333 -15.333 -124 -46zM319.995 682.499
c-6 5.66699 -8.99902 13.167 -8.99902 22.5c0 11.333 3.66699 20.666 11 27.999s16.666 11 27.999 11c10 0 17.833 -2.83301 23.5 -8.5s8.5 -13.167 8.5 -22.5c0 -11.333 -3.66699 -20.666 -11 -27.999s-16.333 -11 -27 -11c-10 0 -18 2.83301 -24 8.5z" />
    <glyph glyph-name="Gcommaaccent" unicode="&#x122;" horiz-adv-x="612" 
d="M503 678c28.667 -10.667 55.3311 -27.002 79.998 -49.002l-31 -28c-22 18 -44.333 31.167 -67 39.5s-49 12.5 -79 12.5c-61.333 0 -113.166 -19.5 -155.499 -58.5s-74 -89 -95 -150s-31.5 -124.167 -31.5 -189.5c0 -74.667 16.833 -130.667 50.5 -168
s80.834 -56 141.501 -56c54.667 0 105.667 12.667 153 38l37 254h-137v42h190l-45 -321c-64.667 -36.667 -132 -55 -202 -55c-74 0 -132 23.167 -174 69.5s-63 113.5 -63 201.5c0 70.667 12.5 139.334 37.5 206.001s62.5 121.334 112.5 164.001s110.333 64 181 64
c36 0 68.333 -5.33301 97 -16zM317.997 -97.002c6.66699 -6.66699 9.99805 -15.001 9.99805 -25.001c0 -8.66699 -1.83301 -17.167 -5.5 -25.5s-11.5 -22.166 -23.5 -41.499l-51 -84h-30l50 114c-6 3.33301 -10.5 7.83301 -13.5 13.5s-4.5 11.5 -4.5 17.5
c0 11.333 3.83301 21 11.5 29s17.834 12 30.501 12c10.667 0 19.334 -3.33301 26.001 -10z" />
    <glyph glyph-name="gcommaaccent" unicode="&#x123;" horiz-adv-x="563" 
d="M414 521.5c24.667 -7 50.3311 -17.501 76.998 -31.501l-71 -488c-10.667 -72.667 -34.5 -125 -71.5 -157s-83.5 -48 -139.5 -48c-58 0 -114.667 16 -170 48l19 34c24 -13.333 48 -23.833 72 -31.5s50 -11.5 78 -11.5c43.333 0 79.833 12.667 109.5 38s48.5 67 56.5 125
l14 95c-20 -29.333 -43.833 -52.333 -71.5 -69s-57.5 -25 -89.5 -25c-51.333 0 -91.666 18.333 -120.999 55s-44 86.334 -44 149.001c0 50 9.33301 100.167 28 150.5s48 92.5 88 126.5s90 51 150 51c32.667 0 61.334 -3.5 86.001 -10.5zM204.997 447.999
c-32.667 -30.667 -56.6689 -68.5 -72.002 -113.5s-22.666 -89.5 -21.999 -133.5c0 -51.333 10.667 -91 32 -119s51 -42 89 -42c62.667 0 117.334 38 164.001 114l45 313c-32 18 -69.333 27 -112 27c-50 0 -91.333 -15.333 -124 -46zM302.995 599.999
c-6.66699 6.66699 -9.99902 15.001 -9.99902 25.001c0 8.66699 1.83301 17.167 5.5 25.5s11.5 22.166 23.5 41.499l51 84h30l-50 -114c6 -3.33301 10.5 -7.83301 13.5 -13.5s4.5 -11.5 4.5 -17.5c0 -11.333 -4 -21 -12 -29s-18 -12 -30 -12
c-10.667 0 -19.334 3.33301 -26.001 10z" />
    <glyph glyph-name="Hcircumflex" unicode="&#x124;" horiz-adv-x="665" 
d="M125 0h-48l97 684h47l-42 -303h341l42 303h48l-96 -684h-48l48 339h-341zM278 763l-19 26l140 98h27l113 -99l-22 -25l-108 80z" />
    <glyph glyph-name="hcircumflex" unicode="&#x125;" horiz-adv-x="582" 
d="M464 500c20.667 -21.333 30.999 -51.999 30.999 -91.999c0 -11.333 -1 -24 -3 -38l-52 -370h-46l52 367c2 13.333 3 25.666 3 36.999c0 59.333 -27.667 89 -83 89c-38.667 0 -74.667 -16 -108 -48s-65.333 -76.333 -96 -133l-44 -312h-46l104 735l47 6l-51 -357
c26 46.667 56.333 83 91 109s71.334 39 110.001 39c40 0 70.333 -10.667 91 -32zM248.999 814.001l-19 26l140 98h27l113 -99l-22 -25l-108 80z" />
    <glyph glyph-name="Hbar" unicode="&#x126;" horiz-adv-x="660" 
d="M653 551l-5 -36h-61l-72 -515h-48l48 339h-341l-48 -339h-48l73 515h-64l6 36h63l19 133h47l-18 -133h341l18 133h48l-19 -133h61zM521 381l19 134h-341l-19 -134h341z" />
    <glyph glyph-name="hbar" unicode="&#x127;" horiz-adv-x="588" 
d="M470 500c20.667 -21.333 30.999 -51.999 30.999 -91.999c0 -11.333 -1 -24 -3 -38l-52 -370h-46l52 367c2 13.333 3 25.666 3 36.999c0 59.333 -27.667 89 -83 89c-38.667 0 -74.667 -16 -108 -48s-65.333 -76.333 -96 -133l-44 -312h-46l88 620h-76l6 38h75l11 77l47 6
l-12 -83h175l-12 -38h-168l-34 -236c26 46.667 56.333 83 91 109s71.334 39 110.001 39c40 0 70.333 -10.667 91 -32z" />
    <glyph glyph-name="Itilde" unicode="&#x128;" horiz-adv-x="277" 
d="M221 684l-96 -684h-48l97 684h47zM243.5 802.5c-9.66699 4.33301 -21.167 10.501 -34.5 18.501c-9.33301 6.66699 -17.5 11.5 -24.5 14.5s-14.167 4.5 -21.5 4.5c-12.667 0 -23.167 -2.83301 -31.5 -8.5s-18.833 -16.167 -31.5 -31.5l-27 19c29.333 40 59.333 60 90 60
c11.333 0 21.5 -2 30.5 -6s19.833 -10 32.5 -18c10 -6.66699 18.833 -11.834 26.5 -15.501s15.5 -5.5 23.5 -5.5c10.667 0 20.834 3.5 30.501 10.5s20.5 18.167 32.5 33.5l28 -17c-27.333 -43.333 -57.333 -65 -90 -65c-12.667 0 -23.834 2.16699 -33.501 6.5z" />
    <glyph glyph-name="itilde" unicode="&#x129;" horiz-adv-x="265" 
d="M192 522l-74 -522h-46l74 522h46zM219.5 676.5c-9.66699 4.33301 -21.167 10.501 -34.5 18.501c-9.33301 6.66699 -17.5 11.5 -24.5 14.5s-14.167 4.5 -21.5 4.5c-12.667 0 -23.167 -2.83301 -31.5 -8.5s-18.833 -16.167 -31.5 -31.5l-27 19c29.333 40 59.333 60 90 60
c11.333 0 21.5 -2 30.5 -6s19.833 -10 32.5 -18c10 -6.66699 18.833 -11.834 26.5 -15.501s15.5 -5.5 23.5 -5.5c10.667 0 20.834 3.5 30.501 10.5s20.5 18.167 32.5 33.5l28 -17c-27.333 -43.333 -57.333 -65 -90 -65c-12.667 0 -23.834 2.16699 -33.501 6.5z" />
    <glyph glyph-name="Imacron" unicode="&#x12a;" horiz-adv-x="277" 
d="M221 684l-96 -684h-48l97 684h47zM329 805h-229l7 39h228z" />
    <glyph glyph-name="imacron" unicode="&#x12b;" horiz-adv-x="265" 
d="M192 522l-74 -522h-46l74 522h46zM305 679h-229l7 39h228z" />
    <glyph glyph-name="Ibreve" unicode="&#x12c;" horiz-adv-x="277" 
d="M221 684l-96 -684h-48l97 684h47zM129 794c-20.667 18 -31.668 40.333 -33.001 67l32 4c3.33301 -18 12 -32.167 26 -42.5s32 -15.5 54 -15.5c23.333 0 43.833 5.5 61.5 16.5s30.834 25.833 39.501 44.5l32 -10c-8 -26.667 -24.333 -48.5 -49 -65.5
s-52.667 -25.5 -84 -25.5c-32 0 -58.333 9 -79 27z" />
    <glyph glyph-name="ibreve" unicode="&#x12d;" horiz-adv-x="265" 
d="M192 522l-74 -522h-46l74 522h46zM107.5 685c-20.333 19.333 -30.499 44.668 -30.499 76.001l33 4c6 -46 31.667 -69 77 -69c24 0 45 6.16699 63 18.5s31.667 29.833 41 52.5l31 -9c-8.66699 -30.667 -25.334 -55.334 -50.001 -74.001s-53 -28 -85 -28
c-32.667 0 -59.167 9.66699 -79.5 29z" />
    <glyph glyph-name="Iogonek" unicode="&#x12e;" horiz-adv-x="277" 
d="M221 684l-96 -684h-5c-48.667 -20.667 -84.167 -40.5 -106.5 -59.5s-33.5 -40.5 -33.5 -64.5c0 -32 19.333 -48 58 -48c16 0 35 2 57 6l-8 -41c-20 -4 -38.333 -6 -55 -6c-31.333 0 -55.333 7.16699 -72 21.5s-25 32.833 -25 55.5c0 32 11.167 59.5 33.5 82.5
s58.833 44.167 109.5 63.5l96 674h47z" />
    <glyph glyph-name="iogonek" unicode="&#x12f;" horiz-adv-x="265" 
d="M222.5 735.5c5.66699 -5.66699 8.50098 -13.167 8.50098 -22.5c0 -11.333 -3.66699 -20.666 -11 -27.999s-16.333 -11 -27 -11c-10 0 -18 2.83301 -24 8.5s-9 13.167 -9 22.5c0 11.333 3.66699 20.666 11 27.999s16.666 11 27.999 11c10 0 17.833 -2.83301 23.5 -8.5z
M146.001 522h46l-74 -522h-7c-48.667 -20.667 -84.167 -40.5 -106.5 -59.5s-33.5 -40.5 -33.5 -64.5c0 -32 19.333 -48 58 -48c16 0 35 2 57 6l-8 -41c-20 -4 -38.333 -6 -55 -6c-31.333 0 -55.333 7.16699 -72 21.5s-25 32.833 -25 55.5c0 32.667 11.5 60.5 34.5 83.5
s60.833 44.5 113.5 64.5z" />
    <glyph glyph-name="Idotaccent" unicode="&#x130;" horiz-adv-x="277" 
d="M221 684l-96 -684h-48l97 684h47zM194 808.5c-6 5.66699 -8.99902 13.167 -8.99902 22.5c0 11.333 3.66699 20.666 11 27.999s16.666 11 27.999 11c10 0 17.833 -2.83301 23.5 -8.5s8.5 -13.167 8.5 -22.5c0 -11.333 -3.66699 -20.666 -11 -27.999s-16.333 -11 -27 -11
c-10 0 -18 2.83301 -24 8.5z" />
    <glyph glyph-name="dotlessi" unicode="&#x131;" horiz-adv-x="265" 
d="M192 522l-74 -522h-46l74 522h46z" />
    <glyph glyph-name="IJ" unicode="&#x132;" horiz-adv-x="562" 
d="M221 684l-96 -684h-48l97 684h47zM429 89c-6 -38.667 -14.999 -69.833 -26.999 -93.5s-29.333 -43.667 -52 -60s-54.334 -32.5 -95.001 -48.5l-11 36c32.667 14.667 58 29 76 43s31.667 31 41 51s16 46 20 78l83 589h48z" />
    <glyph glyph-name="ij" unicode="&#x133;" horiz-adv-x="531" 
d="M192 522l-74 -522h-46l74 522h46zM169 682.5c-6 5.66699 -8.99902 13.167 -8.99902 22.5c0 11.333 3.66699 20.666 11 27.999s16.666 11 27.999 11c10 0 17.833 -2.83301 23.5 -8.5s8.5 -13.167 8.5 -22.5c0 -11.333 -3.66699 -20.666 -11 -27.999s-16.333 -11 -27 -11
c-10 0 -18 2.83301 -24 8.5zM214.001 -166c27.333 13.333 48.835 26.5 64.502 39.5s28.667 30.5 39 52.5s18.166 51.667 23.499 89l71 507h46l-72 -509c-6 -44.667 -15.333 -79.834 -28 -105.501s-28.834 -46.167 -48.501 -61.5s-47.167 -30.666 -82.5 -45.999z
M435.003 682.5c-6 5.66699 -8.99902 13.167 -8.99902 22.5c0 11.333 3.66699 20.666 11 27.999s16.666 11 27.999 11c10 0 17.833 -2.83301 23.5 -8.5s8.5 -13.167 8.5 -22.5c0 -11.333 -3.66699 -20.666 -11 -27.999s-16.333 -11 -27 -11c-10 0 -18 2.83301 -24 8.5z" />
    <glyph glyph-name="Jcircumflex" unicode="&#x134;" horiz-adv-x="285" 
d="M152 89c-6 -38.667 -14.999 -69.833 -26.999 -93.5s-29.333 -43.667 -52 -60s-54.334 -32.5 -95.001 -48.5l-11 36c32.667 14.667 58 29 76 43s31.667 31 41 51s16 46 20 78l83 589h48zM97.001 763.001l-19 26l140 98h27l113 -99l-22 -25l-108 80z" />
    <glyph glyph-name="jcircumflex" unicode="&#x135;" horiz-adv-x="266" 
d="M-51 -166c27.333 13.333 48.835 26.5 64.502 39.5s28.667 30.5 39 52.5s18.166 51.667 23.499 89l71 507h46l-72 -509c-6 -44.667 -15.333 -79.834 -28 -105.501s-28.834 -46.167 -48.501 -61.5s-47.167 -30.666 -82.5 -45.999zM69.002 647l-21 25l142 103h27l113 -103
l-23 -25l-108 84z" />
    <glyph glyph-name="Kcommaaccent" unicode="&#x136;" horiz-adv-x="531" 
d="M77 0l97 684h48l-97 -684h-48zM438 0l-257 367l335 317h58l-338 -319l258 -365h-56zM284 -97c6.66699 -6.66699 9.99805 -15.001 9.99805 -25.001c0 -8.66699 -1.83301 -17.167 -5.5 -25.5s-11.5 -22.166 -23.5 -41.499l-51 -84h-30l50 114
c-6 3.33301 -10.5 7.83301 -13.5 13.5s-4.5 11.5 -4.5 17.5c0 11.333 3.83301 21 11.5 29s17.834 12 30.501 12c10.667 0 19.334 -3.33301 26.001 -10z" />
    <glyph glyph-name="kcommaaccent" unicode="&#x137;" horiz-adv-x="515" 
d="M172 381c28 52 59.001 90.168 93.001 114.501s70 36.5 108 36.5c35.333 0 63.666 -9.66699 84.999 -29s32 -46 32 -80c0 -42.667 -15 -79.834 -45 -111.501s-73.667 -56.5 -131 -74.5l119 -237h-51l-124 253c122 33.333 183 89 183 167c0 49.333 -25.667 74 -77 74
c-38 0 -74.167 -16.667 -108.5 -50s-65.833 -81 -94.5 -143l-43 -301h-46l104 735l47 6zM256.001 -96.999c6.66699 -6.66699 9.99805 -15.001 9.99805 -25.001c0 -8.66699 -1.83301 -17.167 -5.5 -25.5s-11.5 -22.166 -23.5 -41.499l-51 -84h-30l50 114
c-6 3.33301 -10.5 7.83301 -13.5 13.5s-4.5 11.5 -4.5 17.5c0 11.333 3.83301 21 11.5 29s17.834 12 30.501 12c10.667 0 19.334 -3.33301 26.001 -10z" />
    <glyph glyph-name="kgreenlandic" unicode="&#x138;" horiz-adv-x="479" 
d="M192 522l-74 -522h-46l74 522h46zM481 522l-263 -248l212 -274h-54l-213 275l261 247h57z" />
    <glyph glyph-name="Lacute" unicode="&#x139;" horiz-adv-x="465" 
d="M221 684l-89 -640h286l-13 -44h-328l97 684h47zM295 878l16 -44l-201 -75l-11 28z" />
    <glyph glyph-name="lacute" unicode="&#x13a;" horiz-adv-x="280" 
d="M126 83c-0.666992 -4 -1 -9.33301 -1 -16c0 -12.667 2.83301 -22 8.5 -28s14.834 -9 27.501 -9c11.333 0 24.333 2.66699 39 8l11 -36c-18.667 -8.66699 -37.334 -13 -56.001 -13c-24 0 -42.667 6.33301 -56 19s-20 31.667 -20 57c0 4 0.666992 12 2 24l91 646l46 6z
M292 929l16 -44l-201 -75l-11 28z" />
    <glyph glyph-name="Lcommaaccent" unicode="&#x13b;" horiz-adv-x="465" 
d="M221 684l-89 -640h286l-13 -44h-328l97 684h47zM259 -97c6.66699 -6.66699 9.99805 -15.001 9.99805 -25.001c0 -8.66699 -1.83301 -17.167 -5.5 -25.5s-11.5 -22.166 -23.5 -41.499l-51 -84h-30l50 114c-6 3.33301 -10.5 7.83301 -13.5 13.5s-4.5 11.5 -4.5 17.5
c0 11.333 3.83301 21 11.5 29s17.834 12 30.501 12c10.667 0 19.334 -3.33301 26.001 -10z" />
    <glyph glyph-name="lcommaaccent" unicode="&#x13c;" horiz-adv-x="280" 
d="M126 83c-0.666992 -4 -1 -9.33301 -1 -16c0 -12.667 2.83301 -22 8.5 -28s14.834 -9 27.501 -9c11.333 0 24.333 2.66699 39 8l11 -36c-18.667 -8.66699 -37.334 -13 -56.001 -13c-24 0 -42.667 6.33301 -56 19s-20 31.667 -20 57c0 4 0.666992 12 2 24l91 646l46 6z
M161 -97c6.66699 -6.66699 9.99805 -15.001 9.99805 -25.001c0 -8.66699 -1.83301 -17.167 -5.5 -25.5s-11.5 -22.166 -23.5 -41.499l-51 -84h-30l50 114c-6 3.33301 -10.5 7.83301 -13.5 13.5s-4.5 11.5 -4.5 17.5c0 11.333 3.83301 21 11.5 29s17.834 12 30.501 12
c10.667 0 19.334 -3.33301 26.001 -10z" />
    <glyph glyph-name="Lcaron" unicode="&#x13d;" horiz-adv-x="465" 
d="M221 684l-89 -640h286l-13 -44h-328l97 684h47zM313 689l46 -6l-56 -157l-29 5z" />
    <glyph glyph-name="lcaron" unicode="&#x13e;" horiz-adv-x="280" 
d="M126 83c-0.666992 -4 -1 -9.33301 -1 -16c0 -12.667 2.83301 -22 8.5 -28s14.834 -9 27.501 -9c11.333 0 24.333 2.66699 39 8l11 -36c-18.667 -8.66699 -37.334 -13 -56.001 -13c-24 0 -42.667 6.33301 -56 19s-20 31.667 -20 57c0 4 0.666992 12 2 24l91 646l46 6z
M298 740l46 -6l-56 -157l-29 5z" />
    <glyph glyph-name="Ldot" unicode="&#x13f;" horiz-adv-x="465" 
d="M221 684l-89 -640h286l-13 -44h-328l97 684h47zM347 335.5c-6 5.66699 -8.99902 13.167 -8.99902 22.5c0 11.333 3.66699 20.666 11 27.999s16.666 11 27.999 11c10 0 17.833 -2.83301 23.5 -8.5s8.5 -13.167 8.5 -22.5c0 -11.333 -3.66699 -20.666 -11 -27.999
s-16.333 -11 -27 -11c-10 0 -18 2.83301 -24 8.5z" />
    <glyph glyph-name="ldot" unicode="&#x140;" horiz-adv-x="291" 
d="M126 83c-0.666992 -4 -1 -9.33301 -1 -16c0 -12.667 2.83301 -22 8.5 -28s14.834 -9 27.501 -9c11.333 0 24.333 2.66699 39 8l11 -36c-18.667 -8.66699 -37.334 -13 -56.001 -13c-24 0 -42.667 6.33301 -56 19s-20 31.667 -20 57c0 4 0.666992 12 2 24l91 646l46 6z
M259 348.5c-6 5.66699 -8.99902 13.167 -8.99902 22.5c0 11.333 3.66699 20.666 11 27.999s16.666 11 27.999 11c10 0 17.833 -2.83301 23.5 -8.5s8.5 -13.167 8.5 -22.5c0 -11.333 -3.66699 -20.666 -11 -27.999s-16.333 -11 -27 -11c-10 0 -18 2.83301 -24 8.5z" />
    <glyph glyph-name="Lslash" unicode="&#x141;" horiz-adv-x="476" 
d="M143 44h286l-13 -44h-328l41 289l-70 -41l-19 33l96 55l49 348h47l-44 -317l201 116l18 -34l-226 -130z" />
    <glyph glyph-name="lslash" unicode="&#x142;" horiz-adv-x="286" 
d="M200 38l11 -36c-18.667 -8.66699 -37.334 -13 -56.001 -13c-24 0 -42.667 6.33301 -56 19s-20 31.667 -20 57c0 4 0.666992 12 2 24l35 246l-59 -33l-15 33l80 46l50 354l46 6l-46 -332l107 61l14 -34l-128 -73l-39 -280c-0.666992 -4 -1 -9.33301 -1 -16
c0 -12.667 2.83301 -22 8.5 -28s14.834 -9 27.501 -9c11.333 0 24.333 2.66699 39 8z" />
    <glyph glyph-name="Nacute" unicode="&#x143;" horiz-adv-x="667" 
d="M516 0h-60l-250 639c-2 -52 -10.667 -130.333 -26 -235l-57 -404h-46l97 684h61l250 -638c3.33301 58 10.333 127.667 21 209l61 429h45zM498 878l16 -44l-201 -75l-11 28z" />
    <glyph glyph-name="nacute" unicode="&#x144;" horiz-adv-x="581" 
d="M463.5 499.5c21 -21.667 31.5 -52.5 31.5 -92.5c0 -12 -1 -24.667 -3 -38l-52 -369h-46l52 367c2 13.333 3 25 3 35c0 60.667 -27.667 91 -83 91c-70.667 0 -138.667 -60.333 -204 -181l-44 -312h-46l74 522h39l-15 -140c26.667 48 57.5 85 92.5 111s72.167 39 111.5 39
c38.667 0 68.5 -10.833 89.5 -32.5zM444 776l17 -44l-201 -84l-13 27z" />
    <glyph glyph-name="Ncommaaccent" unicode="&#x145;" horiz-adv-x="667" 
d="M516 0h-60l-250 639c-2 -52 -10.667 -130.333 -26 -235l-57 -404h-46l97 684h61l250 -638c3.33301 58 10.333 127.667 21 209l61 429h45zM315 -97c6.66699 -6.66699 9.99805 -15.001 9.99805 -25.001c0 -8.66699 -1.83301 -17.167 -5.5 -25.5
s-11.5 -22.166 -23.5 -41.499l-51 -84h-30l50 114c-6 3.33301 -10.5 7.83301 -13.5 13.5s-4.5 11.5 -4.5 17.5c0 11.333 3.83301 21 11.5 29s17.834 12 30.501 12c10.667 0 19.334 -3.33301 26.001 -10z" />
    <glyph glyph-name="ncommaaccent" unicode="&#x146;" horiz-adv-x="581" 
d="M463.5 499.5c21 -21.667 31.5 -52.5 31.5 -92.5c0 -12 -1 -24.667 -3 -38l-52 -369h-46l52 367c2 13.333 3 25 3 35c0 60.667 -27.667 91 -83 91c-70.667 0 -138.667 -60.333 -204 -181l-44 -312h-46l74 522h39l-15 -140c26.667 48 57.5 85 92.5 111s72.167 39 111.5 39
c38.667 0 68.5 -10.833 89.5 -32.5zM269 -97c6.66699 -6.66699 9.99805 -15.001 9.99805 -25.001c0 -8.66699 -1.83301 -17.167 -5.5 -25.5s-11.5 -22.166 -23.5 -41.499l-51 -84h-30l50 114c-6 3.33301 -10.5 7.83301 -13.5 13.5s-4.5 11.5 -4.5 17.5
c0 11.333 3.83301 21 11.5 29s17.834 12 30.501 12c10.667 0 19.334 -3.33301 26.001 -10z" />
    <glyph glyph-name="Ncaron" unicode="&#x147;" horiz-adv-x="667" 
d="M516 0h-60l-250 639c-2 -52 -10.667 -130.333 -26 -235l-57 -404h-46l97 684h61l250 -638c3.33301 58 10.333 127.667 21 209l61 429h45zM545 880l20 -25l-140 -98h-28l-114 98l23 24l110 -78z" />
    <glyph glyph-name="ncaron" unicode="&#x148;" horiz-adv-x="581" 
d="M463.5 499.5c21 -21.667 31.5 -52.5 31.5 -92.5c0 -12 -1 -24.667 -3 -38l-52 -369h-46l52 367c2 13.333 3 25 3 35c0 60.667 -27.667 91 -83 91c-70.667 0 -138.667 -60.333 -204 -181l-44 -312h-46l74 522h39l-15 -140c26.667 48 57.5 85 92.5 111s72.167 39 111.5 39
c38.667 0 68.5 -10.833 89.5 -32.5zM478 764l20 -25l-141 -104h-28l-113 104l23 25l108 -85z" />
    <glyph glyph-name="napostrophe" unicode="&#x149;" horiz-adv-x="658" 
d="M189 731c6.66699 -7.33301 9.33301 -16.001 8 -26.001c0 -8.66699 -1.66699 -16.667 -5 -24s-10.333 -20.666 -21 -39.999l-50 -89h-29l47 118c-12.667 8 -19 18.333 -19 31c0 12 3.83301 21.833 11.5 29.5s17.5 11.5 29.5 11.5s21.333 -3.66699 28 -11zM539.499 499.499
c21 -21.667 31.5 -52.5 31.5 -92.5c0 -12 -1 -24.667 -3 -38l-52 -369h-46l52 367c2 13.333 3 25 3 35c0 60.667 -27.667 91 -83 91c-70.667 0 -138.667 -60.333 -204 -181l-44 -312h-46l74 522h39l-15 -140c26.667 48 57.5 85 92.5 111s72.167 39 111.5 39
c38.667 0 68.5 -10.833 89.5 -32.5z" />
    <glyph glyph-name="Eng" unicode="&#x14a;" horiz-adv-x="667" 
d="M612 684l-95.998 -684l-11 -77c-6 -42 -20.833 -73.5 -44.5 -94.5s-52.834 -31.5 -87.501 -31.5c-34 0 -65.333 11.333 -94 34l23 30c10.667 -7.33301 21.167 -13 31.5 -17s23.166 -6 38.499 -6c22 0 40.667 7 56 21s25 36.333 29 67l11 74h-12l-250 639
c-2 -52 -10.667 -130.333 -26 -235l-57 -404h-46l97 684h61l250 -638c3.33301 58 10.333 127.667 21 209l61 429h45z" />
    <glyph glyph-name="eng" unicode="&#x14b;" horiz-adv-x="581" 
d="M463.5 499.5c21 -21.667 31.499 -52.501 31.499 -92.501c0 -12 -1 -24.667 -3 -38l-52 -369l-11 -77c-6 -41.333 -20.833 -72.666 -44.5 -93.999s-52.834 -32 -87.501 -32c-34 0 -65.333 11.333 -94 34l23 29c10.667 -8 21.334 -13.833 32.001 -17.5
s23.334 -5.5 38.001 -5.5c22.667 0 41.667 6.83301 57 20.5s25.333 36.167 30 67.5l11 75l52 367c2 13.333 3 25 3 35c0 60.667 -27.667 91 -83 91c-70.667 0 -138.667 -60.333 -204 -181l-44 -312h-46l74 522h39l-15 -140c26.667 48 57.5 85 92.5 111s72.167 39 111.5 39
c38.667 0 68.5 -10.833 89.5 -32.5z" />
    <glyph glyph-name="Omacron" unicode="&#x14c;" horiz-adv-x="689" 
d="M575 624.5c41.333 -46.333 62.002 -112.832 62.002 -199.499c0 -66.667 -10.833 -133.334 -32.5 -200.001s-57.167 -122.667 -106.5 -168s-112.333 -68 -189 -68c-72.667 0 -129.834 23.667 -171.501 71s-62.5 114.333 -62.5 201c0 64.667 11.167 130.167 33.5 196.5
s58.166 122.333 107.499 168s112 68.5 188 68.5c72.667 0 129.667 -23.167 171 -69.5zM241.502 590.501c-41.667 -41.667 -71.668 -92.835 -90.001 -153.502s-27.5 -120 -27.5 -178c0 -75.333 16.5 -132.166 49.5 -170.499s78.5 -57.5 136.5 -57.5
c67.333 0 121.833 21 163.5 63s71.167 93.333 88.5 154s26 120.334 26 179.001c0 75.333 -16.167 131.833 -48.5 169.5s-78.166 56.5 -137.499 56.5c-65.333 0 -118.833 -20.833 -160.5 -62.5zM536.001 805h-229l7 39h228z" />
    <glyph glyph-name="omacron" unicode="&#x14d;" horiz-adv-x="566" 
d="M111 44.5c-32.667 37 -48.999 88.501 -48.999 154.501c0 50 8.66699 100.5 26 151.5s45.333 94 84 129s88 52.5 148 52.5c58.667 0 104.167 -18 136.5 -54s48.5 -87 48.5 -153c0 -49.333 -8.5 -99.833 -25.5 -151.5s-44.833 -95.334 -83.5 -131.001
s-88.334 -53.5 -149.001 -53.5c-58 0 -103.333 18.5 -136 55.5zM369.001 77.001c31.333 31.333 53.834 69.832 67.501 115.499s20.5 90.5 20.5 134.5c0 54 -12 95.167 -36 123.5s-58 42.5 -102 42.5c-50 0 -90.5 -16 -121.5 -48s-53.333 -70.667 -67 -116
s-20.5 -89.666 -20.5 -132.999c0 -54 12 -95.167 36 -123.5s58 -42.5 102 -42.5c49.333 0 89.666 15.667 120.999 47zM457.002 679h-229l7 39h228z" />
    <glyph glyph-name="Obreve" unicode="&#x14e;" horiz-adv-x="689" 
d="M575 624.5c41.333 -46.333 62.002 -112.832 62.002 -199.499c0 -66.667 -10.833 -133.334 -32.5 -200.001s-57.167 -122.667 -106.5 -168s-112.333 -68 -189 -68c-72.667 0 -129.834 23.667 -171.501 71s-62.5 114.333 -62.5 201c0 64.667 11.167 130.167 33.5 196.5
s58.166 122.333 107.499 168s112 68.5 188 68.5c72.667 0 129.667 -23.167 171 -69.5zM241.502 590.501c-41.667 -41.667 -71.668 -92.835 -90.001 -153.502s-27.5 -120 -27.5 -178c0 -75.333 16.5 -132.166 49.5 -170.499s78.5 -57.5 136.5 -57.5
c67.333 0 121.833 21 163.5 63s71.167 93.333 88.5 154s26 120.334 26 179.001c0 75.333 -16.167 131.833 -48.5 169.5s-78.166 56.5 -137.499 56.5c-65.333 0 -118.833 -20.833 -160.5 -62.5zM336.001 794c-20.667 18 -31.668 40.333 -33.001 67l32 4
c3.33301 -18 12 -32.167 26 -42.5s32 -15.5 54 -15.5c23.333 0 43.833 5.5 61.5 16.5s30.834 25.833 39.501 44.5l32 -10c-8 -26.667 -24.333 -48.5 -49 -65.5s-52.667 -25.5 -84 -25.5c-32 0 -58.333 9 -79 27z" />
    <glyph glyph-name="obreve" unicode="&#x14f;" horiz-adv-x="566" 
d="M111 44.5c-32.667 37 -48.999 88.501 -48.999 154.501c0 50 8.66699 100.5 26 151.5s45.333 94 84 129s88 52.5 148 52.5c58.667 0 104.167 -18 136.5 -54s48.5 -87 48.5 -153c0 -49.333 -8.5 -99.833 -25.5 -151.5s-44.833 -95.334 -83.5 -131.001
s-88.334 -53.5 -149.001 -53.5c-58 0 -103.333 18.5 -136 55.5zM369.001 77.001c31.333 31.333 53.834 69.832 67.501 115.499s20.5 90.5 20.5 134.5c0 54 -12 95.167 -36 123.5s-58 42.5 -102 42.5c-50 0 -90.5 -16 -121.5 -48s-53.333 -70.667 -67 -116
s-20.5 -89.666 -20.5 -132.999c0 -54 12 -95.167 36 -123.5s58 -42.5 102 -42.5c49.333 0 89.666 15.667 120.999 47zM259.502 685c-20.333 19.333 -30.499 44.668 -30.499 76.001l33 4c6 -46 31.667 -69 77 -69c24 0 45 6.16699 63 18.5s31.667 29.833 41 52.5l31 -9
c-8.66699 -30.667 -25.334 -55.334 -50.001 -74.001s-53 -28 -85 -28c-32.667 0 -59.167 9.66699 -79.5 29z" />
    <glyph glyph-name="Ohungarumlaut" unicode="&#x150;" horiz-adv-x="689" 
d="M575 624.5c41.333 -46.333 62.002 -112.832 62.002 -199.499c0 -66.667 -10.833 -133.334 -32.5 -200.001s-57.167 -122.667 -106.5 -168s-112.333 -68 -189 -68c-72.667 0 -129.834 23.667 -171.501 71s-62.5 114.333 -62.5 201c0 64.667 11.167 130.167 33.5 196.5
s58.166 122.333 107.499 168s112 68.5 188 68.5c72.667 0 129.667 -23.167 171 -69.5zM241.502 590.501c-41.667 -41.667 -71.668 -92.835 -90.001 -153.502s-27.5 -120 -27.5 -178c0 -75.333 16.5 -132.166 49.5 -170.499s78.5 -57.5 136.5 -57.5
c67.333 0 121.833 21 163.5 63s71.167 93.333 88.5 154s26 120.334 26 179.001c0 75.333 -16.167 131.833 -48.5 169.5s-78.166 56.5 -137.499 56.5c-65.333 0 -118.833 -20.833 -160.5 -62.5zM549.001 930l40 -23l-106 -136l-30 15zM428.001 929l40 -22l-99 -132l-29 15z
" />
    <glyph glyph-name="ohungarumlaut" unicode="&#x151;" horiz-adv-x="566" 
d="M111 44.5c-32.667 37 -48.999 88.501 -48.999 154.501c0 50 8.66699 100.5 26 151.5s45.333 94 84 129s88 52.5 148 52.5c58.667 0 104.167 -18 136.5 -54s48.5 -87 48.5 -153c0 -49.333 -8.5 -99.833 -25.5 -151.5s-44.833 -95.334 -83.5 -131.001
s-88.334 -53.5 -149.001 -53.5c-58 0 -103.333 18.5 -136 55.5zM369.001 77.001c31.333 31.333 53.834 69.832 67.501 115.499s20.5 90.5 20.5 134.5c0 54 -12 95.167 -36 123.5s-58 42.5 -102 42.5c-50 0 -90.5 -16 -121.5 -48s-53.333 -70.667 -67 -116
s-20.5 -89.666 -20.5 -132.999c0 -54 12 -95.167 36 -123.5s58 -42.5 102 -42.5c49.333 0 89.666 15.667 120.999 47zM472.002 804l40 -23l-106 -136l-30 15zM351.002 803l40 -22l-99 -132l-29 15z" />
    <glyph glyph-name="OE" unicode="&#x152;" horiz-adv-x="858" 
d="M856 643h-327.001c58 -44.667 87 -117 87 -217c0 -10 -0.666992 -26.333 -2 -49h166l-6 -41h-165c-8.66699 -61.333 -26.167 -118.333 -52.5 -171s-62.166 -94 -107.499 -124h335l-7 -41h-410c-24 -7.33301 -47.333 -11 -70 -11c-68 0 -122.167 23.667 -162.5 71
s-60.5 114 -60.5 200c0 62.667 11.167 127.5 33.5 194.5s57.333 123.667 105 170s107.167 69.5 178.5 69.5c23.333 0 46 -3.33301 68 -10h408zM520.999 597c-31.333 37.333 -74.332 55.999 -128.999 55.999c-62 0 -113.167 -21.167 -153.5 -63.5
s-69.5 -94.166 -87.5 -155.499s-27 -121 -27 -179c0 -72.667 15.833 -128.167 47.5 -166.5s74.167 -57.5 127.5 -57.5c64 0 116.167 21.667 156.5 65s69.166 95.833 86.499 157.5s26 121.5 26 179.5c0 72 -15.667 126.667 -47 164z" />
    <glyph glyph-name="oe" unicode="&#x153;" horiz-adv-x="898" 
d="M768 268.5c-64 -31.667 -154.999 -51.501 -272.999 -59.501v-10c0 -57.333 12.5 -99.833 37.5 -127.5s59.5 -41.5 103.5 -41.5c28 0 53.333 4.33301 76 13s47.334 22.334 74.001 41.001l22 -33c-28.667 -20.667 -56.834 -36.167 -84.501 -46.5s-57.5 -15.5 -89.5 -15.5
c-94 0 -153 48 -177 144c-20.667 -44 -48.334 -79 -83.001 -105s-77 -39 -127 -39c-58 0 -103.333 18.5 -136 55.5s-49 88.5 -49 154.5c0 50 8.66699 100.5 26 151.5s45.333 94 84 129s88 52.5 148 52.5c94 0 152 -48 174 -144c21.333 44 49.5 79 84.5 105
s77.833 39 128.5 39c48.667 0 87 -11.5 115 -34.5s42 -52.5 42 -88.5c0 -62 -32 -108.833 -96 -140.5zM369.001 76.999c31.333 31.333 53.834 69.832 67.501 115.499s20.5 90.5 20.5 134.5c0 54 -12 95.167 -36 123.5s-58 42.5 -102 42.5c-50 0 -90.5 -16 -121.5 -48
s-53.333 -70.667 -67 -116s-20.5 -89.666 -20.5 -132.999c0 -54 12 -95.167 36 -123.5s58 -42.5 102 -42.5c49.333 0 89.666 15.667 120.999 47zM561.502 420.498c-35 -48.333 -56.167 -106.5 -63.5 -174.5c106 8 185.5 25 238.5 51s79.5 62.667 79.5 110
c0 25.333 -9.16699 46 -27.5 62s-45.5 24 -81.5 24c-62 0 -110.5 -24.167 -145.5 -72.5z" />
    <glyph glyph-name="Racute" unicode="&#x154;" horiz-adv-x="583" 
d="M502.5 396.5c-29.667 -38.333 -75.5 -64.167 -137.5 -77.5l145 -319h-53l-140 313h-148l-44 -313h-48l97 684h165c138.667 0 208 -52.333 208 -157c0 -48.667 -14.833 -92.167 -44.5 -130.5zM299 352.999c70 0 120.501 17.168 151.501 51.501s46.5 75.166 46.5 122.499
c0 39.333 -12.833 68.5 -38.5 87.5s-66.834 28.5 -123.501 28.5h-120l-41 -290h125zM448.001 878l16 -44l-201 -75l-11 28z" />
    <glyph glyph-name="racute" unicode="&#x155;" horiz-adv-x="368" 
d="M391 525l-13 -42.001c-14.667 4 -28.334 6 -41.001 6c-38 0 -70.333 -15.333 -97 -46s-52.667 -76.667 -78 -138l-44 -305h-46l74 522h40l-16 -134c20.667 46.667 44.834 82.334 72.501 107.001s60.5 37 98.5 37c19.333 0 36 -2.33301 50 -7zM384 775.999l17 -44
l-201 -84l-13 27z" />
    <glyph glyph-name="Rcommaaccent" unicode="&#x156;" horiz-adv-x="583" 
d="M502.5 396.5c-29.667 -38.333 -75.5 -64.167 -137.5 -77.5l145 -319h-53l-140 313h-148l-44 -313h-48l97 684h165c138.667 0 208 -52.333 208 -157c0 -48.667 -14.833 -92.167 -44.5 -130.5zM299 352.999c70 0 120.501 17.168 151.501 51.501s46.5 75.166 46.5 122.499
c0 39.333 -12.833 68.5 -38.5 87.5s-66.834 28.5 -123.501 28.5h-120l-41 -290h125zM286.001 -97c6.66699 -6.66699 9.99805 -15.001 9.99805 -25.001c0 -8.66699 -1.83301 -17.167 -5.5 -25.5s-11.5 -22.166 -23.5 -41.499l-51 -84h-30l50 114
c-6 3.33301 -10.5 7.83301 -13.5 13.5s-4.5 11.5 -4.5 17.5c0 11.333 3.83301 21 11.5 29s17.834 12 30.501 12c10.667 0 19.334 -3.33301 26.001 -10z" />
    <glyph glyph-name="rcommaaccent" unicode="&#x157;" horiz-adv-x="368" 
d="M391 525l-13 -42.001c-14.667 4 -28.334 6 -41.001 6c-38 0 -70.333 -15.333 -97 -46s-52.667 -76.667 -78 -138l-44 -305h-46l74 522h40l-16 -134c20.667 46.667 44.834 82.334 72.501 107.001s60.5 37 98.5 37c19.333 0 36 -2.33301 50 -7zM107 -97.001
c6.66699 -6.66699 9.99805 -15.001 9.99805 -25.001c0 -8.66699 -1.83301 -17.167 -5.5 -25.5s-11.5 -22.166 -23.5 -41.499l-51 -84h-30l50 114c-6 3.33301 -10.5 7.83301 -13.5 13.5s-4.5 11.5 -4.5 17.5c0 11.333 3.83301 21 11.5 29s17.834 12 30.501 12
c10.667 0 19.334 -3.33301 26.001 -10z" />
    <glyph glyph-name="Rcaron" unicode="&#x158;" horiz-adv-x="583" 
d="M502.5 396.5c-29.667 -38.333 -75.5 -64.167 -137.5 -77.5l145 -319h-53l-140 313h-148l-44 -313h-48l97 684h165c138.667 0 208 -52.333 208 -157c0 -48.667 -14.833 -92.167 -44.5 -130.5zM299 352.999c70 0 120.501 17.168 151.501 51.501s46.5 75.166 46.5 122.499
c0 39.333 -12.833 68.5 -38.5 87.5s-66.834 28.5 -123.501 28.5h-120l-41 -290h125zM495.001 880l20 -25l-140 -98h-28l-114 98l23 24l110 -78z" />
    <glyph glyph-name="rcaron" unicode="&#x159;" horiz-adv-x="368" 
d="M391 525l-13 -42.001c-14.667 4 -28.334 6 -41.001 6c-38 0 -70.333 -15.333 -97 -46s-52.667 -76.667 -78 -138l-44 -305h-46l74 522h40l-16 -134c20.667 46.667 44.834 82.334 72.501 107.001s60.5 37 98.5 37c19.333 0 36 -2.33301 50 -7zM418 763.999l20 -25
l-141 -104h-28l-113 104l23 25l108 -85z" />
    <glyph glyph-name="Sacute" unicode="&#x15a;" horiz-adv-x="535" 
d="M426 675c29.333 -12.667 56 -31.333 80 -56l-31 -29c-22 22 -44.833 38 -68.5 48s-51.167 15 -82.5 15c-50.667 0 -91.5 -12.5 -122.5 -37.5s-46.5 -57.5 -46.5 -97.5c0 -33.333 10.5 -59.5 31.5 -78.5s57.833 -36.833 110.5 -53.5
c58.667 -18.667 102 -41.834 130 -69.501s42 -65.5 42 -113.5c0 -35.333 -8.83301 -69.333 -26.5 -102s-45.167 -59.5 -82.5 -80.5s-83.666 -31.5 -138.999 -31.5c-44 0 -82.5 7.5 -115.5 22.5s-62.5 36.5 -88.5 64.5l32 29c22.667 -24 47.667 -42.333 75 -55
s59.666 -19 96.999 -19c45.333 0 83 8.33301 113 25s51.833 38 65.5 64s20.5 53.333 20.5 82c0 36 -10.833 64.833 -32.5 86.5s-58.5 41.5 -110.5 59.5c-61.333 20 -105 42.333 -131 67s-39 58.334 -39 101.001c0 31.333 8.5 60.5 25.5 87.5s42 48.833 75 65.5
s71.833 25 116.5 25c38.667 0 72.667 -6.33301 102 -19zM426 878.001l16 -44l-201 -75l-11 28z" />
    <glyph glyph-name="sacute" unicode="&#x15b;" horiz-adv-x="461" 
d="M344 518c25.333 -9.33301 49 -23.6709 71 -43.0039l-25 -28c-20 15.333 -40.333 26.833 -61 34.5s-44 11.5 -70 11.5c-39.333 0 -70.833 -8.5 -94.5 -25.5s-35.5 -40.5 -35.5 -70.5c0 -23.333 8.5 -42.666 25.5 -57.999s47.5 -29.666 91.5 -42.999
c52 -16.667 89.333 -36.5 112 -59.5s34 -52.833 34 -89.5c0 -46 -17.333 -83.833 -52 -113.5s-83.334 -44.5 -146.001 -44.5c-40 0 -74.333 6.16699 -103 18.5s-54.667 29.166 -78 50.499l27 28c22.667 -18.667 46 -32.667 70 -42s51.667 -14 83 -14
c46.667 0 83.5 9.83301 110.5 29.5s40.5 47.834 40.5 84.501c0 28.667 -8.66699 51.334 -26 68.001s-49.666 32.334 -96.999 47.001c-52 16 -88.167 34.667 -108.5 56s-30.5 48.333 -30.5 81c0 25.333 7.33301 48.333 22 69s35.334 37 62.001 49s57.667 18 93 18
c31.333 0 59.666 -4.66699 84.999 -14zM384 775.995l17 -44l-201 -84l-13 27z" />
    <glyph glyph-name="Scircumflex" unicode="&#x15c;" horiz-adv-x="535" 
d="M426 675c29.333 -12.667 56 -31.333 80 -56l-31 -29c-22 22 -44.833 38 -68.5 48s-51.167 15 -82.5 15c-50.667 0 -91.5 -12.5 -122.5 -37.5s-46.5 -57.5 -46.5 -97.5c0 -33.333 10.5 -59.5 31.5 -78.5s57.833 -36.833 110.5 -53.5
c58.667 -18.667 102 -41.834 130 -69.501s42 -65.5 42 -113.5c0 -35.333 -8.83301 -69.333 -26.5 -102s-45.167 -59.5 -82.5 -80.5s-83.666 -31.5 -138.999 -31.5c-44 0 -82.5 7.5 -115.5 22.5s-62.5 36.5 -88.5 64.5l32 29c22.667 -24 47.667 -42.333 75 -55
s59.666 -19 96.999 -19c45.333 0 83 8.33301 113 25s51.833 38 65.5 64s20.5 53.333 20.5 82c0 36 -10.833 64.833 -32.5 86.5s-58.5 41.5 -110.5 59.5c-61.333 20 -105 42.333 -131 67s-39 58.334 -39 101.001c0 31.333 8.5 60.5 25.5 87.5s42 48.833 75 65.5
s71.833 25 116.5 25c38.667 0 72.667 -6.33301 102 -19zM217 763.001l-19 26l140 98h27l113 -99l-22 -25l-108 80z" />
    <glyph glyph-name="scircumflex" unicode="&#x15d;" horiz-adv-x="461" 
d="M344 518c25.333 -9.33301 49 -23.6709 71 -43.0039l-25 -28c-20 15.333 -40.333 26.833 -61 34.5s-44 11.5 -70 11.5c-39.333 0 -70.833 -8.5 -94.5 -25.5s-35.5 -40.5 -35.5 -70.5c0 -23.333 8.5 -42.666 25.5 -57.999s47.5 -29.666 91.5 -42.999
c52 -16.667 89.333 -36.5 112 -59.5s34 -52.833 34 -89.5c0 -46 -17.333 -83.833 -52 -113.5s-83.334 -44.5 -146.001 -44.5c-40 0 -74.333 6.16699 -103 18.5s-54.667 29.166 -78 50.499l27 28c22.667 -18.667 46 -32.667 70 -42s51.667 -14 83 -14
c46.667 0 83.5 9.83301 110.5 29.5s40.5 47.834 40.5 84.501c0 28.667 -8.66699 51.334 -26 68.001s-49.666 32.334 -96.999 47.001c-52 16 -88.167 34.667 -108.5 56s-30.5 48.333 -30.5 81c0 25.333 7.33301 48.333 22 69s35.334 37 62.001 49s57.667 18 93 18
c31.333 0 59.666 -4.66699 84.999 -14zM167 646.995l-21 25l142 103h27l113 -103l-23 -25l-108 84z" />
    <glyph glyph-name="Scedilla" unicode="&#x15e;" horiz-adv-x="535" 
d="M426 675c29.333 -12.667 56 -31.333 80 -56l-31 -29c-22 22 -44.833 38 -68.5 48s-51.167 15 -82.5 15c-50.667 0 -91.5 -12.5 -122.5 -37.5s-46.5 -57.5 -46.5 -97.5c0 -33.333 10.5 -59.5 31.5 -78.5s57.833 -36.833 110.5 -53.5
c58.667 -18.667 102 -41.834 130 -69.501s42 -65.5 42 -113.5c0 -34 -8.16699 -66.833 -24.5 -98.5s-41.833 -58.167 -76.5 -79.5s-77.667 -33.333 -129 -36l-10 -56c56 -4 84 -27.333 84 -70c0 -26 -10.167 -46.833 -30.5 -62.5s-46.166 -23.5 -77.499 -23.5
c-30 0 -55.333 7.33301 -76 22l19 29c16 -10 35 -15 57 -15c19.333 0 35 4.16699 47 12.5s18 20.5 18 36.5c0 15.333 -6 26.333 -18 33s-33.333 10 -64 10l17 84c-40 2 -75.167 10.5 -105.5 25.5s-57.833 35.5 -82.5 61.5l32 29c22.667 -24 47.667 -42.333 75 -55
s59.666 -19 96.999 -19c45.333 0 83 8.33301 113 25s51.833 38 65.5 64s20.5 53.333 20.5 82c0 36 -10.833 64.833 -32.5 86.5s-58.5 41.5 -110.5 59.5c-61.333 20 -105 42.333 -131 67s-39 58.334 -39 101.001c0 31.333 8.5 60.5 25.5 87.5s42 48.833 75 65.5
s71.833 25 116.5 25c38.667 0 72.667 -6.33301 102 -19z" />
    <glyph glyph-name="scedilla" unicode="&#x15f;" horiz-adv-x="461" 
d="M358 236.5c22.667 -23 33.998 -52.8398 33.998 -89.5068c0 -44.667 -16.333 -81.667 -49 -111s-78.667 -45 -138 -47l-10 -56c56 -4 84 -27.333 84 -70c0 -26 -10.167 -46.833 -30.5 -62.5s-46.166 -23.5 -77.499 -23.5c-30 0 -55.333 7.33301 -76 22l19 29
c16 -10 35 -15 57 -15c19.333 0 35 4.16699 47 12.5s18 20.5 18 36.5c0 15.333 -6 26.333 -18 33s-33.333 10 -64 10l18 85c-34.667 2.66699 -64.667 9.83398 -90 21.501s-48.333 27.167 -69 46.5l27 28c22.667 -18.667 46 -32.667 70 -42s51.667 -14 83 -14
c46.667 0 83.5 9.83301 110.5 29.5s40.5 47.834 40.5 84.501c0 28.667 -8.66699 51.334 -26 68.001s-49.666 32.334 -96.999 47.001c-52 16 -88.167 34.667 -108.5 56s-30.5 48.333 -30.5 81c0 25.333 7.33301 48.333 22 69s35.334 37 62.001 49s57.667 18 93 18
c31.333 0 59.666 -4.66699 84.999 -14s49 -23.666 71 -42.999l-25 -28c-20 15.333 -40.333 26.833 -61 34.5s-44 11.5 -70 11.5c-39.333 0 -70.833 -8.5 -94.5 -25.5s-35.5 -40.5 -35.5 -70.5c0 -23.333 8.5 -42.666 25.5 -57.999s47.5 -29.666 91.5 -42.999
c52 -16.667 89.333 -36.5 112 -59.5z" />
    <glyph glyph-name="Scaron" unicode="&#x160;" horiz-adv-x="535" 
d="M426 675c29.333 -12.667 56 -31.333 80 -56l-31 -29c-22 22 -44.833 38 -68.5 48s-51.167 15 -82.5 15c-50.667 0 -91.5 -12.5 -122.5 -37.5s-46.5 -57.5 -46.5 -97.5c0 -33.333 10.5 -59.5 31.5 -78.5s57.833 -36.833 110.5 -53.5
c58.667 -18.667 102 -41.834 130 -69.501s42 -65.5 42 -113.5c0 -35.333 -8.83301 -69.333 -26.5 -102s-45.167 -59.5 -82.5 -80.5s-83.666 -31.5 -138.999 -31.5c-44 0 -82.5 7.5 -115.5 22.5s-62.5 36.5 -88.5 64.5l32 29c22.667 -24 47.667 -42.333 75 -55
s59.666 -19 96.999 -19c45.333 0 83 8.33301 113 25s51.833 38 65.5 64s20.5 53.333 20.5 82c0 36 -10.833 64.833 -32.5 86.5s-58.5 41.5 -110.5 59.5c-61.333 20 -105 42.333 -131 67s-39 58.334 -39 101.001c0 31.333 8.5 60.5 25.5 87.5s42 48.833 75 65.5
s71.833 25 116.5 25c38.667 0 72.667 -6.33301 102 -19zM473 880.001l20 -25l-140 -98h-28l-114 98l23 24l110 -78z" />
    <glyph glyph-name="scaron" unicode="&#x161;" horiz-adv-x="461" 
d="M344 518c25.333 -9.33301 49 -23.6709 71 -43.0039l-25 -28c-20 15.333 -40.333 26.833 -61 34.5s-44 11.5 -70 11.5c-39.333 0 -70.833 -8.5 -94.5 -25.5s-35.5 -40.5 -35.5 -70.5c0 -23.333 8.5 -42.666 25.5 -57.999s47.5 -29.666 91.5 -42.999
c52 -16.667 89.333 -36.5 112 -59.5s34 -52.833 34 -89.5c0 -46 -17.333 -83.833 -52 -113.5s-83.334 -44.5 -146.001 -44.5c-40 0 -74.333 6.16699 -103 18.5s-54.667 29.166 -78 50.499l27 28c22.667 -18.667 46 -32.667 70 -42s51.667 -14 83 -14
c46.667 0 83.5 9.83301 110.5 29.5s40.5 47.834 40.5 84.501c0 28.667 -8.66699 51.334 -26 68.001s-49.666 32.334 -96.999 47.001c-52 16 -88.167 34.667 -108.5 56s-30.5 48.333 -30.5 81c0 25.333 7.33301 48.333 22 69s35.334 37 62.001 49s57.667 18 93 18
c31.333 0 59.666 -4.66699 84.999 -14zM418 763.995l20 -25l-141 -104h-28l-113 104l23 25l108 -85z" />
    <glyph glyph-name="uni0162" unicode="&#x162;" horiz-adv-x="486" 
d="M535 684l-12 -44.001h-203l-90 -640h-1l-10 -67c55.333 -4 83 -26 83 -66c0 -25.333 -10.5 -46.666 -31.5 -63.999s-46.833 -26 -77.5 -26c-29.333 0 -54.333 7.33301 -75 22l19 29c16 -10 34.333 -15 55 -15c18 0 33.5 4.5 46.5 13.5s19.5 21.5 19.5 37.5
c0 14.667 -6 25.167 -18 31.5s-33.333 9.5 -64 9.5l21 95h-15l90 640h-204l6 44h461z" />
    <glyph glyph-name="uni0163" unicode="&#x163;" horiz-adv-x="333" 
d="M134 125c-1.33301 -13.333 -2 -22.334 -2 -27.001c0 -45.333 22.333 -68 67 -68c25.333 0 54.666 8.33301 87.999 25l17 -34c-30 -18.667 -62 -29 -96 -31l-10 -57c56 -4 84 -27.333 84 -70c0 -26 -10.167 -46.833 -30.5 -62.5s-46.166 -23.5 -77.499 -23.5
c-30 0 -55.333 7.33301 -76 22l19 29c16 -10 35 -15 57 -15c19.333 0 35 4.16699 47 12.5s18 20.5 18 36.5c0 15.333 -6 26.333 -18 33s-33.333 10 -64 10l18 85c-28 3.33301 -49.833 14 -65.5 32s-23.5 42.333 -23.5 73c0 12.667 0.666992 22.334 2 29.001l51 359h-88l6 39
h88l27 128l36 4l-18 -132h137l-11 -39h-132z" />
    <glyph glyph-name="Tcaron" unicode="&#x164;" horiz-adv-x="486" 
d="M535 684l-12 -44h-203l-90 -640h-48l90 640h-204l6 44h461zM446 880l20 -25l-140 -98h-28l-114 98l23 24l110 -78z" />
    <glyph glyph-name="tcaron" unicode="&#x165;" horiz-adv-x="333" 
d="M134 125c-1.33301 -13.333 -2 -22.334 -2 -27.001c0 -45.333 22.333 -68 67 -68c25.333 0 54.666 8.33301 87.999 25l17 -34c-35.333 -21.333 -72 -32 -110 -32c-33.333 0 -59.666 9.16699 -78.999 27.5s-29 44.5 -29 78.5c0 12.667 0.666992 22.334 2 29.001l51 359h-88
l6 39h88l27 128l36 4l-18 -132h137l-11 -39h-132zM310 742.999l46 -6l-56 -157l-29 5z" />
    <glyph glyph-name="Tbar" unicode="&#x166;" horiz-adv-x="486" 
d="M523 640h-203l-36 -256h121l-5 -39h-121l-49 -345h-48l49 345h-122l5 39h122l36 256h-204l6 44h461z" />
    <glyph glyph-name="tbar" unicode="&#x167;" horiz-adv-x="333" 
d="M184 483l-19 -136.001h131l-12 -38h-124l-26 -184c-1.33301 -13.333 -2 -22.333 -2 -27c0 -45.333 22.333 -68 67 -68c25.333 0 54.666 8.33301 87.999 25l17 -34c-35.333 -21.333 -72 -32 -110 -32c-33.333 0 -59.666 9.16699 -78.999 27.5s-29 44.5 -29 78.5
c0 12.667 0.666992 22.334 2 29.001l26 185h-80l5 38h80l20 136h-88l6 39h88l27 128l36 4l-18 -132h137l-11 -39h-132z" />
    <glyph glyph-name="Utilde" unicode="&#x168;" horiz-adv-x="647" 
d="M535 210c-9.33301 -67.333 -35 -120.999 -77 -160.999s-98.667 -60 -170 -60c-64.667 0 -113.167 15.833 -145.5 47.5s-48.5 75.167 -48.5 130.5c0 9.33301 1.33301 24.666 4 45.999l66 471h47l-65 -470c-2 -16 -3 -30.667 -3 -44c0 -44 12 -78 36 -102
s60.667 -36 110 -36c58.667 0 104.5 16.5 137.5 49.5s53.5 78.167 61.5 135.5l66 467h47zM428.5 802.501c-9.66699 4.33301 -21.167 10.501 -34.5 18.501c-9.33301 6.66699 -17.5 11.5 -24.5 14.5s-14.167 4.5 -21.5 4.5c-12.667 0 -23.167 -2.83301 -31.5 -8.5
s-18.833 -16.167 -31.5 -31.5l-27 19c29.333 40 59.333 60 90 60c11.333 0 21.5 -2 30.5 -6s19.833 -10 32.5 -18c10 -6.66699 18.833 -11.834 26.5 -15.501s15.5 -5.5 23.5 -5.5c10.667 0 20.834 3.5 30.501 10.5s20.5 18.167 32.5 33.5l28 -17
c-27.333 -43.333 -57.333 -65 -90 -65c-12.667 0 -23.834 2.16699 -33.501 6.5z" />
    <glyph glyph-name="utilde" unicode="&#x169;" horiz-adv-x="577" 
d="M119 22.5c-21.333 22.333 -31.999 53.499 -31.999 93.499c0 15.333 0.666992 27 2 35l52 371h46l-52 -370c-1.33301 -8 -2 -19 -2 -33c0 -60 27.667 -90 83 -90c39.333 0 75.666 16.333 108.999 49s63 76.334 89 131.001l44 313h46l-74 -522h-37l16 145
c-23.333 -48 -52 -86 -86 -114s-72 -42 -114 -42c-38.667 0 -68.667 11.167 -90 33.5zM373.501 676.499c-9.66699 4.33301 -21.167 10.501 -34.5 18.501c-9.33301 6.66699 -17.5 11.5 -24.5 14.5s-14.167 4.5 -21.5 4.5c-12.667 0 -23.167 -2.83301 -31.5 -8.5
s-18.833 -16.167 -31.5 -31.5l-27 19c29.333 40 59.333 60 90 60c11.333 0 21.5 -2 30.5 -6s19.833 -10 32.5 -18c10 -6.66699 18.833 -11.834 26.5 -15.501s15.5 -5.5 23.5 -5.5c10.667 0 20.834 3.5 30.501 10.5s20.5 18.167 32.5 33.5l28 -17
c-27.333 -43.333 -57.333 -65 -90 -65c-12.667 0 -23.834 2.16699 -33.501 6.5z" />
    <glyph glyph-name="Umacron" unicode="&#x16a;" horiz-adv-x="647" 
d="M535 210c-9.33301 -67.333 -35 -120.999 -77 -160.999s-98.667 -60 -170 -60c-64.667 0 -113.167 15.833 -145.5 47.5s-48.5 75.167 -48.5 130.5c0 9.33301 1.33301 24.666 4 45.999l66 471h47l-65 -470c-2 -16 -3 -30.667 -3 -44c0 -44 12 -78 36 -102
s60.667 -36 110 -36c58.667 0 104.5 16.5 137.5 49.5s53.5 78.167 61.5 135.5l66 467h47zM514 805.001h-229l7 39h228z" />
    <glyph glyph-name="umacron" unicode="&#x16b;" horiz-adv-x="577" 
d="M119 22.5c-21.333 22.333 -31.999 53.499 -31.999 93.499c0 15.333 0.666992 27 2 35l52 371h46l-52 -370c-1.33301 -8 -2 -19 -2 -33c0 -60 27.667 -90 83 -90c39.333 0 75.666 16.333 108.999 49s63 76.334 89 131.001l44 313h46l-74 -522h-37l16 145
c-23.333 -48 -52 -86 -86 -114s-72 -42 -114 -42c-38.667 0 -68.667 11.167 -90 33.5zM459.001 678.999h-229l7 39h228z" />
    <glyph glyph-name="Ubreve" unicode="&#x16c;" horiz-adv-x="647" 
d="M535 210c-9.33301 -67.333 -35 -120.999 -77 -160.999s-98.667 -60 -170 -60c-64.667 0 -113.167 15.833 -145.5 47.5s-48.5 75.167 -48.5 130.5c0 9.33301 1.33301 24.666 4 45.999l66 471h47l-65 -470c-2 -16 -3 -30.667 -3 -44c0 -44 12 -78 36 -102
s60.667 -36 110 -36c58.667 0 104.5 16.5 137.5 49.5s53.5 78.167 61.5 135.5l66 467h47zM314 794.001c-20.667 18 -31.668 40.333 -33.001 67l32 4c3.33301 -18 12 -32.167 26 -42.5s32 -15.5 54 -15.5c23.333 0 43.833 5.5 61.5 16.5s30.834 25.833 39.501 44.5l32 -10
c-8 -26.667 -24.333 -48.5 -49 -65.5s-52.667 -25.5 -84 -25.5c-32 0 -58.333 9 -79 27z" />
    <glyph glyph-name="ubreve" unicode="&#x16d;" horiz-adv-x="577" 
d="M119 22.5c-21.333 22.333 -31.999 53.499 -31.999 93.499c0 15.333 0.666992 27 2 35l52 371h46l-52 -370c-1.33301 -8 -2 -19 -2 -33c0 -60 27.667 -90 83 -90c39.333 0 75.666 16.333 108.999 49s63 76.334 89 131.001l44 313h46l-74 -522h-37l16 145
c-23.333 -48 -52 -86 -86 -114s-72 -42 -114 -42c-38.667 0 -68.667 11.167 -90 33.5zM261.501 684.999c-20.333 19.333 -30.499 44.668 -30.499 76.001l33 4c6 -46 31.667 -69 77 -69c24 0 45 6.16699 63 18.5s31.667 29.833 41 52.5l31 -9
c-8.66699 -30.667 -25.334 -55.334 -50.001 -74.001s-53 -28 -85 -28c-32.667 0 -59.167 9.66699 -79.5 29z" />
    <glyph glyph-name="Uring" unicode="&#x16e;" horiz-adv-x="647" 
d="M535 210c-9.33301 -67.333 -35 -120.999 -77 -160.999s-98.667 -60 -170 -60c-64.667 0 -113.167 15.833 -145.5 47.5s-48.5 75.167 -48.5 130.5c0 9.33301 1.33301 24.666 4 45.999l66 471h47l-65 -470c-2 -16 -3 -30.667 -3 -44c0 -44 12 -78 36 -102
s60.667 -36 110 -36c58.667 0 104.5 16.5 137.5 49.5s53.5 78.167 61.5 135.5l66 467h47zM479 919.001c15.333 -14.667 23 -33.333 23 -56c0 -29.333 -10 -53.5 -30 -72.5s-44.667 -28.5 -74 -28.5c-25.333 0 -45.666 7.5 -60.999 22.5s-23 33.833 -23 56.5
c0 29.333 10 53.333 30 72s44.667 28 74 28c25.333 0 45.666 -7.33301 60.999 -22zM369 891.002c-12 -13.333 -18.001 -30 -18.001 -50c0 -14.667 4.16699 -26.334 12.5 -35.001s20.166 -13 35.499 -13c20.667 0 36.834 6.83301 48.501 20.5s17.5 29.834 17.5 48.501
c0 15.333 -4.16699 27.333 -12.5 36s-20.166 13 -35.499 13c-20 0 -36 -6.66699 -48 -20z" />
    <glyph glyph-name="uring" unicode="&#x16f;" horiz-adv-x="577" 
d="M119 22.5c-21.333 22.333 -31.999 53.499 -31.999 93.499c0 15.333 0.666992 27 2 35l52 371h46l-52 -370c-1.33301 -8 -2 -19 -2 -33c0 -60 27.667 -90 83 -90c39.333 0 75.666 16.333 108.999 49s63 76.334 89 131.001l44 313h46l-74 -522h-37l16 145
c-23.333 -48 -52 -86 -86 -114s-72 -42 -114 -42c-38.667 0 -68.667 11.167 -90 33.5zM423.001 792.999c15.333 -14.667 23 -33.333 23 -56c0 -29.333 -10 -53.5 -30 -72.5s-44.667 -28.5 -74 -28.5c-25.333 0 -45.666 7.5 -60.999 22.5s-23 33.833 -23 56.5
c0 29.333 10 53.333 30 72s44.667 28 74 28c25.333 0 45.666 -7.33301 60.999 -22zM313.001 765c-12 -13.333 -18.001 -30 -18.001 -50c0 -14.667 4.16699 -26.334 12.5 -35.001s20.166 -13 35.499 -13c20.667 0 36.834 6.83301 48.501 20.5s17.5 29.834 17.5 48.501
c0 15.333 -4.16699 27.333 -12.5 36s-20.166 13 -35.499 13c-20 0 -36 -6.66699 -48 -20z" />
    <glyph glyph-name="Uhungarumlaut" unicode="&#x170;" horiz-adv-x="647" 
d="M535 210c-9.33301 -67.333 -35 -120.999 -77 -160.999s-98.667 -60 -170 -60c-64.667 0 -113.167 15.833 -145.5 47.5s-48.5 75.167 -48.5 130.5c0 9.33301 1.33301 24.666 4 45.999l66 471h47l-65 -470c-2 -16 -3 -30.667 -3 -44c0 -44 12 -78 36 -102
s60.667 -36 110 -36c58.667 0 104.5 16.5 137.5 49.5s53.5 78.167 61.5 135.5l66 467h47zM527 930.001l40 -23l-106 -136l-30 15zM406 929.001l40 -22l-99 -132l-29 15z" />
    <glyph glyph-name="uhungarumlaut" unicode="&#x171;" horiz-adv-x="577" 
d="M119 22.5c-21.333 22.333 -31.999 53.499 -31.999 93.499c0 15.333 0.666992 27 2 35l52 371h46l-52 -370c-1.33301 -8 -2 -19 -2 -33c0 -60 27.667 -90 83 -90c39.333 0 75.666 16.333 108.999 49s63 76.334 89 131.001l44 313h46l-74 -522h-37l16 145
c-23.333 -48 -52 -86 -86 -114s-72 -42 -114 -42c-38.667 0 -68.667 11.167 -90 33.5zM474.001 803.999l40 -23l-106 -136l-30 15zM353.001 802.999l40 -22l-99 -132l-29 15z" />
    <glyph glyph-name="Uogonek" unicode="&#x172;" horiz-adv-x="647" 
d="M601 684l-66 -474c-8 -56 -27 -102.667 -57 -140s-70.667 -62 -122 -74c-40 -18.667 -68.833 -36.667 -86.5 -54s-26.5 -37.666 -26.5 -60.999c0 -16.667 5.5 -29.667 16.5 -39s27.833 -14 50.5 -14c14.667 0 33 2 55 6l-5 -41c-20 -4 -38.667 -6 -56 -6
c-34.667 0 -61.167 8.33301 -79.5 25s-27.5 38 -27.5 64c0 24 7.5 45.167 22.5 63.5s37.833 34.833 68.5 49.5c-64.667 0 -113.167 15.833 -145.5 47.5s-48.5 75.167 -48.5 130.5c0 9.33301 1.33301 24.666 4 45.999l66 471h47l-65 -470c-2 -16 -3 -30.667 -3 -44
c0 -44 12 -78 36 -102s60.667 -36 110 -36c58.667 0 104.5 16.5 137.5 49.5s53.5 78.167 61.5 135.5l66 467h47z" />
    <glyph glyph-name="uogonek" unicode="&#x173;" horiz-adv-x="577" 
d="M323.5 -59.5c-22.333 -19 -33.499 -40.501 -33.499 -64.501c0 -32 19.333 -48 58 -48c16 0 35 2 57 6l-8 -41c-20 -4 -38.333 -6 -55 -6c-31.333 0 -55.333 7.16699 -72 21.5s-25 32.833 -25 55.5c0 32.667 11.667 60.5 35 83.5s61.333 44.833 114 65.5l15 132
c-23.333 -48 -52 -86 -86 -114s-72 -42 -114 -42c-38.667 0 -68.667 11.167 -90 33.5s-32 53.5 -32 93.5c0 15.333 0.666992 27 2 35l52 371h46l-52 -370c-1.33301 -8 -2 -19 -2 -33c0 -60 27.667 -90 83 -90c39.333 0 75.666 16.333 108.999 49s63 76.334 89 131.001
l44 313h46l-74 -522c-48.667 -20.667 -84.167 -40.5 -106.5 -59.5z" />
    <glyph glyph-name="Wcircumflex" unicode="&#x174;" horiz-adv-x="802" 
d="M829 684l-250 -684h-58l-68 632l-246 -632h-58l-57 684h47l47 -636l246 636h55l68 -638l228 638h46zM348 763l-19 26l140 98h27l113 -99l-22 -25l-108 80z" />
    <glyph glyph-name="wcircumflex" unicode="&#x175;" horiz-adv-x="690" 
d="M700 522l-204 -522h-61l-57 478l-192 -478h-62l-59 522h45l52 -484l195 484h55l58 -485l184 485h46zM282 647l-21 25l142 103h27l113 -103l-23 -25l-108 84z" />
    <glyph glyph-name="Ycircumflex" unicode="&#x176;" horiz-adv-x="512" 
d="M555 684l-273 -415l-38 -269h-48l38 268l-159 416h51l136 -371l239 371h54zM201 763l-19 26l140 98h27l113 -99l-22 -25l-108 80z" />
    <glyph glyph-name="ycircumflex" unicode="&#x177;" horiz-adv-x="458" 
d="M226 -4c-28 -59.333 -58.499 -103.667 -91.499 -133s-79.5 -50.666 -139.5 -63.999l-3 37c36 9.33301 64.667 20.5 86 33.5s39.166 29.167 53.499 48.5s30.833 46.666 49.5 81.999h-18l-109 522h49l96 -487l229 487h50zM159.001 646.999l-21 25l142 103h27l113 -103
l-23 -25l-108 84z" />
    <glyph glyph-name="Ydieresis" unicode="&#x178;" horiz-adv-x="512" 
d="M555 684l-273 -415l-38 -269h-48l38 268l-159 416h51l136 -371l239 371h54zM217.5 800c-5.66699 5.33301 -8.49902 12.333 -8.49902 21c0 10.667 3.5 19.5 10.5 26.5s15.833 10.5 26.5 10.5c9.33301 0 16.833 -2.66699 22.5 -8s8.5 -12.333 8.5 -21
c0 -10.667 -3.66699 -19.5 -11 -26.5s-16.333 -10.5 -27 -10.5c-8.66699 0 -15.834 2.66699 -21.501 8zM398.501 800c-5.66699 5.33301 -8.5 12.333 -8.5 21c0 10.667 3.5 19.5 10.5 26.5s15.833 10.5 26.5 10.5c9.33301 0 16.833 -2.66699 22.5 -8s8.5 -12.333 8.5 -21
c0 -10.667 -3.5 -19.5 -10.5 -26.5s-15.833 -10.5 -26.5 -10.5c-9.33301 0 -16.833 2.66699 -22.5 8z" />
    <glyph glyph-name="Zacute" unicode="&#x179;" horiz-adv-x="512" 
d="M0 0l6 41l456 600h-334l6 43h389l-5 -40l-455 -601h362l-13 -43h-412zM416 878l16 -44l-201 -75l-11 28z" />
    <glyph glyph-name="zacute" unicode="&#x17a;" horiz-adv-x="416" 
d="M418 522l-5 -37l-357 -444h290l-10 -41h-345l6 37l357 444h-270l6 41h328zM370 776l17 -44l-201 -84l-13 27z" />
    <glyph glyph-name="Zdotaccent" unicode="&#x17b;" horiz-adv-x="512" 
d="M0 0l6 41l456 600h-334l6 43h389l-5 -40l-455 -601h362l-13 -43h-412zM315 808.5c-6 5.66699 -8.99902 13.167 -8.99902 22.5c0 11.333 3.66699 20.666 11 27.999s16.666 11 27.999 11c10 0 17.833 -2.83301 23.5 -8.5s8.5 -13.167 8.5 -22.5
c0 -11.333 -3.66699 -20.666 -11 -27.999s-16.333 -11 -27 -11c-10 0 -18 2.83301 -24 8.5z" />
    <glyph glyph-name="zdotaccent" unicode="&#x17c;" horiz-adv-x="416" 
d="M418 522l-5 -37l-357 -444h290l-10 -41h-345l6 37l357 444h-270l6 41h328zM254 682.5c-6 5.66699 -8.99902 13.167 -8.99902 22.5c0 11.333 3.66699 20.666 11 27.999s16.666 11 27.999 11c10 0 17.833 -2.83301 23.5 -8.5s8.5 -13.167 8.5 -22.5
c0 -11.333 -3.66699 -20.666 -11 -27.999s-16.333 -11 -27 -11c-10 0 -18 2.83301 -24 8.5z" />
    <glyph glyph-name="Zcaron" unicode="&#x17d;" horiz-adv-x="512" 
d="M0 0l6 41l456 600h-334l6 43h389l-5 -40l-455 -601h362l-13 -43h-412zM463 880l20 -25l-140 -98h-28l-114 98l23 24l110 -78z" />
    <glyph glyph-name="zcaron" unicode="&#x17e;" horiz-adv-x="416" 
d="M418 522l-5 -37l-357 -444h290l-10 -41h-345l6 37l357 444h-270l6 41h328zM404 764l20 -25l-141 -104h-28l-113 104l23 25l108 -85z" />
    <glyph glyph-name="longs" unicode="&#x17f;" horiz-adv-x="315" 
d="M378 732.5c18.667 -5.66699 37.668 -14.5 57.001 -26.5l-20 -32c-17.333 10 -33.5 17.167 -48.5 21.5s-31.167 6.5 -48.5 6.5c-64.667 0 -101.334 -31 -110.001 -93l-84 -609h-46l67 483h-90l6 39h89l13 91c6 40.667 22.667 72.167 50 94.5s62.666 33.5 105.999 33.5
c20.667 0 40.334 -2.83301 59.001 -8.5z" />
    <glyph glyph-name="uni0180" unicode="&#x180;" horiz-adv-x="575" 
d="M473 482c27.333 -33.333 41.0029 -81.667 41.0029 -145c0 -53.333 -8.83301 -106.5 -26.5 -159.5s-46.334 -97.667 -86.001 -134s-90.834 -54.5 -153.501 -54.5c-28.667 0 -55.334 2.66699 -80.001 8s-53.667 14 -87 26l85 597h-76l6 38h75l11 77l46 6l-11 -83h175
l-12 -38h-169l-23 -169c50.667 54 107 81 169 81c50 0 88.667 -16.667 116 -50zM376.003 78.499c32.667 33 55.999 73.167 69.999 120.5s21 94 21 140c0 51.333 -10.167 89.833 -30.5 115.5s-49.166 38.5 -86.499 38.5c-33.333 0 -63 -8 -89 -24s-52.667 -39 -80 -69
l-48 -348c18 -8 35.833 -13.833 53.5 -17.5s38.5 -5.5 62.5 -5.5c52 0 94.333 16.5 127 49.5z" />
    <glyph glyph-name="uni0181" unicode="&#x181;" horiz-adv-x="645" 
d="M542.5 319.5c25.667 -23 38.501 -57.1699 38.501 -102.503c0 -37.333 -8.33301 -72.333 -25 -105s-44.834 -59.5 -84.501 -80.5s-91.5 -31.5 -155.5 -31.5h-187l91 644h-26c-29.333 0 -51.166 -7.83301 -65.499 -23.5s-21.5 -36.5 -21.5 -62.5
c0 -10.667 1 -20.167 3 -28.5s5 -18.166 9 -29.499l-37 -17c-6.66699 12.667 -11.834 25 -15.501 37s-5.5 25.333 -5.5 40c0 36.667 12.167 66.5 36.5 89.5s58.5 34.5 102.5 34.5h188c64 0 114.167 -12.667 150.5 -38s54.5 -62.666 54.5 -111.999
c0 -46.667 -14 -85.167 -42 -115.5s-65.333 -49.166 -112 -56.499c43.333 -5.33301 77.833 -19.5 103.5 -42.5zM267.001 642.997l-36 -263h142c54.667 0 97 14.5 127 43.5s45 65.5 45 109.5c0 73.333 -51.333 110 -154 110h-124zM482.501 91.9971
c32.333 34 48.5 76 48.5 126c0 41.333 -13.5 72 -40.5 92s-64.167 30 -111.5 30h-154l-41 -299h136c76 0 130.167 17 162.5 51z" />
    <glyph glyph-name="uni0182" unicode="&#x182;" horiz-adv-x="564" 
d="M456 370c37.333 -29.333 56 -72.001 56 -128.001c0 -41.333 -8.66699 -80.166 -26 -116.499s-46 -66.333 -86 -90s-92.333 -35.5 -157 -35.5h-166l97 684h336l-14 -42h-280l-32 -228h114c68 0 120.667 -14.667 158 -44zM376.5 70.999c31 20 53 45.167 66 75.5
s19.5 61.833 19.5 94.5c0 88 -54.667 132 -164 132h-120l-46 -332h121c51.333 0 92.5 10 123.5 30z" />
    <glyph glyph-name="uni0183" unicode="&#x183;" horiz-adv-x="569" 
d="M468.5 482c27 -33.333 40.501 -81.667 40.501 -145c0 -53.333 -8.66699 -106.5 -26 -159.5s-46 -97.667 -86 -134s-91.333 -54.5 -154 -54.5c-28.667 0 -55.334 2.66699 -80.001 8s-53.667 14 -87 26l101 712h285l-13 -39h-231l-35 -245c50.667 54 107 81 169 81
c50.667 0 89.5 -16.667 116.5 -50zM371.001 78.499c32.667 33 56 73.334 70 121.001s21 94.5 21 140.5c0 102 -39.333 153 -118 153c-32.667 0 -62.167 -7.83301 -88.5 -23.5s-52.833 -38.834 -79.5 -69.501l-48 -348c18 -8 35.833 -13.833 53.5 -17.5s38.5 -5.5 62.5 -5.5
c52 0 94.333 16.5 127 49.5z" />
    <glyph glyph-name="uni0184" unicode="&#x184;" horiz-adv-x="555" 
d="M456.5 374c37 -29.333 55.501 -73.999 55.501 -133.999c0 -41.333 -8.83301 -80 -26.5 -116s-46.834 -65.667 -87.501 -89s-93 -35 -157 -35h-164l80 558l-43 32c28.667 25.333 51 56.666 67 93.999h40l-37 -266h114c68.667 0 121.5 -14.667 158.5 -44zM376.501 71.501
c31 20.333 53 45.5 66 75.5s19.5 61 19.5 93c0 47.333 -13.833 82 -41.5 104s-68.5 33 -122.5 33h-119l-47 -336h121c51.333 0 92.5 10.167 123.5 30.5z" />
    <glyph glyph-name="uni0185" unicode="&#x185;" horiz-adv-x="497" 
d="M404 303.5c30 -26.333 44.998 -61.832 44.998 -106.499c0 -34.667 -7.66699 -67.834 -23 -99.501s-39.666 -57.667 -72.999 -78s-75.666 -30.5 -126.999 -30.5c-46.667 0 -97 9 -151 27l56 390l-43 32c27.333 24 49.333 52 66 84h39l-25 -179h98
c62 0 108 -13.167 138 -39.5zM359.498 79.001c27.667 33.333 41.5 73 41.5 119c0 32.667 -11 58.5 -33 77.5s-56.667 28.5 -104 28.5h-102l-36 -259c36 -10.667 69 -16 99 -16c62 0 106.833 16.667 134.5 50z" />
    <glyph glyph-name="uni0186" unicode="&#x186;" horiz-adv-x="544" 
d="M432.5 625.5c39 -45.667 58.501 -111.834 58.501 -198.501c0.666992 -75.333 -11.666 -146.5 -36.999 -213.5s-62.333 -121.167 -111 -162.5s-106 -62 -172 -62c-38.667 0 -71.5 6.16699 -98.5 18.5s-53.167 29.5 -78.5 51.5l28 31c24 -19.333 46.5 -33.666 67.5 -42.999
s47.833 -14 80.5 -14c57.333 0 106.666 19 147.999 57s72.5 87.167 93.5 147.5s31.5 123.5 31.5 189.5c0 76.667 -15.5 133.5 -46.5 170.5s-72.5 55.5 -124.5 55.5c-32.667 0 -61.667 -4.16699 -87 -12.5s-52 -21.5 -80 -39.5l-24 33c29.333 20 59.166 35 89.499 45
s65.5 15 105.5 15c65.333 0 117.5 -22.833 156.5 -68.5z" />
    <glyph glyph-name="uni0187" unicode="&#x187;" horiz-adv-x="547" 
d="M754 788l-23.999 -28.999c-11.333 8 -22.166 13.833 -32.499 17.5s-23.166 5.5 -38.499 5.5c-22 0 -40.667 -7 -56 -21s-25 -36.333 -29 -67l-9 -62l-25 -26c-22 16 -43.667 27.833 -65 35.5s-45.666 11.5 -72.999 11.5c-64.667 0 -117.834 -20.333 -159.501 -61
s-71.834 -91.167 -90.501 -151.5s-28 -120.5 -28 -180.5c0 -74.667 16.667 -131.167 50 -169.5s78 -57.5 134 -57.5c33.333 0 62.166 4.83301 86.499 14.5s49.166 24.167 74.499 43.5l25 -35c-56.667 -44.667 -119.667 -67 -189 -67c-70 0 -125.833 23.667 -167.5 71
s-62.5 114.333 -62.5 201c0 66.667 11.333 133.167 34 199.5s58.5 121.833 107.5 166.5s110.167 67 183.5 67c48 0 89 -11 123 -33l5 35c5.33301 41.333 19.5 72.666 42.5 93.999s52.167 32 87.5 32c36 0 68 -11.333 96 -34z" />
    <glyph glyph-name="uni0188" unicode="&#x188;" horiz-adv-x="465" 
d="M656 707l-23.002 -29.001c-10.667 8 -21.5 14 -32.5 18s-24.167 6 -39.5 6c-22 0 -40.833 -7 -56.5 -21s-25.5 -36.333 -29.5 -67l-18 -134l-21 -24c-18 12 -36.167 21.167 -54.5 27.5s-39.166 9.5 -62.499 9.5c-48.667 0 -88.667 -15.5 -120 -46.5s-54 -69.333 -68 -115
s-21 -90.5 -21 -134.5c0 -55.333 12.333 -96.833 37 -124.5s59 -41.5 103 -41.5s87.667 15 131 45l21 -33c-46.667 -36 -98 -54 -154 -54c-57.333 0 -102.666 18.333 -135.999 55s-50 88.334 -50 155.001c0 50 9 100.667 27 152s46.167 94.333 84.5 129s86.833 52 145.5 52
c36.667 0 68.667 -7.66699 96 -23l15 106c6 42 20.333 73.5 43 94.5s51.667 31.5 87 31.5c36 0 68 -11.333 96 -34z" />
    <glyph glyph-name="uni0189" unicode="&#x189;" horiz-adv-x="630" 
d="M503 628.5c49.333 -37 74 -103.5 74 -199.5c0 -76 -11.833 -146.333 -35.5 -211s-62 -117.167 -115 -157.5s-121.167 -60.5 -204.5 -60.5h-142l47 333h-85l5 40h86l44 311h131c80.667 0 145.667 -18.5 195 -55.5zM403 97.5c44.667 37.667 76.833 85.833 96.5 144.5
s29.5 121.334 29.5 188.001c0 83.333 -20.167 139.666 -60.5 168.999s-93.833 44 -160.5 44h-90l-37 -270h185l-5 -40h-186l-40 -292h94c71.333 0 129.333 18.833 174 56.5z" />
    <glyph glyph-name="uni018A" unicode="&#x18a;" horiz-adv-x="679" 
d="M552 628.5c49.333 -37 74 -103.501 74 -199.501c0 -76 -11.833 -146.333 -35.5 -211s-62 -117.167 -115 -157.5s-121.167 -60.5 -204.5 -60.5h-142l91 644h-26c-29.333 0 -51.166 -7.83301 -65.499 -23.5s-21.5 -36.5 -21.5 -62.5c0 -10.667 1 -20.167 3 -28.5
s5 -18.166 9 -29.499l-37 -17c-6.66699 12.667 -11.834 25 -15.501 37s-5.5 25.333 -5.5 40c0 36.667 12.167 66.5 36.5 89.5s58.5 34.5 102.5 34.5h157c80.667 0 145.667 -18.5 195 -55.5zM452 97.499c44.667 37.667 76.833 85.833 96.5 144.5s29.5 121.334 29.5 188.001
c0 83.333 -20.167 139.666 -60.5 168.999s-93.833 44 -160.5 44h-90l-83 -602h94c71.333 0 129.333 18.833 174 56.5z" />
    <glyph glyph-name="uni018B" unicode="&#x18b;" horiz-adv-x="565" 
d="M414 0l-171 0.000976562c-62 0 -111.5 15.167 -148.5 45.5s-55.5 77.166 -55.5 140.499c0 72 24.333 128 73 168s114.667 60 198 60h115l32 228h-285l5 42h333zM419 373.001h-113c-68.667 0 -122.167 -16.333 -160.5 -49s-57.5 -78.667 -57.5 -138
c0 -50.667 13.667 -87.5 41 -110.5s67.333 -34.5 120 -34.5h124z" />
    <glyph glyph-name="uni018C" unicode="&#x18c;" horiz-adv-x="574" 
d="M428 0h-39.0049l9 113c-47.333 -82.667 -106.666 -124 -177.999 -124c-49.333 0 -88.166 18.167 -116.499 54.5s-42.5 86.5 -42.5 150.5c0 50.667 8.33301 102 25 154s43.334 95.667 80.001 131s83.334 53 140.001 53c62.667 0 109.334 -24.667 140.001 -74l34 238h-236
l6 39h282zM439.995 412c-28.667 54 -71.3311 81 -127.998 81c-46.667 0 -85.167 -15.667 -115.5 -47s-52.333 -70 -66 -116s-20.5 -91.667 -20.5 -137c0 -52.667 10.167 -93.167 30.5 -121.5s48.833 -42.5 85.5 -42.5c37.333 0 69.666 12.667 96.999 38
s55.666 63 84.999 113z" />
    <glyph glyph-name="uni018D" unicode="&#x18d;" horiz-adv-x="563" 
d="M58 -146l27.999 27.998c19.333 -16 39.333 -27.667 60 -35s44 -11 70 -11c43.333 0 75.833 8.5 97.5 25.5s32.5 37.833 32.5 62.5c0 21.333 -8.33301 39.5 -25 54.5s-46.667 31.167 -90 48.5c-57.333 24 -99.166 51.833 -125.499 83.5s-39.5 72.834 -39.5 123.501
c0 42.667 8 86.834 24 132.501s42.833 84.667 80.5 117s86.167 48.5 145.5 48.5c58 0 103.5 -18.167 136.5 -54.5s49.5 -85.833 49.5 -148.5c0 -66.667 -15.333 -124.667 -46 -174s-82.667 -88 -156 -116c32.667 -16.667 56.334 -33.667 71.001 -51s22 -38.333 22 -63
c0 -22 -6.83301 -42.833 -20.5 -62.5s-33.834 -35.5 -60.501 -47.5s-58.667 -18 -96 -18c-63.333 0 -116 19 -158 57zM412.999 168.498c28 45.667 42 100.168 42 163.501c0 49.333 -12.333 88.333 -37 117s-59.334 43 -104.001 43c-49.333 0 -89 -14.333 -119 -43
s-51 -62.834 -63 -102.501s-18 -77.167 -18 -112.5c0 -43.333 11.333 -78.333 34 -105s61.334 -51 116.001 -73c71.333 29.333 121 66.833 149 112.5z" />
    <glyph glyph-name="uni018E" unicode="&#x18e;" horiz-adv-x="503" 
d="M109 684h338l-96 -684h-344l6 41h297l41 295h-246l6 41h246l37 266h-290z" />
    <glyph glyph-name="uni018F" unicode="&#x18f;" horiz-adv-x="645" 
d="M537 632c38 -41.333 57.001 -104.999 57.001 -190.999c0 -80 -11.667 -154.333 -35 -223s-58.5 -124 -105.5 -166s-104.833 -63 -173.5 -63c-68 0 -121.333 22 -160 66s-58 107 -58 189c0 18 1.5 40 4.5 66s6.16699 46.333 9.5 61h465c2.66699 22 4 45.667 4 71
c0 73.333 -14.667 126.833 -44 160.5s-72 50.5 -128 50.5c-36 0 -69.667 -5.83301 -101 -17.5s-64.333 -29.834 -99 -54.501l-23 33c35.333 27.333 71.166 47.5 107.499 60.5s75.833 19.5 118.5 19.5c69.333 0 123 -20.667 161 -62zM443.001 103.501
c44.667 48.333 74.999 122.833 90.999 223.5h-417c-4.66699 -28.667 -7 -57 -7 -85c0 -71.333 14.833 -124.333 44.5 -159s71.834 -52 126.501 -52c63.333 0 117.333 24.167 162 72.5z" />
    <glyph glyph-name="uni0190" unicode="&#x190;" horiz-adv-x="519" 
d="M435 673c30.667 -14 59.667 -35 87 -63l-30 -28c-22 23.333 -46.333 41 -73 53s-57 18 -91 18c-48.667 0 -88.667 -14 -120 -42s-47 -63.667 -47 -107c0 -36.667 12.667 -65.167 38 -85.5s60 -30.5 104 -30.5h59l-12 -42l-54 1
c-61.333 0.666992 -110.166 -14.833 -146.499 -46.5s-54.5 -74.834 -54.5 -129.501c0 -44.667 13.667 -79 41 -103s64.666 -36 111.999 -36c69.333 0 133.666 26.333 192.999 79l28 -31c-67.333 -60.667 -141.666 -91 -222.999 -91c-60.667 0 -109.334 16.333 -146.001 49
s-55 77 -55 133s16.833 101.667 50.5 137s76.167 56 127.5 62c-33.333 8 -60 23.333 -80 46s-30 52 -30 88c0 36.667 9.16699 69.334 27.5 98.001s43.833 51.167 76.5 67.5s69.334 24.5 110.001 24.5c41.333 0 77.333 -7 108 -21z" />
    <glyph glyph-name="uni0191" unicode="&#x191;" horiz-adv-x="475" 
d="M215 643l-37.998 -279h241l-6 -40h-241l-46 -324l-11 -77c-6 -42 -20.833 -73.5 -44.5 -94.5s-52.834 -31.5 -87.501 -31.5s-66 11.333 -94 34l23 30c10.667 -7.33301 21.167 -13 31.5 -17s23.166 -6 38.499 -6c22 0 40.667 7 56 21s25 36.333 29 67l11 74l97 684h332
l-11 -41h-280z" />
    <glyph glyph-name="florin" unicode="&#x192;" horiz-adv-x="315" 
d="M208 609l-11.998 -86.999h141l-11 -39h-136l-65 -470c-6 -44.667 -15.167 -79.834 -27.5 -105.501s-28.333 -46 -48 -61s-47.167 -30.5 -82.5 -46.5l-15 35c27.333 13.333 49 26.333 65 39s29.167 30 39.5 52s18.166 51.667 23.499 89l65 468h-90l6 39h89l13 91
c6 40.667 22.667 72.167 50 94.5s62.666 33.5 105.999 33.5c20.667 0 40.334 -2.83301 59.001 -8.5s37.667 -14.5 57 -26.5l-20 -32c-17.333 10 -33.5 17.167 -48.5 21.5s-31.167 6.5 -48.5 6.5c-64.667 0 -101.334 -31 -110.001 -93z" />
    <glyph glyph-name="uni0193" unicode="&#x193;" horiz-adv-x="565" 
d="M730 812.5c14.667 -6.33301 28.3291 -14.501 40.9961 -24.501l-23 -29c-11.333 7.33301 -22.166 13 -32.499 17s-23.166 6 -38.499 6c-22 0 -40.667 -7 -56 -21s-25 -36.333 -29 -67l-9 -65l-26 -24c-23.333 16 -47 28 -71 36s-50.667 12 -80 12
c-61.333 0 -113.166 -19.5 -155.499 -58.5s-74 -89 -95 -150s-31.5 -124.167 -31.5 -189.5c0 -74.667 16.833 -130.667 50.5 -168s80.834 -56 141.501 -56c54.667 0 105.667 12.667 153 38l37 254h-137v42h190l-45 -321c-64.667 -36.667 -132 -55 -202 -55
c-74 0 -132 23.167 -174 69.5s-63 113.5 -63 201.5c0 70.667 12.5 139.334 37.5 206.001s62.5 121.334 112.5 164.001s110.333 64 181 64c56 0 101 -12 135 -36l5 38c5.33301 41.333 19.5 72.666 42.5 93.999s52.167 32 87.5 32c21.333 0 39.333 -3.16699 54 -9.5z" />
    <glyph glyph-name="uni0194" unicode="&#x194;" horiz-adv-x="541" 
d="M269 56c13.333 -40.667 22.667 -71.167 28 -91.5s8 -40.5 8 -60.5c0 -32.667 -8.83301 -58.667 -26.5 -78s-41.5 -29 -71.5 -29c-24 0 -42.833 6.66699 -56.5 20s-20.5 31.333 -20.5 54c0 23.333 6.16699 48 18.5 74s33.833 64.333 64.5 115l-134 624h49l117 -589
l285 589h50zM254.501 -46.5c-3.66699 17 -9.83301 40.5 -18.5 70.5c-20.667 -35.333 -36 -64.5 -46 -87.5s-15 -44.167 -15 -63.5c0 -24 11 -36 33 -36c16.667 0 29.5 6.16699 38.5 18.5s13.5 28.5 13.5 48.5c0 16 -1.83301 32.5 -5.5 49.5z" />
    <glyph glyph-name="uni0195" unicode="&#x195;" horiz-adv-x="885" 
d="M453 26.5c-25.333 25 -38.001 58.8359 -38.001 101.503c0 14.667 0.666992 25.667 2 33l29 206c2 13.333 3 25.666 3 36.999c0 59.333 -27.667 89 -83 89c-38.667 0 -74.667 -16 -108 -48s-65.333 -76.333 -96 -133l-44 -312h-46l104 735l47 6l-51 -357
c26 46.667 56.333 83 91 109s71.334 39 110.001 39c39.333 0 69.5 -10.833 90.5 -32.5s31.5 -52.5 31.5 -92.5c0 -11.333 -1 -23.666 -3 -36.999l-29 -210c-1.33301 -13.333 -2 -23 -2 -29c0 -33.333 8.83301 -58.5 26.5 -75.5s42.5 -25.5 74.5 -25.5
c76 0 129 38.667 159 116s45 169.666 45 276.999c0 36 -1 69 -3 99h45c2.66699 -42.667 4 -77.334 4 -104.001c0 -120.667 -18.833 -222.334 -56.5 -305.001s-103.5 -124 -197.5 -124c-44.667 0 -79.667 12.5 -105 37.5z" />
    <glyph glyph-name="uni0196" unicode="&#x196;" horiz-adv-x="325" 
d="M284 21c-30.667 -21.333 -64.001 -31.998 -100.001 -31.998c-31.333 0 -56.166 8.66699 -74.499 26s-27.5 42.666 -27.5 75.999c0 5.33301 0.666992 14.666 2 27.999l11 73l69 492h48l-70 -492l-10 -77c-1.33301 -12 -2 -20 -2 -24c0 -40.667 18.667 -61 56 -61
c16 0 30 2 42 6s24.667 10 38 18z" />
    <glyph glyph-name="uni0197" unicode="&#x197;" horiz-adv-x="317" 
d="M305 381l-6 -42h-102l-48 -339h-48l48 339h-108l6 42h108l43 303h47l-43 -303h103z" />
    <glyph glyph-name="uni0198" unicode="&#x198;" horiz-adv-x="567" 
d="M181 367l225 252c25.333 28.667 47.166 48.334 65.499 59.001s39.5 16 63.5 16c18.667 0 34.834 -3.5 48.501 -10.5s26.5 -16.833 38.5 -29.5l-27 -27c-10.667 9.33301 -20.167 16.166 -28.5 20.499s-18.833 6.5 -31.5 6.5c-15.333 0 -29.5 -4 -42.5 -12
s-31.5 -25.333 -55.5 -52l-201 -223l258 -367h-58zM77 0l97 684h48l-97 -684h-48z" />
    <glyph glyph-name="uni0199" unicode="&#x199;" horiz-adv-x="515" 
d="M445 311.5c-30 -31.667 -73.6641 -56.499 -130.997 -74.499l119 -237h-51l-124 253c122 33.333 183 89 183 167c0 49.333 -25.667 74 -77 74c-38 0 -74.167 -16.667 -108.5 -50s-65.833 -81 -94.5 -143l-43 -301h-46l74 521l13 93c6 40 22.667 71.167 50 93.5
s62 33.5 104 33.5c41.333 0 80.666 -9.66699 117.999 -29l-20 -34c-32.667 15.333 -64.667 23 -96 23c-64.667 0 -101.334 -31 -110.001 -93l-13 -87l-20 -140c28 52 59 90.167 93 114.5s70 36.5 108 36.5c35.333 0 63.666 -9.66699 84.999 -29s32 -46 32 -80
c0 -42.667 -15 -79.834 -45 -111.501z" />
    <glyph glyph-name="uni019A" unicode="&#x19a;" horiz-adv-x="295" 
d="M145 83c-0.666992 -4 -1 -9.33301 -1 -16c0 -12.667 2.83301 -22 8.5 -28s14.834 -9 27.501 -9c11.333 0 24.333 2.66699 39 8l11 -36c-18.667 -8.66699 -37.334 -13 -56.001 -13c-24 0 -42.667 6.33301 -56 19s-20 31.667 -20 57c0 4 0.666992 12 2 24l37 263h-106l6 41
h106l48 342l46 6l-49 -348h107l-6 -41h-106z" />
    <glyph glyph-name="uni019B" unicode="&#x19b;" horiz-adv-x="463" 
d="M341.5 253c11.667 -60 24.332 -106.163 37.999 -138.496s31.834 -67.833 54.501 -106.5l-43 -15c-22 38 -40 73.667 -54 107s-26.667 79.666 -38 138.999s-19.666 135.666 -24.999 228.999l-232 -476l-43 11l255 516l18 -4c-3.33301 49.333 -10.333 87 -21 113l-83 -73
l-32 15l97 88c-17.333 23.333 -47 40 -89 50l8 34c50 -10.667 86.667 -29.667 110 -57l79 72l25 -25l-84 -77c9.33301 -18.667 16.666 -41.334 21.999 -68.001s9.33301 -59.334 12 -98.001c5.33301 -97.333 13.833 -176 25.5 -236z" />
    <glyph glyph-name="uni019C" unicode="&#x19c;" horiz-adv-x="924" 
d="M869 684l-96.001 -684.002h-41l9 96c-25.333 -33.333 -53.833 -59.5 -85.5 -78.5s-65.5 -28.5 -101.5 -28.5c-37.333 0 -67.333 10 -90 30s-36.667 48.333 -42 85c-28 -36 -58.667 -64.167 -92 -84.5s-68.333 -30.5 -105 -30.5c-43.333 0 -76.5 13 -99.5 39
s-34.5 62.667 -34.5 110c0 14.667 1 30 3 46l70 500h47l-71 -506c-2 -14 -3 -27 -3 -39c0 -35.333 7.83301 -62.166 23.5 -80.499s38.834 -27.5 69.501 -27.5c37.333 0 71.333 10.833 102 32.5s60 52.167 88 91.5l3 29l70 500h47l-71 -506c-2 -14 -3 -27 -3 -39
c0 -35.333 8 -62.166 24 -80.499s39.333 -27.5 70 -27.5c68 0 130.333 40.667 187 122l75 531h47z" />
    <glyph glyph-name="uni019D" unicode="&#x19d;" horiz-adv-x="667" 
d="M612 684l-95.998 -684h-60l-250 639c-2 -52 -10.667 -130.333 -26 -235l-57 -404l-11 -77c-6 -42 -20.5 -73.5 -43.5 -94.5s-51.833 -31.5 -86.5 -31.5s-66 11.333 -94 34l23 29c11.333 -8 22.166 -13.833 32.499 -17.5s23.166 -5.5 38.499 -5.5
c48 0 76.333 29.667 85 89l10 74l97 684h61l250 -638c3.33301 58 10.333 127.667 21 209l61 429h45z" />
    <glyph glyph-name="uni019E" unicode="&#x19e;" horiz-adv-x="581" 
d="M463.5 499c21 -22 31.5 -53.333 31.5 -94c0 -10.667 -1 -22.667 -3 -36l-80 -567l-47 -5l81 570c2 13.333 3 25 3 35c0 60.667 -27.667 91 -83 91c-70.667 0 -138.667 -60.333 -204 -181l-44 -312h-46l74 522h39l-15 -140c26.667 48 57.5 85 92.5 111s72.167 39 111.5 39
c38.667 0 68.5 -11 89.5 -33z" />
    <glyph glyph-name="uni019F" unicode="&#x19f;" horiz-adv-x="689" 
d="M575 624.5c41.333 -46.333 62.002 -112.832 62.002 -199.499c0 -66.667 -10.833 -133.334 -32.5 -200.001s-57.167 -122.667 -106.5 -168s-112.333 -68 -189 -68c-72.667 0 -129.834 23.667 -171.501 71s-62.5 114.333 -62.5 201c0 64.667 11.167 130.167 33.5 196.5
s58.166 122.333 107.499 168s112 68.5 188 68.5c72.667 0 129.667 -23.167 171 -69.5zM222.502 571.001c-43.667 -54.667 -73.168 -122 -88.501 -202h451c2 20 3 39.333 3 58c0 75.333 -16.167 131.833 -48.5 169.5s-78.166 56.5 -137.499 56.5
c-76 0 -135.833 -27.333 -179.5 -82zM496.001 118.001c43.333 58 71.666 128.666 84.999 211.999h-453c-2.66699 -22 -4 -45.667 -4 -71c0 -75.333 16.333 -132.166 49 -170.499s78.334 -57.5 137.001 -57.5c80.667 0 142.667 29 186 87z" />
    <glyph glyph-name="Ohorn" unicode="&#x1a0;" horiz-adv-x="689" 
d="M661 637c-14.667 -18 -37.3311 -30.333 -67.998 -37c29.333 -43.333 44 -101.666 44 -174.999c0 -66.667 -10.833 -133.334 -32.5 -200.001s-57.167 -122.667 -106.5 -168s-112.333 -68 -189 -68c-72.667 0 -129.834 23.667 -171.501 71s-62.5 114.333 -62.5 201
c0 64.667 11.167 130.167 33.5 196.5s58.166 122.333 107.499 168s112 68.5 188 68.5c71.333 0 127 -21.667 167 -65c26.667 4 45.5 12.667 56.5 26s16.5 31.666 16.5 54.999c0 18.667 -2.66699 35 -8 49l37 8c6.66699 -17.333 10 -36.666 10 -57.999
c0 -30 -7.33301 -54 -22 -72zM473.503 94c41.667 42 71.166 93.332 88.499 153.999s26 120.334 26 179.001c0 75.333 -16.167 131.833 -48.5 169.5s-78.166 56.5 -137.499 56.5c-65.333 0 -118.833 -20.833 -160.5 -62.5s-71.667 -92.834 -90 -153.501
s-27.5 -120 -27.5 -178c0 -75.333 16.5 -132.166 49.5 -170.499s78.5 -57.5 136.5 -57.5c67.333 0 121.833 21 163.5 63z" />
    <glyph glyph-name="ohorn" unicode="&#x1a1;" horiz-adv-x="575" 
d="M485 434c13.333 -30.667 20.001 -67 20.001 -109c0 -49.333 -8.5 -99.833 -25.5 -151.5s-44.833 -95.334 -83.5 -131.001s-88.334 -53.5 -149.001 -53.5c-58 0 -103.333 18.5 -136 55.5s-49 88.5 -49 154.5c0 50 8.66699 100.5 26 151.5s45.333 94 84 129
s88 52.5 148 52.5c68 0 117.667 -23.333 149 -70c26 4.66699 44.833 13.834 56.5 27.501s17.5 32.5 17.5 56.5c0 20 -2.66699 37 -8 51l37 8c6.66699 -17.333 10 -37.333 10 -60c0 -64 -32.333 -101 -97 -111zM369.001 77c31.333 31.333 53.834 69.832 67.501 115.499
s20.5 90.5 20.5 134.5c0 54 -12 95.167 -36 123.5s-58 42.5 -102 42.5c-50 0 -90.5 -16 -121.5 -48s-53.333 -70.667 -67 -116s-20.5 -89.666 -20.5 -132.999c0 -54 12 -95.167 36 -123.5s58 -42.5 102 -42.5c49.333 0 89.666 15.667 120.999 47z" />
    <glyph glyph-name="uni01A2" unicode="&#x1a2;" horiz-adv-x="893" 
d="M792 666c20 -19.333 30.001 -46.3311 30.001 -80.998c0 -6.66699 -0.666992 -16.667 -2 -30l-105 -750h-48l105 750c1.33301 7.33301 2 17.666 2 30.999c0 24 -5.83301 41.667 -17.5 53s-30.5 17 -56.5 17c-21.333 0 -41.666 -3 -60.999 -9s-39.666 -14.667 -60.999 -26
c39.333 -46.667 59 -112 59 -196c0 -66.667 -10.833 -133.334 -32.5 -200.001s-57.167 -122.667 -106.5 -168s-112.333 -68 -189 -68c-72.667 0 -129.834 23.667 -171.501 71s-62.5 114.333 -62.5 201c0 64.667 11.167 130.167 33.5 196.5s58.166 122.333 107.499 168
s112 68.5 188 68.5c59.333 0 108.333 -15.667 147 -47c53.333 32 103.666 48 150.999 48c40 0 70 -9.66699 90 -29zM473.501 94.002c41.667 42 71.166 93.332 88.499 153.999s26 120.334 26 179.001c0 75.333 -16.167 131.833 -48.5 169.5s-78.166 56.5 -137.499 56.5
c-65.333 0 -118.833 -20.833 -160.5 -62.5s-71.667 -92.834 -90 -153.501s-27.5 -120 -27.5 -178c0 -75.333 16.5 -132.166 49.5 -170.499s78.5 -57.5 136.5 -57.5c67.333 0 121.833 21 163.5 63z" />
    <glyph glyph-name="uni01A3" unicode="&#x1a3;" horiz-adv-x="751" 
d="M637.5 502c19.667 -20 29.5 -47.667 29.5 -83c0 -5.33301 -0.666992 -14.666 -2 -27.999l-83 -589l-47 -5l84 597c1.33301 13.333 2 22.333 2 27c0 24 -6 42 -18 54s-31 18 -57 18c-31.333 0 -61 -5.66699 -89 -17c32 -36 48 -86.333 48 -151
c0 -49.333 -8.5 -99.833 -25.5 -151.5s-44.833 -95.334 -83.5 -131.001s-88.334 -53.5 -149.001 -53.5c-58 0 -103.333 18.5 -136 55.5s-49 88.5 -49 154.5c0 50 8.66699 100.5 26 151.5s45.333 94 84 129s88 52.5 148 52.5c42 0 77.667 -10 107 -30
c41.333 20 82.333 30 123 30c38.667 0 67.834 -10 87.501 -30zM369 77c31.333 31.333 53.834 69.832 67.501 115.499s20.5 90.5 20.5 134.5c0 54 -12 95.167 -36 123.5s-58 42.5 -102 42.5c-50 0 -90.5 -16 -121.5 -48s-53.333 -70.667 -67 -116
s-20.5 -89.666 -20.5 -132.999c0 -54 12 -95.167 36 -123.5s58 -42.5 102 -42.5c49.333 0 89.666 15.667 120.999 47z" />
    <glyph glyph-name="uni01A4" unicode="&#x1a4;" horiz-adv-x="617" 
d="M544 642c38 -28 57.001 -70.668 57.001 -128.001c0 -70 -21.833 -128 -65.5 -174s-115.834 -69 -216.501 -69h-104l-38 -271h-48l91 644h-26c-29.333 0 -51.166 -7.83301 -65.499 -23.5s-21.5 -36.5 -21.5 -62.5c0 -10.667 1 -20.167 3 -28.5s5 -18.166 9 -29.499
l-37 -17c-6.66699 12.667 -11.834 25 -15.501 37s-5.5 25.333 -5.5 40c0 36.667 12.167 66.5 36.5 89.5s58.5 34.5 102.5 34.5h178c72.667 0 128 -14 166 -42zM500.001 369.499c34.667 37.667 52 85.833 52 144.5c0 46 -15 79 -45 99s-74.333 30 -133 30h-107l-46 -330h102
c83.333 0 142.333 18.833 177 56.5z" />
    <glyph glyph-name="uni01A5" unicode="&#x1a5;" horiz-adv-x="569" 
d="M468 482c26.667 -33.333 40.002 -81.667 40.002 -145c0 -53.333 -8.66699 -106.5 -26 -159.5s-45.833 -97.667 -85.5 -134s-90.834 -54.5 -153.501 -54.5c-42 0 -82.667 7.66699 -122 23l-30 -209l-47 -6l102 724l13 93c6 40 22.667 71.167 50 93.5s62 33.5 104 33.5
c41.333 0 80.666 -9.66699 117.999 -29l-20 -34c-32.667 15.333 -64.667 23 -96 23c-64.667 0 -101.334 -31 -110.001 -93l-13 -87l-8 -70c48.667 54 104.334 81 167.001 81c51.333 0 90.333 -16.667 117 -50zM370.502 78.499c32.333 33 55.5 73.335 69.5 121.002
s21 94.5 21 140.5c0 51.333 -10 89.666 -30 114.999s-49 38 -87 38c-33.333 0 -62.833 -7.83301 -88.5 -23.5s-52.167 -38.834 -79.5 -69.501l-49 -348c18 -7.33301 36 -13 54 -17s39 -6 63 -6c52 0 94.167 16.5 126.5 49.5z" />
    <glyph glyph-name="uni01A6" unicode="&#x1a6;" horiz-adv-x="583" 
d="M486.5 270.5c-28.333 -37.667 -74.833 -63.832 -139.5 -78.499l145 -320h-52l-140 313h-149l-26 -185h-48l97 684h47l-18 -128h112c72.667 0 126.5 -13 161.5 -39s52.5 -65 52.5 -117c0 -48.667 -14.167 -91.834 -42.5 -129.501zM281 225.002
c48 0 86.832 8.66797 116.499 26.001s50.834 39.333 63.501 66s19 54.667 19 84c0 39.333 -12.833 68.166 -38.5 86.499s-67.167 27.5 -124.5 27.5h-120l-40 -290h124z" />
    <glyph glyph-name="uni01A7" unicode="&#x1a7;" horiz-adv-x="527" 
d="M459.5 655c29.667 -26 44.5059 -60.6699 44.5059 -104.003c0 -37.333 -8.16699 -68.5 -24.5 -93.5s-40.166 -46 -71.499 -63s-72 -33.167 -122 -48.5c-46.667 -14 -83.834 -29.167 -111.501 -45.5s-48.167 -36 -61.5 -59s-20 -51.833 -20 -86.5
c0 -39.333 12.833 -69.833 38.5 -91.5s59.5 -32.5 101.5 -32.5c38.667 0 73.667 6.33301 105 19s62.666 31 93.999 55l25 -32c-33.333 -27.333 -68.333 -48.166 -105 -62.499s-77 -21.5 -121 -21.5c-56 0 -101.167 15.167 -135.5 45.5s-51.5 70.5 -51.5 120.5
c0 60.667 18.167 108.834 54.5 144.501s93.166 64.5 170.499 86.5c45.333 12.667 81.166 25.667 107.499 39s46.166 30 59.499 50s20 45.333 20 76c0 32 -10.5 57 -31.5 75s-50.5 27 -88.5 27c-35.333 0 -66.833 -5 -94.5 -15s-57.167 -26.333 -88.5 -49l-25 33
c33.333 24.667 66.166 42.834 98.499 54.501s69.166 17.5 110.499 17.5c52 0 92.833 -13 122.5 -39z" />
    <glyph glyph-name="uni01A8" unicode="&#x1a8;" horiz-adv-x="461" 
d="M371 498.5c27.333 -22.333 41.0029 -50.8369 41.0029 -85.5039c0 -34 -11.5 -64.167 -34.5 -90.5s-67.5 -48.5 -133.5 -66.5c-45.333 -11.333 -79.833 -24.166 -103.5 -38.499s-39.334 -29 -47.001 -44s-11.5 -32.167 -11.5 -51.5c0 -28.667 11 -51.167 33 -67.5
s50 -24.5 84 -24.5c33.333 0 63.833 4.83301 91.5 14.5s54.5 23.834 80.5 42.501l24 -31c-58.667 -44.667 -124.334 -67 -197.001 -67c-48 0 -87.5 11.833 -118.5 35.5s-46.5 56.167 -46.5 97.5c0 38 14.167 71.167 42.5 99.5s77.833 51.833 148.5 70.5
c56.667 14.667 94.167 31.834 112.5 51.501s27.5 42.834 27.5 69.501c0 24 -9.5 43.333 -28.5 58s-43.5 22 -73.5 22c-26 0 -50.333 -4 -73 -12s-46.667 -20.667 -72 -38l-22 31c53.333 38.667 110 58 170 58c43.333 0 78.666 -11.167 105.999 -33.5z" />
    <glyph glyph-name="uni01A9" unicode="&#x1a9;" horiz-adv-x="490" 
d="M502 684l-6 -42h-333l176 -294l-3 -25l-255 -281h330l-6 -42h-394l4 32l277 307l-189 313l4 32h395z" />
    <glyph glyph-name="uni01AA" unicode="&#x1aa;" horiz-adv-x="276" 
d="M273 -171c-30.667 -21.333 -64.334 -32.002 -101.001 -32.002c-31.333 0 -56.166 8.83301 -74.499 26.5s-27.5 42.834 -27.5 75.501c0 4.66699 0.666992 13.667 2 27l11 74l73 522c-20 -9.33301 -40.667 -14 -62 -14c-28 0 -50.833 8.5 -68.5 25.5
s-26.5 40.167 -26.5 69.5c0 26 5.66699 49.5 17 70.5s26.666 37.5 45.999 49.5s40.333 18 63 18c28.667 0 51.334 -8.33301 68.001 -25s25 -39.667 25 -69c0 -4.66699 -0.666992 -13 -2 -25l-87 -622l-11 -78c-0.666992 -5.33301 -1 -12.666 -1 -21.999c0 -42 19 -63 57 -63
c16.667 0 31 2 43 6s24.667 9.66699 38 17zM161 559.998l10 68c0.666992 4.66699 1 11 1 19c0 36.667 -16 55 -48 55c-24 0 -43 -9.5 -57 -28.5s-21 -42.5 -21 -70.5c0 -37.333 18 -56 54 -56c22 0 42.333 4.33301 61 13z" />
    <glyph glyph-name="uni01AB" unicode="&#x1ab;" horiz-adv-x="333" 
d="M134 125c-1.33301 -13.333 -1.99902 -22.334 -1.99902 -27.001c0 -45.333 22.333 -68 67 -68c26.667 0 57 7 91 21l14 -30l-14 -98c-6 -41.333 -20.833 -72.666 -44.5 -93.999s-52.834 -32 -87.501 -32c-34 0 -65.333 11.333 -94 34l23 29
c10.667 -7.33301 21.5 -13 32.5 -17s24.167 -6 39.5 -6c22.667 0 41.667 6.83301 57 20.5s25 36.167 29 67.5l11 76c-20 -8 -41.333 -12 -64 -12c-33.333 0 -59.333 9 -78 27s-28 44 -28 78c0 13.333 0.666992 23.333 2 30l51 359h-88l6 39h88l27 128l36 4l-18 -132h137
l-11 -39h-132z" />
    <glyph glyph-name="uni01AC" unicode="&#x1ac;" horiz-adv-x="511" 
d="M548 640l-203 -0.000976562l-89 -640h-48l90 640h-104c-29.333 0 -51.166 -7.5 -65.499 -22.5s-21.5 -34.833 -21.5 -59.5c0 -10.667 1 -20.167 3 -28.5s5 -18.166 9 -29.499l-37 -17c-6.66699 12.667 -11.834 25 -15.501 37s-5.5 25.333 -5.5 40
c0 36.667 12 66.5 36 89.5s57.333 34.5 100 34.5h364z" />
    <glyph glyph-name="uni01AD" unicode="&#x1ad;" horiz-adv-x="333" 
d="M191 528l-1 -6h137l-11 -39h-131l-51 -358c-1.33301 -13.333 -2 -22.333 -2 -27c0 -45.333 22.333 -68 67 -68c26 0 55.333 8.66699 88 26l17 -35c-35.333 -21.333 -72.333 -32 -111 -32c-33.333 0 -59.5 9 -78.5 27s-28.5 44 -28.5 78c0 12.667 0.666992 22.667 2 30
l51 359h-88l6 39h87l1 6l11 79c6 44.667 21.333 78.167 46 100.5s56 33.5 94 33.5c37.333 0 72 -10.667 104 -32l-23 -31c-26 16 -52.333 24 -79 24c-55.333 0 -87.333 -32 -96 -96z" />
    <glyph glyph-name="uni01AE" unicode="&#x1ae;" horiz-adv-x="486" 
d="M219 -77c-1.33301 -12 -2.00098 -19.998 -2.00098 -23.998c0 -40.667 18.667 -61 56 -61c16 0 30 2 42 6s24.667 10 38 18l18 -33c-30.667 -21.333 -64 -32 -100 -32c-31.333 0 -56.166 8.66699 -74.499 26s-27.5 42.666 -27.5 75.999
c0 5.33301 0.666992 14.666 2 27.999l11 73l90 640h-204l6 44h461l-12 -44h-203l-90 -640h-1z" />
    <glyph glyph-name="Uhorn" unicode="&#x1af;" horiz-adv-x="647" 
d="M669.5 632c-17.667 -18.667 -44.501 -30.332 -80.501 -34.999l-54 -387c-9.33301 -67.333 -35 -121 -77 -161s-98.667 -60 -170 -60c-64.667 0 -113.167 15.833 -145.5 47.5s-48.5 75.167 -48.5 130.5c0 9.33301 1.33301 24.666 4 45.999l66 471h47l-65 -470
c-2 -16 -3 -30.667 -3 -44c0 -44 12 -78 36 -102s60.667 -36 110 -36c58.667 0 104.5 16.5 137.5 49.5s53.5 78.167 61.5 135.5l66 467h47l-7 -54c22.667 4.66699 38.834 13.667 48.501 27s14.5 31 14.5 53c0 18.667 -2.66699 35 -8 49l37 8
c6.66699 -17.333 10 -36.666 10 -57.999c0 -32.667 -8.83301 -58.334 -26.5 -77.001z" />
    <glyph glyph-name="uhorn" unicode="&#x1b0;" horiz-adv-x="591" 
d="M491 432l-61 -431.999h-37l16 145c-23.333 -48 -52 -86 -86 -114s-72 -42 -114 -42c-38.667 0 -68.667 11.167 -90 33.5s-32 53.5 -32 93.5c0 15.333 0.666992 27 2 35l52 371h46l-52 -370c-1.33301 -8 -2 -19 -2 -33c0 -60 27.667 -90 83 -90
c39.333 0 75.666 16.333 108.999 49s63 76.334 89 131.001l44 313h46l-8 -58c22.667 5.33301 38.834 14.666 48.501 27.999s14.5 31.333 14.5 54c0 20 -2.66699 37 -8 51l37 8c6.66699 -17.333 10 -37.333 10 -60c0 -66.667 -35.667 -104.334 -107 -113.001z" />
    <glyph glyph-name="uni01B1" unicode="&#x1b1;" horiz-adv-x="689" 
d="M137 59c-42 46.667 -63 110.996 -63 192.996c0 82.667 16.667 157.834 50 225.501s81 122.834 143 165.501h-120l5 41h178l-4 -42c-66.667 -41.333 -117.167 -96.666 -151.5 -165.999s-51.5 -145 -51.5 -227c0 -70 16.667 -123.833 50 -161.5s79.333 -56.5 138 -56.5
c58 0 107.667 17 149 51s72.5 79.333 93.5 136s31.5 118.334 31.5 185.001c0 104 -36.333 184 -109 240l4 41h178l-6 -43h-119c31.333 -25.333 56 -56.833 74 -94.5s27 -84.834 27 -141.501c0 -76 -13 -145.667 -39 -209s-63.5 -113.666 -112.5 -150.999
s-106.5 -56 -172.5 -56c-73.333 0 -131 23.333 -173 70z" />
    <glyph glyph-name="uni01B2" unicode="&#x1b2;" horiz-adv-x="635" 
d="M570 673.5c14 -13.667 21.0039 -33.832 21.0039 -60.499c0 -4 -0.666992 -11.333 -2 -22l-43 -301c-9.33301 -64 -27.333 -118.667 -54 -164s-59.834 -79.5 -99.501 -102.5s-82.834 -34.5 -129.501 -34.5c-52.667 0 -94.334 14.667 -125.001 44s-46 68.666 -46 117.999
c0 12 1 24.333 3 37l69 496h47l-69 -495c-1.33301 -8 -2 -19.333 -2 -34c0 -40 10.667 -70.5 32 -91.5s52 -31.5 92 -31.5c60.667 0 112 22.667 154 68s69 111 81 197l42 297c1.33301 9.33301 2 15.333 2 18c0 28 -13 42 -39 42c-16.667 0 -31.334 -3.33301 -44.001 -10
l-14 34c19.333 10.667 41 16 65 16c25.333 0 45 -6.83301 59 -20.5z" />
    <glyph glyph-name="uni01B3" unicode="&#x1b3;" horiz-adv-x="541" 
d="M234 268l-159 416h52l136 -371l181 301c18 29.333 35.833 50 53.5 62s39.167 18 64.5 18c34.667 0 65.334 -14 92.001 -42l-24 -27c-22.667 20 -45 30 -67 30c-16.667 0 -30.834 -4.16699 -42.501 -12.5s-24.167 -23.5 -37.5 -45.5l-201 -328l-38 -269h-48z" />
    <glyph glyph-name="uni01B4" unicode="&#x1b4;" horiz-adv-x="459" 
d="M-8 -165c35.333 9.33301 63.998 20.666 85.998 33.999s40.5 30 55.5 50s30.833 47 47.5 81h-18l-109 522h49l96 -487l192 447c14 32.667 28.833 55.5 44.5 68.5s35.834 19.5 60.501 19.5c19.333 0 37 -4.66699 53 -14l-16 -33c-9.33301 4.66699 -21.333 7 -36 7
s-26.667 -4.16699 -36 -12.5s-18.666 -23.166 -27.999 -44.499l-208 -474c-26.667 -60.667 -56.5 -105.667 -89.5 -135s-79.833 -51 -140.5 -65z" />
    </font>
</defs>
</svg>
