<?xml version="1.0" standalone="no"?>
<!DOCTYPE svg PUBLIC "-//W3C//DTD SVG 1.1//EN" "http://www.w3.org/Graphics/SVG/1.1/DTD/svg11.dtd" >
<svg>
<metadata>
Created by FontForge 20090914 at Thu Dec 21 11:36:51 2017
 By www-data
Digitized data copyright 2012-2016, The Mozilla Foundation and Telefonica S.A.
</metadata>
<defs>
<font id="FiraSans-LightItalic" horiz-adv-x="560" >
  <font-face 
    font-family="Fira Sans Light"
    font-weight="300"
    font-style="italic"
    font-stretch="normal"
    units-per-em="1000"
    panose-1="2 11 4 3 5 0 0 2 0 4"
    ascent="800"
    descent="-200"
    x-height="523"
    cap-height="685"
    bbox="-764 -350 1417 1050"
    underline-thickness="50"
    underline-position="-50"
    slope="-8"
    unicode-range="U+000D-U+FEFF"
  />
<missing-glyph horiz-adv-x="663" 
d="M652 1050l-198 -1400h-418l198 1400h418zM590 998h-309l-183 -1296h309zM421.5 425.5c15.667 -17 23.498 -39.165 23.498 -66.498c0 -5.33301 -0.666992 -14 -2 -26c-4.66699 -34.667 -15.5 -61.334 -32.5 -80.001s-42.5 -30.334 -76.5 -35.001l-8 -47
c-0.666992 -6.66699 -3.66699 -12 -9 -16s-10.666 -6 -15.999 -6c-7.33301 0 -13.333 2.5 -18 7.5s-6.66699 11.167 -6 18.5l10 82c35.333 2 60.5 9 75.5 21s24.5 31.667 28.5 59c0.666992 4.66699 1 11.334 1 20.001c0 14.667 -3.66699 26 -11 34s-20.333 12 -39 12
c-11.333 0 -21 -0.833008 -29 -2.5s-16.333 -4.83398 -25 -9.50098l-13 -2c-8 0 -14.167 2.5 -18.5 7.5s-5.83301 11.167 -4.5 18.5c1.33301 12 11.833 21 31.5 27s40.5 9 62.5 9c34.667 0 59.834 -8.5 75.501 -25.5zM315.998 109.002
c6 -7.33301 8.33203 -16.333 6.99902 -27c-0.666992 -10 -4.5 -18.167 -11.5 -24.5s-15.167 -9.5 -24.5 -9.5c-10 0 -17.833 3.16699 -23.5 9.5s-8.5 14.5 -8.5 24.5c0 11.333 3.33301 20.5 10 27.5s15.334 10.5 26.001 10.5s19 -3.66699 25 -11z" />
    <glyph glyph-name="fi" unicode="fi" horiz-adv-x="565" 
d="M423 0l-58.001 -0.00195312l67 476h-233l-64 -459c-6.66699 -45.333 -16.667 -81.333 -30 -108s-30.5 -48 -51.5 -64s-50.167 -32.333 -87.5 -49l-18 45c27.333 12.667 49 25.334 65 38.001s29.333 29.834 40 51.501s18.667 51.167 24 88.5l64 457h-91l7 47h91l12 87
c5.33301 42 23 74.833 53 98.5s70 35.5 120 35.5c48.667 0 94.334 -14.333 137.001 -43l-23 -40c-35.333 22.667 -73.333 34 -114 34c-35.333 0 -62.5 -7.16699 -81.5 -21.5s-30.5 -36.833 -34.5 -67.5l-12 -83h292z" />
    <glyph glyph-name="fl" unicode="fl" horiz-adv-x="583" 
d="M506 47l12.999 -44.002c-20.667 -9.33301 -40.667 -14 -60 -14c-54.667 0 -82 27.333 -82 82c0 5.33301 0.666992 14 2 26l81 575c-23.333 8 -44.833 13.833 -64.5 17.5s-41.5 5.5 -65.5 5.5c-67.333 0 -105 -29.667 -113 -89l-12 -83h137l-13 -47h-130l-64 -459
c-6.66699 -45.333 -16.667 -81.333 -30 -108s-30.5 -48 -51.5 -64s-50.167 -32.333 -87.5 -49l-18 45c27.333 12.667 49 25.334 65 38.001s29.333 29.834 40 51.501s18.667 51.167 24 88.5l64 457h-91l7 47h91l12 87c5.33301 42 23 74.833 53 98.5s69.333 35.5 118 35.5
c48 0 94.333 -8.66699 139 -26l54 6l-89 -636c-0.666992 -3.33301 -1 -8 -1 -14c0 -12 2.66699 -20.833 8 -26.5s14 -8.5 26 -8.5c10.667 0 23.334 2.66699 38.001 8z" />
    <glyph glyph-name=".notdef" horiz-adv-x="663" 
d="M652 1050l-198 -1400h-418l198 1400h418zM590 998h-309l-183 -1296h309zM421.5 425.5c15.667 -17 23.498 -39.165 23.498 -66.498c0 -5.33301 -0.666992 -14 -2 -26c-4.66699 -34.667 -15.5 -61.334 -32.5 -80.001s-42.5 -30.334 -76.5 -35.001l-8 -47
c-0.666992 -6.66699 -3.66699 -12 -9 -16s-10.666 -6 -15.999 -6c-7.33301 0 -13.333 2.5 -18 7.5s-6.66699 11.167 -6 18.5l10 82c35.333 2 60.5 9 75.5 21s24.5 31.667 28.5 59c0.666992 4.66699 1 11.334 1 20.001c0 14.667 -3.66699 26 -11 34s-20.333 12 -39 12
c-11.333 0 -21 -0.833008 -29 -2.5s-16.333 -4.83398 -25 -9.50098l-13 -2c-8 0 -14.167 2.5 -18.5 7.5s-5.83301 11.167 -4.5 18.5c1.33301 12 11.833 21 31.5 27s40.5 9 62.5 9c34.667 0 59.834 -8.5 75.501 -25.5zM315.998 109.002
c6 -7.33301 8.33203 -16.333 6.99902 -27c-0.666992 -10 -4.5 -18.167 -11.5 -24.5s-15.167 -9.5 -24.5 -9.5c-10 0 -17.833 3.16699 -23.5 9.5s-8.5 14.5 -8.5 24.5c0 11.333 3.33301 20.5 10 27.5s15.334 10.5 26.001 10.5s19 -3.66699 25 -11z" />
    <glyph glyph-name="nonmarkingreturn" unicode="&#xd;" horiz-adv-x="276" 
 />
    <glyph glyph-name="space" unicode=" " horiz-adv-x="276" 
 />
    <glyph glyph-name="exclam" unicode="!" horiz-adv-x="238" 
d="M86 218l61 467h62l-71 -467h-52zM55 1.5c-8 8.33301 -12.001 18.833 -12.001 31.5c0 14.667 4.83301 27 14.5 37s21.834 15 36.501 15c13.333 0 24 -4.16699 32 -12.5s12 -18.833 12 -31.5c0 -14.667 -5 -27 -15 -37s-22.333 -15 -37 -15c-12.667 0 -23 4.16699 -31 12.5
z" />
    <glyph glyph-name="quotedbl" unicode="&#x22;" horiz-adv-x="360" 
d="M103 433l26 252h63l-45 -252h-44zM261 433l26 252h63l-45 -252h-44z" />
    <glyph glyph-name="numbersign" unicode="#" horiz-adv-x="501" 
d="M513 452h-79l-61 -225h72l-7 -47h-78l-49 -180h-54l49 180h-178l-49 -180h-53l49 180h-72l7 47h78l61 225h-70l6 47h77l45 166h54l-45 -166h178l45 166h53l-45 -166h72zM319 227l62 225h-178l-62 -225h178z" />
    <glyph glyph-name="dollar" unicode="$" horiz-adv-x="522" 
d="M417.5 310.5c29 -27.667 43.498 -63.8311 43.498 -108.498c0 -34 -7.5 -66.333 -22.5 -97s-38.5 -56.5 -70.5 -77.5s-72.333 -33.5 -121 -37.5l-20 -141h-51l20 140c-37.333 2.66699 -71.5 11.334 -102.5 26.001s-58.167 34 -81.5 58l37 35c44.667 -46 101 -69 169 -69
c58.667 0 103.834 15 135.501 45s47.5 68 47.5 114c0 31.333 -10.333 57 -31 77s-55.334 38.333 -104.001 55c-58.667 19.333 -101.334 42.166 -128.001 68.499s-40 59.833 -40 100.5c0 51.333 17.5 92.666 52.5 123.999s82.5 48.666 142.5 51.999l19 144h51l-21 -146
c30.667 -3.33301 58.334 -11 83.001 -23s48.334 -28.667 71.001 -50l-36 -36c-43.333 41.333 -94.333 62 -153 62c-45.333 0 -81.666 -10.667 -108.999 -32s-41 -52 -41 -92c0 -30 10 -54.333 30 -73s54.667 -35.667 104 -51c55.333 -17.333 97.5 -39.833 126.5 -67.5z" />
    <glyph glyph-name="percent" unicode="%" horiz-adv-x="791" 
d="M669 703l-559 -699l40 -28l559 699zM123 388c-24 24.667 -36.001 57.332 -36.001 97.999c0 28.667 6 57.667 18 87s30.833 53.833 56.5 73.5s57.5 29.5 95.5 29.5c40 0 71.833 -12 95.5 -36s35.5 -56.333 35.5 -97c0 -29.333 -5.83301 -58.666 -17.5 -87.999
s-30.167 -54 -55.5 -74s-57.666 -30 -96.999 -30s-71 12.333 -95 37zM287.999 418.498c17.333 17 29.5 37.168 36.5 60.501s10.5 45 10.5 65c0 27.333 -6.16699 49.166 -18.5 65.499s-31.833 24.5 -58.5 24.5c-29.333 0 -52.833 -8.33301 -70.5 -25s-30 -36.5 -37 -59.5
s-10.5 -44.833 -10.5 -65.5c0 -27.333 6.33301 -49.333 19 -66s32.334 -25 59.001 -25c29.333 0 52.666 8.5 69.999 25.5zM457.999 25.999c-24 24.667 -36 57.335 -36 98.002c0 29.333 6 58.666 18 87.999s30.833 53.833 56.5 73.5s57.834 29.5 96.501 29.5
c39.333 0 71 -12.167 95 -36.5s36 -56.833 36 -97.5c0 -28.667 -5.83301 -57.834 -17.5 -87.501s-30.334 -54.5 -56.001 -74.5s-58.167 -30 -97.5 -30s-71 12.333 -95 37zM623.499 57.5c17.667 17 29.998 37 36.998 60s10.5 44.5 10.5 64.5
c0 27.333 -6.16699 49.166 -18.5 65.499s-32.166 24.5 -59.499 24.5c-29.333 0 -52.833 -8.33301 -70.5 -25s-30 -36.5 -37 -59.5s-10.5 -44.833 -10.5 -65.5c0 -27.333 6.33301 -49.166 19 -65.499s32.334 -24.5 59.001 -24.5c29.333 0 52.833 8.5 70.5 25.5z" />
    <glyph glyph-name="ampersand" unicode="&#x26;" horiz-adv-x="720" 
d="M464.5 658c29.667 -25.333 44.502 -57.334 44.502 -96.001c0 -41.333 -13.833 -76.166 -41.5 -104.499s-74.5 -59.5 -140.5 -93.5l177 -192c34.667 58 64 115.667 88 173l52 -19c-32 -72 -67.667 -135.333 -107 -190l104 -113l-47 -33l-94 105
c-32 -34.667 -66.667 -61 -104 -79s-80 -27 -128 -27c-56.667 0 -101.834 15.5 -135.501 46.5s-50.5 70.833 -50.5 119.5c0 44 12.167 83 36.5 117s67.166 67.667 128.499 101c-26 29.333 -45.333 56.5 -58 81.5s-19 51.167 -19 78.5c0 28.667 7 55.5 21 80.5
s34.5 45 61.5 60s59.167 22.5 96.5 22.5c47.333 0 85.833 -12.667 115.5 -38zM259.002 615.999c-20.667 -22.667 -31 -50.333 -31 -83c0 -21.333 5 -42.833 15 -64.5s27 -45.5 51 -71.5c58.667 30 99.5 57 122.5 81s34.5 52 34.5 84c0 26.667 -9.5 48 -28.5 64
s-43.5 24 -73.5 24c-39.333 0 -69.333 -11.333 -90 -34zM170.002 253.5c-19.333 -29 -28.999 -61.835 -28.999 -98.502c0 -35.333 11.5 -63.666 34.5 -84.999s55.167 -32 96.5 -32c39.333 0 74.666 7.83301 105.999 23.5s61 38.834 89 69.501l-189 208
c-52.667 -28 -88.667 -56.5 -108 -85.5z" />
    <glyph glyph-name="quotesingle" unicode="'" horiz-adv-x="202" 
d="M103 433l26 252h63l-45 -252h-44z" />
    <glyph glyph-name="parenleft" unicode="(" horiz-adv-x="321" 
d="M346 811c-53.333 -66 -96.5 -127.668 -129.5 -185.001s-58 -117.833 -75 -181.5s-25.5 -134.5 -25.5 -212.5c0 -67.333 8.16699 -126.333 24.5 -177s41.5 -107.334 75.5 -170.001l-40 -21c-26.667 46.667 -48 86.834 -64 120.501s-29.167 71.5 -39.5 113.5
s-15.5 88.333 -15.5 139c0 83.333 9.5 158 28.5 224s46.5 127.833 82.5 185.5s83.667 121.834 143 192.501z" />
    <glyph glyph-name="parenright" unicode=")" horiz-adv-x="321" 
d="M234 715.5c16 -33.667 29.167 -71.334 39.5 -113.001s15.5 -87.834 15.5 -138.501c0 -83.333 -9.5 -158.166 -28.5 -224.499s-46.5 -128.333 -82.5 -186s-83.667 -121.834 -143 -192.501l-35 28c54 66.667 97.5 128.834 130.5 186.501s58 118.334 75 182.001
s25.5 134.5 25.5 212.5c0 66.667 -8.33301 125.334 -25 176.001s-41.667 107 -75 169l39 21c26.667 -46.667 48 -86.834 64 -120.501z" />
    <glyph glyph-name="asterisk" unicode="*" horiz-adv-x="433" 
d="M445 582l-158 -40l82 -122l-49 -34l-67 131l-103 -131l-43 33l117 122l-146 41l22 50l141 -55l13 159h59l-31 -159l152 58z" />
    <glyph glyph-name="plus" unicode="+" horiz-adv-x="490" 
d="M308 508l-22 -152h149l-7 -51h-149l-22 -151h-55l22 151h-149l7 51h149l21 152h56z" />
    <glyph glyph-name="comma" unicode="," horiz-adv-x="207" 
d="M107 72.5c8 -8.33301 11.999 -18.833 11.999 -31.5c0 -8.66699 -1.66699 -17.5 -5 -26.5s-8.66602 -20.167 -15.999 -33.5l-75 -132h-43l62 148c-12 7.33301 -18 19.333 -18 36c0 14 5 26.167 15 36.5s22 15.5 36 15.5c13.333 0 24 -4.16699 32 -12.5z" />
    <glyph glyph-name="hyphen" unicode="-" horiz-adv-x="398" 
d="M70 288l8 50h263l-7 -50h-264z" />
    <glyph glyph-name="period" unicode="." horiz-adv-x="208" 
d="M37 1.5c-8 8.33301 -12.001 18.833 -12.001 31.5c0 14.667 4.83301 27 14.5 37s21.834 15 36.501 15c13.333 0 24 -4.16699 32 -12.5s12 -18.833 12 -31.5c0 -14.667 -5 -27 -15 -37s-22.333 -15 -37 -15c-12.667 0 -23 4.16699 -31 12.5z" />
    <glyph glyph-name="slash" unicode="/" horiz-adv-x="517" 
d="M424 804l50 -13l-356 -891l-50 14z" />
    <glyph glyph-name="zero" unicode="0" horiz-adv-x="547" 
d="M180.5 605.5c-39.667 -47 -68.5 -105.169 -86.5 -174.502s-27 -138.333 -27 -207c0 -76.667 14.5 -135 43.5 -175s70.833 -60 125.5 -60c60.667 0 110.834 23.333 150.501 70s68.5 104.834 86.5 174.501s27 139.167 27 208.5c0 76.667 -14.333 134.834 -43 174.501
s-70.667 59.5 -126 59.5c-60.667 0 -110.834 -23.5 -150.501 -70.5zM441 450.998c0 -64 -7.16797 -127.832 -21.501 -191.499s-36.833 -116.5 -67.5 -158.5s-68.667 -63 -114 -63c-74.667 0 -112 59 -112 177c0 64 7.33301 127.667 22 191s37.334 116.166 68.001 158.499
s68.667 63.5 114 63.5c74 0 111 -59 111 -177z" />
    <glyph glyph-name="one" unicode="1" horiz-adv-x="410" 
d="M347 665l-94 -665h-58l84 596l-177 -102l-21 48l216 123h50z" />
    <glyph glyph-name="two" unicode="2" horiz-adv-x="476" 
d="M399 633c30 -28.667 45.0049 -66.665 45.0049 -113.998c0 -38 -9.33301 -75.167 -28 -111.5s-53.334 -81.5 -104.001 -135.5s-127.334 -128 -230.001 -222l313 2l-17 -52h-373l7 51c110.667 103.333 191.667 182.166 243 236.499s85.666 97.666 102.999 129.999
s26 65.5 26 99.5c0 34.667 -10 61.5 -30 80.5s-47.333 28.5 -82 28.5c-30.667 0 -58.334 -6.33301 -83.001 -19s-49.334 -32 -74.001 -58l-39 35c30.667 32 62.167 55.333 94.5 70s67.5 22 105.5 22c52 0 93 -14.333 123 -43z" />
    <glyph glyph-name="three" unicode="3" horiz-adv-x="484" 
d="M396 634.5c28.667 -27.667 43 -63.8301 43 -108.497c0 -40.667 -13.333 -77.5 -40 -110.5s-65.334 -53.833 -116.001 -62.5c38 -1.33301 69 -14.333 93 -39s36 -59 36 -103c0 -34.667 -8.5 -69 -25.5 -103s-43.5 -62.333 -79.5 -85s-80.333 -34 -133 -34
c-77.333 0 -137.333 29.333 -180 88l40 32c19.333 -25.333 40.333 -43.333 63 -54s49 -16 79 -16c40 0 73.167 8.66699 99.5 26s45.833 39.666 58.5 66.999s19 55.666 19 84.999c0 73.333 -43.333 110 -130 110h-46l14 47h32c33.333 0 61.833 7.16699 85.5 21.5
s41.5 33 53.5 56s18 47.5 18 73.5c0 32.667 -9.66699 58 -29 76s-45.666 27 -78.999 27c-28.667 0 -55.334 -5.16699 -80.001 -15.5s-51 -26.833 -79 -49.5l-29 38c30.667 25.333 61.334 44.166 92.001 56.499s64 18.5 100 18.5c51.333 0 91.333 -13.833 120 -41.5z" />
    <glyph glyph-name="four" unicode="4" horiz-adv-x="516" 
d="M475 223l-7 -48h-88l-25 -175h-58l25 175h-289l6 44l263 457l50 -20l-249 -433h226l34 195h51l-28 -195h89z" />
    <glyph glyph-name="five" unicode="5" horiz-adv-x="484" 
d="M454 617h-269l-33 -227c36 20.667 74.333 31 115 31c50.667 0 90.5 -15.833 119.5 -47.5s43.5 -74.834 43.5 -129.501c0 -38 -8.5 -76.667 -25.5 -116s-43.833 -72.333 -80.5 -99s-82.667 -40 -138 -40c-40 0 -74.333 7 -103 21s-54 34.333 -76 61l40 33
c18 -22 38 -38.333 60 -49s48.667 -16 80 -16c42.667 0 77.667 11 105 33s47.166 48.833 59.499 80.5s18.5 62.5 18.5 92.5c0 42.667 -10.5 74.834 -31.5 96.501s-49.167 32.5 -84.5 32.5c-22 0 -41.667 -2.5 -59 -7.5s-36.666 -13.167 -57.999 -24.5h-47l45 323h334z" />
    <glyph glyph-name="six" unicode="6" horiz-adv-x="521" 
d="M426 390c28.667 -29.333 42.9971 -71.332 42.9971 -125.999c0 -40.667 -8.16699 -82.167 -24.5 -124.5s-41.666 -78 -75.999 -107s-76.833 -43.5 -127.5 -43.5c-61.333 0 -106.166 19.833 -134.499 59.5s-42.5 94.167 -42.5 163.5c0 76 11.667 149.667 35 221
s57.5 129.666 102.5 174.999s97.833 68 158.5 68c24.667 0 46.5 -3.33301 65.5 -10s37.167 -16.667 54.5 -30l-29 -39c-28 20.667 -59 31 -93 31c-54.667 0 -102.167 -27 -142.5 -81s-68.166 -125 -83.499 -213c51.333 66.667 112.333 100 183 100
c45.333 0 82.333 -14.667 111 -44zM338.997 75.501c25.333 25 43.6699 54.834 55.0029 89.501s17 67.667 17 99c0 40.667 -9.5 71 -28.5 91s-44.5 30 -76.5 30c-34.667 0 -67.334 -10.167 -98.001 -30.5s-58.334 -48.5 -83.001 -84.5c-2 -22.667 -3 -44.334 -3 -65.001
c0 -55.333 9.5 -97 28.5 -125s49.5 -42 91.5 -42c39.333 0 71.666 12.5 96.999 37.5z" />
    <glyph glyph-name="seven" unicode="7" horiz-adv-x="434" 
d="M456 665l-6 -45l-347 -628l-54 18l338 606h-307l6 49h370z" />
    <glyph glyph-name="eight" unicode="8" horiz-adv-x="535" 
d="M441.5 287c20.333 -24.667 30.501 -54.665 30.501 -89.998c0 -40.667 -10.333 -76.834 -31 -108.501s-49.334 -56.167 -86.001 -73.5s-78 -26 -124 -26c-59.333 0 -106.166 15.333 -140.499 46s-51.5 70.667 -51.5 120c0 93.333 56.667 161 170 203
c-62.667 30.667 -94 76.667 -94 138c0 35.333 9.33301 66.666 28 93.999s43.667 48.5 75 63.5s65.666 22.5 102.999 22.5c47.333 0 87.5 -12.833 120.5 -38.5s49.5 -61.5 49.5 -107.5c0 -40.667 -11.167 -74.667 -33.5 -102s-58.833 -52.666 -109.5 -75.999
c42 -18.667 73.167 -40.334 93.5 -65.001zM196.501 427.502c16.333 -17.667 43.166 -33.499 80.499 -47.499l30 -11c46.667 24 79.5 48.5 98.5 73.5s28.5 54.167 28.5 87.5c0 32 -10.167 56.667 -30.5 74s-48.166 26 -83.499 26c-44.667 0 -80.5 -12.667 -107.5 -38
s-40.5 -57 -40.5 -95c0 -28.667 8.16699 -51.834 24.5 -69.501zM362.001 81.5029c33.333 29 50.001 68.502 50.001 118.502c0 29.333 -9.66699 53.166 -29 71.499s-52 36.5 -98 54.5l-32 12c-58.667 -22.667 -99.167 -49.5 -121.5 -80.5s-33.5 -65.167 -33.5 -102.5
c0 -36.667 12.167 -65.334 36.5 -86.001s57.166 -31 98.499 -31c52.667 0 95.667 14.5 129 43.5z" />
    <glyph glyph-name="nine" unicode="9" horiz-adv-x="515" 
d="M436 622.5c29.333 -35.667 44 -85.5 44 -149.5c0 -117.333 -28.167 -219 -84.5 -305s-160.166 -148.667 -311.499 -188l-11 46c96 28.667 171.833 67.5 227.5 116.5s92.167 115.833 109.5 200.5c-23.333 -30 -50 -53.333 -80 -70s-62 -25 -96 -25
c-46.667 0 -84.5 16.333 -113.5 49s-43.5 75.667 -43.5 129c0 40 8.16699 79.167 24.5 117.5s41.666 70 75.999 95s76.5 37.5 126.5 37.5c58.667 0 102.667 -17.833 132 -53.5zM335.5 323.5c28.333 17.667 55.5 43.499 81.5 77.499c3.33301 32 5 56 5 72
c0 52 -9.66699 90.833 -29 116.5s-49.333 38.5 -90 38.5c-40 0 -72.5 -10.667 -97.5 -32s-43 -47.666 -54 -78.999s-16.5 -62.333 -16.5 -93c0 -40 9.66699 -71.167 29 -93.5s46 -33.5 80 -33.5c32.667 0 63.167 8.83301 91.5 26.5z" />
    <glyph glyph-name="colon" unicode=":" horiz-adv-x="208" 
d="M37 1.5c-8 8.33301 -12.001 18.833 -12.001 31.5c0 14.667 4.83301 27 14.5 37s21.834 15 36.501 15c13.333 0 24 -4.16699 32 -12.5s12 -18.833 12 -31.5c0 -14.667 -5 -27 -15 -37s-22.333 -15 -37 -15c-12.667 0 -23 4.16699 -31 12.5zM91.999 391.5
c-8 8.33301 -12.001 18.833 -12.001 31.5c0 14.667 4.83301 27 14.5 37s21.834 15 36.501 15c13.333 0 24 -4.16699 32 -12.5s12 -18.833 12 -31.5c0 -14.667 -5 -27 -15 -37s-22.333 -15 -37 -15c-12.667 0 -23 4.16699 -31 12.5z" />
    <glyph glyph-name="semicolon" unicode=";" horiz-adv-x="209" 
d="M107 72.5c8 -8.33301 11.999 -18.833 11.999 -31.5c0 -8.66699 -1.66699 -17.5 -5 -26.5s-8.66602 -20.167 -15.999 -33.5l-75 -132h-43l62 148c-12 7.33301 -18 19.333 -18 36c0 14 5 26.167 15 36.5s22 15.5 36 15.5c13.333 0 24 -4.16699 32 -12.5zM93.999 391.5
c-8 8.33301 -12.001 18.833 -12.001 31.5c0 14.667 4.83301 27 14.5 37s21.834 15 36.501 15c13.333 0 24 -4.16699 32 -12.5s12 -18.833 12 -31.5c0 -14.667 -5 -27 -15 -37s-22.333 -15 -37 -15c-12.667 0 -23 4.16699 -31 12.5z" />
    <glyph glyph-name="less" unicode="&#x3c;" horiz-adv-x="494" 
d="M446 529l17 -51l-338 -146l295 -149l-28 -48l-323 170l8 56z" />
    <glyph glyph-name="equal" unicode="=" horiz-adv-x="492" 
d="M88 393l7 51h354l-8 -51h-353zM63 218l7 51h354l-8 -51h-353z" />
    <glyph glyph-name="greater" unicode="&#x3e;" horiz-adv-x="494" 
d="M122 529l323 -168l-8 -56l-370 -170l-16 49l338 152l-295 144z" />
    <glyph glyph-name="question" unicode="?" horiz-adv-x="445" 
d="M405.5 660c27 -24 40.498 -54.667 40.498 -92c0 -30 -6 -55.667 -18 -77s-26.667 -39 -44 -53s-40 -29 -68 -45c-24 -14 -42.833 -26.167 -56.5 -36.5s-25.167 -22.833 -34.5 -37.5s-14 -32 -14 -52c0 -13.333 1.66699 -26.666 5 -39.999l-52 -11
c-6.66699 18.667 -10 37 -10 55c0 26 5.5 48.333 16.5 67s24.333 34 40 46s36.834 26.333 63.501 43c24.667 15.333 44.334 28.5 59.001 39.5s27 24.667 37 41s15 35.833 15 58.5c0 25.333 -8.66699 45.166 -26 59.499s-41.333 21.5 -72 21.5
c-30 0 -57.833 -6.16699 -83.5 -18.5s-51.834 -31.833 -78.501 -58.5l-37 35c31.333 31.333 63.333 54.333 96 69s68.334 22 107.001 22c49.333 0 87.5 -12 114.5 -36zM147.998 0.5c-8 8.33301 -12.001 18.833 -12.001 31.5c0 14.667 4.83301 27 14.5 37
s21.834 15 36.501 15c13.333 0 24 -4.16699 32 -12.5s12 -18.833 12 -31.5c0 -14.667 -5 -27 -15 -37s-22.333 -15 -37 -15c-12.667 0 -23 4.16699 -31 12.5z" />
    <glyph glyph-name="at" unicode="@" horiz-adv-x="1017" 
d="M773.5 651.5c55.667 -29.667 97.6699 -70.168 126.003 -121.501s42.5 -109.666 42.5 -174.999c0 -52.667 -7.66699 -105.334 -23 -158.001s-39.833 -96.667 -73.5 -132s-75.834 -53 -126.501 -53c-33.333 0 -59.333 10.167 -78 30.5s-29 46.166 -31 77.499
c-40 -70.667 -92.667 -106 -158 -106c-42.667 0 -77.5 15.167 -104.5 45.5s-40.5 72.166 -40.5 125.499c0 46.667 8.5 92.834 25.5 138.501s43.833 83.834 80.5 114.501s83 46 139 46c48.667 0 95.667 -12.333 141 -37l-36 -269c-2 -12.667 -3 -25.667 -3 -39
c0 -53.333 21.333 -80 64 -80c38 0 69.5 15.5 94.5 46.5s43.167 69.333 54.5 115s17 91.167 17 136.5c0 58 -12 108.833 -36 152.5s-59.5 77.334 -106.5 101.001s-103.833 35.5 -170.5 35.5c-100 0 -182.833 -24.167 -248.5 -72.5s-113.334 -108.333 -143.001 -180
s-44.5 -143.167 -44.5 -214.5c0 -66 13.833 -124.167 41.5 -174.5s66.834 -89.5 117.501 -117.5s110 -42 178 -42s132.667 11.333 194 34l12 -49c-36.667 -12 -70.5 -20.833 -101.5 -26.5s-66.5 -8.5 -106.5 -8.5c-76.667 0 -144.834 16 -204.501 48s-106.167 77 -139.5 135
s-50 125 -50 201c0 78.667 17.167 157.667 51.5 237s88.666 145.833 162.999 199.5s168.166 80.5 281.499 80.5c78.667 0 145.834 -14.833 201.501 -44.5zM544.503 93.499c25 22.333 44.166 48.166 57.499 77.499l35 248c-26.667 13.333 -54.667 20 -84 20
c-45.333 0 -82.166 -13.5 -110.499 -40.5s-48.5 -60.167 -60.5 -99.5s-18 -78.666 -18 -117.999s8.33301 -69.333 25 -90s40 -31 70 -31c32 0 60.5 11.167 85.5 33.5z" />
    <glyph glyph-name="A" unicode="A" horiz-adv-x="562" 
d="M447 0l-33 187h-287l-86 -187h-62l324 685h75l131 -685h-62zM151 238h254l-71 397z" />
    <glyph glyph-name="B" unicode="B" horiz-adv-x="595" 
d="M495.5 319.5c25.667 -23 38.501 -56.833 38.501 -101.5c0 -62 -21.333 -113.833 -64 -155.5s-112.334 -62.5 -209.001 -62.5h-188l97 685h170c64 0 114.5 -12.667 151.5 -38s55.5 -63 55.5 -113c0 -46 -14 -84.167 -42 -114.5s-65 -49.5 -111 -57.5
c42 -5.33301 75.833 -19.5 101.5 -42.5zM223.001 635l-35 -250h131c52 0 92.833 13.5 122.5 40.5s44.5 62.833 44.5 107.5c0 68 -48 102 -144 102h-119zM425.001 98.5c31.333 31.667 47.001 71.833 47.001 120.5c0 40 -13.333 69.5 -40 88.5s-62.667 28.5 -108 28.5h-143
l-40 -285h124c75.333 0 128.666 15.833 159.999 47.5z" />
    <glyph glyph-name="C" unicode="C" horiz-adv-x="547" 
d="M494 680c26.667 -10.667 51.666 -26.668 74.999 -48.001l-35 -36c-21.333 17.333 -42.166 29.833 -62.499 37.5s-43.833 11.5 -70.5 11.5c-62 0 -113 -19.833 -153 -59.5s-69.167 -89 -87.5 -148s-27.5 -118.167 -27.5 -177.5c0 -72 16 -126.333 48 -163
s74.667 -55 128 -55c32.667 0 61 4.83301 85 14.5s49 24.167 75 43.5l29 -42c-58 -46 -122.333 -69 -193 -69s-127.334 23.833 -170.001 71.5s-64 115.167 -64 202.5c0 66.667 11.5 133.334 34.5 200.001s59.167 122.167 108.5 166.5s111 66.5 185 66.5
c36.667 0 68.334 -5.33301 95.001 -16z" />
    <glyph glyph-name="D" unicode="D" horiz-adv-x="630" 
d="M505.5 629.5c51 -37 76.5 -103.832 76.5 -200.499c0 -76.667 -12.167 -147.334 -36.5 -212.001s-63.333 -117 -117 -157s-122.5 -60 -206.5 -60h-149l97 685h134c83.333 0 150.5 -18.5 201.5 -55.5zM223 635.001l-81.999 -584.999h89c69.333 0 125.666 18.333 168.999 55
s74.5 83.667 93.5 141s28.5 118.666 28.5 183.999c0 80.667 -19.5 135 -58.5 163s-90.5 42 -154.5 42h-85z" />
    <glyph glyph-name="E" unicode="E" horiz-adv-x="510" 
d="M516 685l-14 -50h-279l-36 -255h242l-7 -50h-242l-40 -279h294l-7 -51h-354l97 685h346z" />
    <glyph glyph-name="F" unicode="F" horiz-adv-x="478" 
d="M510 685l-14 -50h-273l-38 -267h237l-7 -50h-237l-45 -318h-60l97 685h340z" />
    <glyph glyph-name="G" unicode="G" horiz-adv-x="615" 
d="M506 679c29.333 -11.333 57.001 -28.667 83.001 -52l-38 -34c-22.667 18.667 -45 32 -67 40s-48 12 -78 12c-60 0 -110.5 -19.333 -151.5 -58s-71.333 -88 -91 -148s-29.5 -122 -29.5 -186c0 -71.333 15.667 -124.5 47 -159.5s76.333 -52.5 135 -52.5c52 0 101 12 147 36
l35 242h-132l-1 51h199l-44 -323c-65.333 -38.667 -135.333 -58 -210 -58s-133.167 23.167 -175.5 69.5s-63.5 113.5 -63.5 201.5c0 70.667 12.5 139.5 37.5 206.5s62.833 122 113.5 165s112 64.5 184 64.5c37.333 0 70.666 -5.66699 99.999 -17z" />
    <glyph glyph-name="H" unicode="H" horiz-adv-x="668" 
d="M133 0h-60l97 685h60l-42 -299h327l42 299h60l-97 -685h-60l47 335h-327z" />
    <glyph glyph-name="I" unicode="I" horiz-adv-x="281" 
d="M230 685l-97 -685h-60l97 685h60z" />
    <glyph glyph-name="J" unicode="J" horiz-adv-x="289" 
d="M160 90c-5.33301 -40.667 -15 -73.666 -29 -98.999s-33 -46.333 -57 -63s-56.333 -32.667 -97 -48l-13 46c32.667 13.333 58 27.166 76 41.499s31.5 31.5 40.5 51.5s15.5 46 19.5 78l83 588h60z" />
    <glyph glyph-name="K" unicode="K" horiz-adv-x="545" 
d="M73 0l97 685h60l-96 -685h-61zM437 0l-248 367l327 318h72l-330 -320l250 -365h-71z" />
    <glyph glyph-name="L" unicode="L" horiz-adv-x="472" 
d="M230 685l-89 -631h285l-16 -54h-337l97 685h60z" />
    <glyph glyph-name="M" unicode="M" horiz-adv-x="768" 
d="M662 0h-58.001l15 330c4 110 9.33301 209 16 297l-248 -546h-57l-101 545c-7.33301 -46 -28.666 -145.333 -63.999 -298l-75 -328h-58l161 685h79l96 -533l237 533h87z" />
    <glyph glyph-name="N" unicode="N" horiz-adv-x="670" 
d="M523 0l-77 0.000976562l-236 631c-2 -62.667 -10.667 -146.334 -26 -251.001l-54 -380h-57l97 685h78l236 -629c2 67.333 8.66699 139 20 215l58 414h57z" />
    <glyph glyph-name="O" unicode="O" horiz-adv-x="688" 
d="M577 625.5c42 -47 63 -114.167 63 -201.5c0 -66.667 -11 -133.334 -33 -200.001s-57.833 -122.5 -107.5 -167.5s-113.167 -67.5 -190.5 -67.5c-73.333 0 -131.333 23.667 -174 71s-64 114.666 -64 201.999c0 64.667 11.333 130.334 34 197.001s59 122.834 109 168.501
s113.333 68.5 190 68.5c73.333 0 131 -23.5 173 -70.5zM245.5 583.5c-39.667 -41 -68.166 -90.834 -85.499 -149.501s-26 -116.667 -26 -174c0 -73.333 15.5 -128.166 46.5 -164.499s74.167 -54.5 129.5 -54.5c65.333 0 118 20.5 158 61.5s68.333 90.833 85 149.5
s25 117 25 175c0 72.667 -15.333 127.167 -46 163.5s-74.334 54.5 -131.001 54.5c-64 0 -115.833 -20.5 -155.5 -61.5z" />
    <glyph glyph-name="P" unicode="P" horiz-adv-x="567" 
d="M498 642c39.333 -28.667 59 -72 59 -130c0 -70 -22.5 -128.333 -67.5 -175s-117.833 -70 -218.5 -70h-100l-38 -267h-60l97 685h158c74 0 130.667 -14.333 170 -43zM443.5 371.5c33 36.333 49.5 83.167 49.5 140.5c0 44 -14.167 75.667 -42.5 95s-70.5 29 -126.5 29h-101
l-45 -319h96c80 0 136.5 18.167 169.5 54.5z" />
    <glyph glyph-name="Q" unicode="Q" horiz-adv-x="678" 
d="M618.5 262c-14.333 -54.667 -37.5 -103.835 -69.5 -147.502s-73 -74.5 -123 -92.5c36 -1.33301 69.167 -7.66602 99.5 -18.999s56.833 -27.333 79.5 -48l-44 -48c-31.333 31.333 -65.5 52.833 -102.5 64.5s-86.833 17.5 -149.5 17.5c-73.333 0 -131.333 23.667 -174 71
s-64 114.666 -64 201.999c0 64.667 11.333 130.334 34 197.001s59 122.834 109 168.501s113.333 68.5 190 68.5c73.333 0 131 -23.5 173 -70.5s63 -114.167 63 -201.5c0 -53.333 -7.16699 -107.333 -21.5 -162zM180.5 94.999c31 -36 74.167 -54.001 129.5 -54.001
c65.333 0 118 20.5 158 61.5s68.333 91.333 85 151s25 119.167 25 178.5c0 70.667 -15.5 123.834 -46.5 159.501s-74.5 53.5 -130.5 53.5c-64 0 -115.833 -20.5 -155.5 -61.5s-68.167 -91.167 -85.5 -150.5s-26 -118.333 -26 -177c0 -71.333 15.5 -125 46.5 -161z" />
    <glyph glyph-name="R" unicode="R" horiz-adv-x="587" 
d="M510 395c-29.333 -38.667 -75 -65 -137 -79l144 -316h-67l-136 307h-138l-43 -307h-60l97 685h168c144 0 216 -53.667 216 -161c0 -47.333 -14.667 -90.333 -44 -129zM302 356c66.667 0 114.833 16.668 144.5 50.001s44.5 72.666 44.5 117.999
c0 38.667 -12.5 67 -37.5 85s-64.833 27 -119.5 27h-111l-40 -280h119z" />
    <glyph glyph-name="S" unicode="S" horiz-adv-x="536" 
d="M429 676.5c30 -13 57.334 -32.165 82.001 -57.498l-38 -37c-21.333 22.667 -43.833 38.834 -67.5 48.501s-50.834 14.5 -81.501 14.5c-48 0 -87 -11.833 -117 -35.5s-45 -54.834 -45 -93.501c0 -31.333 10.167 -56 30.5 -74s56.5 -35.667 108.5 -53
c58 -18 101.5 -40.833 130.5 -68.5s43.5 -66.167 43.5 -115.5c0 -36 -9 -70.333 -27 -103s-46.167 -59.667 -84.5 -81s-85.833 -32 -142.5 -32c-45.333 0 -84.833 7.66699 -118.5 23s-63.5 37 -89.5 65l38 36c22.667 -24 47.667 -42 75 -54s59.333 -18 96 -18
c42 0 77.333 7.66699 106 23s50 35.166 64 59.499s21 50.5 21 78.5c0 34.667 -10.333 62.167 -31 82.5s-56.667 39.166 -108 56.499c-61.333 20.667 -105.333 43.667 -132 69s-40 60 -40 104c0 30.667 8.66699 60 26 88s42.833 50.667 76.5 68s73.5 26 119.5 26
c40 0 75 -6.5 105 -19.5z" />
    <glyph glyph-name="T" unicode="T" horiz-adv-x="493" 
d="M543 685l-15 -53h-200l-89 -632h-60l89 632h-202l8 53h469z" />
    <glyph glyph-name="U" unicode="U" horiz-adv-x="649" 
d="M542 212c-9.33301 -68 -35.668 -122.168 -79.001 -162.501s-101.333 -60.5 -174 -60.5c-65.333 0 -114.666 16.333 -147.999 49s-50 77 -50 133c0 14 1 29 3 45l66 469h60l-66 -468c-2 -14.667 -3 -29 -3 -43c0 -88.667 46.667 -133 140 -133c56 0 100 15.833 132 47.5
s52 75.834 60 132.501l65 464h60z" />
    <glyph glyph-name="V" unicode="V" horiz-adv-x="544" 
d="M587 685l-319 -685h-67l-126 685h63l104 -622l282 622h63z" />
    <glyph glyph-name="W" unicode="W" horiz-adv-x="807" 
d="M836 685l-246 -685h-75l-62 617l-236 -617h-73l-54 685h59l41 -628l238 628h68l63 -629l220 629h57z" />
    <glyph glyph-name="X" unicode="X" horiz-adv-x="512" 
d="M533 685l-229 -315l160 -370h-65l-134 327l-225 -327h-67l260 369l-143 316h66l115 -276l196 276h66z" />
    <glyph glyph-name="Y" unicode="Y" horiz-adv-x="520" 
d="M567 685l-275 -417l-38 -268h-61l38 267l-158 418h63l131 -362l233 362h67z" />
    <glyph glyph-name="Z" unicode="Z" horiz-adv-x="513" 
d="M-2 0l7 50l445 583h-326l7 52h395l-7 -50l-443 -582h354l-15 -53h-417z" />
    <glyph glyph-name="bracketleft" unicode="[" horiz-adv-x="314" 
d="M326 807l-7 -48h-112l-116 -824h112l-6 -47h-166l129 919h166z" />
    <glyph glyph-name="backslash" unicode="\" horiz-adv-x="517" 
d="M243 802l106 -890l-51 -12l-105 891z" />
    <glyph glyph-name="bracketright" unicode="]" horiz-adv-x="314" 
d="M308 807l-129 -919h-166l6 47h112l117 824h-112l6 48h166z" />
    <glyph glyph-name="asciicircum" unicode="^" horiz-adv-x="528" 
d="M369 832l141 -305h-64l-108 248l-179 -248h-66l227 305h49z" />
    <glyph glyph-name="underscore" unicode="_" horiz-adv-x="517" 
d="M-26 -122l7 51h462l-7 -51h-462z" />
    <glyph glyph-name="grave" unicode="`" horiz-adv-x="270" 
d="M126 783l173 -105l-20 -33l-183 85z" />
    <glyph glyph-name="a" unicode="a" 
d="M415 523c26 -7.33301 52.668 -17.999 80.001 -31.999l-55 -377c-1.33301 -7.33301 -2 -17.333 -2 -30c0 -14 2.5 -25.167 7.5 -33.5s13.5 -15.166 25.5 -20.499l-17 -41c-23.333 5.33301 -41 15.166 -53 29.499s-17.667 36.166 -17 65.499
c-20 -29.333 -43.833 -52.5 -71.5 -69.5s-57.5 -25.5 -89.5 -25.5c-52 0 -92.5 18.167 -121.5 54.5s-43.5 85.833 -43.5 148.5c0 52 9.33301 104.333 28 157s48.167 96.667 88.5 132s91.166 53 152.499 53c32.667 0 62 -3.66699 88 -11zM210.501 441.001
c-31.667 -30.667 -54.667 -68.667 -69 -114s-21.5 -90.333 -21.5 -135c0 -50.667 9.66699 -89 29 -115s47 -39 83 -39c31.333 0 59.5 9.33301 84.5 28s48.833 46 71.5 82l45 315c-32 16 -66.667 24 -104 24c-47.333 0 -86.833 -15.333 -118.5 -46z" />
    <glyph glyph-name="b" unicode="b" horiz-adv-x="572" 
d="M472.5 482.5c27.667 -34.333 41.5 -83.167 41.5 -146.5c0 -53.333 -9 -106.5 -27 -159.5s-47.167 -97.5 -87.5 -133.5s-92.166 -54 -155.499 -54c-28.667 0 -55.834 2.5 -81.501 7.5s-55.834 13.833 -90.501 26.5l101 713l58 8l-39 -286
c50.667 50.667 105.334 76 164.001 76c50 0 88.833 -17.167 116.5 -51.5zM260 462.499c-24.667 -15 -50.334 -36.501 -77.001 -64.501l-47 -339c18 -7.33301 35.333 -12.666 52 -15.999s36.334 -5 59.001 -5c48.667 0 88.5 15.833 119.5 47.5s53.333 70.5 67 116.5
s20.5 91.667 20.5 137c0 49.333 -9.5 86 -28.5 110s-46.167 36 -81.5 36c-31.333 0 -59.333 -7.5 -84 -22.5z" />
    <glyph glyph-name="c" unicode="c" horiz-adv-x="467" 
d="M461 480l-33 -37.001c-15.333 14 -31.666 24.5 -48.999 31.5s-37.333 10.5 -60 10.5c-46.667 0 -84.834 -15 -114.501 -45s-51.167 -67.167 -64.5 -111.5s-20 -88.166 -20 -131.499c0 -52.667 11.5 -92 34.5 -118s55.167 -39 96.5 -39c24 0 46.167 3.66699 66.5 11
s41.166 18.333 62.499 33l25 -41c-47.333 -36 -99.666 -54 -156.999 -54c-58.667 0 -104.667 18.5 -138 55.5s-50 88.833 -50 155.5c0 50.667 9 101.667 27 153s46.5 94.333 85.5 129s88.167 52 147.5 52c58 0 105 -18 141 -54z" />
    <glyph glyph-name="d" unicode="d" horiz-adv-x="578" 
d="M539 736l-104.001 -736.001h-50l8 106c-20.667 -35.333 -45.334 -63.666 -74.001 -84.999s-61.667 -32 -99 -32c-50.667 0 -90.167 18.333 -118.5 55s-42.5 87 -42.5 151c0 50.667 8.33301 102 25 154s43.334 95.833 80.001 131.5s83.334 53.5 140.001 53.5
c59.333 0 105.333 -24 138 -72l40 281zM201.499 439.499c-29 -31 -49.834 -69 -62.501 -114s-19 -89.5 -19 -133.5c0 -50 9.5 -88.167 28.5 -114.5s45.5 -39.5 79.5 -39.5c36 0 67.333 12 94 36s53.667 59.667 81 107l33 228c-14.667 24 -31.667 42.833 -51 56.5
s-43.666 20.5 -72.999 20.5c-44.667 0 -81.5 -15.5 -110.5 -46.5z" />
    <glyph glyph-name="e" unicode="e" horiz-adv-x="513" 
d="M387 265.5c-62.667 -31 -151.666 -50.833 -266.999 -59.5v-6c0 -54.667 11.833 -95 35.5 -121s56.167 -39 97.5 -39c27.333 0 52.5 4.16699 75.5 12.5s47.167 21.5 72.5 39.5l26 -41c-28 -20.667 -56.5 -36.167 -85.5 -46.5s-59.833 -15.5 -92.5 -15.5
c-60 0 -106.667 18.333 -140 55s-50 88.334 -50 155.001c0 52.667 9.5 104.667 28.5 156s48.667 94 89 128s90.166 51 149.499 51c48.667 0 86.667 -11.833 114 -35.5s41 -53.834 41 -90.501c0 -64 -31.333 -111.5 -94 -142.5zM185.501 417
c-33.667 -46 -54.5 -101 -62.5 -165c100 8 174.667 24 224 48s74 59.333 74 106c0 22.667 -8 41.667 -24 57s-39.667 23 -71 23c-60 0 -106.833 -23 -140.5 -69z" />
    <glyph glyph-name="f" unicode="f" horiz-adv-x="319" 
d="M217 606l-12.001 -83.002h137l-13 -47h-130l-64 -459c-6.66699 -45.333 -16.667 -81.333 -30 -108s-30.5 -48 -51.5 -64s-50.167 -32.333 -87.5 -49l-18 45c27.333 12.667 49 25.334 65 38.001s29.333 29.834 40 51.501s18.667 51.167 24 88.5l64 457h-91l7 47h91l12 87
c5.33301 41.333 22.333 74 51 98s65.334 36 110.001 36c22 0 42.333 -3 61 -9s37.667 -15 57 -27l-23 -40c-30.667 18 -61.667 27 -93 27c-62.667 0 -98 -29.667 -106 -89z" />
    <glyph glyph-name="g" unicode="g" horiz-adv-x="568" 
d="M419 523c26 -7.33301 52.666 -18.001 79.999 -32.001l-71 -487c-20.667 -140.667 -93.667 -211 -219 -211c-60 0 -117.667 16.333 -173 49l23 44c50.667 -28 100 -42 148 -42c94 0 148.667 53 164 159l12 87c-20 -27.333 -43.667 -49.166 -71 -65.499
s-56.333 -24.5 -87 -24.5c-51.333 0 -91.666 18 -120.999 54s-44.333 84.667 -45 146c0 52 9.5 103.667 28.5 155s48.833 94 89.5 128s92 51 154 51c32.667 0 62 -3.66699 88 -11zM211.499 442.999c-31.667 -29.333 -54.833 -66 -69.5 -110s-21.667 -88.333 -21 -133
c0 -48.667 10 -86 30 -112s47.667 -39 83 -39c30.667 0 59 9.33301 85 28s50.667 45.667 74 81l44 305c-32 16 -67.333 24 -106 24c-48 0 -87.833 -14.667 -119.5 -44z" />
    <glyph glyph-name="h" unicode="h" horiz-adv-x="582" 
d="M467 501c21.333 -22 31.999 -53 31.999 -93c0 -11.333 -1 -23.666 -3 -36.999l-52 -371h-58l52 367c1.33301 8 2 19.333 2 34c0 29.333 -6.16699 50.666 -18.5 63.999s-31.166 20 -56.499 20c-68 0 -133 -57.333 -195 -172l-44 -313h-58l104 736l59 7l-49 -347
c24.667 44 53.5 78 86.5 102s68.5 36 106.5 36c40 0 70.667 -11 92 -33z" />
    <glyph glyph-name="i" unicode="i" horiz-adv-x="269" 
d="M200 523l-74 -523h-58l74 523h58zM165 679.5c-7.33301 7 -11 16.167 -11 27.5c0 13.333 4.5 24.333 13.5 33s20.167 13 33.5 13c12 0 21.667 -3.5 29 -10.5s11 -16.167 11 -27.5c0 -13.333 -4.5 -24.333 -13.5 -33s-20.167 -13 -33.5 -13c-12 0 -21.667 3.5 -29 10.5z
" />
    <glyph glyph-name="j" unicode="j" horiz-adv-x="269" 
d="M-56 -160c27.333 12.667 48.8301 25.333 64.4971 38s28.834 30 39.501 52s18.667 51.667 24 89l71 504h58l-72 -506c-6 -45.333 -15.667 -81.333 -29 -108s-30.666 -48 -51.999 -64s-50.666 -32.333 -87.999 -49zM165.997 679.499c-7.33301 7 -11 16.167 -11 27.5
c0 13.333 4.5 24.333 13.5 33s20.167 13 33.5 13c12 0 21.667 -3.5 29 -10.5s11 -16.167 11 -27.5c0 -13.333 -4.5 -24.333 -13.5 -33s-20.167 -13 -33.5 -13c-12 0 -21.667 3.5 -29 10.5z" />
    <glyph glyph-name="k" unicode="k" horiz-adv-x="523" 
d="M182 395c27.333 47.333 57.501 82.334 90.501 105.001s67.833 34 104.5 34c36 0 65 -10.167 87 -30.5s33 -47.5 33 -81.5c0 -42.667 -14.667 -79.834 -44 -111.501s-72 -56.5 -128 -74.5l119 -236h-65l-125 254c61.333 17.333 107 39.333 137 66s45 59 45 97
c0 22 -6 39.167 -18 51.5s-30 18.5 -54 18.5c-36 0 -70.833 -15.833 -104.5 -47.5s-63.834 -76.5 -90.501 -134.5l-43 -305h-58l104 736l59 8z" />
    <glyph glyph-name="l" unicode="l" horiz-adv-x="282" 
d="M134 88c-0.666992 -3.33301 -1.00098 -8.00098 -1.00098 -14.001c0 -12 2.66699 -20.833 8 -26.5s14 -8.5 26 -8.5c10.667 0 23.334 2.66699 38.001 8l13 -44c-20.667 -9.33301 -40.667 -14 -60 -14c-26 0 -46.167 6.83301 -60.5 20.5s-21.5 33.834 -21.5 60.501
c0 4.66699 0.666992 13.667 2 27l90 639l58 8z" />
    <glyph glyph-name="m" unicode="m" horiz-adv-x="849" 
d="M737.5 500.5c19.667 -22.333 29.499 -53.167 29.499 -92.5c0 -10.667 -1 -22.667 -3 -36l-53 -372h-58l52 367c2 13.333 3 25.333 3 36c0 54.667 -23 82 -69 82c-30.667 0 -60.334 -15 -89.001 -45s-57.667 -71.333 -87 -124l-45 -316h-58l52 367c2 13.333 3 25.333 3 36
c0 54.667 -23 82 -69 82c-31.333 0 -61.166 -15.167 -89.499 -45.5s-57.166 -72.5 -86.499 -126.5l-44 -313h-58l74 523h50l-14 -129c56 93.333 117.667 140 185 140c34 0 61.167 -11.333 81.5 -34s30.166 -54.667 29.499 -96c54 86.667 114.667 130 182 130
c34.667 0 61.834 -11.167 81.501 -33.5z" />
    <glyph glyph-name="n" unicode="n" horiz-adv-x="581" 
d="M467 501c21.333 -22 32.002 -53.332 32.002 -93.999c0 -12 -1 -24.667 -3 -38l-52 -369h-58l52 367c1.33301 8 2 19 2 33c0 56.667 -25.333 85 -76 85c-67.333 0 -132 -57.333 -194 -172l-44 -313h-58l74 523h50l-14 -130c27.333 45.333 57.666 80.166 90.999 104.499
s69 36.5 107 36.5c39.333 0 69.666 -11 90.999 -33z" />
    <glyph glyph-name="o" unicode="o" horiz-adv-x="569" 
d="M109.5 45c-33 37.333 -49.502 89.333 -49.502 156c0 50 8.66699 100.5 26 151.5s45.5 94 84.5 129s89.167 52.5 150.5 52.5c60.667 0 107.334 -18.333 140.001 -55s49 -88.334 49 -155.001c0 -49.333 -8.5 -99.666 -25.5 -150.999s-45.167 -94.833 -84.5 -130.5
s-89.666 -53.5 -150.999 -53.5c-60 0 -106.5 18.667 -139.5 56zM366.498 84c29.667 30.667 50.833 68.168 63.5 112.501s19 88.166 19 131.499c0 52 -11 91.333 -33 118s-54 40 -96 40c-48 0 -87 -15.5 -117 -46.5s-51.333 -68.833 -64 -113.5s-19 -88 -19 -130
c0 -52 11.333 -91.333 34 -118s55 -40 97 -40c47.333 0 85.833 15.333 115.5 46z" />
    <glyph glyph-name="p" unicode="p" horiz-adv-x="571" 
d="M142 523h49.999l-5 -71c50.667 54.667 106.667 82 168 82c50 0 88.833 -17 116.5 -51s41.5 -83 41.5 -147c0 -53.333 -8.83301 -106.5 -26.5 -159.5s-46.667 -97.5 -87 -133.5s-92.166 -54 -155.499 -54c-38.667 0 -77.667 7 -117 21l-30 -209l-58 -8zM365.999 85.5
c31.333 31.667 53.832 70.499 67.499 116.499s20.5 91.667 20.5 137c0 49.333 -9.66699 86 -29 110s-46.666 36 -81.999 36c-31.333 0 -59.333 -7.5 -84 -22.5s-50 -36.5 -76 -64.5l-47 -339c18 -7.33301 35.333 -12.666 52 -15.999s36 -5 58 -5
c48.667 0 88.667 15.833 120 47.5z" />
    <glyph glyph-name="q" unicode="q" horiz-adv-x="567" 
d="M381 78c-18 -26.667 -40.832 -48.167 -68.499 -64.5s-57.5 -24.5 -89.5 -24.5c-52 0 -92.5 18.167 -121.5 54.5s-43.5 85.833 -43.5 148.5c0 52 9.33301 104.333 28 157s48.167 96.667 88.5 132s91.166 53 152.499 53c32.667 0 62.167 -3.5 88.5 -10.5
s53.833 -17.833 82.5 -32.5l-98 -690l-58 -8zM317.501 66c25.667 18.667 49.833 46 72.5 82l46 315c-32 16 -67.667 24 -107 24c-47.333 0 -86.833 -15.333 -118.5 -46s-54.667 -68.667 -69 -114s-21.5 -90.333 -21.5 -135c0 -50.667 9.66699 -89 29 -115s47 -39 83 -39
c31.333 0 59.833 9.33301 85.5 28z" />
    <glyph glyph-name="r" unicode="r" horiz-adv-x="371" 
d="M395 527l-16 -55c-12 4 -26 6 -42 6c-36.667 0 -68.167 -15 -94.5 -45s-50.833 -75 -73.5 -135l-43 -298h-58l74 523h50l-13 -127c40.667 92 96 138 166 138c19.333 0 36 -2.33301 50 -7z" />
    <glyph glyph-name="s" unicode="s" horiz-adv-x="461" 
d="M421 475l-31 -34.998c-20 15.333 -40.333 26.666 -61 33.999s-43.667 11 -69 11c-37.333 0 -67.333 -7.83301 -90 -23.5s-34 -37.167 -34 -64.5c0 -22.667 8.5 -41.167 25.5 -55.5s46.833 -27.833 89.5 -40.5c51.333 -16 88.5 -35.667 111.5 -59s34.5 -54 34.5 -92
c0 -48.667 -18.333 -87.667 -55 -117s-86 -44 -148 -44c-40.667 0 -75.834 6.33301 -105.501 19s-56.167 30 -79.5 52l33 34c22.667 -18.667 46 -32.667 70 -42s51.333 -14 82 -14c45.333 0 80.5 9.83301 105.5 29.5s37.5 45.5 37.5 77.5c0 28 -8.5 49.667 -25.5 65
s-48.5 30.333 -94.5 45c-51.333 16 -87.5 34.833 -108.5 56.5s-31.5 49.167 -31.5 82.5c0 25.333 7.33301 48.666 22 69.999s35.834 38.333 63.501 51s60.167 19 97.5 19c62 0 115.667 -19.667 161 -59z" />
    <glyph glyph-name="t" unicode="t" horiz-adv-x="339" 
d="M144 129c-1.33301 -12 -1.99902 -20.333 -1.99902 -25c0 -43.333 20.667 -65 62 -65c25.333 0 53.666 8.33301 84.999 25l20 -43c-36 -21.333 -73.333 -32 -112 -32c-35.333 0 -63 9.5 -83 28.5s-30 46.167 -30 81.5c0 6.66699 0.666992 16.667 2 30l49 347h-88l7 47h89
l29 127l46 5l-19 -132h135l-14 -47h-127z" />
    <glyph glyph-name="u" unicode="u" horiz-adv-x="577" 
d="M114.5 22c-21.667 22 -32.501 53.001 -32.501 93.001c0 11.333 1 23.333 3 36l52 372h58l-52 -370c-1.33301 -8 -2 -18.667 -2 -32c0 -56 25.333 -84 76 -84c36.667 0 70.834 15.167 102.501 45.5s60.167 70.5 85.5 120.5l45 320h58l-74 -523h-48l14 133
c-24 -44.667 -52.167 -79.834 -84.5 -105.501s-68.833 -38.5 -109.5 -38.5c-39.333 0 -69.833 11 -91.5 33z" />
    <glyph glyph-name="v" unicode="v" horiz-adv-x="468" 
d="M490 523l-255 -523h-71l-112 523h63l91 -471l219 471h65z" />
    <glyph glyph-name="w" unicode="w" horiz-adv-x="696" 
d="M707 523l-200 -523h-78l-49 469l-183 -469h-77l-57 523h57l46 -478l187 478h68l51 -478l178 478h57z" />
    <glyph glyph-name="x" unicode="x" horiz-adv-x="457" 
d="M461 523l-195 -247l143 -276h-65l-118 241l-184 -241h-69l223 281l-125 242h64l100 -209l158 209h68z" />
    <glyph glyph-name="y" unicode="y" horiz-adv-x="465" 
d="M238 -4c-28.667 -60 -60.667 -105.5 -96 -136.5s-84.333 -52.167 -147 -63.5l-3 46c35.333 8 64 18.333 86 31s40.167 28.5 54.5 47.5s30.5 45.5 48.5 79.5h-22l-107 523h62l89 -479l222 479h62z" />
    <glyph glyph-name="z" unicode="z" horiz-adv-x="420" 
d="M423 523l-6 -45l-347 -428h284l-13 -50h-351l7 45l346 427h-262l7 51h335z" />
    <glyph glyph-name="braceleft" unicode="{" horiz-adv-x="323" 
d="M335 783c-31.333 0 -54.833 -6.33398 -70.5 -19.001s-25.5 -33 -29.5 -61l-35 -253c-4.66699 -33.333 -13.667 -57 -27 -71s-34 -24.333 -62 -31c20.667 -5.33301 36.167 -13.5 46.5 -24.5s15.5 -27.833 15.5 -50.5c0 -5.33301 -0.666992 -14.666 -2 -27.999l-36 -253
c-1.33301 -9.33301 -2 -16.333 -2 -21c0 -19.333 6 -33.333 18 -42s31.667 -13 59 -13l-3 -46c-84.667 0 -127 34 -127 102c0 5.33301 0.666992 14 2 26l36 255c0.666992 4 1 10 1 18c0 19.333 -5.5 33 -16.5 41s-28.5 12 -52.5 12l7 50c26 0 46.333 6 61 18
s24 31.333 28 58l35 255c6.66699 44 22 75.5 46 94.5s61 28.5 111 28.5z" />
    <glyph glyph-name="bar" unicode="|" horiz-adv-x="404" 
d="M305 804l-126 -904h-55l127 904h54z" />
    <glyph glyph-name="braceright" unicode="}" horiz-adv-x="323" 
d="M13 -84c31.333 0 54.667 6.33301 70 19s25 33 29 61l36 253c4.66699 33.333 13.667 57 27 71s34 24.333 62 31c-21.333 5.33301 -37.166 13.333 -47.499 24s-15.5 27.334 -15.5 50.001c0 5.33301 0.666992 14.666 2 27.999l37 253c0.666992 4.66699 1 11.334 1 20.001
c0 20 -5.83301 34.5 -17.5 43.5s-31.167 13.5 -58.5 13.5l3 45c40.667 0 72 -8.5 94 -25.5s33 -42.5 33 -76.5c0 -4.66699 -0.666992 -13 -2 -25l-36 -255c-1.33301 -9.33301 -2 -16 -2 -20c0 -18.667 5.5 -31.834 16.5 -39.501s28.5 -11.5 52.5 -11.5l-6 -50
c-26 0 -46.333 -6 -61 -18s-24 -31.333 -28 -58l-36 -255c-6 -44 -21.333 -75.667 -46 -95s-61.334 -29 -110.001 -29z" />
    <glyph glyph-name="asciitilde" unicode="~" horiz-adv-x="469" 
d="M274 272c-12 5.33301 -26.668 13.335 -44.001 24.002c-12 8.66699 -22.667 15.167 -32 19.5s-18.666 6.5 -27.999 6.5c-16 0 -30 -4.16699 -42 -12.5s-24.667 -20.5 -38 -36.5l-35 23c18 23.333 36 41.666 54 54.999s39.667 20 65 20c14.667 0 28 -2.66699 40 -8
s26 -13.333 42 -24c12 -8.66699 22.667 -15.167 32 -19.5s19 -6.5 29 -6.5c15.333 0 29 3.83301 41 11.5s24.333 19.167 37 34.5l34 -23c-16 -22.667 -33 -40.334 -51 -53.001s-39.333 -19 -64 -19c-14.667 0 -28 2.66699 -40 8z" />
    <glyph glyph-name="uni00A0" unicode="&#xa0;" horiz-adv-x="277" 
 />
    <glyph glyph-name="exclamdown" unicode="&#xa1;" horiz-adv-x="238" 
d="M111 391.5c-8 8.33301 -12.001 18.833 -12.001 31.5c0 14.667 4.83301 27 14.5 37s21.834 15 36.501 15c13.333 0 24 -4.16699 32 -12.5s12 -18.833 12 -31.5c0 -14.667 -5 -27 -15 -37s-22.333 -15 -37 -15c-12.667 0 -23 4.16699 -31 12.5zM147.999 249l-59 -446h-62
l68 446h53z" />
    <glyph glyph-name="cent" unicode="&#xa2;" horiz-adv-x="467" 
d="M204.5 440c-29.667 -30 -51.168 -67.166 -64.501 -111.499s-20 -88.166 -20 -131.499c0 -52.667 11.5 -92 34.5 -118s55.167 -39 96.5 -39c24 0 46.167 3.66699 66.5 11s41.166 18.333 62.499 33l25 -41c-44 -34 -93 -52 -147 -54l-19 -139h-51l20 142
c-46.667 8 -83 30 -109 66s-39 83.333 -39 142c0 46.667 7.83301 94.167 23.5 142.5s40.334 90.166 74.001 125.499s76.167 56.666 127.5 63.999l21 148h50l-20 -146c50.667 -3.33301 92.334 -21.333 125.001 -54l-33 -37c-15.333 14 -31.666 24.5 -48.999 31.5
s-37.333 10.5 -60 10.5c-46.667 0 -84.834 -15 -114.501 -45z" />
    <glyph glyph-name="sterling" unicode="&#xa3;" horiz-adv-x="506" 
d="M448 657c24.667 -12.667 46.333 -32.002 65 -58.002l-41 -29c-14 20 -29.667 34.5 -47 43.5s-38.666 13.5 -63.999 13.5c-38 0 -69 -11.833 -93 -35.5s-38.667 -55.167 -44 -94.5l-17 -123h212l-6 -43h-212l-23 -161c-4.66699 -32.667 -12.834 -57.5 -24.501 -74.5
s-30.5 -31.833 -56.5 -44.5h325l-15 -51h-394l6 49c34.667 14.667 59.167 30.334 73.5 47.001s23.833 42.334 28.5 77.001l22 158h-65l6 43h65l18 127c7.33301 52 27.666 94.167 60.999 126.5s77 48.5 131 48.5c34.667 0 64.334 -6.33301 89.001 -19z" />
    <glyph glyph-name="currency" unicode="&#xa4;" 
d="M432 216l79 -77.999l-36 -36l-80 78c-32.667 -22.667 -71 -34 -115 -34c-44.667 0 -82.667 12 -114 36l-81 -80l-36 36l80 79c-26.667 34.667 -40 76 -40 124c0 46 13 86.667 39 122l-79 80l36 36l80 -80c32.667 24 71 36 115 36s82.667 -11.333 116 -34l79 78l36 -36
l-78 -78c26.667 -34.667 40 -76 40 -124c0 -48.667 -13.667 -90.334 -41 -125.001zM381.5 233.501c23 26.333 34.5 62.166 34.5 107.499s-11.5 81.333 -34.5 108s-56.5 40 -100.5 40c-43.333 0 -76.666 -13.333 -99.999 -40s-35 -62.667 -35 -108
s11.667 -81.166 35 -107.499s56.666 -39.5 99.999 -39.5c44 0 77.5 13.167 100.5 39.5z" />
    <glyph glyph-name="yen" unicode="&#xa5;" horiz-adv-x="509" 
d="M553 665l-238 -327h116l-7 -43h-134l-14 -103h134l-6 -43h-135l-21 -149h-59l21 149h-135l6 43h136l14 103h-136l7 43h117l-149 327h65l133 -313l222 313h63z" />
    <glyph glyph-name="brokenbar" unicode="&#xa6;" horiz-adv-x="404" 
d="M305 804l-50 -361h-55l51 361h54zM229 262l-50 -362h-55l51 362h54z" />
    <glyph glyph-name="section" unicode="&#xa7;" horiz-adv-x="530" 
d="M234 602.5c-19.333 -17 -29 -38.498 -29 -64.498c0 -23.333 7.66699 -42 23 -56s45 -29 89 -45c48 -17.333 82.5 -36.5 103.5 -57.5s31.5 -46.833 31.5 -77.5c0 -28.667 -7.66699 -53.834 -23 -75.501s-40.333 -42.834 -75 -63.501c29.333 -22.667 44 -52.334 44 -89.001
c0 -24.667 -6.66699 -47.834 -20 -69.501s-34.333 -39.167 -63 -52.5s-64.334 -20 -107.001 -20c-59.333 0 -112.333 15.667 -159 47l27 40c37.333 -26 82.333 -39 135 -39c45.333 0 78 8.66699 98 26s30 39.333 30 66c0 22.667 -7.66699 40.834 -23 54.501
s-44.333 28.167 -87 43.5c-50.667 18 -86.5 36.833 -107.5 56.5s-31.5 45.834 -31.5 78.501c0 28.667 8.16699 54.334 24.5 77.001s41.833 43.667 76.5 63c-15.333 12 -26.5 25.167 -33.5 39.5s-10.5 31.166 -10.5 50.499c0 41.333 16.5 75 49.5 101s76.167 39 129.5 39
c32.667 0 61.5 -4.33301 86.5 -13s48.5 -21 70.5 -37l-27 -37c-20.667 13.333 -41.167 23.333 -61.5 30s-43.166 10 -68.499 10c-42 0 -72.667 -8.5 -92 -25.5zM372.5 350.502c-14.333 15 -40.499 29.498 -78.499 43.498c-25.333 8.66699 -48.333 18.334 -69 29.001
c-28 -18 -47.833 -35.667 -59.5 -53s-17.5 -37.333 -17.5 -60c0 -22 7.16699 -40.167 21.5 -54.5s40.5 -28.166 78.5 -41.499c27.333 -9.33301 50.666 -19 69.999 -29c29.333 18.667 49.333 36.5 60 53.5s16 36.167 16 57.5s-7.16699 39.5 -21.5 54.5z" />
    <glyph glyph-name="dieresis" unicode="&#xa8;" horiz-adv-x="329" 
d="M102.5 673c-7 6.66699 -10.5 15.001 -10.5 25.001c0 12.667 4.16699 23.167 12.5 31.5s18.833 12.5 31.5 12.5c10.667 0 19.5 -3.33301 26.5 -10s10.5 -15.334 10.5 -26.001c0 -12 -4.16699 -22.167 -12.5 -30.5s-18.833 -12.5 -31.5 -12.5
c-10.667 0 -19.5 3.33301 -26.5 10zM290.5 673.001c-7 6.66699 -10.502 15.001 -10.502 25.001c0 12.667 4.33301 23.167 13 31.5s19.334 12.5 32.001 12.5c10.667 0 19.334 -3.33301 26.001 -10s10 -15.334 10 -26.001c0 -12 -4.16699 -22.167 -12.5 -30.5
s-18.833 -12.5 -31.5 -12.5c-10.667 0 -19.5 3.33301 -26.5 10z" />
    <glyph glyph-name="copyright" unicode="&#xa9;" horiz-adv-x="810" 
d="M580.5 697.5c45 -25.667 80.5 -61.333 106.5 -107s39 -97.5 39 -155.5c0 -57.333 -13 -109 -39 -155s-61.5 -82 -106.5 -108s-95.167 -39 -150.5 -39s-105.666 12.833 -150.999 38.5s-81 61.5 -107 107.5s-39 98 -39 156c0 57.333 13 109 39 155s61.667 81.833 107 107.5
s95.666 38.5 150.999 38.5s105.5 -12.833 150.5 -38.5zM300.5 664.001c-38.333 -22 -68.332 -53 -89.999 -93s-32.5 -85.333 -32.5 -136c0 -51.333 10.833 -96.833 32.5 -136.5s51.667 -70.5 90 -92.5s81.833 -33 130.5 -33c47.333 0 90.166 11 128.499 33s68.333 53 90 93
s32.5 85.333 32.5 136c0 51.333 -10.833 96.833 -32.5 136.5s-51.5 70.5 -89.5 92.5s-81 33 -129 33c-48.667 0 -92.167 -11 -130.5 -33zM487.001 607.001c16 -6 31.332 -14.668 45.999 -26.001l-24 -33c-12 8.66699 -23.833 15 -35.5 19s-25.167 6 -40.5 6
c-26.667 0 -49.667 -11 -69 -33s-29 -56.667 -29 -104c0 -45.333 9 -79.666 27 -102.999s42 -35 72 -35c16.667 0 31.334 2.5 44.001 7.5s25.667 12.5 39 22.5l23 -34c-31.333 -26.667 -67.333 -40 -108 -40c-44 0 -79.833 16.333 -107.5 49s-41.5 77 -41.5 133
c0 38.667 7 71.5 21 98.5s32.333 47.333 55 61s46.667 20.5 72 20.5c21.333 0 40 -3 56 -9z" />
    <glyph glyph-name="ordfeminine" unicode="&#xaa;" horiz-adv-x="502" 
d="M126 304.5c-20.667 20.333 -30.9961 46.5 -30.9961 78.5c0 40 15.667 73 47 99s79.666 39 144.999 39h77l5 33c1.33301 10.667 2 18.334 2 23.001c0 22 -6.16699 37.667 -18.5 47s-32.166 14 -59.499 14c-34.667 0 -74 -7.33301 -118 -22l-12 43
c48.667 17.333 95 26 139 26c83.333 0 125 -34.667 125 -104c0 -10.667 -0.333008 -18.667 -1 -24l-25 -184c-0.666992 -3.33301 -1.33398 -7 -2.00098 -11s-1 -8 -1 -12c0 -8.66699 2 -16 6 -22s10.667 -11 20 -15l-16 -39c-18.667 4 -32.834 10.667 -42.501 20
s-15.834 23.666 -18.501 42.999c-35.333 -42 -80.333 -63 -135 -63c-36.667 0 -65.334 10.167 -86.001 30.5zM291.504 337c21 12 39.167 29 54.5 51l13 93h-72c-46 0 -79.667 -8.66699 -101 -26s-32 -40.666 -32 -69.999c0 -20.667 5.83301 -36.834 17.5 -48.501
s28.5 -17.5 50.5 -17.5c25.333 0 48.5 6 69.5 18zM38.0039 0l7 51h354l-8 -51h-353z" />
    <glyph glyph-name="guillemotleft" unicode="&#xab;" horiz-adv-x="553" 
d="M267 520l35 -25l-166 -207l108 -208l-38 -24l-134 211l4 40zM480 520l35 -25l-166 -207l108 -208l-38 -24l-134 211l4 40z" />
    <glyph glyph-name="logicalnot" unicode="&#xac;" horiz-adv-x="497" 
d="M439 346l-24 -178h-57l18 127h-302l6 51h359z" />
    <glyph glyph-name="uni00AD" unicode="&#xad;" horiz-adv-x="398" 
d="M70 288l8 50h263l-7 -50h-264z" />
    <glyph glyph-name="registered" unicode="&#xae;" horiz-adv-x="639" 
d="M474.5 705.5c36.333 -21 65.167 -49.8311 86.5 -86.498s32 -77.334 32 -122.001c0 -44 -10.667 -84.333 -32 -121s-50.333 -65.834 -87 -87.501s-77 -32.5 -121 -32.5s-84.333 10.5 -121 31.5s-65.667 49.833 -87 86.5s-32 77 -32 121s10.667 84.5 32 121.5
s50.333 66.333 87 88s77 32.5 121 32.5c44.667 0 85.167 -10.5 121.5 -31.5zM454.501 320.002c30.333 18 54.333 42.5 72 73.5s26.5 65.5 26.5 103.5c0 38.667 -8.66699 73.5 -26 104.5s-41.166 55.167 -71.499 72.5s-64.5 26 -102.5 26c-36.667 0 -70.334 -9 -101.001 -27
s-54.834 -42.667 -72.501 -74s-26.5 -66 -26.5 -104s8.83301 -72.5 26.5 -103.5s41.834 -55.167 72.501 -72.5s64.334 -26 101.001 -26c37.333 0 71.166 9 101.499 27zM435.501 507.502c-11 -12.333 -26.5 -21.168 -46.5 -26.501l74 -117h-51l-64 111h-36v-111h-42v272h69
c75.333 0 113 -27 113 -81c0 -19.333 -5.5 -35.166 -16.5 -47.499zM312.001 510h39c38.667 0 58 15 58 45c0 16.667 -5.16699 28.5 -15.5 35.5s-26.5 10.5 -48.5 10.5h-33v-91z" />
    <glyph glyph-name="macron" unicode="&#xaf;" horiz-adv-x="300" 
d="M328 676h-240l7 47h240z" />
    <glyph glyph-name="degree" unicode="&#xb0;" horiz-adv-x="518" 
d="M143.5 429c-24.333 22.667 -36.5 54.334 -36.5 95.001c0 32.667 7.66699 62.167 23 88.5s35.666 46.833 60.999 61.5s52.666 22 81.999 22c38.667 0 70.167 -11.333 94.5 -34s36.5 -54.334 36.5 -95.001c0 -32.667 -7.66699 -62.167 -23 -88.5
s-35.666 -46.833 -60.999 -61.5s-52.666 -22 -81.999 -22c-38.667 0 -70.167 11.333 -94.5 34zM321 474.5c21.333 23.667 32 54.8359 32 93.5029c0 27.333 -7.16699 48.166 -21.5 62.499s-34.166 21.5 -59.499 21.5c-33.333 0 -60.666 -11.833 -81.999 -35.5
s-32 -54.834 -32 -93.501c0 -26.667 7.16699 -47.334 21.5 -62.001s34.166 -22 59.499 -22c33.333 0 60.666 11.833 81.999 35.5z" />
    <glyph glyph-name="plusminus" unicode="&#xb1;" horiz-adv-x="491" 
d="M32 0l7 51h354l-8 -51h-353zM310 519l-22 -152h149l-7 -51h-149l-22 -151h-55l22 151h-149l7 51h149l21 152h56z" />
    <glyph glyph-name="uni00B2" unicode="&#xb2;" horiz-adv-x="397" 
d="M343.5 714.5c19.667 -19 29.501 -43.834 29.501 -74.501c0 -28 -8.16699 -55.167 -24.5 -81.5s-37.333 -51.5 -63 -75.5s-62.167 -55.333 -109.5 -94l-26 -22h197l-14 -44h-250l5 43l37 32c47.333 40 83.666 72.167 108.999 96.5s46 48.666 62 72.999s24 48.5 24 72.5
c0 18.667 -5.66699 33.334 -17 44.001s-27 16 -47 16c-18.667 0 -36.167 -4.16699 -52.5 -12.5s-32.5 -20.166 -48.5 -35.499l-32 30c22.667 20.667 45 36 67 46s45.667 15 71 15c35.333 0 62.833 -9.5 82.5 -28.5z" />
    <glyph glyph-name="uni00B3" unicode="&#xb3;" horiz-adv-x="397" 
d="M347 718c20 -17.333 30.001 -39.667 30.001 -67c0 -28 -9.16699 -51.833 -27.5 -71.5s-42.5 -32.167 -72.5 -37.5c24 -1.33301 43.833 -9.5 59.5 -24.5s23.5 -35.167 23.5 -60.5c0 -41.333 -15 -75.333 -45 -102s-68 -40 -114 -40c-52.667 0 -94 19.333 -124 58l34 25
c13.333 -14.667 27.166 -25 41.499 -31s30.5 -9 48.5 -9c33.333 0 59.5 9.16699 78.5 27.5s28.5 42.833 28.5 73.5c0 22 -6.66699 37.833 -20 47.5s-33 14.5 -59 14.5h-32l12 39h19c27.333 0 50.333 8.33301 69 25s28 37.667 28 63c0 18 -5.83301 31.667 -17.5 41
s-27.834 14 -48.501 14c-18.667 0 -35.667 -3 -51 -9s-32 -15.333 -50 -28l-25 31c40.667 31.333 84.334 47 131.001 47c35.333 0 63 -8.66699 83 -26z" />
    <glyph glyph-name="acute" unicode="&#xb4;" horiz-adv-x="273" 
d="M289 783l20 -53l-206 -85l-15 33z" />
    <glyph glyph-name="uni00B5" unicode="&#xb5;" horiz-adv-x="582" 
d="M451 83c0 -29.333 2.66895 -57.3311 8.00195 -83.998l-53 -7c-7.33301 27.333 -11 54 -11 80c0 12 0.333008 21.333 1 28c-52.667 -74 -111.334 -111 -176.001 -111c-46 0 -78 17 -96 51c2 -28 -1 -68.667 -9 -122l-17 -115l-58 -6l102 726h58l-53 -375
c-1.33301 -13.333 -2 -22.333 -2 -27c0 -28.667 7.5 -49.5 22.5 -62.5s35.167 -19.5 60.5 -19.5c31.333 0 61.166 10.167 89.499 30.5s54.833 50.166 79.5 89.499l52 364h58l-49 -348c-4.66699 -32.667 -7 -63.334 -7 -92.001z" />
    <glyph glyph-name="paragraph" unicode="&#xb6;" horiz-adv-x="706" 
d="M615 685l-124.001 -882l-54 -9l118 842h-131l-116 -833l-54 -9l71 500c-67.333 2.66699 -116.666 18.667 -147.999 48s-47 68.333 -47 117c0 70.667 23.5 126 70.5 166s109.833 60 188.5 60h226z" />
    <glyph glyph-name="periodcentered" unicode="&#xb7;" horiz-adv-x="207" 
d="M76 283.5c-8 8.33301 -12.001 18.833 -12.001 31.5c0 14.667 4.83301 27 14.5 37s21.834 15 36.501 15c13.333 0 24 -4.16699 32 -12.5s12 -18.833 12 -31.5c0 -14.667 -5 -27 -15 -37s-22.333 -15 -37 -15c-12.667 0 -23 4.16699 -31 12.5z" />
    <glyph glyph-name="cedilla" unicode="&#xb8;" horiz-adv-x="245" 
d="M75 -64c28 -2.66699 48.833 -10.166 62.5 -22.499s20.5 -29.166 20.5 -50.499c0 -26.667 -10.5 -48.334 -31.5 -65.001s-48.167 -25 -81.5 -25c-32.667 0 -59.334 7.33301 -80.001 22l21 35c18.667 -10 38.334 -15 59.001 -15c18 0 32.833 4 44.5 12s17.5 19.667 17.5 35
s-6 26.166 -18 32.499s-33.333 9.5 -64 9.5l25 112h39z" />
    <glyph glyph-name="uni00B9" unicode="&#xb9;" horiz-adv-x="397" 
d="M323 737l-59 -414h-50l50 359l-109 -60l-20 36l144 79h44z" />
    <glyph glyph-name="ordmasculine" unicode="&#xba;" horiz-adv-x="497" 
d="M422 642.5c27.333 -28.333 41 -68.501 41 -120.501c0 -46 -8.5 -87.833 -25.5 -125.5s-41.333 -67.5 -73 -89.5s-68.834 -33 -111.501 -33c-50 0 -88.667 14.333 -116 43s-41 69 -41 121c0 46 8.5 87.833 25.5 125.5s41.333 67.334 73 89.001s68.834 32.5 111.501 32.5
c50 0 88.667 -14.167 116 -42.5zM193.5 579.499c-25.667 -39 -38.499 -87.168 -38.499 -144.501c0 -37.333 8.5 -65.666 25.5 -84.999s41.5 -29 73.5 -29c48.667 0 85.667 19.667 111 59s38 88 38 146c0 74.667 -32.667 112 -98 112c-48.667 0 -85.834 -19.5 -111.501 -58.5
zM35.001 -0.00195312l7 51h354l-8 -51h-353z" />
    <glyph glyph-name="guillemotright" unicode="&#xbb;" horiz-adv-x="553" 
d="M140 520l135 -213l-5 -40l-191 -211l-35 24l166 208l-107 207zM353 520l135 -213l-5 -40l-191 -211l-35 24l166 208l-107 207z" />
    <glyph glyph-name="onequarter" unicode="&#xbc;" horiz-adv-x="906" 
d="M316 685l-59 -414h-50l50 359l-109 -60l-20 36l144 79h44zM703 747l38 -20l-517 -798l-38 20zM838 145l-6 -42h-55l-15 -103h-50l14 103h-187l5 37l168 281l42 -17l-155 -259h133l22 115h45l-16 -115h55z" />
    <glyph glyph-name="onehalf" unicode="&#xbd;" horiz-adv-x="906" 
d="M316 685l-59 -414h-50l50 359l-109 -60l-20 36l144 79h44zM703 747l38 -20l-517 -798l-38 20zM807.5 391.5c19.667 -19 29.501 -43.834 29.501 -74.501c0 -28 -8.16699 -55.167 -24.5 -81.5s-37.333 -51.5 -63 -75.5s-62.167 -55.333 -109.5 -94l-26 -22h197l-14 -44
h-250l5 43l37 32c47.333 40 83.666 72.167 108.999 96.5s46 48.666 62 72.999s24 48.5 24 72.5c0 18.667 -5.66699 33.334 -17 44.001s-27 16 -47 16c-18.667 0 -36.167 -4.16699 -52.5 -12.5s-32.5 -20.166 -48.5 -35.499l-32 30c22.667 20.667 45 36 67 46
s45.667 15 71 15c35.333 0 62.833 -9.5 82.5 -28.5z" />
    <glyph glyph-name="threequarters" unicode="&#xbe;" horiz-adv-x="906" 
d="M340 666c20 -17.333 30.001 -39.667 30.001 -67c0 -28 -9.16699 -51.833 -27.5 -71.5s-42.5 -32.167 -72.5 -37.5c24 -1.33301 43.833 -9.5 59.5 -24.5s23.5 -35.167 23.5 -60.5c0 -41.333 -15 -75.333 -45 -102s-68 -40 -114 -40c-52.667 0 -94 19.333 -124 58l34 25
c13.333 -14.667 27.166 -25 41.499 -31s30.5 -9 48.5 -9c33.333 0 59.5 9.16699 78.5 27.5s28.5 42.833 28.5 73.5c0 22 -6.66699 37.833 -20 47.5s-33 14.5 -59 14.5h-32l12 39h19c27.333 0 50.333 8.33301 69 25s28 37.667 28 63c0 18 -5.83301 31.667 -17.5 41
s-27.834 14 -48.501 14c-18.667 0 -35.667 -3 -51 -9s-32 -15.333 -50 -28l-25 31c40.667 31.333 84.334 47 131.001 47c35.333 0 63 -8.66699 83 -26zM703.001 746.999l38 -20l-517 -798l-38 20zM838.001 144.999l-6 -42h-55l-15 -103h-50l14 103h-187l5 37l168 281l42 -17
l-155 -259h133l22 115h45l-16 -115h55z" />
    <glyph glyph-name="questiondown" unicode="&#xbf;" horiz-adv-x="445" 
d="M292 492.5c8 -8.33301 12.001 -18.833 12.001 -31.5c0 -14.667 -4.83301 -27 -14.5 -37s-21.834 -15 -36.501 -15c-13.333 0 -24 4.16699 -32 12.5s-12 18.833 -12 31.5c0 14.667 5 27 15 37s22.333 15 37 15c12.667 0 23 -4.16699 31 -12.5zM34.501 -170.5
c-27 24.333 -40.499 55.167 -40.499 92.5c0 30 6 55.667 18 77s26.667 38.666 44 51.999s40 28.333 68 45c24 14 42.833 26.167 56.5 36.5s25.167 22.833 34.5 37.5s14 32 14 52c0 12.667 -1.66699 26.334 -5 41.001l52 10c6.66699 -18.667 10 -36.667 10 -54
c0 -26 -5.5 -48.5 -16.5 -67.5s-24.333 -34.667 -40 -47s-36.834 -26.5 -63.501 -42.5c-24.667 -14.667 -44.334 -27.667 -59.001 -39s-27 -25.333 -37 -42s-15 -36 -15 -58c0 -24.667 8.66699 -44.167 26 -58.5s41.333 -21.5 72 -21.5c30 0 57.833 6.16699 83.5 18.5
s51.834 31.5 78.501 57.5l37 -35c-32 -31.333 -64.333 -54.333 -97 -69s-68 -22 -106 -22c-49.333 0 -87.5 12.167 -114.5 36.5z" />
    <glyph glyph-name="Agrave" unicode="&#xc0;" horiz-adv-x="562" 
d="M447 0l-33 187h-287l-86 -187h-62l324 685h75l131 -685h-62zM151 238h254l-71 397zM288 885l176 -94l-20 -33l-183 75z" />
    <glyph glyph-name="Aacute" unicode="&#xc1;" horiz-adv-x="562" 
d="M447 0l-33 187h-287l-86 -187h-62l324 685h75l131 -685h-62zM151 238h254l-71 397zM441 886l20 -53l-206 -75l-14 34z" />
    <glyph glyph-name="Acircumflex" unicode="&#xc2;" horiz-adv-x="562" 
d="M447 0l-33 187h-287l-86 -187h-62l324 685h75l131 -685h-62zM151 238h254l-71 397zM228 762l-24 31l142 101h37l114 -102l-27 -30l-110 80z" />
    <glyph glyph-name="Atilde" unicode="&#xc3;" horiz-adv-x="562" 
d="M447 0l-33 187h-287l-86 -187h-62l324 685h75l131 -685h-62zM151 238h254l-71 397zM385.5 798.5c-9.66699 4.33301 -20.834 10.832 -33.501 19.499c-8.66699 6.66699 -16.5 11.667 -23.5 15s-14.167 5 -21.5 5c-12 0 -22.333 -3.16699 -31 -9.5
s-19.334 -17.166 -32.001 -32.499l-33 22c30 44 62.333 66 97 66c12 0 22.5 -2.16699 31.5 -6.5s19.833 -10.5 32.5 -18.5c12 -7.33301 21 -12.5 27 -15.5s12.667 -4.5 20 -4.5c10.667 0 20.834 3.5 30.501 10.5s20.167 18.167 31.5 33.5l36 -21
c-29.333 -46.667 -61.666 -70 -96.999 -70c-13.333 0 -24.833 2.16699 -34.5 6.5z" />
    <glyph glyph-name="Adieresis" unicode="&#xc4;" horiz-adv-x="562" 
d="M447 0l-33 187h-287l-86 -187h-62l324 685h75l131 -685h-62zM151 238h254l-71 397zM238.5 799c-7 6.66699 -10.5 15.001 -10.5 25.001c0 12.667 4.16699 23.167 12.5 31.5s18.833 12.5 31.5 12.5c10.667 0 19.5 -3.33301 26.5 -10s10.5 -15.334 10.5 -26.001
c0 -12 -4.16699 -22.167 -12.5 -30.5s-18.833 -12.5 -31.5 -12.5c-10.667 0 -19.5 3.33301 -26.5 10zM426.5 799.001c-7 6.66699 -10.502 15.001 -10.502 25.001c0 12.667 4.33301 23.167 13 31.5s19.334 12.5 32.001 12.5c10.667 0 19.334 -3.33301 26.001 -10
s10 -15.334 10 -26.001c0 -12 -4.16699 -22.167 -12.5 -30.5s-18.833 -12.5 -31.5 -12.5c-10.667 0 -19.5 3.33301 -26.5 10z" />
    <glyph glyph-name="Aring" unicode="&#xc5;" horiz-adv-x="562" 
d="M447 0l-33 187h-287l-86 -187h-62l324 685h75l131 -685h-62zM151 238h254l-71 397zM440.5 923.5c16.333 -15.667 24.5 -35.5 24.5 -59.5c0 -30 -10.5 -55 -31.5 -75s-46.833 -30 -77.5 -30c-26.667 0 -48.167 7.83301 -64.5 23.5s-24.5 35.5 -24.5 59.5
c0 30 10.667 55 32 75s47 30 77 30c26.667 0 48.167 -7.83301 64.5 -23.5zM328 891.5c-11.333 -13 -17 -29.167 -17 -48.5c0 -15.333 4 -27.166 12 -35.499s19.333 -12.5 34 -12.5c20 0 35.833 6.66699 47.5 20s17.5 29.333 17.5 48c0 15.333 -4 27.166 -12 35.499
s-19.667 12.5 -35 12.5c-20 0 -35.667 -6.5 -47 -19.5z" />
    <glyph glyph-name="AE" unicode="&#xc6;" horiz-adv-x="780" 
d="M732 635h-323l30 -256h257l-7 -50h-244l32 -278h228l-8 -51h-272l-20 184h-284l-95 -184h-64l363 685h422zM147 234h253l-44 403z" />
    <glyph glyph-name="Ccedilla" unicode="&#xc7;" horiz-adv-x="547" 
d="M248 585.5c-40 -39.667 -69.168 -89 -87.501 -148s-27.5 -118.167 -27.5 -177.5c0 -72 16 -126.333 48 -163s74.667 -55 128 -55c32.667 0 61 4.83301 85 14.5s49 24.167 75 43.5l29 -42c-54.667 -42.667 -113.334 -65.667 -176.001 -69l-9 -53
c28 -2.66699 48.833 -10.167 62.5 -22.5s20.5 -29.166 20.5 -50.499c0 -26.667 -10.5 -48.334 -31.5 -65.001s-48.167 -25 -81.5 -25c-32.667 0 -59.334 7.33301 -80.001 22l21 35c18.667 -10 38.334 -15 59.001 -15c18 0 32.833 4 44.5 12s17.5 19.667 17.5 35
s-6 26.166 -18 32.499s-33.333 9.5 -64 9.5l19 86c-64 5.33301 -115.167 31.5 -153.5 78.5s-57.5 111.833 -57.5 194.5c0 66.667 11.5 133.334 34.5 200.001s59.167 122.167 108.5 166.5s111 66.5 185 66.5c36.667 0 68.334 -5.33301 95.001 -16s51.667 -26.667 75 -48
l-35 -36c-21.333 17.333 -42.166 29.833 -62.499 37.5s-43.833 11.5 -70.5 11.5c-62 0 -113 -19.833 -153 -59.5z" />
    <glyph glyph-name="Egrave" unicode="&#xc8;" horiz-adv-x="510" 
d="M516 685l-14 -50h-279l-36 -255h242l-7 -50h-242l-40 -279h294l-7 -51h-354l97 685h346zM294 885l176 -94l-20 -33l-183 75z" />
    <glyph glyph-name="Eacute" unicode="&#xc9;" horiz-adv-x="510" 
d="M516 685l-14 -50h-279l-36 -255h242l-7 -50h-242l-40 -279h294l-7 -51h-354l97 685h346zM447 886l20 -53l-206 -75l-14 34z" />
    <glyph glyph-name="Ecircumflex" unicode="&#xca;" horiz-adv-x="510" 
d="M516 685l-14 -50h-279l-36 -255h242l-7 -50h-242l-40 -279h294l-7 -51h-354l97 685h346zM234 762l-24 31l142 101h37l114 -102l-27 -30l-110 80z" />
    <glyph glyph-name="Edieresis" unicode="&#xcb;" horiz-adv-x="510" 
d="M516 685l-14 -50h-279l-36 -255h242l-7 -50h-242l-40 -279h294l-7 -51h-354l97 685h346zM244.5 799c-7 6.66699 -10.5 15.001 -10.5 25.001c0 12.667 4.16699 23.167 12.5 31.5s18.833 12.5 31.5 12.5c10.667 0 19.5 -3.33301 26.5 -10s10.5 -15.334 10.5 -26.001
c0 -12 -4.16699 -22.167 -12.5 -30.5s-18.833 -12.5 -31.5 -12.5c-10.667 0 -19.5 3.33301 -26.5 10zM432.5 799.001c-7 6.66699 -10.502 15.001 -10.502 25.001c0 12.667 4.33301 23.167 13 31.5s19.334 12.5 32.001 12.5c10.667 0 19.334 -3.33301 26.001 -10
s10 -15.334 10 -26.001c0 -12 -4.16699 -22.167 -12.5 -30.5s-18.833 -12.5 -31.5 -12.5c-10.667 0 -19.5 3.33301 -26.5 10z" />
    <glyph glyph-name="Igrave" unicode="&#xcc;" horiz-adv-x="281" 
d="M230 685l-97 -685h-60l97 685h60zM147 885l176 -94l-20 -33l-183 75z" />
    <glyph glyph-name="Iacute" unicode="&#xcd;" horiz-adv-x="281" 
d="M230 685l-97 -685h-60l97 685h60zM300 886l20 -53l-206 -75l-14 34z" />
    <glyph glyph-name="Icircumflex" unicode="&#xce;" horiz-adv-x="281" 
d="M230 685l-97 -685h-60l97 685h60zM87 762l-24 31l142 101h37l114 -102l-27 -30l-110 80z" />
    <glyph glyph-name="Idieresis" unicode="&#xcf;" horiz-adv-x="281" 
d="M230 685l-97 -685h-60l97 685h60zM97.5 799c-7 6.66699 -10.5 15.001 -10.5 25.001c0 12.667 4.16699 23.167 12.5 31.5s18.833 12.5 31.5 12.5c10.667 0 19.5 -3.33301 26.5 -10s10.5 -15.334 10.5 -26.001c0 -12 -4.16699 -22.167 -12.5 -30.5
s-18.833 -12.5 -31.5 -12.5c-10.667 0 -19.5 3.33301 -26.5 10zM285.5 799.001c-7 6.66699 -10.502 15.001 -10.502 25.001c0 12.667 4.33301 23.167 13 31.5s19.334 12.5 32.001 12.5c10.667 0 19.334 -3.33301 26.001 -10s10 -15.334 10 -26.001
c0 -12 -4.16699 -22.167 -12.5 -30.5s-18.833 -12.5 -31.5 -12.5c-10.667 0 -19.5 3.33301 -26.5 10z" />
    <glyph glyph-name="Eth" unicode="&#xd0;" horiz-adv-x="635" 
d="M510.5 629.5c51 -37 76.5 -103.832 76.5 -200.499c0 -76.667 -12.167 -147.334 -36.5 -212.001s-63.333 -117 -117 -157s-122.5 -60 -206.5 -60h-149l47 329h-87l6 48h87l44 308h134c83.333 0 150.5 -18.5 201.5 -55.5zM404 105.001
c43.333 36.667 74.501 83.668 93.501 141.001s28.5 118.666 28.5 183.999c0 80.667 -19.5 135 -58.5 163s-90.5 42 -154.5 42h-85l-36 -258h177l-6 -48h-178l-39 -279h89c69.333 0 125.666 18.333 168.999 55z" />
    <glyph glyph-name="Ntilde" unicode="&#xd1;" horiz-adv-x="670" 
d="M523 0l-77 0.000976562l-236 631c-2 -62.667 -10.667 -146.334 -26 -251.001l-54 -380h-57l97 685h78l236 -629c2 67.333 8.66699 139 20 215l58 414h57zM448.5 798.501c-9.66699 4.33301 -20.834 10.832 -33.501 19.499c-8.66699 6.66699 -16.5 11.667 -23.5 15
s-14.167 5 -21.5 5c-12 0 -22.333 -3.16699 -31 -9.5s-19.334 -17.166 -32.001 -32.499l-33 22c30 44 62.333 66 97 66c12 0 22.5 -2.16699 31.5 -6.5s19.833 -10.5 32.5 -18.5c12 -7.33301 21 -12.5 27 -15.5s12.667 -4.5 20 -4.5c10.667 0 20.834 3.5 30.501 10.5
s20.167 18.167 31.5 33.5l36 -21c-29.333 -46.667 -61.666 -70 -96.999 -70c-13.333 0 -24.833 2.16699 -34.5 6.5z" />
    <glyph glyph-name="Ograve" unicode="&#xd2;" horiz-adv-x="688" 
d="M577 625.5c42 -47 63 -114.167 63 -201.5c0 -66.667 -11 -133.334 -33 -200.001s-57.833 -122.5 -107.5 -167.5s-113.167 -67.5 -190.5 -67.5c-73.333 0 -131.333 23.667 -174 71s-64 114.666 -64 201.999c0 64.667 11.333 130.334 34 197.001s59 122.834 109 168.501
s113.333 68.5 190 68.5c73.333 0 131 -23.5 173 -70.5zM245.5 583.5c-39.667 -41 -68.166 -90.834 -85.499 -149.501s-26 -116.667 -26 -174c0 -73.333 15.5 -128.166 46.5 -164.499s74.167 -54.5 129.5 -54.5c65.333 0 118 20.5 158 61.5s68.333 90.833 85 149.5
s25 117 25 175c0 72.667 -15.333 127.167 -46 163.5s-74.334 54.5 -131.001 54.5c-64 0 -115.833 -20.5 -155.5 -61.5zM352.001 884.999l176 -94l-20 -33l-183 75z" />
    <glyph glyph-name="Oacute" unicode="&#xd3;" horiz-adv-x="688" 
d="M577 625.5c42 -47 63 -114.167 63 -201.5c0 -66.667 -11 -133.334 -33 -200.001s-57.833 -122.5 -107.5 -167.5s-113.167 -67.5 -190.5 -67.5c-73.333 0 -131.333 23.667 -174 71s-64 114.666 -64 201.999c0 64.667 11.333 130.334 34 197.001s59 122.834 109 168.501
s113.333 68.5 190 68.5c73.333 0 131 -23.5 173 -70.5zM245.5 583.5c-39.667 -41 -68.166 -90.834 -85.499 -149.501s-26 -116.667 -26 -174c0 -73.333 15.5 -128.166 46.5 -164.499s74.167 -54.5 129.5 -54.5c65.333 0 118 20.5 158 61.5s68.333 90.833 85 149.5
s25 117 25 175c0 72.667 -15.333 127.167 -46 163.5s-74.334 54.5 -131.001 54.5c-64 0 -115.833 -20.5 -155.5 -61.5zM505.001 885.999l20 -53l-206 -75l-14 34z" />
    <glyph glyph-name="Ocircumflex" unicode="&#xd4;" horiz-adv-x="688" 
d="M577 625.5c42 -47 63 -114.167 63 -201.5c0 -66.667 -11 -133.334 -33 -200.001s-57.833 -122.5 -107.5 -167.5s-113.167 -67.5 -190.5 -67.5c-73.333 0 -131.333 23.667 -174 71s-64 114.666 -64 201.999c0 64.667 11.333 130.334 34 197.001s59 122.834 109 168.501
s113.333 68.5 190 68.5c73.333 0 131 -23.5 173 -70.5zM245.5 583.5c-39.667 -41 -68.166 -90.834 -85.499 -149.501s-26 -116.667 -26 -174c0 -73.333 15.5 -128.166 46.5 -164.499s74.167 -54.5 129.5 -54.5c65.333 0 118 20.5 158 61.5s68.333 90.833 85 149.5
s25 117 25 175c0 72.667 -15.333 127.167 -46 163.5s-74.334 54.5 -131.001 54.5c-64 0 -115.833 -20.5 -155.5 -61.5zM292.001 761.999l-24 31l142 101h37l114 -102l-27 -30l-110 80z" />
    <glyph glyph-name="Otilde" unicode="&#xd5;" horiz-adv-x="688" 
d="M577 625.5c42 -47 63 -114.167 63 -201.5c0 -66.667 -11 -133.334 -33 -200.001s-57.833 -122.5 -107.5 -167.5s-113.167 -67.5 -190.5 -67.5c-73.333 0 -131.333 23.667 -174 71s-64 114.666 -64 201.999c0 64.667 11.333 130.334 34 197.001s59 122.834 109 168.501
s113.333 68.5 190 68.5c73.333 0 131 -23.5 173 -70.5zM245.5 583.5c-39.667 -41 -68.166 -90.834 -85.499 -149.501s-26 -116.667 -26 -174c0 -73.333 15.5 -128.166 46.5 -164.499s74.167 -54.5 129.5 -54.5c65.333 0 118 20.5 158 61.5s68.333 90.833 85 149.5
s25 117 25 175c0 72.667 -15.333 127.167 -46 163.5s-74.334 54.5 -131.001 54.5c-64 0 -115.833 -20.5 -155.5 -61.5zM449.501 798.499c-9.66699 4.33301 -20.834 10.832 -33.501 19.499c-8.66699 6.66699 -16.5 11.667 -23.5 15s-14.167 5 -21.5 5
c-12 0 -22.333 -3.16699 -31 -9.5s-19.334 -17.166 -32.001 -32.499l-33 22c30 44 62.333 66 97 66c12 0 22.5 -2.16699 31.5 -6.5s19.833 -10.5 32.5 -18.5c12 -7.33301 21 -12.5 27 -15.5s12.667 -4.5 20 -4.5c10.667 0 20.834 3.5 30.501 10.5s20.167 18.167 31.5 33.5
l36 -21c-29.333 -46.667 -61.666 -70 -96.999 -70c-13.333 0 -24.833 2.16699 -34.5 6.5z" />
    <glyph glyph-name="Odieresis" unicode="&#xd6;" horiz-adv-x="688" 
d="M577 625.5c42 -47 63 -114.167 63 -201.5c0 -66.667 -11 -133.334 -33 -200.001s-57.833 -122.5 -107.5 -167.5s-113.167 -67.5 -190.5 -67.5c-73.333 0 -131.333 23.667 -174 71s-64 114.666 -64 201.999c0 64.667 11.333 130.334 34 197.001s59 122.834 109 168.501
s113.333 68.5 190 68.5c73.333 0 131 -23.5 173 -70.5zM245.5 583.5c-39.667 -41 -68.166 -90.834 -85.499 -149.501s-26 -116.667 -26 -174c0 -73.333 15.5 -128.166 46.5 -164.499s74.167 -54.5 129.5 -54.5c65.333 0 118 20.5 158 61.5s68.333 90.833 85 149.5
s25 117 25 175c0 72.667 -15.333 127.167 -46 163.5s-74.334 54.5 -131.001 54.5c-64 0 -115.833 -20.5 -155.5 -61.5zM302.501 798.999c-7 6.66699 -10.5 15.001 -10.5 25.001c0 12.667 4.16699 23.167 12.5 31.5s18.833 12.5 31.5 12.5c10.667 0 19.5 -3.33301 26.5 -10
s10.5 -15.334 10.5 -26.001c0 -12 -4.16699 -22.167 -12.5 -30.5s-18.833 -12.5 -31.5 -12.5c-10.667 0 -19.5 3.33301 -26.5 10zM490.501 799c-7 6.66699 -10.502 15.001 -10.502 25.001c0 12.667 4.33301 23.167 13 31.5s19.334 12.5 32.001 12.5
c10.667 0 19.334 -3.33301 26.001 -10s10 -15.334 10 -26.001c0 -12 -4.16699 -22.167 -12.5 -30.5s-18.833 -12.5 -31.5 -12.5c-10.667 0 -19.5 3.33301 -26.5 10z" />
    <glyph glyph-name="multiply" unicode="&#xd7;" horiz-adv-x="491" 
d="M398 471l33 -37l-142 -127l108 -127l-42 -36l-106 127l-142 -127l-34 37l142 126l-107 128l42 36l104 -128z" />
    <glyph glyph-name="Oslash" unicode="&#xd8;" horiz-adv-x="688" 
d="M610 575.5c20 -41 30.001 -91.501 30.001 -151.501c0 -66.667 -11 -133.334 -33 -200.001s-57.833 -122.5 -107.5 -167.5s-113.167 -67.5 -190.5 -67.5c-26.667 0 -52.667 3.66699 -78 11l-52 -120l-50 15l56 124c-36.667 20.667 -64.834 51.667 -84.501 93
s-29.5 91.333 -29.5 150c0 64.667 11.333 130.334 34 197.001s59 122.834 109 168.501s113.333 68.5 190 68.5c28 0 53 -3.33301 75 -10l53 124l50 -14l-58 -128c37.333 -20.667 66 -51.5 86 -92.5zM212.001 65.999l250 571c-20 5.33301 -40.333 8 -61 8
c-64 0 -115.833 -20.5 -155.5 -61.5s-68.167 -91.167 -85.5 -150.5s-26 -118.333 -26 -177c0 -92.667 26 -156 78 -190zM468.001 102.499c40 41 68.333 91.333 85 151s25 119.167 25 178.5c0 94 -26.667 157.333 -80 190l-250 -572c19.333 -6 40 -9 62 -9
c65.333 0 118 20.5 158 61.5z" />
    <glyph glyph-name="Ugrave" unicode="&#xd9;" horiz-adv-x="649" 
d="M542 212c-9.33301 -68 -35.668 -122.168 -79.001 -162.501s-101.333 -60.5 -174 -60.5c-65.333 0 -114.666 16.333 -147.999 49s-50 77 -50 133c0 14 1 29 3 45l66 469h60l-66 -468c-2 -14.667 -3 -29 -3 -43c0 -88.667 46.667 -133 140 -133c56 0 100 15.833 132 47.5
s52 75.834 60 132.501l65 464h60zM330.998 884.999l176 -94l-20 -33l-183 75z" />
    <glyph glyph-name="Uacute" unicode="&#xda;" horiz-adv-x="649" 
d="M542 212c-9.33301 -68 -35.668 -122.168 -79.001 -162.501s-101.333 -60.5 -174 -60.5c-65.333 0 -114.666 16.333 -147.999 49s-50 77 -50 133c0 14 1 29 3 45l66 469h60l-66 -468c-2 -14.667 -3 -29 -3 -43c0 -88.667 46.667 -133 140 -133c56 0 100 15.833 132 47.5
s52 75.834 60 132.501l65 464h60zM483.998 885.999l20 -53l-206 -75l-14 34z" />
    <glyph glyph-name="Ucircumflex" unicode="&#xdb;" horiz-adv-x="649" 
d="M542 212c-9.33301 -68 -35.668 -122.168 -79.001 -162.501s-101.333 -60.5 -174 -60.5c-65.333 0 -114.666 16.333 -147.999 49s-50 77 -50 133c0 14 1 29 3 45l66 469h60l-66 -468c-2 -14.667 -3 -29 -3 -43c0 -88.667 46.667 -133 140 -133c56 0 100 15.833 132 47.5
s52 75.834 60 132.501l65 464h60zM270.998 761.999l-24 31l142 101h37l114 -102l-27 -30l-110 80z" />
    <glyph glyph-name="Udieresis" unicode="&#xdc;" horiz-adv-x="649" 
d="M542 212c-9.33301 -68 -35.668 -122.168 -79.001 -162.501s-101.333 -60.5 -174 -60.5c-65.333 0 -114.666 16.333 -147.999 49s-50 77 -50 133c0 14 1 29 3 45l66 469h60l-66 -468c-2 -14.667 -3 -29 -3 -43c0 -88.667 46.667 -133 140 -133c56 0 100 15.833 132 47.5
s52 75.834 60 132.501l65 464h60zM281.498 798.999c-7 6.66699 -10.5 15.001 -10.5 25.001c0 12.667 4.16699 23.167 12.5 31.5s18.833 12.5 31.5 12.5c10.667 0 19.5 -3.33301 26.5 -10s10.5 -15.334 10.5 -26.001c0 -12 -4.16699 -22.167 -12.5 -30.5
s-18.833 -12.5 -31.5 -12.5c-10.667 0 -19.5 3.33301 -26.5 10zM469.498 799c-7 6.66699 -10.502 15.001 -10.502 25.001c0 12.667 4.33301 23.167 13 31.5s19.334 12.5 32.001 12.5c10.667 0 19.334 -3.33301 26.001 -10s10 -15.334 10 -26.001
c0 -12 -4.16699 -22.167 -12.5 -30.5s-18.833 -12.5 -31.5 -12.5c-10.667 0 -19.5 3.33301 -26.5 10z" />
    <glyph glyph-name="Yacute" unicode="&#xdd;" horiz-adv-x="520" 
d="M567 685l-275 -417l-38 -268h-61l38 267l-158 418h63l131 -362l233 362h67zM419 886l20 -53l-206 -75l-14 34z" />
    <glyph glyph-name="Thorn" unicode="&#xde;" horiz-adv-x="567" 
d="M539 385c0 -42.667 -9 -82.833 -27 -120.5s-48.333 -68.5 -91 -92.5s-99 -36 -169 -36h-100l-19 -136h-60l97 685h60l-17 -122h98c152 0 228 -59.333 228 -178zM425 242.501c34 37.667 51 84.832 51 141.499c0 46.667 -14 79.834 -42 99.501s-70 29.5 -126 29.5h-102
l-47 -327h97c78.667 0 135 18.833 169 56.5z" />
    <glyph glyph-name="germandbls" unicode="&#xdf;" horiz-adv-x="581" 
d="M-56 -159c27.333 12.667 49.002 25.334 65.002 38.001s29.167 29.834 39.5 51.501s18.166 51.167 23.499 88.5l74 523c8.66699 64.667 32 114.5 70 149.5s85.333 52.5 142 52.5c45.333 0 81.333 -11.167 108 -33.5s40 -51.166 40 -86.499c0 -22 -4 -41 -12 -57
s-17.667 -29.333 -29 -40s-26 -22.667 -44 -36c-20.667 -15.333 -35.5 -28 -44.5 -38s-13.5 -22.333 -13.5 -37c0 -14 4.66699 -26.5 14 -37.5s24 -24.167 44 -39.5c20.667 -16.667 37.5 -31.667 50.5 -45s24.167 -30.5 33.5 -51.5s14 -45.5 14 -73.5
c0 -27.333 -7 -54.833 -21 -82.5s-35.167 -50.834 -63.5 -69.501s-62.833 -28 -103.5 -28c-21.333 0 -41.833 2.83301 -61.5 8.5s-36.5 12.167 -50.5 19.5l22 41c28 -13.333 56.667 -20 86 -20c30.667 0 56 7 76 21s34.667 31 44 51s14 39.333 14 58
c0 31.333 -7.33301 57 -22 77s-36 41.333 -64 64c-23.333 19.333 -40.5 36 -51.5 50s-16.5 31 -16.5 51c0 23.333 5.83301 42.166 17.5 56.499s29.5 30.166 53.5 47.499s42 33.5 54 48.5s18 34.833 18 59.5c0 23.333 -8.33301 41.5 -25 54.5s-39 19.5 -67 19.5
c-40.667 0 -74.834 -13.5 -102.501 -40.5s-45.167 -66.833 -52.5 -119.5l-73 -519c-6.66699 -45.333 -16.667 -81.333 -30 -108s-30.5 -48 -51.5 -64s-50.167 -32.333 -87.5 -49z" />
    <glyph glyph-name="agrave" unicode="&#xe0;" 
d="M415 523c26 -7.33301 52.668 -17.999 80.001 -31.999l-55 -377c-1.33301 -7.33301 -2 -17.333 -2 -30c0 -14 2.5 -25.167 7.5 -33.5s13.5 -15.166 25.5 -20.499l-17 -41c-23.333 5.33301 -41 15.166 -53 29.499s-17.667 36.166 -17 65.499
c-20 -29.333 -43.833 -52.5 -71.5 -69.5s-57.5 -25.5 -89.5 -25.5c-52 0 -92.5 18.167 -121.5 54.5s-43.5 85.833 -43.5 148.5c0 52 9.33301 104.333 28 157s48.167 96.667 88.5 132s91.166 53 152.499 53c32.667 0 62 -3.66699 88 -11zM210.501 441.001
c-31.667 -30.667 -54.667 -68.667 -69 -114s-21.5 -90.333 -21.5 -135c0 -50.667 9.66699 -89 29 -115s47 -39 83 -39c31.333 0 59.5 9.33301 84.5 28s48.833 46 71.5 82l45 315c-32 16 -66.667 24 -104 24c-47.333 0 -86.833 -15.333 -118.5 -46zM302.001 783.001l173 -105
l-20 -33l-183 85z" />
    <glyph glyph-name="aacute" unicode="&#xe1;" 
d="M415 523c26 -7.33301 52.668 -17.999 80.001 -31.999l-55 -377c-1.33301 -7.33301 -2 -17.333 -2 -30c0 -14 2.5 -25.167 7.5 -33.5s13.5 -15.166 25.5 -20.499l-17 -41c-23.333 5.33301 -41 15.166 -53 29.499s-17.667 36.166 -17 65.499
c-20 -29.333 -43.833 -52.5 -71.5 -69.5s-57.5 -25.5 -89.5 -25.5c-52 0 -92.5 18.167 -121.5 54.5s-43.5 85.833 -43.5 148.5c0 52 9.33301 104.333 28 157s48.167 96.667 88.5 132s91.166 53 152.499 53c32.667 0 62 -3.66699 88 -11zM210.501 441.001
c-31.667 -30.667 -54.667 -68.667 -69 -114s-21.5 -90.333 -21.5 -135c0 -50.667 9.66699 -89 29 -115s47 -39 83 -39c31.333 0 59.5 9.33301 84.5 28s48.833 46 71.5 82l45 315c-32 16 -66.667 24 -104 24c-47.333 0 -86.833 -15.333 -118.5 -46zM455.001 783.001l20 -53
l-206 -85l-15 33z" />
    <glyph glyph-name="acircumflex" unicode="&#xe2;" 
d="M415 523c26 -7.33301 52.668 -17.999 80.001 -31.999l-55 -377c-1.33301 -7.33301 -2 -17.333 -2 -30c0 -14 2.5 -25.167 7.5 -33.5s13.5 -15.166 25.5 -20.499l-17 -41c-23.333 5.33301 -41 15.166 -53 29.499s-17.667 36.166 -17 65.499
c-20 -29.333 -43.833 -52.5 -71.5 -69.5s-57.5 -25.5 -89.5 -25.5c-52 0 -92.5 18.167 -121.5 54.5s-43.5 85.833 -43.5 148.5c0 52 9.33301 104.333 28 157s48.167 96.667 88.5 132s91.166 53 152.499 53c32.667 0 62 -3.66699 88 -11zM210.501 441.001
c-31.667 -30.667 -54.667 -68.667 -69 -114s-21.5 -90.333 -21.5 -135c0 -50.667 9.66699 -89 29 -115s47 -39 83 -39c31.333 0 59.5 9.33301 84.5 28s48.833 46 71.5 82l45 315c-32 16 -66.667 24 -104 24c-47.333 0 -86.833 -15.333 -118.5 -46zM235.001 643.001l-26 31
l144 106h36l114 -106l-28 -31l-110 85z" />
    <glyph glyph-name="atilde" unicode="&#xe3;" 
d="M415 523c26 -7.33301 52.668 -17.999 80.001 -31.999l-55 -377c-1.33301 -7.33301 -2 -17.333 -2 -30c0 -14 2.5 -25.167 7.5 -33.5s13.5 -15.166 25.5 -20.499l-17 -41c-23.333 5.33301 -41 15.166 -53 29.499s-17.667 36.166 -17 65.499
c-20 -29.333 -43.833 -52.5 -71.5 -69.5s-57.5 -25.5 -89.5 -25.5c-52 0 -92.5 18.167 -121.5 54.5s-43.5 85.833 -43.5 148.5c0 52 9.33301 104.333 28 157s48.167 96.667 88.5 132s91.166 53 152.499 53c32.667 0 62 -3.66699 88 -11zM210.501 441.001
c-31.667 -30.667 -54.667 -68.667 -69 -114s-21.5 -90.333 -21.5 -135c0 -50.667 9.66699 -89 29 -115s47 -39 83 -39c31.333 0 59.5 9.33301 84.5 28s48.833 46 71.5 82l45 315c-32 16 -66.667 24 -104 24c-47.333 0 -86.833 -15.333 -118.5 -46zM386.501 672.501
c-9.66699 4.33301 -20.834 10.832 -33.501 19.499c-8.66699 6.66699 -16.5 11.667 -23.5 15s-14.167 5 -21.5 5c-12 0 -22.333 -3.16699 -31 -9.5s-19.334 -17.166 -32.001 -32.499l-33 22c30 44 62.333 66 97 66c12 0 22.5 -2.16699 31.5 -6.5s19.833 -10.5 32.5 -18.5
c12 -7.33301 21 -12.5 27 -15.5s12.667 -4.5 20 -4.5c10.667 0 20.834 3.5 30.501 10.5s20.167 18.167 31.5 33.5l36 -21c-29.333 -46.667 -61.666 -70 -96.999 -70c-13.333 0 -24.833 2.16699 -34.5 6.5z" />
    <glyph glyph-name="adieresis" unicode="&#xe4;" 
d="M415 523c26 -7.33301 52.668 -17.999 80.001 -31.999l-55 -377c-1.33301 -7.33301 -2 -17.333 -2 -30c0 -14 2.5 -25.167 7.5 -33.5s13.5 -15.166 25.5 -20.499l-17 -41c-23.333 5.33301 -41 15.166 -53 29.499s-17.667 36.166 -17 65.499
c-20 -29.333 -43.833 -52.5 -71.5 -69.5s-57.5 -25.5 -89.5 -25.5c-52 0 -92.5 18.167 -121.5 54.5s-43.5 85.833 -43.5 148.5c0 52 9.33301 104.333 28 157s48.167 96.667 88.5 132s91.166 53 152.499 53c32.667 0 62 -3.66699 88 -11zM210.501 441.001
c-31.667 -30.667 -54.667 -68.667 -69 -114s-21.5 -90.333 -21.5 -135c0 -50.667 9.66699 -89 29 -115s47 -39 83 -39c31.333 0 59.5 9.33301 84.5 28s48.833 46 71.5 82l45 315c-32 16 -66.667 24 -104 24c-47.333 0 -86.833 -15.333 -118.5 -46zM238.501 673.001
c-7 6.66699 -10.5 15.001 -10.5 25.001c0 12.667 4.16699 23.167 12.5 31.5s18.833 12.5 31.5 12.5c10.667 0 19.5 -3.33301 26.5 -10s10.5 -15.334 10.5 -26.001c0 -12 -4.16699 -22.167 -12.5 -30.5s-18.833 -12.5 -31.5 -12.5c-10.667 0 -19.5 3.33301 -26.5 10z
M426.501 673.002c-7 6.66699 -10.502 15.001 -10.502 25.001c0 12.667 4.33301 23.167 13 31.5s19.334 12.5 32.001 12.5c10.667 0 19.334 -3.33301 26.001 -10s10 -15.334 10 -26.001c0 -12 -4.16699 -22.167 -12.5 -30.5s-18.833 -12.5 -31.5 -12.5
c-10.667 0 -19.5 3.33301 -26.5 10z" />
    <glyph glyph-name="aring" unicode="&#xe5;" 
d="M415 523c26 -7.33301 52.668 -17.999 80.001 -31.999l-55 -377c-1.33301 -7.33301 -2 -17.333 -2 -30c0 -14 2.5 -25.167 7.5 -33.5s13.5 -15.166 25.5 -20.499l-17 -41c-23.333 5.33301 -41 15.166 -53 29.499s-17.667 36.166 -17 65.499
c-20 -29.333 -43.833 -52.5 -71.5 -69.5s-57.5 -25.5 -89.5 -25.5c-52 0 -92.5 18.167 -121.5 54.5s-43.5 85.833 -43.5 148.5c0 52 9.33301 104.333 28 157s48.167 96.667 88.5 132s91.166 53 152.499 53c32.667 0 62 -3.66699 88 -11zM210.501 441.001
c-31.667 -30.667 -54.667 -68.667 -69 -114s-21.5 -90.333 -21.5 -135c0 -50.667 9.66699 -89 29 -115s47 -39 83 -39c31.333 0 59.5 9.33301 84.5 28s48.833 46 71.5 82l45 315c-32 16 -66.667 24 -104 24c-47.333 0 -86.833 -15.333 -118.5 -46zM441.501 797.501
c16.333 -15.667 24.5 -35.5 24.5 -59.5c0 -30 -10.5 -55 -31.5 -75s-46.833 -30 -77.5 -30c-26.667 0 -48.167 7.83301 -64.5 23.5s-24.5 35.5 -24.5 59.5c0 30 10.667 55 32 75s47 30 77 30c26.667 0 48.167 -7.83301 64.5 -23.5zM329.001 765.501
c-11.333 -13 -17 -29.167 -17 -48.5c0 -15.333 4 -27.166 12 -35.499s19.333 -12.5 34 -12.5c20 0 35.833 6.66699 47.5 20s17.5 29.333 17.5 48c0 15.333 -4 27.166 -12 35.499s-19.667 12.5 -35 12.5c-20 0 -35.667 -6.5 -47 -19.5z" />
    <glyph glyph-name="ae" unicode="&#xe6;" horiz-adv-x="818" 
d="M388 507c25.333 -18 42.333 -42.666 51 -73.999c16 26.667 41.167 50.167 75.5 70.5s72.5 30.5 114.5 30.5c48.667 0 87 -11.833 115 -35.5s42 -54.167 42 -91.5c0 -63.333 -31.667 -110.333 -95 -141s-153 -50.334 -269 -59.001c0 -111.333 45.333 -167 136 -167
c27.333 0 52.333 4.16699 75 12.5s46.667 21.5 72 39.5l27 -41c-28.667 -20.667 -57.5 -36.167 -86.5 -46.5s-59.5 -15.5 -91.5 -15.5c-41.333 0 -76.666 9 -105.999 27s-51 43.667 -65 77c-30 -37.333 -61.333 -64 -94 -80s-67.667 -24 -105 -24
c-46 0 -82.5 12.333 -109.5 37s-40.5 57.667 -40.5 99c0 51.333 19.333 94 58 128s99.667 51 183 51h102c6 28.667 14 54.667 24 78c-1.33301 31.333 -13 56.333 -35 75s-51.333 28 -88 28c-22.667 0 -44.834 -2.33301 -66.501 -7s-47.167 -12 -76.5 -22l-13 45
c57.333 22 111.333 33 162 33c44 0 78.667 -9 104 -27zM488.5 417.001c-33.667 -46 -54.5 -100.668 -62.5 -164.001c100.667 8 175.667 23.833 225 47.5s74 58.5 74 104.5c0 22.667 -8.16699 41.834 -24.5 57.501s-40.5 23.5 -72.5 23.5c-59.333 0 -105.833 -23 -139.5 -69z
M280 261c-63.333 0 -109.667 -11.999 -139 -35.999s-44 -57.333 -44 -100c0 -29.333 8.16699 -51.5 24.5 -66.5s39.5 -22.5 69.5 -22.5c33.333 0 64.5 8.5 93.5 25.5s57.167 43.833 84.5 80.5c-2.66699 12.667 -4 31 -4 55c0 27.333 1.33301 48.666 4 63.999h-89z" />
    <glyph glyph-name="ccedilla" unicode="&#xe7;" horiz-adv-x="467" 
d="M204.5 440c-29.667 -30 -51.166 -67.167 -64.499 -111.5s-20 -88.166 -20 -131.499c0 -52.667 11.5 -92 34.5 -118s55.167 -39 96.5 -39c24 0 46.167 3.66699 66.5 11s41.166 18.333 62.499 33l25 -41c-44 -34 -93 -52 -147 -54l-9 -53
c28 -2.66699 48.833 -10.167 62.5 -22.5s20.5 -29.166 20.5 -50.499c0 -26.667 -10.5 -48.334 -31.5 -65.001s-48.167 -25 -81.5 -25c-32.667 0 -59.334 7.33301 -80.001 22l21 35c18.667 -10 38.334 -15 59.001 -15c18 0 32.833 4 44.5 12s17.5 19.667 17.5 35
s-6 26.166 -18 32.499s-33.333 9.5 -64 9.5l19 87c-49.333 6 -88 27.167 -116 63.5s-42 84.833 -42 145.5c0 50.667 9 101.667 27 153s46.5 94.333 85.5 129s88.167 52 147.5 52c58 0 105 -18 141 -54l-33 -37c-15.333 14 -31.666 24.5 -48.999 31.5s-37.333 10.5 -60 10.5
c-46.667 0 -84.834 -15 -114.501 -45z" />
    <glyph glyph-name="egrave" unicode="&#xe8;" horiz-adv-x="513" 
d="M387 265.5c-62.667 -31 -151.666 -50.833 -266.999 -59.5v-6c0 -54.667 11.833 -95 35.5 -121s56.167 -39 97.5 -39c27.333 0 52.5 4.16699 75.5 12.5s47.167 21.5 72.5 39.5l26 -41c-28 -20.667 -56.5 -36.167 -85.5 -46.5s-59.833 -15.5 -92.5 -15.5
c-60 0 -106.667 18.333 -140 55s-50 88.334 -50 155.001c0 52.667 9.5 104.667 28.5 156s48.667 94 89 128s90.166 51 149.499 51c48.667 0 86.667 -11.833 114 -35.5s41 -53.834 41 -90.501c0 -64 -31.333 -111.5 -94 -142.5zM185.501 417
c-33.667 -46 -54.5 -101 -62.5 -165c100 8 174.667 24 224 48s74 59.333 74 106c0 22.667 -8 41.667 -24 57s-39.667 23 -71 23c-60 0 -106.833 -23 -140.5 -69zM276.001 783l173 -105l-20 -33l-183 85z" />
    <glyph glyph-name="eacute" unicode="&#xe9;" horiz-adv-x="513" 
d="M387 265.5c-62.667 -31 -151.666 -50.833 -266.999 -59.5v-6c0 -54.667 11.833 -95 35.5 -121s56.167 -39 97.5 -39c27.333 0 52.5 4.16699 75.5 12.5s47.167 21.5 72.5 39.5l26 -41c-28 -20.667 -56.5 -36.167 -85.5 -46.5s-59.833 -15.5 -92.5 -15.5
c-60 0 -106.667 18.333 -140 55s-50 88.334 -50 155.001c0 52.667 9.5 104.667 28.5 156s48.667 94 89 128s90.166 51 149.499 51c48.667 0 86.667 -11.833 114 -35.5s41 -53.834 41 -90.501c0 -64 -31.333 -111.5 -94 -142.5zM185.501 417
c-33.667 -46 -54.5 -101 -62.5 -165c100 8 174.667 24 224 48s74 59.333 74 106c0 22.667 -8 41.667 -24 57s-39.667 23 -71 23c-60 0 -106.833 -23 -140.5 -69zM429.001 783l20 -53l-206 -85l-15 33z" />
    <glyph glyph-name="ecircumflex" unicode="&#xea;" horiz-adv-x="513" 
d="M387 265.5c-62.667 -31 -151.666 -50.833 -266.999 -59.5v-6c0 -54.667 11.833 -95 35.5 -121s56.167 -39 97.5 -39c27.333 0 52.5 4.16699 75.5 12.5s47.167 21.5 72.5 39.5l26 -41c-28 -20.667 -56.5 -36.167 -85.5 -46.5s-59.833 -15.5 -92.5 -15.5
c-60 0 -106.667 18.333 -140 55s-50 88.334 -50 155.001c0 52.667 9.5 104.667 28.5 156s48.667 94 89 128s90.166 51 149.499 51c48.667 0 86.667 -11.833 114 -35.5s41 -53.834 41 -90.501c0 -64 -31.333 -111.5 -94 -142.5zM185.501 417
c-33.667 -46 -54.5 -101 -62.5 -165c100 8 174.667 24 224 48s74 59.333 74 106c0 22.667 -8 41.667 -24 57s-39.667 23 -71 23c-60 0 -106.833 -23 -140.5 -69zM209.001 643l-26 31l144 106h36l114 -106l-28 -31l-110 85z" />
    <glyph glyph-name="edieresis" unicode="&#xeb;" horiz-adv-x="513" 
d="M387 265.5c-62.667 -31 -151.666 -50.833 -266.999 -59.5v-6c0 -54.667 11.833 -95 35.5 -121s56.167 -39 97.5 -39c27.333 0 52.5 4.16699 75.5 12.5s47.167 21.5 72.5 39.5l26 -41c-28 -20.667 -56.5 -36.167 -85.5 -46.5s-59.833 -15.5 -92.5 -15.5
c-60 0 -106.667 18.333 -140 55s-50 88.334 -50 155.001c0 52.667 9.5 104.667 28.5 156s48.667 94 89 128s90.166 51 149.499 51c48.667 0 86.667 -11.833 114 -35.5s41 -53.834 41 -90.501c0 -64 -31.333 -111.5 -94 -142.5zM185.501 417
c-33.667 -46 -54.5 -101 -62.5 -165c100 8 174.667 24 224 48s74 59.333 74 106c0 22.667 -8 41.667 -24 57s-39.667 23 -71 23c-60 0 -106.833 -23 -140.5 -69zM212.501 673c-7 6.66699 -10.5 15.001 -10.5 25.001c0 12.667 4.16699 23.167 12.5 31.5
s18.833 12.5 31.5 12.5c10.667 0 19.5 -3.33301 26.5 -10s10.5 -15.334 10.5 -26.001c0 -12 -4.16699 -22.167 -12.5 -30.5s-18.833 -12.5 -31.5 -12.5c-10.667 0 -19.5 3.33301 -26.5 10zM400.501 673.001c-7 6.66699 -10.502 15.001 -10.502 25.001
c0 12.667 4.33301 23.167 13 31.5s19.334 12.5 32.001 12.5c10.667 0 19.334 -3.33301 26.001 -10s10 -15.334 10 -26.001c0 -12 -4.16699 -22.167 -12.5 -30.5s-18.833 -12.5 -31.5 -12.5c-10.667 0 -19.5 3.33301 -26.5 10z" />
    <glyph glyph-name="igrave" unicode="&#xec;" horiz-adv-x="269" 
d="M200 523l-74 -523h-58l74 523h58zM135 783l173 -105l-20 -33l-183 85z" />
    <glyph glyph-name="iacute" unicode="&#xed;" horiz-adv-x="269" 
d="M200 523l-74 -523h-58l74 523h58zM288 783l20 -53l-206 -85l-15 33z" />
    <glyph glyph-name="icircumflex" unicode="&#xee;" horiz-adv-x="269" 
d="M200 523l-74 -523h-58l74 523h58zM68 643l-26 31l144 106h36l114 -106l-28 -31l-110 85z" />
    <glyph glyph-name="idieresis" unicode="&#xef;" horiz-adv-x="269" 
d="M200 523l-74 -523h-58l74 523h58zM71.5 673c-7 6.66699 -10.5 15.001 -10.5 25.001c0 12.667 4.16699 23.167 12.5 31.5s18.833 12.5 31.5 12.5c10.667 0 19.5 -3.33301 26.5 -10s10.5 -15.334 10.5 -26.001c0 -12 -4.16699 -22.167 -12.5 -30.5
s-18.833 -12.5 -31.5 -12.5c-10.667 0 -19.5 3.33301 -26.5 10zM259.5 673.001c-7 6.66699 -10.502 15.001 -10.502 25.001c0 12.667 4.33301 23.167 13 31.5s19.334 12.5 32.001 12.5c10.667 0 19.334 -3.33301 26.001 -10s10 -15.334 10 -26.001
c0 -12 -4.16699 -22.167 -12.5 -30.5s-18.833 -12.5 -31.5 -12.5c-10.667 0 -19.5 3.33301 -26.5 10z" />
    <glyph glyph-name="eth" unicode="&#xf0;" horiz-adv-x="564" 
d="M466.5 544.5c19.667 -45 29.499 -98.167 29.499 -159.5c0 -71.333 -9.33301 -137 -28 -197s-47.5 -108.167 -86.5 -144.5s-87.167 -54.5 -144.5 -54.5c-56 0 -100 17.167 -132 51.5s-48 81.833 -48 142.5c0 45.333 8 90 24 134s41.167 80.333 75.5 109
s77.166 43 128.499 43c64.667 0 115.667 -26 153 -78c0 50 -7.66699 94.333 -23 133s-39.666 73.334 -72.999 104.001l-89 -77l-40 20l92 84c-40 21.333 -78.333 35.666 -115 42.999l16 46c50.667 -10 96.334 -28.667 137.001 -56l80 74l32 -31l-77 -70
c39.333 -32.667 68.833 -71.5 88.5 -116.5zM375.999 122.5c33.333 56.333 52.998 126.168 58.998 209.501c-34.667 58.667 -82.667 88 -144 88c-41.333 0 -75.166 -11.833 -101.499 -35.5s-45.166 -53.5 -56.499 -89.5s-17 -73.667 -17 -113
c0 -46.667 10.5 -82.334 31.5 -107.001s51.167 -37 90.5 -37c58.667 0 104.667 28.167 138 84.5z" />
    <glyph glyph-name="ntilde" unicode="&#xf1;" horiz-adv-x="581" 
d="M467 501c21.333 -22 32.002 -53.332 32.002 -93.999c0 -12 -1 -24.667 -3 -38l-52 -369h-58l52 367c1.33301 8 2 19 2 33c0 56.667 -25.333 85 -76 85c-67.333 0 -132 -57.333 -194 -172l-44 -313h-58l74 523h50l-14 -130c27.333 45.333 57.666 80.166 90.999 104.499
s69 36.5 107 36.5c39.333 0 69.666 -11 90.999 -33zM376.502 672.501c-9.66699 4.33301 -20.834 10.832 -33.501 19.499c-8.66699 6.66699 -16.5 11.667 -23.5 15s-14.167 5 -21.5 5c-12 0 -22.333 -3.16699 -31 -9.5s-19.334 -17.166 -32.001 -32.499l-33 22
c30 44 62.333 66 97 66c12 0 22.5 -2.16699 31.5 -6.5s19.833 -10.5 32.5 -18.5c12 -7.33301 21 -12.5 27 -15.5s12.667 -4.5 20 -4.5c10.667 0 20.834 3.5 30.501 10.5s20.167 18.167 31.5 33.5l36 -21c-29.333 -46.667 -61.666 -70 -96.999 -70
c-13.333 0 -24.833 2.16699 -34.5 6.5z" />
    <glyph glyph-name="ograve" unicode="&#xf2;" horiz-adv-x="569" 
d="M109.5 45c-33 37.333 -49.502 89.333 -49.502 156c0 50 8.66699 100.5 26 151.5s45.5 94 84.5 129s89.167 52.5 150.5 52.5c60.667 0 107.334 -18.333 140.001 -55s49 -88.334 49 -155.001c0 -49.333 -8.5 -99.666 -25.5 -150.999s-45.167 -94.833 -84.5 -130.5
s-89.666 -53.5 -150.999 -53.5c-60 0 -106.5 18.667 -139.5 56zM366.498 84c29.667 30.667 50.833 68.168 63.5 112.501s19 88.166 19 131.499c0 52 -11 91.333 -33 118s-54 40 -96 40c-48 0 -87 -15.5 -117 -46.5s-51.333 -68.833 -64 -113.5s-19 -88 -19 -130
c0 -52 11.333 -91.333 34 -118s55 -40 97 -40c47.333 0 85.833 15.333 115.5 46zM285.997 783.001l173 -105l-20 -33l-183 85z" />
    <glyph glyph-name="oacute" unicode="&#xf3;" horiz-adv-x="569" 
d="M109.5 45c-33 37.333 -49.502 89.333 -49.502 156c0 50 8.66699 100.5 26 151.5s45.5 94 84.5 129s89.167 52.5 150.5 52.5c60.667 0 107.334 -18.333 140.001 -55s49 -88.334 49 -155.001c0 -49.333 -8.5 -99.666 -25.5 -150.999s-45.167 -94.833 -84.5 -130.5
s-89.666 -53.5 -150.999 -53.5c-60 0 -106.5 18.667 -139.5 56zM366.498 84c29.667 30.667 50.833 68.168 63.5 112.501s19 88.166 19 131.499c0 52 -11 91.333 -33 118s-54 40 -96 40c-48 0 -87 -15.5 -117 -46.5s-51.333 -68.833 -64 -113.5s-19 -88 -19 -130
c0 -52 11.333 -91.333 34 -118s55 -40 97 -40c47.333 0 85.833 15.333 115.5 46zM438.997 783.001l20 -53l-206 -85l-15 33z" />
    <glyph glyph-name="ocircumflex" unicode="&#xf4;" horiz-adv-x="569" 
d="M109.5 45c-33 37.333 -49.502 89.333 -49.502 156c0 50 8.66699 100.5 26 151.5s45.5 94 84.5 129s89.167 52.5 150.5 52.5c60.667 0 107.334 -18.333 140.001 -55s49 -88.334 49 -155.001c0 -49.333 -8.5 -99.666 -25.5 -150.999s-45.167 -94.833 -84.5 -130.5
s-89.666 -53.5 -150.999 -53.5c-60 0 -106.5 18.667 -139.5 56zM366.498 84c29.667 30.667 50.833 68.168 63.5 112.501s19 88.166 19 131.499c0 52 -11 91.333 -33 118s-54 40 -96 40c-48 0 -87 -15.5 -117 -46.5s-51.333 -68.833 -64 -113.5s-19 -88 -19 -130
c0 -52 11.333 -91.333 34 -118s55 -40 97 -40c47.333 0 85.833 15.333 115.5 46zM218.997 643.001l-26 31l144 106h36l114 -106l-28 -31l-110 85z" />
    <glyph glyph-name="otilde" unicode="&#xf5;" horiz-adv-x="569" 
d="M109.5 45c-33 37.333 -49.502 89.333 -49.502 156c0 50 8.66699 100.5 26 151.5s45.5 94 84.5 129s89.167 52.5 150.5 52.5c60.667 0 107.334 -18.333 140.001 -55s49 -88.334 49 -155.001c0 -49.333 -8.5 -99.666 -25.5 -150.999s-45.167 -94.833 -84.5 -130.5
s-89.666 -53.5 -150.999 -53.5c-60 0 -106.5 18.667 -139.5 56zM366.498 84c29.667 30.667 50.833 68.168 63.5 112.501s19 88.166 19 131.499c0 52 -11 91.333 -33 118s-54 40 -96 40c-48 0 -87 -15.5 -117 -46.5s-51.333 -68.833 -64 -113.5s-19 -88 -19 -130
c0 -52 11.333 -91.333 34 -118s55 -40 97 -40c47.333 0 85.833 15.333 115.5 46zM370.497 672.501c-9.66699 4.33301 -20.834 10.832 -33.501 19.499c-8.66699 6.66699 -16.5 11.667 -23.5 15s-14.167 5 -21.5 5c-12 0 -22.333 -3.16699 -31 -9.5
s-19.334 -17.166 -32.001 -32.499l-33 22c30 44 62.333 66 97 66c12 0 22.5 -2.16699 31.5 -6.5s19.833 -10.5 32.5 -18.5c12 -7.33301 21 -12.5 27 -15.5s12.667 -4.5 20 -4.5c10.667 0 20.834 3.5 30.501 10.5s20.167 18.167 31.5 33.5l36 -21
c-29.333 -46.667 -61.666 -70 -96.999 -70c-13.333 0 -24.833 2.16699 -34.5 6.5z" />
    <glyph glyph-name="odieresis" unicode="&#xf6;" horiz-adv-x="569" 
d="M109.5 45c-33 37.333 -49.502 89.333 -49.502 156c0 50 8.66699 100.5 26 151.5s45.5 94 84.5 129s89.167 52.5 150.5 52.5c60.667 0 107.334 -18.333 140.001 -55s49 -88.334 49 -155.001c0 -49.333 -8.5 -99.666 -25.5 -150.999s-45.167 -94.833 -84.5 -130.5
s-89.666 -53.5 -150.999 -53.5c-60 0 -106.5 18.667 -139.5 56zM366.498 84c29.667 30.667 50.833 68.168 63.5 112.501s19 88.166 19 131.499c0 52 -11 91.333 -33 118s-54 40 -96 40c-48 0 -87 -15.5 -117 -46.5s-51.333 -68.833 -64 -113.5s-19 -88 -19 -130
c0 -52 11.333 -91.333 34 -118s55 -40 97 -40c47.333 0 85.833 15.333 115.5 46zM222.497 673.001c-7 6.66699 -10.5 15.001 -10.5 25.001c0 12.667 4.16699 23.167 12.5 31.5s18.833 12.5 31.5 12.5c10.667 0 19.5 -3.33301 26.5 -10s10.5 -15.334 10.5 -26.001
c0 -12 -4.16699 -22.167 -12.5 -30.5s-18.833 -12.5 -31.5 -12.5c-10.667 0 -19.5 3.33301 -26.5 10zM410.497 673.002c-7 6.66699 -10.502 15.001 -10.502 25.001c0 12.667 4.33301 23.167 13 31.5s19.334 12.5 32.001 12.5c10.667 0 19.334 -3.33301 26.001 -10
s10 -15.334 10 -26.001c0 -12 -4.16699 -22.167 -12.5 -30.5s-18.833 -12.5 -31.5 -12.5c-10.667 0 -19.5 3.33301 -26.5 10z" />
    <glyph glyph-name="divide" unicode="&#xf7;" horiz-adv-x="491" 
d="M191 77.5c-8 8.33301 -12.001 18.833 -12.001 31.5c0 14.667 4.83301 27 14.5 37s21.834 15 36.501 15c13.333 0 24 -4.16699 32 -12.5s12 -18.833 12 -31.5c0 -14.667 -5 -27 -15 -37s-22.333 -15 -37 -15c-12.667 0 -23 4.16699 -31 12.5zM252.999 515.5
c-8 8.33301 -12.001 18.833 -12.001 31.5c0 14.667 4.83301 27 14.5 37s21.834 15 36.501 15c13.333 0 24 -4.16699 32 -12.5s12 -18.833 12 -31.5c0 -14.667 -5 -27 -15 -37s-22.333 -15 -37 -15c-12.667 0 -23 4.16699 -31 12.5zM74.998 306l7 51h354l-8 -51h-353z" />
    <glyph glyph-name="oslash" unicode="&#xf8;" horiz-adv-x="569" 
d="M489.5 434c13.667 -30.667 20.499 -67.332 20.499 -109.999c0 -49.333 -8.5 -99.666 -25.5 -150.999s-45.167 -94.833 -84.5 -130.5s-89.666 -53.5 -150.999 -53.5c-22 0 -43 2.66699 -63 8l-57 -122l-47 14l60 128c-26.667 17.333 -47 41.666 -61 72.999
s-21 68.333 -21 111c0 50 8.66699 100.5 26 151.5s45.5 94 84.5 129s89.167 52.5 150.5 52.5c22 0 43 -2.66699 63 -8l57 122l48 -14l-59 -129c26 -16.667 45.833 -40.334 59.5 -71.001zM202.999 439.502c-30 -31 -51.333 -68.833 -64 -113.5s-19 -88 -19 -130
c0 -64.667 16.667 -109.667 50 -135l197 418c-13.333 4.66699 -29 7 -47 7c-48 0 -87 -15.5 -117 -46.5zM366.499 84.002c29.667 30.667 50.833 68.167 63.5 112.5s19 88.166 19 131.499c0 64.667 -16 109.334 -48 134.001l-197 -418c14 -4 29.667 -6 47 -6
c47.333 0 85.833 15.333 115.5 46z" />
    <glyph glyph-name="ugrave" unicode="&#xf9;" horiz-adv-x="577" 
d="M114.5 22c-21.667 22 -32.501 53.001 -32.501 93.001c0 11.333 1 23.333 3 36l52 372h58l-52 -370c-1.33301 -8 -2 -18.667 -2 -32c0 -56 25.333 -84 76 -84c36.667 0 70.834 15.167 102.501 45.5s60.167 70.5 85.5 120.5l45 320h58l-74 -523h-48l14 133
c-24 -44.667 -52.167 -79.834 -84.5 -105.501s-68.833 -38.5 -109.5 -38.5c-39.333 0 -69.833 11 -91.5 33zM286.999 783.001l173 -105l-20 -33l-183 85z" />
    <glyph glyph-name="uacute" unicode="&#xfa;" horiz-adv-x="577" 
d="M114.5 22c-21.667 22 -32.501 53.001 -32.501 93.001c0 11.333 1 23.333 3 36l52 372h58l-52 -370c-1.33301 -8 -2 -18.667 -2 -32c0 -56 25.333 -84 76 -84c36.667 0 70.834 15.167 102.501 45.5s60.167 70.5 85.5 120.5l45 320h58l-74 -523h-48l14 133
c-24 -44.667 -52.167 -79.834 -84.5 -105.501s-68.833 -38.5 -109.5 -38.5c-39.333 0 -69.833 11 -91.5 33zM439.999 783.001l20 -53l-206 -85l-15 33z" />
    <glyph glyph-name="ucircumflex" unicode="&#xfb;" horiz-adv-x="577" 
d="M114.5 22c-21.667 22 -32.501 53.001 -32.501 93.001c0 11.333 1 23.333 3 36l52 372h58l-52 -370c-1.33301 -8 -2 -18.667 -2 -32c0 -56 25.333 -84 76 -84c36.667 0 70.834 15.167 102.501 45.5s60.167 70.5 85.5 120.5l45 320h58l-74 -523h-48l14 133
c-24 -44.667 -52.167 -79.834 -84.5 -105.501s-68.833 -38.5 -109.5 -38.5c-39.333 0 -69.833 11 -91.5 33zM219.999 643.001l-26 31l144 106h36l114 -106l-28 -31l-110 85z" />
    <glyph glyph-name="udieresis" unicode="&#xfc;" horiz-adv-x="577" 
d="M114.5 22c-21.667 22 -32.501 53.001 -32.501 93.001c0 11.333 1 23.333 3 36l52 372h58l-52 -370c-1.33301 -8 -2 -18.667 -2 -32c0 -56 25.333 -84 76 -84c36.667 0 70.834 15.167 102.501 45.5s60.167 70.5 85.5 120.5l45 320h58l-74 -523h-48l14 133
c-24 -44.667 -52.167 -79.834 -84.5 -105.501s-68.833 -38.5 -109.5 -38.5c-39.333 0 -69.833 11 -91.5 33zM223.499 673.001c-7 6.66699 -10.5 15.001 -10.5 25.001c0 12.667 4.16699 23.167 12.5 31.5s18.833 12.5 31.5 12.5c10.667 0 19.5 -3.33301 26.5 -10
s10.5 -15.334 10.5 -26.001c0 -12 -4.16699 -22.167 -12.5 -30.5s-18.833 -12.5 -31.5 -12.5c-10.667 0 -19.5 3.33301 -26.5 10zM411.499 673.002c-7 6.66699 -10.502 15.001 -10.502 25.001c0 12.667 4.33301 23.167 13 31.5s19.334 12.5 32.001 12.5
c10.667 0 19.334 -3.33301 26.001 -10s10 -15.334 10 -26.001c0 -12 -4.16699 -22.167 -12.5 -30.5s-18.833 -12.5 -31.5 -12.5c-10.667 0 -19.5 3.33301 -26.5 10z" />
    <glyph glyph-name="yacute" unicode="&#xfd;" horiz-adv-x="465" 
d="M238 -4c-28.667 -60 -60.667 -105.5 -96 -136.5s-84.333 -52.167 -147 -63.5l-3 46c35.333 8 64 18.333 86 31s40.167 28.5 54.5 47.5s30.5 45.5 48.5 79.5h-22l-107 523h62l89 -479l222 479h62zM382 783l20 -53l-206 -85l-15 33z" />
    <glyph glyph-name="thorn" unicode="&#xfe;" horiz-adv-x="571" 
d="M472.5 483c27 -34 40.5 -83 40.5 -147c0 -54 -8.83301 -107.333 -26.5 -160s-46.667 -97 -87 -133s-92.166 -54 -155.499 -54c-40.667 0 -79.667 7.66699 -117 23l-29 -211l-59 -8l133 943l59 8l-41 -287c51.333 51.333 106.666 77 165.999 77
c50.667 0 89.5 -17 116.5 -51zM366.5 85.5c31 31.667 53.3359 70.667 67.0029 117s20.5 92.166 20.5 137.499c0 96.667 -37.333 145 -112 145c-30.667 0 -58.334 -7.5 -83.001 -22.5s-50.334 -36.5 -77.001 -64.5l-46 -339c20 -7.33301 38.167 -12.666 54.5 -15.999
s35.166 -5 56.499 -5c48.667 0 88.5 15.833 119.5 47.5z" />
    <glyph glyph-name="ydieresis" unicode="&#xff;" horiz-adv-x="465" 
d="M238 -4c-28.667 -60 -60.667 -105.5 -96 -136.5s-84.333 -52.167 -147 -63.5l-3 46c35.333 8 64 18.333 86 31s40.167 28.5 54.5 47.5s30.5 45.5 48.5 79.5h-22l-107 523h62l89 -479l222 479h62zM165.5 673c-7 6.66699 -10.5 15.001 -10.5 25.001
c0 12.667 4.16699 23.167 12.5 31.5s18.833 12.5 31.5 12.5c10.667 0 19.5 -3.33301 26.5 -10s10.5 -15.334 10.5 -26.001c0 -12 -4.16699 -22.167 -12.5 -30.5s-18.833 -12.5 -31.5 -12.5c-10.667 0 -19.5 3.33301 -26.5 10zM353.5 673.001
c-7 6.66699 -10.502 15.001 -10.502 25.001c0 12.667 4.33301 23.167 13 31.5s19.334 12.5 32.001 12.5c10.667 0 19.334 -3.33301 26.001 -10s10 -15.334 10 -26.001c0 -12 -4.16699 -22.167 -12.5 -30.5s-18.833 -12.5 -31.5 -12.5c-10.667 0 -19.5 3.33301 -26.5 10z" />
    <glyph glyph-name="Amacron" unicode="&#x100;" horiz-adv-x="562" 
d="M447 0l-33 187h-287l-86 -187h-62l324 685h75l131 -685h-62zM151 238h254l-71 397zM478 802h-240l7 47h240z" />
    <glyph glyph-name="amacron" unicode="&#x101;" 
d="M415 523c26 -7.33301 52.668 -17.999 80.001 -31.999l-55 -377c-1.33301 -7.33301 -2 -17.333 -2 -30c0 -14 2.5 -25.167 7.5 -33.5s13.5 -15.166 25.5 -20.499l-17 -41c-23.333 5.33301 -41 15.166 -53 29.499s-17.667 36.166 -17 65.499
c-20 -29.333 -43.833 -52.5 -71.5 -69.5s-57.5 -25.5 -89.5 -25.5c-52 0 -92.5 18.167 -121.5 54.5s-43.5 85.833 -43.5 148.5c0 52 9.33301 104.333 28 157s48.167 96.667 88.5 132s91.166 53 152.499 53c32.667 0 62 -3.66699 88 -11zM210.501 441.001
c-31.667 -30.667 -54.667 -68.667 -69 -114s-21.5 -90.333 -21.5 -135c0 -50.667 9.66699 -89 29 -115s47 -39 83 -39c31.333 0 59.5 9.33301 84.5 28s48.833 46 71.5 82l45 315c-32 16 -66.667 24 -104 24c-47.333 0 -86.833 -15.333 -118.5 -46zM479.001 676.001h-240
l7 47h240z" />
    <glyph glyph-name="Abreve" unicode="&#x102;" horiz-adv-x="562" 
d="M447 0l-33 187h-287l-86 -187h-62l324 685h75l131 -685h-62zM151 238h254l-71 397zM266.5 793.5c-21.667 19.667 -32.8311 44.167 -33.498 73.5l39 6c4 -19.333 12.667 -34.333 26 -45s31.333 -16 54 -16c23.333 0 43.666 5.83301 60.999 17.5
s30.666 26.834 39.999 45.501l39 -12c-8 -28.667 -25.167 -52.334 -51.5 -71.001s-56.166 -28 -89.499 -28c-34.667 0 -62.834 9.83301 -84.501 29.5z" />
    <glyph glyph-name="abreve" unicode="&#x103;" 
d="M415 523c26 -7.33301 52.668 -17.999 80.001 -31.999l-55 -377c-1.33301 -7.33301 -2 -17.333 -2 -30c0 -14 2.5 -25.167 7.5 -33.5s13.5 -15.166 25.5 -20.499l-17 -41c-23.333 5.33301 -41 15.166 -53 29.499s-17.667 36.166 -17 65.499
c-20 -29.333 -43.833 -52.5 -71.5 -69.5s-57.5 -25.5 -89.5 -25.5c-52 0 -92.5 18.167 -121.5 54.5s-43.5 85.833 -43.5 148.5c0 52 9.33301 104.333 28 157s48.167 96.667 88.5 132s91.166 53 152.499 53c32.667 0 62 -3.66699 88 -11zM210.501 441.001
c-31.667 -30.667 -54.667 -68.667 -69 -114s-21.5 -90.333 -21.5 -135c0 -50.667 9.66699 -89 29 -115s47 -39 83 -39c31.333 0 59.5 9.33301 84.5 28s48.833 46 71.5 82l45 315c-32 16 -66.667 24 -104 24c-47.333 0 -86.833 -15.333 -118.5 -46zM270.001 684.001
c-21.333 20.667 -32.002 47.667 -32.002 81l41 6c3.33301 -24 11.333 -41.667 24 -53s30.334 -17 53.001 -17c24 0 45 6.33301 63 19s31.333 30.667 40 54l39 -12c-8.66699 -33.333 -26.167 -59.833 -52.5 -79.5s-56.5 -29.5 -90.5 -29.5
c-35.333 0 -63.666 10.333 -84.999 31z" />
    <glyph glyph-name="Aogonek" unicode="&#x104;" horiz-adv-x="562" 
d="M383 -61c-21.333 -19.333 -32 -40.334 -32 -63.001c0 -30 18.333 -45 55 -45c18 0 37.667 2.33301 59 7l-10 -49c-20 -4 -39 -6 -57 -6c-32.667 0 -57.667 7.5 -75 22.5s-26 34.5 -26 58.5c0 32 11.333 60 34 84s60.667 46 114 66l-31 173h-287l-86 -187h-62l324 685h75
l131 -685h-18c-50.667 -21.333 -86.667 -41.666 -108 -60.999zM151 237.999h254l-71 397z" />
    <glyph glyph-name="aogonek" unicode="&#x105;" 
d="M438 84c0 -14 2.5 -25.1689 7.5 -33.502s13.5 -15.166 25.5 -20.499l-17 -41c-50.667 -21.333 -86.667 -41.666 -108 -60.999s-32 -40.333 -32 -63c0 -30 18.333 -45 55 -45c18 0 37.667 2.33301 59 7l-10 -49c-20 -4 -39 -6 -57 -6c-32.667 0 -57.667 7.5 -75 22.5
s-26 34.5 -26 58.5c0 32.667 12 61.167 36 85.5s63.667 46.5 119 66.5c-21.333 16 -31.666 42.333 -30.999 79c-20 -29.333 -43.833 -52.5 -71.5 -69.5s-57.5 -25.5 -89.5 -25.5c-52 0 -92.5 18.167 -121.5 54.5s-43.5 85.833 -43.5 148.5c0 52 9.33301 104.333 28 157
s48.167 96.667 88.5 132s91.166 53 152.499 53c32.667 0 62 -3.66699 88 -11s52.667 -18 80 -32l-55 -377c-1.33301 -7.33301 -2 -17.333 -2 -30zM433 462.998c-32 16 -66.667 24 -104 24c-47.333 0 -86.833 -15.333 -118.5 -46s-54.667 -68.667 -69 -114
s-21.5 -90.333 -21.5 -135c0 -50.667 9.66699 -89 29 -115s47 -39 83 -39c31.333 0 59.5 9.33301 84.5 28s48.833 46 71.5 82z" />
    <glyph glyph-name="Cacute" unicode="&#x106;" horiz-adv-x="547" 
d="M494 680c26.667 -10.667 51.666 -26.668 74.999 -48.001l-35 -36c-21.333 17.333 -42.166 29.833 -62.499 37.5s-43.833 11.5 -70.5 11.5c-62 0 -113 -19.833 -153 -59.5s-69.167 -89 -87.5 -148s-27.5 -118.167 -27.5 -177.5c0 -72 16 -126.333 48 -163
s74.667 -55 128 -55c32.667 0 61 4.83301 85 14.5s49 24.167 75 43.5l29 -42c-58 -46 -122.333 -69 -193 -69s-127.334 23.833 -170.001 71.5s-64 115.167 -64 202.5c0 66.667 11.5 133.334 34.5 200.001s59.167 122.167 108.5 166.5s111 66.5 185 66.5
c36.667 0 68.334 -5.33301 95.001 -16zM501.999 885.999l20 -53l-206 -75l-14 34z" />
    <glyph glyph-name="cacute" unicode="&#x107;" horiz-adv-x="467" 
d="M461 480l-33 -37.001c-15.333 14 -31.666 24.5 -48.999 31.5s-37.333 10.5 -60 10.5c-46.667 0 -84.834 -15 -114.501 -45s-51.167 -67.167 -64.5 -111.5s-20 -88.166 -20 -131.499c0 -52.667 11.5 -92 34.5 -118s55.167 -39 96.5 -39c24 0 46.167 3.66699 66.5 11
s41.166 18.333 62.499 33l25 -41c-47.333 -36 -99.666 -54 -156.999 -54c-58.667 0 -104.667 18.5 -138 55.5s-50 88.833 -50 155.5c0 50.667 9 101.667 27 153s46.5 94.333 85.5 129s88.167 52 147.5 52c58 0 105 -18 141 -54zM441 782.999l20 -53l-206 -85l-15 33z" />
    <glyph glyph-name="Ccircumflex" unicode="&#x108;" horiz-adv-x="547" 
d="M494 680c26.667 -10.667 51.666 -26.668 74.999 -48.001l-35 -36c-21.333 17.333 -42.166 29.833 -62.499 37.5s-43.833 11.5 -70.5 11.5c-62 0 -113 -19.833 -153 -59.5s-69.167 -89 -87.5 -148s-27.5 -118.167 -27.5 -177.5c0 -72 16 -126.333 48 -163
s74.667 -55 128 -55c32.667 0 61 4.83301 85 14.5s49 24.167 75 43.5l29 -42c-58 -46 -122.333 -69 -193 -69s-127.334 23.833 -170.001 71.5s-64 115.167 -64 202.5c0 66.667 11.5 133.334 34.5 200.001s59.167 122.167 108.5 166.5s111 66.5 185 66.5
c36.667 0 68.334 -5.33301 95.001 -16zM288.999 761.999l-24 31l142 101h37l114 -102l-27 -30l-110 80z" />
    <glyph glyph-name="ccircumflex" unicode="&#x109;" horiz-adv-x="467" 
d="M461 480l-33 -37.001c-15.333 14 -31.666 24.5 -48.999 31.5s-37.333 10.5 -60 10.5c-46.667 0 -84.834 -15 -114.501 -45s-51.167 -67.167 -64.5 -111.5s-20 -88.166 -20 -131.499c0 -52.667 11.5 -92 34.5 -118s55.167 -39 96.5 -39c24 0 46.167 3.66699 66.5 11
s41.166 18.333 62.499 33l25 -41c-47.333 -36 -99.666 -54 -156.999 -54c-58.667 0 -104.667 18.5 -138 55.5s-50 88.833 -50 155.5c0 50.667 9 101.667 27 153s46.5 94.333 85.5 129s88.167 52 147.5 52c58 0 105 -18 141 -54zM221 642.999l-26 31l144 106h36l114 -106
l-28 -31l-110 85z" />
    <glyph glyph-name="Cdotaccent" unicode="&#x10a;" horiz-adv-x="547" 
d="M494 680c26.667 -10.667 51.666 -26.668 74.999 -48.001l-35 -36c-21.333 17.333 -42.166 29.833 -62.499 37.5s-43.833 11.5 -70.5 11.5c-62 0 -113 -19.833 -153 -59.5s-69.167 -89 -87.5 -148s-27.5 -118.167 -27.5 -177.5c0 -72 16 -126.333 48 -163
s74.667 -55 128 -55c32.667 0 61 4.83301 85 14.5s49 24.167 75 43.5l29 -42c-58 -46 -122.333 -69 -193 -69s-127.334 23.833 -170.001 71.5s-64 115.167 -64 202.5c0 66.667 11.5 133.334 34.5 200.001s59.167 122.167 108.5 166.5s111 66.5 185 66.5
c36.667 0 68.334 -5.33301 95.001 -16zM391.999 805.499c-7.33301 7 -11 16.167 -11 27.5c0 13.333 4.5 24.333 13.5 33s20.167 13 33.5 13c12 0 21.667 -3.5 29 -10.5s11 -16.167 11 -27.5c0 -13.333 -4.5 -24.333 -13.5 -33s-20.167 -13 -33.5 -13
c-12 0 -21.667 3.5 -29 10.5z" />
    <glyph glyph-name="cdotaccent" unicode="&#x10b;" horiz-adv-x="467" 
d="M461 480l-33 -37.001c-15.333 14 -31.666 24.5 -48.999 31.5s-37.333 10.5 -60 10.5c-46.667 0 -84.834 -15 -114.501 -45s-51.167 -67.167 -64.5 -111.5s-20 -88.166 -20 -131.499c0 -52.667 11.5 -92 34.5 -118s55.167 -39 96.5 -39c24 0 46.167 3.66699 66.5 11
s41.166 18.333 62.499 33l25 -41c-47.333 -36 -99.666 -54 -156.999 -54c-58.667 0 -104.667 18.5 -138 55.5s-50 88.833 -50 155.5c0 50.667 9 101.667 27 153s46.5 94.333 85.5 129s88.167 52 147.5 52c58 0 105 -18 141 -54zM318 679.499c-7.33301 7 -11 16.167 -11 27.5
c0 13.333 4.5 24.333 13.5 33s20.167 13 33.5 13c12 0 21.667 -3.5 29 -10.5s11 -16.167 11 -27.5c0 -13.333 -4.5 -24.333 -13.5 -33s-20.167 -13 -33.5 -13c-12 0 -21.667 3.5 -29 10.5z" />
    <glyph glyph-name="Ccaron" unicode="&#x10c;" horiz-adv-x="547" 
d="M494 680c26.667 -10.667 51.666 -26.668 74.999 -48.001l-35 -36c-21.333 17.333 -42.166 29.833 -62.499 37.5s-43.833 11.5 -70.5 11.5c-62 0 -113 -19.833 -153 -59.5s-69.167 -89 -87.5 -148s-27.5 -118.167 -27.5 -177.5c0 -72 16 -126.333 48 -163
s74.667 -55 128 -55c32.667 0 61 4.83301 85 14.5s49 24.167 75 43.5l29 -42c-58 -46 -122.333 -69 -193 -69s-127.334 23.833 -170.001 71.5s-64 115.167 -64 202.5c0 66.667 11.5 133.334 34.5 200.001s59.167 122.167 108.5 166.5s111 66.5 185 66.5
c36.667 0 68.334 -5.33301 95.001 -16zM548.999 887.999l23 -30l-142 -102h-36l-116 102l29 29l110 -79z" />
    <glyph glyph-name="ccaron" unicode="&#x10d;" horiz-adv-x="467" 
d="M461 480l-33 -37.001c-15.333 14 -31.666 24.5 -48.999 31.5s-37.333 10.5 -60 10.5c-46.667 0 -84.834 -15 -114.501 -45s-51.167 -67.167 -64.5 -111.5s-20 -88.166 -20 -131.499c0 -52.667 11.5 -92 34.5 -118s55.167 -39 96.5 -39c24 0 46.167 3.66699 66.5 11
s41.166 18.333 62.499 33l25 -41c-47.333 -36 -99.666 -54 -156.999 -54c-58.667 0 -104.667 18.5 -138 55.5s-50 88.833 -50 155.5c0 50.667 9 101.667 27 153s46.5 94.333 85.5 129s88.167 52 147.5 52c58 0 105 -18 141 -54zM476 768.999l23 -30l-143 -106h-36l-115 106
l27 30l110 -84z" />
    <glyph glyph-name="Dcaron" unicode="&#x10e;" horiz-adv-x="630" 
d="M505.5 629.5c51 -37 76.5 -103.832 76.5 -200.499c0 -76.667 -12.167 -147.334 -36.5 -212.001s-63.333 -117 -117 -157s-122.5 -60 -206.5 -60h-149l97 685h134c83.333 0 150.5 -18.5 201.5 -55.5zM223 635.001l-81.999 -584.999h89c69.333 0 125.666 18.333 168.999 55
s74.5 83.667 93.5 141s28.5 118.666 28.5 183.999c0 80.667 -19.5 135 -58.5 163s-90.5 42 -154.5 42h-85zM505.001 888.002l23 -30l-142 -102h-36l-116 102l29 29l110 -79z" />
    <glyph glyph-name="dcaron" unicode="&#x10f;" horiz-adv-x="578" 
d="M539 736l-104.001 -736.001h-50l8 106c-20.667 -35.333 -45.334 -63.666 -74.001 -84.999s-61.667 -32 -99 -32c-50.667 0 -90.167 18.333 -118.5 55s-42.5 87 -42.5 151c0 50.667 8.33301 102 25 154s43.334 95.833 80.001 131.5s83.334 53.5 140.001 53.5
c59.333 0 105.333 -24 138 -72l40 281zM201.499 439.499c-29 -31 -49.834 -69 -62.501 -114s-19 -89.5 -19 -133.5c0 -50 9.5 -88.167 28.5 -114.5s45.5 -39.5 79.5 -39.5c36 0 67.333 12 94 36s53.667 59.667 81 107l33 228c-14.667 24 -31.667 42.833 -51 56.5
s-43.666 20.5 -72.999 20.5c-44.667 0 -81.5 -15.5 -110.5 -46.5zM613.998 741.999l55 -6l-60 -164l-35 5z" />
    <glyph glyph-name="Dcroat" unicode="&#x110;" horiz-adv-x="635" 
d="M510.5 629.5c51 -37 76.5 -103.832 76.5 -200.499c0 -76.667 -12.167 -147.334 -36.5 -212.001s-63.333 -117 -117 -157s-122.5 -60 -206.5 -60h-149l47 329h-87l6 48h87l44 308h134c83.333 0 150.5 -18.5 201.5 -55.5zM404 105.001
c43.333 36.667 74.501 83.668 93.501 141.001s28.5 118.666 28.5 183.999c0 80.667 -19.5 135 -58.5 163s-90.5 42 -154.5 42h-85l-36 -258h177l-6 -48h-178l-39 -279h89c69.333 0 125.666 18.333 168.999 55z" />
    <glyph glyph-name="dcroat" unicode="&#x111;" horiz-adv-x="585" 
d="M598 616l-76.001 -0.000976562l-87 -616h-50l8 106c-20.667 -35.333 -45.334 -63.666 -74.001 -84.999s-61.667 -32 -99 -32c-50.667 0 -90.167 18.333 -118.5 55s-42.5 87 -42.5 151c0 50.667 8.33301 102 25 154s43.334 95.833 80.001 131.5s83.334 53.5 140.001 53.5
c59.333 0 105.333 -24 138 -72l22 154h-160v47h167l11 80l57 -7l-10 -73h76zM435.999 408.999c-14.667 24 -31.668 42.833 -51.001 56.5s-43.666 20.5 -72.999 20.5c-44.667 0 -81.5 -15.5 -110.5 -46.5s-49.833 -69 -62.5 -114s-19 -89.5 -19 -133.5
c0 -50 9.5 -88.167 28.5 -114.5s45.5 -39.5 79.5 -39.5c36 0 67.333 12 94 36s53.667 59.667 81 107z" />
    <glyph glyph-name="Emacron" unicode="&#x112;" horiz-adv-x="510" 
d="M516 685l-14 -50h-279l-36 -255h242l-7 -50h-242l-40 -279h294l-7 -51h-354l97 685h346zM484 802h-240l7 47h240z" />
    <glyph glyph-name="emacron" unicode="&#x113;" horiz-adv-x="513" 
d="M387 265.5c-62.667 -31 -151.666 -50.833 -266.999 -59.5v-6c0 -54.667 11.833 -95 35.5 -121s56.167 -39 97.5 -39c27.333 0 52.5 4.16699 75.5 12.5s47.167 21.5 72.5 39.5l26 -41c-28 -20.667 -56.5 -36.167 -85.5 -46.5s-59.833 -15.5 -92.5 -15.5
c-60 0 -106.667 18.333 -140 55s-50 88.334 -50 155.001c0 52.667 9.5 104.667 28.5 156s48.667 94 89 128s90.166 51 149.499 51c48.667 0 86.667 -11.833 114 -35.5s41 -53.834 41 -90.501c0 -64 -31.333 -111.5 -94 -142.5zM185.501 417
c-33.667 -46 -54.5 -101 -62.5 -165c100 8 174.667 24 224 48s74 59.333 74 106c0 22.667 -8 41.667 -24 57s-39.667 23 -71 23c-60 0 -106.833 -23 -140.5 -69zM453.001 676h-240l7 47h240z" />
    <glyph glyph-name="Ebreve" unicode="&#x114;" horiz-adv-x="510" 
d="M516 685l-14 -50h-279l-36 -255h242l-7 -50h-242l-40 -279h294l-7 -51h-354l97 685h346zM272.5 793.5c-21.667 19.667 -32.8311 44.167 -33.498 73.5l39 6c4 -19.333 12.667 -34.333 26 -45s31.333 -16 54 -16c23.333 0 43.666 5.83301 60.999 17.5
s30.666 26.834 39.999 45.501l39 -12c-8 -28.667 -25.167 -52.334 -51.5 -71.001s-56.166 -28 -89.499 -28c-34.667 0 -62.834 9.83301 -84.501 29.5z" />
    <glyph glyph-name="ebreve" unicode="&#x115;" horiz-adv-x="513" 
d="M387 265.5c-62.667 -31 -151.666 -50.833 -266.999 -59.5v-6c0 -54.667 11.833 -95 35.5 -121s56.167 -39 97.5 -39c27.333 0 52.5 4.16699 75.5 12.5s47.167 21.5 72.5 39.5l26 -41c-28 -20.667 -56.5 -36.167 -85.5 -46.5s-59.833 -15.5 -92.5 -15.5
c-60 0 -106.667 18.333 -140 55s-50 88.334 -50 155.001c0 52.667 9.5 104.667 28.5 156s48.667 94 89 128s90.166 51 149.499 51c48.667 0 86.667 -11.833 114 -35.5s41 -53.834 41 -90.501c0 -64 -31.333 -111.5 -94 -142.5zM185.501 417
c-33.667 -46 -54.5 -101 -62.5 -165c100 8 174.667 24 224 48s74 59.333 74 106c0 22.667 -8 41.667 -24 57s-39.667 23 -71 23c-60 0 -106.833 -23 -140.5 -69zM244.001 684c-21.333 20.667 -32.002 47.667 -32.002 81l41 6c3.33301 -24 11.333 -41.667 24 -53
s30.334 -17 53.001 -17c24 0 45 6.33301 63 19s31.333 30.667 40 54l39 -12c-8.66699 -33.333 -26.167 -59.833 -52.5 -79.5s-56.5 -29.5 -90.5 -29.5c-35.333 0 -63.666 10.333 -84.999 31z" />
    <glyph glyph-name="Edotaccent" unicode="&#x116;" horiz-adv-x="510" 
d="M516 685l-14 -50h-279l-36 -255h242l-7 -50h-242l-40 -279h294l-7 -51h-354l97 685h346zM337 805.5c-7.33301 7 -11 16.167 -11 27.5c0 13.333 4.5 24.333 13.5 33s20.167 13 33.5 13c12 0 21.667 -3.5 29 -10.5s11 -16.167 11 -27.5c0 -13.333 -4.5 -24.333 -13.5 -33
s-20.167 -13 -33.5 -13c-12 0 -21.667 3.5 -29 10.5z" />
    <glyph glyph-name="edotaccent" unicode="&#x117;" horiz-adv-x="513" 
d="M387 265.5c-62.667 -31 -151.666 -50.833 -266.999 -59.5v-6c0 -54.667 11.833 -95 35.5 -121s56.167 -39 97.5 -39c27.333 0 52.5 4.16699 75.5 12.5s47.167 21.5 72.5 39.5l26 -41c-28 -20.667 -56.5 -36.167 -85.5 -46.5s-59.833 -15.5 -92.5 -15.5
c-60 0 -106.667 18.333 -140 55s-50 88.334 -50 155.001c0 52.667 9.5 104.667 28.5 156s48.667 94 89 128s90.166 51 149.499 51c48.667 0 86.667 -11.833 114 -35.5s41 -53.834 41 -90.501c0 -64 -31.333 -111.5 -94 -142.5zM185.501 417
c-33.667 -46 -54.5 -101 -62.5 -165c100 8 174.667 24 224 48s74 59.333 74 106c0 22.667 -8 41.667 -24 57s-39.667 23 -71 23c-60 0 -106.833 -23 -140.5 -69zM306.001 679.5c-7.33301 7 -11 16.167 -11 27.5c0 13.333 4.5 24.333 13.5 33s20.167 13 33.5 13
c12 0 21.667 -3.5 29 -10.5s11 -16.167 11 -27.5c0 -13.333 -4.5 -24.333 -13.5 -33s-20.167 -13 -33.5 -13c-12 0 -21.667 3.5 -29 10.5z" />
    <glyph glyph-name="Eogonek" unicode="&#x118;" horiz-adv-x="510" 
d="M223 635l-36 -255.001h242l-7 -50h-242l-40 -279h294l-7 -51h-31c-50.667 -21.333 -86.667 -41.666 -108 -60.999s-32 -40.333 -32 -63c0 -30 18.333 -45 55 -45c18 0 37.667 2.33301 59 7l-10 -49c-20 -4 -39 -6 -57 -6c-32.667 0 -57.667 7.5 -75 22.5
s-26 34.5 -26 58.5c0 28 9 53 27 75s47.333 42.333 88 61h-244l97 685h346l-14 -50h-279z" />
    <glyph glyph-name="eogonek" unicode="&#x119;" horiz-adv-x="513" 
d="M387 265.5c-62.667 -31 -151.668 -50.832 -267.001 -59.499v-6c0 -54.667 11.833 -95 35.5 -121s56.167 -39 97.5 -39c27.333 0 52.5 4.16699 75.5 12.5s47.167 21.5 72.5 39.5l26 -41c-30 -22 -61 -38.333 -93 -49c-42.667 -20 -72.667 -38.5 -90 -55.5
s-26 -36.833 -26 -59.5c0 -16 5.33301 -28.667 16 -38s26.667 -14 48 -14c17.333 0 36.333 2.33301 57 7l-6 -48c-23.333 -4.66699 -42.666 -7 -57.999 -7c-35.333 0 -62.666 8.5 -81.999 25.5s-29 39.167 -29 66.5c0 45.333 27.667 82 83 110
c-59.333 0.666992 -105.5 19.167 -138.5 55.5s-49.5 87.833 -49.5 154.5c0 52.667 9.5 104.667 28.5 156s48.667 94 89 128s90.166 51 149.499 51c48.667 0 86.667 -11.833 114 -35.5s41 -53.834 41 -90.501c0 -64 -31.333 -111.5 -94 -142.5zM185.499 417.001
c-33.667 -46 -54.5 -101 -62.5 -165c100 8 174.667 24 224 48s74 59.333 74 106c0 22.667 -8 41.667 -24 57s-39.667 23 -71 23c-60 0 -106.833 -23 -140.5 -69z" />
    <glyph glyph-name="Ecaron" unicode="&#x11a;" horiz-adv-x="510" 
d="M516 685l-14 -50h-279l-36 -255h242l-7 -50h-242l-40 -279h294l-7 -51h-354l97 685h346zM494 888l23 -30l-142 -102h-36l-116 102l29 29l110 -79z" />
    <glyph glyph-name="ecaron" unicode="&#x11b;" horiz-adv-x="513" 
d="M387 265.5c-62.667 -31 -151.666 -50.833 -266.999 -59.5v-6c0 -54.667 11.833 -95 35.5 -121s56.167 -39 97.5 -39c27.333 0 52.5 4.16699 75.5 12.5s47.167 21.5 72.5 39.5l26 -41c-28 -20.667 -56.5 -36.167 -85.5 -46.5s-59.833 -15.5 -92.5 -15.5
c-60 0 -106.667 18.333 -140 55s-50 88.334 -50 155.001c0 52.667 9.5 104.667 28.5 156s48.667 94 89 128s90.166 51 149.499 51c48.667 0 86.667 -11.833 114 -35.5s41 -53.834 41 -90.501c0 -64 -31.333 -111.5 -94 -142.5zM185.501 417
c-33.667 -46 -54.5 -101 -62.5 -165c100 8 174.667 24 224 48s74 59.333 74 106c0 22.667 -8 41.667 -24 57s-39.667 23 -71 23c-60 0 -106.833 -23 -140.5 -69zM464.001 769l23 -30l-143 -106h-36l-115 106l27 30l110 -84z" />
    <glyph glyph-name="Gcircumflex" unicode="&#x11c;" horiz-adv-x="615" 
d="M506 679c29.333 -11.333 57.001 -28.667 83.001 -52l-38 -34c-22.667 18.667 -45 32 -67 40s-48 12 -78 12c-60 0 -110.5 -19.333 -151.5 -58s-71.333 -88 -91 -148s-29.5 -122 -29.5 -186c0 -71.333 15.667 -124.5 47 -159.5s76.333 -52.5 135 -52.5c52 0 101 12 147 36
l35 242h-132l-1 51h199l-44 -323c-65.333 -38.667 -135.333 -58 -210 -58s-133.167 23.167 -175.5 69.5s-63.5 113.5 -63.5 201.5c0 70.667 12.5 139.5 37.5 206.5s62.833 122 113.5 165s112 64.5 184 64.5c37.333 0 70.666 -5.66699 99.999 -17zM296.001 761.999l-24 31
l142 101h37l114 -102l-27 -30l-110 80z" />
    <glyph glyph-name="gcircumflex" unicode="&#x11d;" horiz-adv-x="568" 
d="M419 523c26 -7.33301 52.666 -18.001 79.999 -32.001l-71 -487c-20.667 -140.667 -93.667 -211 -219 -211c-60 0 -117.667 16.333 -173 49l23 44c50.667 -28 100 -42 148 -42c94 0 148.667 53 164 159l12 87c-20 -27.333 -43.667 -49.166 -71 -65.499
s-56.333 -24.5 -87 -24.5c-51.333 0 -91.666 18 -120.999 54s-44.333 84.667 -45 146c0 52 9.5 103.667 28.5 155s48.833 94 89.5 128s92 51 154 51c32.667 0 62 -3.66699 88 -11zM211.499 442.999c-31.667 -29.333 -54.833 -66 -69.5 -110s-21.667 -88.333 -21 -133
c0 -48.667 10 -86 30 -112s47.667 -39 83 -39c30.667 0 59 9.33301 85 28s50.667 45.667 74 81l44 305c-32 16 -67.333 24 -106 24c-48 0 -87.833 -14.667 -119.5 -44zM219 642.999l-26 31l144 106h36l114 -106l-28 -31l-110 85z" />
    <glyph glyph-name="Gbreve" unicode="&#x11e;" horiz-adv-x="615" 
d="M506 679c29.333 -11.333 57.001 -28.667 83.001 -52l-38 -34c-22.667 18.667 -45 32 -67 40s-48 12 -78 12c-60 0 -110.5 -19.333 -151.5 -58s-71.333 -88 -91 -148s-29.5 -122 -29.5 -186c0 -71.333 15.667 -124.5 47 -159.5s76.333 -52.5 135 -52.5c52 0 101 12 147 36
l35 242h-132l-1 51h199l-44 -323c-65.333 -38.667 -135.333 -58 -210 -58s-133.167 23.167 -175.5 69.5s-63.5 113.5 -63.5 201.5c0 70.667 12.5 139.5 37.5 206.5s62.833 122 113.5 165s112 64.5 184 64.5c37.333 0 70.666 -5.66699 99.999 -17zM334.501 793.499
c-21.667 19.667 -32.8311 44.167 -33.498 73.5l39 6c4 -19.333 12.667 -34.333 26 -45s31.333 -16 54 -16c23.333 0 43.666 5.83301 60.999 17.5s30.666 26.834 39.999 45.501l39 -12c-8 -28.667 -25.167 -52.334 -51.5 -71.001s-56.166 -28 -89.499 -28
c-34.667 0 -62.834 9.83301 -84.501 29.5z" />
    <glyph glyph-name="gbreve" unicode="&#x11f;" horiz-adv-x="568" 
d="M419 523c26 -7.33301 52.666 -18.001 79.999 -32.001l-71 -487c-20.667 -140.667 -93.667 -211 -219 -211c-60 0 -117.667 16.333 -173 49l23 44c50.667 -28 100 -42 148 -42c94 0 148.667 53 164 159l12 87c-20 -27.333 -43.667 -49.166 -71 -65.499
s-56.333 -24.5 -87 -24.5c-51.333 0 -91.666 18 -120.999 54s-44.333 84.667 -45 146c0 52 9.5 103.667 28.5 155s48.833 94 89.5 128s92 51 154 51c32.667 0 62 -3.66699 88 -11zM211.499 442.999c-31.667 -29.333 -54.833 -66 -69.5 -110s-21.667 -88.333 -21 -133
c0 -48.667 10 -86 30 -112s47.667 -39 83 -39c30.667 0 59 9.33301 85 28s50.667 45.667 74 81l44 305c-32 16 -67.333 24 -106 24c-48 0 -87.833 -14.667 -119.5 -44zM254 683.999c-21.333 20.667 -32.002 47.667 -32.002 81l41 6c3.33301 -24 11.333 -41.667 24 -53
s30.334 -17 53.001 -17c24 0 45 6.33301 63 19s31.333 30.667 40 54l39 -12c-8.66699 -33.333 -26.167 -59.833 -52.5 -79.5s-56.5 -29.5 -90.5 -29.5c-35.333 0 -63.666 10.333 -84.999 31z" />
    <glyph glyph-name="Gdotaccent" unicode="&#x120;" horiz-adv-x="615" 
d="M506 679c29.333 -11.333 57.001 -28.667 83.001 -52l-38 -34c-22.667 18.667 -45 32 -67 40s-48 12 -78 12c-60 0 -110.5 -19.333 -151.5 -58s-71.333 -88 -91 -148s-29.5 -122 -29.5 -186c0 -71.333 15.667 -124.5 47 -159.5s76.333 -52.5 135 -52.5c52 0 101 12 147 36
l35 242h-132l-1 51h199l-44 -323c-65.333 -38.667 -135.333 -58 -210 -58s-133.167 23.167 -175.5 69.5s-63.5 113.5 -63.5 201.5c0 70.667 12.5 139.5 37.5 206.5s62.833 122 113.5 165s112 64.5 184 64.5c37.333 0 70.666 -5.66699 99.999 -17zM399.001 805.499
c-7.33301 7 -11 16.167 -11 27.5c0 13.333 4.5 24.333 13.5 33s20.167 13 33.5 13c12 0 21.667 -3.5 29 -10.5s11 -16.167 11 -27.5c0 -13.333 -4.5 -24.333 -13.5 -33s-20.167 -13 -33.5 -13c-12 0 -21.667 3.5 -29 10.5z" />
    <glyph glyph-name="gdotaccent" unicode="&#x121;" horiz-adv-x="568" 
d="M419 523c26 -7.33301 52.666 -18.001 79.999 -32.001l-71 -487c-20.667 -140.667 -93.667 -211 -219 -211c-60 0 -117.667 16.333 -173 49l23 44c50.667 -28 100 -42 148 -42c94 0 148.667 53 164 159l12 87c-20 -27.333 -43.667 -49.166 -71 -65.499
s-56.333 -24.5 -87 -24.5c-51.333 0 -91.666 18 -120.999 54s-44.333 84.667 -45 146c0 52 9.5 103.667 28.5 155s48.833 94 89.5 128s92 51 154 51c32.667 0 62 -3.66699 88 -11zM211.499 442.999c-31.667 -29.333 -54.833 -66 -69.5 -110s-21.667 -88.333 -21 -133
c0 -48.667 10 -86 30 -112s47.667 -39 83 -39c30.667 0 59 9.33301 85 28s50.667 45.667 74 81l44 305c-32 16 -67.333 24 -106 24c-48 0 -87.833 -14.667 -119.5 -44zM316 679.499c-7.33301 7 -11 16.167 -11 27.5c0 13.333 4.5 24.333 13.5 33s20.167 13 33.5 13
c12 0 21.667 -3.5 29 -10.5s11 -16.167 11 -27.5c0 -13.333 -4.5 -24.333 -13.5 -33s-20.167 -13 -33.5 -13c-12 0 -21.667 3.5 -29 10.5z" />
    <glyph glyph-name="Gcommaaccent" unicode="&#x122;" horiz-adv-x="615" 
d="M506 679c29.333 -11.333 57.001 -28.667 83.001 -52l-38 -34c-22.667 18.667 -45 32 -67 40s-48 12 -78 12c-60 0 -110.5 -19.333 -151.5 -58s-71.333 -88 -91 -148s-29.5 -122 -29.5 -186c0 -71.333 15.667 -124.5 47 -159.5s76.333 -52.5 135 -52.5c52 0 101 12 147 36
l35 242h-132l-1 51h199l-44 -323c-65.333 -38.667 -135.333 -58 -210 -58s-133.167 23.167 -175.5 69.5s-63.5 113.5 -63.5 201.5c0 70.667 12.5 139.5 37.5 206.5s62.833 122 113.5 165s112 64.5 184 64.5c37.333 0 70.666 -5.66699 99.999 -17zM321.501 -96.001
c7 -7.33301 10.5 -16.668 10.5 -28.001c0 -9.33301 -1.83301 -18.5 -5.5 -27.5s-11.834 -23.833 -24.501 -44.5l-52 -83h-36l49 115c-5.33301 4 -9.66602 9 -12.999 15s-5 12.333 -5 19c0 12.667 4.5 23.334 13.5 32.001s20.167 13 33.5 13c12.667 0 22.5 -3.66699 29.5 -11
z" />
    <glyph glyph-name="gcommaaccent" unicode="&#x123;" horiz-adv-x="568" 
d="M419 523c26 -7.33301 52.666 -18.001 79.999 -32.001l-71 -487c-20.667 -140.667 -93.667 -211 -219 -211c-60 0 -117.667 16.333 -173 49l23 44c50.667 -28 100 -42 148 -42c94 0 148.667 53 164 159l12 87c-20 -27.333 -43.667 -49.166 -71 -65.499
s-56.333 -24.5 -87 -24.5c-51.333 0 -91.666 18 -120.999 54s-44.333 84.667 -45 146c0 52 9.5 103.667 28.5 155s48.833 94 89.5 128s92 51 154 51c32.667 0 62 -3.66699 88 -11zM211.499 442.999c-31.667 -29.333 -54.833 -66 -69.5 -110s-21.667 -88.333 -21 -133
c0 -48.667 10 -86 30 -112s47.667 -39 83 -39c30.667 0 59 9.33301 85 28s50.667 45.667 74 81l44 305c-32 16 -67.333 24 -106 24c-48 0 -87.833 -14.667 -119.5 -44zM302.5 599.999c-7 7.33301 -10.5 16.668 -10.5 28.001c0 9.33301 1.83301 18.5 5.5 27.5
s11.834 23.833 24.501 44.5l52 83h36l-49 -115c5.33301 -4 9.66602 -9 12.999 -15s5 -12.333 5 -19c0 -12.667 -4.5 -23.334 -13.5 -32.001s-20.167 -13 -33.5 -13c-12.667 0 -22.5 3.66699 -29.5 11z" />
    <glyph glyph-name="Hcircumflex" unicode="&#x124;" horiz-adv-x="668" 
d="M133 0h-60l97 685h60l-42 -299h327l42 299h60l-97 -685h-60l47 335h-327zM279 762l-24 31l142 101h37l114 -102l-27 -30l-110 80z" />
    <glyph glyph-name="hcircumflex" unicode="&#x125;" horiz-adv-x="582" 
d="M467 501c21.333 -22 31.999 -53 31.999 -93c0 -11.333 -1 -23.666 -3 -36.999l-52 -371h-58l52 367c1.33301 8 2 19.333 2 34c0 29.333 -6.16699 50.666 -18.5 63.999s-31.166 20 -56.499 20c-68 0 -133 -57.333 -195 -172l-44 -313h-58l104 736l59 7l-49 -347
c24.667 44 53.5 78 86.5 102s68.5 36 106.5 36c40 0 70.667 -11 92 -33zM246.999 813l-24 31l142 101h37l114 -102l-27 -30l-110 80z" />
    <glyph glyph-name="Hbar" unicode="&#x126;" horiz-adv-x="666" 
d="M663 558l-6 -45h-63l-73 -513h-60l47 335h-327l-47 -335h-60l73 513h-64l6 45h64l18 127h60l-18 -127h327l18 127h60l-18 -127h63zM516 386l18 127h-327l-18 -127h327z" />
    <glyph glyph-name="hbar" unicode="&#x127;" horiz-adv-x="588" 
d="M473 501c21.333 -22 31.999 -53 31.999 -93c0 -11.333 -1 -23.666 -3 -36.999l-52 -371h-58l52 367c1.33301 8 2 19.333 2 34c0 29.333 -6.16699 50.666 -18.5 63.999s-31.166 20 -56.499 20c-68 0 -133 -57.333 -195 -172l-44 -313h-58l87 616h-75l6 47h76l10 73l59 7
l-11 -80h169l-14 -47h-162l-31 -220c24.667 44 53.5 78 86.5 102s68.5 36 106.5 36c40 0 70.667 -11 92 -33z" />
    <glyph glyph-name="Itilde" unicode="&#x128;" horiz-adv-x="281" 
d="M230 685l-97 -685h-60l97 685h60zM244.5 798.5c-9.66699 4.33301 -20.834 10.832 -33.501 19.499c-8.66699 6.66699 -16.5 11.667 -23.5 15s-14.167 5 -21.5 5c-12 0 -22.333 -3.16699 -31 -9.5s-19.334 -17.166 -32.001 -32.499l-33 22c30 44 62.333 66 97 66
c12 0 22.5 -2.16699 31.5 -6.5s19.833 -10.5 32.5 -18.5c12 -7.33301 21 -12.5 27 -15.5s12.667 -4.5 20 -4.5c10.667 0 20.834 3.5 30.501 10.5s20.167 18.167 31.5 33.5l36 -21c-29.333 -46.667 -61.666 -70 -96.999 -70c-13.333 0 -24.833 2.16699 -34.5 6.5z" />
    <glyph glyph-name="itilde" unicode="&#x129;" horiz-adv-x="269" 
d="M200 523l-74 -523h-58l74 523h58zM219.5 672.5c-9.66699 4.33301 -20.834 10.832 -33.501 19.499c-8.66699 6.66699 -16.5 11.667 -23.5 15s-14.167 5 -21.5 5c-12 0 -22.333 -3.16699 -31 -9.5s-19.334 -17.166 -32.001 -32.499l-33 22c30 44 62.333 66 97 66
c12 0 22.5 -2.16699 31.5 -6.5s19.833 -10.5 32.5 -18.5c12 -7.33301 21 -12.5 27 -15.5s12.667 -4.5 20 -4.5c10.667 0 20.834 3.5 30.501 10.5s20.167 18.167 31.5 33.5l36 -21c-29.333 -46.667 -61.666 -70 -96.999 -70c-13.333 0 -24.833 2.16699 -34.5 6.5z" />
    <glyph glyph-name="Imacron" unicode="&#x12a;" horiz-adv-x="281" 
d="M230 685l-97 -685h-60l97 685h60zM337 802h-240l7 47h240z" />
    <glyph glyph-name="imacron" unicode="&#x12b;" horiz-adv-x="269" 
d="M200 523l-74 -523h-58l74 523h58zM312 676h-240l7 47h240z" />
    <glyph glyph-name="Ibreve" unicode="&#x12c;" horiz-adv-x="281" 
d="M230 685l-97 -685h-60l97 685h60zM125.5 793.5c-21.667 19.667 -32.8311 44.167 -33.498 73.5l39 6c4 -19.333 12.667 -34.333 26 -45s31.333 -16 54 -16c23.333 0 43.666 5.83301 60.999 17.5s30.666 26.834 39.999 45.501l39 -12
c-8 -28.667 -25.167 -52.334 -51.5 -71.001s-56.166 -28 -89.499 -28c-34.667 0 -62.834 9.83301 -84.501 29.5z" />
    <glyph glyph-name="ibreve" unicode="&#x12d;" horiz-adv-x="269" 
d="M200 523l-74 -523h-58l74 523h58zM103 684c-21.333 20.667 -32.002 47.667 -32.002 81l41 6c3.33301 -24 11.333 -41.667 24 -53s30.334 -17 53.001 -17c24 0 45 6.33301 63 19s31.333 30.667 40 54l39 -12c-8.66699 -33.333 -26.167 -59.833 -52.5 -79.5
s-56.5 -29.5 -90.5 -29.5c-35.333 0 -63.666 10.333 -84.999 31z" />
    <glyph glyph-name="Iogonek" unicode="&#x12e;" horiz-adv-x="281" 
d="M230 685l-97 -685.001h-9c-50.667 -21.333 -86.667 -41.666 -108 -60.999s-32 -40.333 -32 -63c0 -30 18.333 -45 55 -45c18 0 37.667 2.33301 59 7l-10 -49c-20 -4 -39 -6 -57 -6c-32.667 0 -57.667 7.5 -75 22.5s-26 34.5 -26 58.5c0 31.333 11.333 59 34 83
s59.667 45.667 111 65l95 673h60z" />
    <glyph glyph-name="iogonek" unicode="&#x12f;" horiz-adv-x="269" 
d="M230 742.5c7.33301 -7 11 -16.167 11 -27.5c0 -13.333 -4.5 -24.333 -13.5 -33s-20.167 -13 -33.5 -13c-12 0 -21.667 3.5 -29 10.5s-11 16.167 -11 27.5c0 13.333 4.5 24.333 13.5 33s20.167 13 33.5 13c12 0 21.667 -3.5 29 -10.5zM142 523l58 -0.000976562l-74 -523
h-13c-50.667 -21.333 -86.667 -41.666 -108 -60.999s-32 -40.333 -32 -63c0 -30 18.333 -45 55 -45c18 0 37.667 2.33301 59 7l-10 -49c-20 -4 -39 -6 -57 -6c-32.667 0 -57.667 7.5 -75 22.5s-26 34.5 -26 58.5c0 32 11.667 60.167 35 84.5s62 46.5 116 66.5z" />
    <glyph glyph-name="Idotaccent" unicode="&#x130;" horiz-adv-x="281" 
d="M230 685l-97 -685h-60l97 685h60zM190 805.5c-7.33301 7 -11 16.167 -11 27.5c0 13.333 4.5 24.333 13.5 33s20.167 13 33.5 13c12 0 21.667 -3.5 29 -10.5s11 -16.167 11 -27.5c0 -13.333 -4.5 -24.333 -13.5 -33s-20.167 -13 -33.5 -13c-12 0 -21.667 3.5 -29 10.5z
" />
    <glyph glyph-name="dotlessi" unicode="&#x131;" horiz-adv-x="269" 
d="M200 523l-74 -523h-58l74 523h58z" />
    <glyph glyph-name="IJ" unicode="&#x132;" horiz-adv-x="570" 
d="M230 685l-97 -685h-60l97 685h60zM441 90c-5.33301 -40.667 -15 -73.666 -29 -98.999s-33 -46.333 -57 -63s-56.333 -32.667 -97 -48l-13 46c32.667 13.333 58 27.166 76 41.499s31.5 31.5 40.5 51.5s15.5 46 19.5 78l83 588h60z" />
    <glyph glyph-name="ij" unicode="&#x133;" horiz-adv-x="538" 
d="M200 523l-74 -523h-58l74 523h58zM165 679.5c-7.33301 7 -11 16.167 -11 27.5c0 13.333 4.5 24.333 13.5 33s20.167 13 33.5 13c12 0 21.667 -3.5 29 -10.5s11 -16.167 11 -27.5c0 -13.333 -4.5 -24.333 -13.5 -33s-20.167 -13 -33.5 -13c-12 0 -21.667 3.5 -29 10.5z
M213 -160c27.333 12.667 48.8301 25.333 64.4971 38s28.834 30 39.501 52s18.667 51.667 24 89l71 504h58l-72 -506c-6 -45.333 -15.667 -81.333 -29 -108s-30.666 -48 -51.999 -64s-50.666 -32.333 -87.999 -49zM434.997 679.499c-7.33301 7 -11 16.167 -11 27.5
c0 13.333 4.5 24.333 13.5 33s20.167 13 33.5 13c12 0 21.667 -3.5 29 -10.5s11 -16.167 11 -27.5c0 -13.333 -4.5 -24.333 -13.5 -33s-20.167 -13 -33.5 -13c-12 0 -21.667 3.5 -29 10.5z" />
    <glyph glyph-name="Jcircumflex" unicode="&#x134;" horiz-adv-x="289" 
d="M160 90c-5.33301 -40.667 -15 -73.666 -29 -98.999s-33 -46.333 -57 -63s-56.333 -32.667 -97 -48l-13 46c32.667 13.333 58 27.166 76 41.499s31.5 31.5 40.5 51.5s15.5 46 19.5 78l83 588h60zM99 762.001l-24 31l142 101h37l114 -102l-27 -30l-110 80z" />
    <glyph glyph-name="jcircumflex" unicode="&#x135;" horiz-adv-x="269" 
d="M-56 -160c27.333 12.667 48.8301 25.333 64.4971 38s28.834 30 39.501 52s18.667 51.667 24 89l71 504h58l-72 -506c-6 -45.333 -15.667 -81.333 -29 -108s-30.666 -48 -51.999 -64s-50.666 -32.333 -87.999 -49zM68.9971 642.999l-26 31l144 106h36l114 -106l-28 -31
l-110 85z" />
    <glyph glyph-name="Kcommaaccent" unicode="&#x136;" horiz-adv-x="545" 
d="M73 0l97 685h60l-96 -685h-61zM437 0l-248 367l327 318h72l-330 -320l250 -365h-71zM289.5 -96c7 -7.33301 10.5 -16.668 10.5 -28.001c0 -9.33301 -1.83301 -18.5 -5.5 -27.5s-11.834 -23.833 -24.501 -44.5l-52 -83h-36l49 115c-5.33301 4 -9.66602 9 -12.999 15
s-5 12.333 -5 19c0 12.667 4.5 23.334 13.5 32.001s20.167 13 33.5 13c12.667 0 22.5 -3.66699 29.5 -11z" />
    <glyph glyph-name="kcommaaccent" unicode="&#x137;" horiz-adv-x="523" 
d="M182 395c27.333 47.333 57.501 82.334 90.501 105.001s67.833 34 104.5 34c36 0 65 -10.167 87 -30.5s33 -47.5 33 -81.5c0 -42.667 -14.667 -79.834 -44 -111.501s-72 -56.5 -128 -74.5l119 -236h-65l-125 254c61.333 17.333 107 39.333 137 66s45 59 45 97
c0 22 -6 39.167 -18 51.5s-30 18.5 -54 18.5c-36 0 -70.833 -15.833 -104.5 -47.5s-63.834 -76.5 -90.501 -134.5l-43 -305h-58l104 736l59 8zM261.501 -95.999c7 -7.33301 10.5 -16.668 10.5 -28.001c0 -9.33301 -1.83301 -18.5 -5.5 -27.5s-11.834 -23.833 -24.501 -44.5
l-52 -83h-36l49 115c-5.33301 4 -9.66602 9 -12.999 15s-5 12.333 -5 19c0 12.667 4.5 23.334 13.5 32.001s20.167 13 33.5 13c12.667 0 22.5 -3.66699 29.5 -11z" />
    <glyph glyph-name="kgreenlandic" unicode="&#x138;" horiz-adv-x="487" 
d="M200 523l-74 -523h-58l74 523h58zM491 523l-253 -248l201 -275h-67l-202 276l250 247h71z" />
    <glyph glyph-name="Lacute" unicode="&#x139;" horiz-adv-x="472" 
d="M230 685l-89 -631h285l-16 -54h-337l97 685h60zM300 886l20 -53l-206 -75l-14 34z" />
    <glyph glyph-name="lacute" unicode="&#x13a;" horiz-adv-x="282" 
d="M134 88c-0.666992 -3.33301 -1.00098 -8.00098 -1.00098 -14.001c0 -12 2.66699 -20.833 8 -26.5s14 -8.5 26 -8.5c10.667 0 23.334 2.66699 38.001 8l13 -44c-20.667 -9.33301 -40.667 -14 -60 -14c-26 0 -46.167 6.83301 -60.5 20.5s-21.5 33.834 -21.5 60.501
c0 4.66699 0.666992 13.667 2 27l90 639l58 8zM296.999 936.999l20 -53l-206 -75l-14 34z" />
    <glyph glyph-name="Lcommaaccent" unicode="&#x13b;" horiz-adv-x="472" 
d="M230 685l-89 -631h285l-16 -54h-337l97 685h60zM262.5 -96c7 -7.33301 10.5 -16.668 10.5 -28.001c0 -9.33301 -1.83301 -18.5 -5.5 -27.5s-11.834 -23.833 -24.501 -44.5l-52 -83h-36l49 115c-5.33301 4 -9.66602 9 -12.999 15s-5 12.333 -5 19
c0 12.667 4.5 23.334 13.5 32.001s20.167 13 33.5 13c12.667 0 22.5 -3.66699 29.5 -11z" />
    <glyph glyph-name="lcommaaccent" unicode="&#x13c;" horiz-adv-x="282" 
d="M134 88c-0.666992 -3.33301 -1.00098 -8.00098 -1.00098 -14.001c0 -12 2.66699 -20.833 8 -26.5s14 -8.5 26 -8.5c10.667 0 23.334 2.66699 38.001 8l13 -44c-20.667 -9.33301 -40.667 -14 -60 -14c-26 0 -46.167 6.83301 -60.5 20.5s-21.5 33.834 -21.5 60.501
c0 4.66699 0.666992 13.667 2 27l90 639l58 8zM166.499 -96.001c7 -7.33301 10.5 -16.668 10.5 -28.001c0 -9.33301 -1.83301 -18.5 -5.5 -27.5s-11.834 -23.833 -24.501 -44.5l-52 -83h-36l49 115c-5.33301 4 -9.66602 9 -12.999 15s-5 12.333 -5 19
c0 12.667 4.5 23.334 13.5 32.001s20.167 13 33.5 13c12.667 0 22.5 -3.66699 29.5 -11z" />
    <glyph glyph-name="Lcaron" unicode="&#x13d;" horiz-adv-x="472" 
d="M230 685l-89 -631h285l-16 -54h-337l97 685h60zM317 691l55 -6l-60 -164l-35 5z" />
    <glyph glyph-name="lcaron" unicode="&#x13e;" horiz-adv-x="282" 
d="M134 88c-0.666992 -3.33301 -1.00098 -8.00098 -1.00098 -14.001c0 -12 2.66699 -20.833 8 -26.5s14 -8.5 26 -8.5c10.667 0 23.334 2.66699 38.001 8l13 -44c-20.667 -9.33301 -40.667 -14 -60 -14c-26 0 -46.167 6.83301 -60.5 20.5s-21.5 33.834 -21.5 60.501
c0 4.66699 0.666992 13.667 2 27l90 639l58 8zM299.999 741.999l55 -6l-60 -164l-35 5z" />
    <glyph glyph-name="Ldot" unicode="&#x13f;" horiz-adv-x="472" 
d="M230 685l-89 -631h285l-16 -54h-337l97 685h60zM349 338.5c-7.33301 7 -11 16.167 -11 27.5c0 13.333 4.5 24.333 13.5 33s20.167 13 33.5 13c12 0 21.667 -3.5 29 -10.5s11 -16.167 11 -27.5c0 -13.333 -4.5 -24.333 -13.5 -33s-20.167 -13 -33.5 -13
c-12 0 -21.667 3.5 -29 10.5z" />
    <glyph glyph-name="ldot" unicode="&#x140;" horiz-adv-x="300" 
d="M134 88c-0.666992 -3.33301 -1.00098 -8.00098 -1.00098 -14.001c0 -12 2.66699 -20.833 8 -26.5s14 -8.5 26 -8.5c10.667 0 23.334 2.66699 38.001 8l13 -44c-20.667 -9.33301 -40.667 -14 -60 -14c-26 0 -46.167 6.83301 -60.5 20.5s-21.5 33.834 -21.5 60.501
c0 4.66699 0.666992 13.667 2 27l90 639l58 8zM258.999 344.499c-7.33301 7 -11 16.167 -11 27.5c0 13.333 4.5 24.333 13.5 33s20.167 13 33.5 13c12 0 21.667 -3.5 29 -10.5s11 -16.167 11 -27.5c0 -13.333 -4.5 -24.333 -13.5 -33s-20.167 -13 -33.5 -13
c-12 0 -21.667 3.5 -29 10.5z" />
    <glyph glyph-name="Lslash" unicode="&#x141;" horiz-adv-x="483" 
d="M152 54h285l-16 -54h-337l39 279l-66 -38l-21 40l96 56l49 348h60l-44 -310l194 112l21 -41l-223 -129z" />
    <glyph glyph-name="lslash" unicode="&#x142;" horiz-adv-x="289" 
d="M205 47l12.999 -44.001c-20.667 -9.33301 -40.667 -14 -60 -14c-26 0 -46.167 6.83301 -60.5 20.5s-21.5 33.834 -21.5 60.501c0 4.66699 0.666992 13.667 2 27l32 229l-56 -32l-16 43l80 46l50 353l58 8l-46 -326l101 58l16 -43l-125 -71l-38 -274
c-0.666992 -3.33301 -1 -8 -1 -14c0 -12 2.66699 -20.833 8 -26.5s14 -8.5 26 -8.5c10.667 0 23.334 2.66699 38.001 8z" />
    <glyph glyph-name="Nacute" unicode="&#x143;" horiz-adv-x="670" 
d="M523 0l-77 0.000976562l-236 631c-2 -62.667 -10.667 -146.334 -26 -251.001l-54 -380h-57l97 685h78l236 -629c2 67.333 8.66699 139 20 215l58 414h57zM504 886.001l20 -53l-206 -75l-14 34z" />
    <glyph glyph-name="nacute" unicode="&#x144;" horiz-adv-x="581" 
d="M467 501c21.333 -22 32.002 -53.332 32.002 -93.999c0 -12 -1 -24.667 -3 -38l-52 -369h-58l52 367c1.33301 8 2 19 2 33c0 56.667 -25.333 85 -76 85c-67.333 0 -132 -57.333 -194 -172l-44 -313h-58l74 523h50l-14 -130c27.333 45.333 57.666 80.166 90.999 104.499
s69 36.5 107 36.5c39.333 0 69.666 -11 90.999 -33zM445.002 783.001l20 -53l-206 -85l-15 33z" />
    <glyph glyph-name="Ncommaaccent" unicode="&#x145;" horiz-adv-x="670" 
d="M523 0l-77 0.000976562l-236 631c-2 -62.667 -10.667 -146.334 -26 -251.001l-54 -380h-57l97 685h78l236 -629c2 67.333 8.66699 139 20 215l58 414h57zM319.5 -95.999c7 -7.33301 10.5 -16.668 10.5 -28.001c0 -9.33301 -1.83301 -18.5 -5.5 -27.5
s-11.834 -23.833 -24.501 -44.5l-52 -83h-36l49 115c-5.33301 4 -9.66602 9 -12.999 15s-5 12.333 -5 19c0 12.667 4.5 23.334 13.5 32.001s20.167 13 33.5 13c12.667 0 22.5 -3.66699 29.5 -11z" />
    <glyph glyph-name="ncommaaccent" unicode="&#x146;" horiz-adv-x="581" 
d="M467 501c21.333 -22 32.002 -53.332 32.002 -93.999c0 -12 -1 -24.667 -3 -38l-52 -369h-58l52 367c1.33301 8 2 19 2 33c0 56.667 -25.333 85 -76 85c-67.333 0 -132 -57.333 -194 -172l-44 -313h-58l74 523h50l-14 -130c27.333 45.333 57.666 80.166 90.999 104.499
s69 36.5 107 36.5c39.333 0 69.666 -11 90.999 -33zM272.502 -95.999c7 -7.33301 10.5 -16.668 10.5 -28.001c0 -9.33301 -1.83301 -18.5 -5.5 -27.5s-11.834 -23.833 -24.501 -44.5l-52 -83h-36l49 115c-5.33301 4 -9.66602 9 -12.999 15s-5 12.333 -5 19
c0 12.667 4.5 23.334 13.5 32.001s20.167 13 33.5 13c12.667 0 22.5 -3.66699 29.5 -11z" />
    <glyph glyph-name="Ncaron" unicode="&#x147;" horiz-adv-x="670" 
d="M523 0l-77 0.000976562l-236 631c-2 -62.667 -10.667 -146.334 -26 -251.001l-54 -380h-57l97 685h78l236 -629c2 67.333 8.66699 139 20 215l58 414h57zM551 888.001l23 -30l-142 -102h-36l-116 102l29 29l110 -79z" />
    <glyph glyph-name="ncaron" unicode="&#x148;" horiz-adv-x="581" 
d="M467 501c21.333 -22 32.002 -53.332 32.002 -93.999c0 -12 -1 -24.667 -3 -38l-52 -369h-58l52 367c1.33301 8 2 19 2 33c0 56.667 -25.333 85 -76 85c-67.333 0 -132 -57.333 -194 -172l-44 -313h-58l74 523h50l-14 -130c27.333 45.333 57.666 80.166 90.999 104.499
s69 36.5 107 36.5c39.333 0 69.666 -11 90.999 -33zM480.002 769.001l23 -30l-143 -106h-36l-115 106l27 30l110 -84z" />
    <glyph glyph-name="napostrophe" unicode="&#x149;" horiz-adv-x="666" 
d="M192 733.5c7.33301 -7.66699 11 -16.833 11 -27.5c0 -9.33301 -1.83301 -18.5 -5.5 -27.5s-11.5 -23.5 -23.5 -43.5l-50 -88h-36l47 119c-12.667 9.33301 -19 21 -19 35c0 12 4.5 22.333 13.5 31s19.833 13 32.5 13s22.667 -3.83301 30 -11.5zM552 501.001
c21.333 -22 32.002 -53.332 32.002 -93.999c0 -12 -1 -24.667 -3 -38l-52 -369h-58l52 367c1.33301 8 2 19 2 33c0 56.667 -25.333 85 -76 85c-67.333 0 -132 -57.333 -194 -172l-44 -313h-58l74 523h50l-14 -130c27.333 45.333 57.666 80.166 90.999 104.499
s69 36.5 107 36.5c39.333 0 69.666 -11 90.999 -33z" />
    <glyph glyph-name="Eng" unicode="&#x14a;" horiz-adv-x="670" 
d="M619 685l-95.999 -684.999l-11 -72c-6 -44.667 -21.5 -78 -46.5 -100s-56.5 -33 -94.5 -33c-37.333 0 -70.333 11.667 -99 35l28 38c10.667 -8 21.167 -13.833 31.5 -17.5s23.166 -5.5 38.499 -5.5c21.333 0 39.333 6.83301 54 20.5s24 35.167 28 64.5l11 70h-17
l-236 631c-2 -62.667 -10.667 -146.334 -26 -251.001l-54 -380h-57l97 685h78l236 -629c2 67.333 8.66699 139 20 215l58 414h57z" />
    <glyph glyph-name="eng" unicode="&#x14b;" horiz-adv-x="581" 
d="M467 501c21.333 -22 32.001 -53.332 32.001 -93.999c0 -12 -1 -24.667 -3 -38l-52 -369l-11 -72c-6 -44 -21.667 -77.167 -47 -99.5s-56.666 -33.5 -93.999 -33.5s-70.333 11.667 -99 35l28 36c11.333 -8 22 -13.833 32 -17.5s22.333 -5.5 37 -5.5
c22.667 0 41.5 6.83301 56.5 20.5s24.5 35.167 28.5 64.5l11 72l52 367c1.33301 8 2 19 2 33c0 56.667 -25.333 85 -76 85c-67.333 0 -132 -57.333 -194 -172l-44 -313h-58l74 523h50l-14 -130c27.333 45.333 57.666 80.166 90.999 104.499s69 36.5 107 36.5
c39.333 0 69.666 -11 90.999 -33z" />
    <glyph glyph-name="Omacron" unicode="&#x14c;" horiz-adv-x="688" 
d="M577 625.5c42 -47 63 -114.167 63 -201.5c0 -66.667 -11 -133.334 -33 -200.001s-57.833 -122.5 -107.5 -167.5s-113.167 -67.5 -190.5 -67.5c-73.333 0 -131.333 23.667 -174 71s-64 114.666 -64 201.999c0 64.667 11.333 130.334 34 197.001s59 122.834 109 168.501
s113.333 68.5 190 68.5c73.333 0 131 -23.5 173 -70.5zM245.5 583.5c-39.667 -41 -68.166 -90.834 -85.499 -149.501s-26 -116.667 -26 -174c0 -73.333 15.5 -128.166 46.5 -164.499s74.167 -54.5 129.5 -54.5c65.333 0 118 20.5 158 61.5s68.333 90.833 85 149.5
s25 117 25 175c0 72.667 -15.333 127.167 -46 163.5s-74.334 54.5 -131.001 54.5c-64 0 -115.833 -20.5 -155.5 -61.5zM542.001 801.999h-240l7 47h240z" />
    <glyph glyph-name="omacron" unicode="&#x14d;" horiz-adv-x="569" 
d="M109.5 45c-33 37.333 -49.502 89.333 -49.502 156c0 50 8.66699 100.5 26 151.5s45.5 94 84.5 129s89.167 52.5 150.5 52.5c60.667 0 107.334 -18.333 140.001 -55s49 -88.334 49 -155.001c0 -49.333 -8.5 -99.666 -25.5 -150.999s-45.167 -94.833 -84.5 -130.5
s-89.666 -53.5 -150.999 -53.5c-60 0 -106.5 18.667 -139.5 56zM366.498 84c29.667 30.667 50.833 68.168 63.5 112.501s19 88.166 19 131.499c0 52 -11 91.333 -33 118s-54 40 -96 40c-48 0 -87 -15.5 -117 -46.5s-51.333 -68.833 -64 -113.5s-19 -88 -19 -130
c0 -52 11.333 -91.333 34 -118s55 -40 97 -40c47.333 0 85.833 15.333 115.5 46zM462.997 676.001h-240l7 47h240z" />
    <glyph glyph-name="Obreve" unicode="&#x14e;" horiz-adv-x="688" 
d="M577 625.5c42 -47 63 -114.167 63 -201.5c0 -66.667 -11 -133.334 -33 -200.001s-57.833 -122.5 -107.5 -167.5s-113.167 -67.5 -190.5 -67.5c-73.333 0 -131.333 23.667 -174 71s-64 114.666 -64 201.999c0 64.667 11.333 130.334 34 197.001s59 122.834 109 168.501
s113.333 68.5 190 68.5c73.333 0 131 -23.5 173 -70.5zM245.5 583.5c-39.667 -41 -68.166 -90.834 -85.499 -149.501s-26 -116.667 -26 -174c0 -73.333 15.5 -128.166 46.5 -164.499s74.167 -54.5 129.5 -54.5c65.333 0 118 20.5 158 61.5s68.333 90.833 85 149.5
s25 117 25 175c0 72.667 -15.333 127.167 -46 163.5s-74.334 54.5 -131.001 54.5c-64 0 -115.833 -20.5 -155.5 -61.5zM330.501 793.499c-21.667 19.667 -32.8311 44.167 -33.498 73.5l39 6c4 -19.333 12.667 -34.333 26 -45s31.333 -16 54 -16
c23.333 0 43.666 5.83301 60.999 17.5s30.666 26.834 39.999 45.501l39 -12c-8 -28.667 -25.167 -52.334 -51.5 -71.001s-56.166 -28 -89.499 -28c-34.667 0 -62.834 9.83301 -84.501 29.5z" />
    <glyph glyph-name="obreve" unicode="&#x14f;" horiz-adv-x="569" 
d="M109.5 45c-33 37.333 -49.502 89.333 -49.502 156c0 50 8.66699 100.5 26 151.5s45.5 94 84.5 129s89.167 52.5 150.5 52.5c60.667 0 107.334 -18.333 140.001 -55s49 -88.334 49 -155.001c0 -49.333 -8.5 -99.666 -25.5 -150.999s-45.167 -94.833 -84.5 -130.5
s-89.666 -53.5 -150.999 -53.5c-60 0 -106.5 18.667 -139.5 56zM366.498 84c29.667 30.667 50.833 68.168 63.5 112.501s19 88.166 19 131.499c0 52 -11 91.333 -33 118s-54 40 -96 40c-48 0 -87 -15.5 -117 -46.5s-51.333 -68.833 -64 -113.5s-19 -88 -19 -130
c0 -52 11.333 -91.333 34 -118s55 -40 97 -40c47.333 0 85.833 15.333 115.5 46zM253.997 684.001c-21.333 20.667 -32.002 47.667 -32.002 81l41 6c3.33301 -24 11.333 -41.667 24 -53s30.334 -17 53.001 -17c24 0 45 6.33301 63 19s31.333 30.667 40 54l39 -12
c-8.66699 -33.333 -26.167 -59.833 -52.5 -79.5s-56.5 -29.5 -90.5 -29.5c-35.333 0 -63.666 10.333 -84.999 31z" />
    <glyph glyph-name="Ohungarumlaut" unicode="&#x150;" horiz-adv-x="688" 
d="M577 625.5c42 -47 63 -114.167 63 -201.5c0 -66.667 -11 -133.334 -33 -200.001s-57.833 -122.5 -107.5 -167.5s-113.167 -67.5 -190.5 -67.5c-73.333 0 -131.333 23.667 -174 71s-64 114.666 -64 201.999c0 64.667 11.333 130.334 34 197.001s59 122.834 109 168.501
s113.333 68.5 190 68.5c73.333 0 131 -23.5 173 -70.5zM245.5 583.5c-39.667 -41 -68.166 -90.834 -85.499 -149.501s-26 -116.667 -26 -174c0 -73.333 15.5 -128.166 46.5 -164.499s74.167 -54.5 129.5 -54.5c65.333 0 118 20.5 158 61.5s68.333 90.833 85 149.5
s25 117 25 175c0 72.667 -15.333 127.167 -46 163.5s-74.334 54.5 -131.001 54.5c-64 0 -115.833 -20.5 -155.5 -61.5zM422.001 936.999l49 -28l-103 -136l-36 17zM551.001 936.999l50 -27l-112 -142l-37 18z" />
    <glyph glyph-name="ohungarumlaut" unicode="&#x151;" horiz-adv-x="569" 
d="M109.5 45c-33 37.333 -49.502 89.333 -49.502 156c0 50 8.66699 100.5 26 151.5s45.5 94 84.5 129s89.167 52.5 150.5 52.5c60.667 0 107.334 -18.333 140.001 -55s49 -88.334 49 -155.001c0 -49.333 -8.5 -99.666 -25.5 -150.999s-45.167 -94.833 -84.5 -130.5
s-89.666 -53.5 -150.999 -53.5c-60 0 -106.5 18.667 -139.5 56zM366.498 84c29.667 30.667 50.833 68.168 63.5 112.501s19 88.166 19 131.499c0 52 -11 91.333 -33 118s-54 40 -96 40c-48 0 -87 -15.5 -117 -46.5s-51.333 -68.833 -64 -113.5s-19 -88 -19 -130
c0 -52 11.333 -91.333 34 -118s55 -40 97 -40c47.333 0 85.833 15.333 115.5 46zM346.997 811.001l49 -28l-103 -136l-36 17zM475.997 811.001l50 -27l-112 -142l-37 18z" />
    <glyph glyph-name="OE" unicode="&#x152;" horiz-adv-x="866" 
d="M858 635l-319 0.000976562c26 -21.333 45.833 -50 59.5 -86s20.5 -78 20.5 -126c0 -8.66699 -0.666992 -23 -2 -43h168l-7 -50h-166c-8.66699 -56.667 -25.334 -109.667 -50.001 -159s-58 -89.333 -100 -120h329l-8 -51h-415c-21.333 -7.33301 -45 -11 -71 -11
c-68.667 0 -123.5 23.667 -164.5 71s-61.5 114.333 -61.5 201c0 63.333 11.333 128.666 34 195.999s57.834 124 105.501 170s107.5 69 179.5 69c24.667 0 48 -3.66699 70 -11h412zM513.5 592.001c-29.667 35.333 -70.5 53.001 -122.5 53.001
c-60 0 -109.333 -20.833 -148 -62.5s-66.667 -92.5 -84 -152.5s-26 -118.333 -26 -175c0 -70.667 15 -124 45 -160s70.333 -54 121 -54c61.333 0 111.5 21 150.5 63s66.833 93.167 83.5 153.5s25 119.5 25 177.5c0 69.333 -14.833 121.666 -44.5 156.999z" />
    <glyph glyph-name="oe" unicode="&#x153;" horiz-adv-x="894" 
d="M768 265.5c-62.667 -31 -151.667 -50.833 -267 -59.5v-6c0 -54.667 11.833 -95 35.5 -121s56.167 -39 97.5 -39c27.333 0 52.5 4.16699 75.5 12.5s47.167 21.5 72.5 39.5l26 -41c-28 -20.667 -56.5 -36.167 -85.5 -46.5s-59.833 -15.5 -92.5 -15.5
c-45.333 0 -82.666 11.333 -111.999 34s-50.666 55 -63.999 97c-20.667 -40 -47.834 -71.833 -81.501 -95.5s-74.834 -35.5 -123.501 -35.5c-60 0 -106.5 18.667 -139.5 56s-49.5 89.333 -49.5 156c0 50 8.66699 100.5 26 151.5s45.5 94 84.5 129s89.167 52.5 150.5 52.5
c45.333 0 82.5 -11.5 111.5 -34.5s49.5 -55.5 61.5 -97.5c21.333 40.667 49.333 72.834 84 96.501s76.334 35.5 125.001 35.5c49.333 0 88.166 -11.833 116.499 -35.5s42.5 -53.834 42.5 -90.501c0 -64 -31.333 -111.5 -94 -142.5zM366.5 84
c29.667 30.667 50.833 68.168 63.5 112.501s19 88.166 19 131.499c0 52 -11 91.333 -33 118s-54 40 -96 40c-48 0 -87 -15.5 -117 -46.5s-51.333 -68.833 -64 -113.5s-19 -88 -19 -130c0 -52 11.333 -91.333 34 -118s55 -40 97 -40c47.333 0 85.833 15.333 115.5 46z
M563.999 418.001c-32.667 -45.333 -52.666 -100.667 -59.999 -166c100 8 174.5 24 223.5 48s73.5 59.333 73.5 106c0 22.667 -8.33301 41.667 -25 57s-41.334 23 -74.001 23c-59.333 0 -105.333 -22.667 -138 -68z" />
    <glyph glyph-name="Racute" unicode="&#x154;" horiz-adv-x="587" 
d="M510 395c-29.333 -38.667 -75 -65 -137 -79l144 -316h-67l-136 307h-138l-43 -307h-60l97 685h168c144 0 216 -53.667 216 -161c0 -47.333 -14.667 -90.333 -44 -129zM302 356c66.667 0 114.833 16.668 144.5 50.001s44.5 72.666 44.5 117.999
c0 38.667 -12.5 67 -37.5 85s-64.833 27 -119.5 27h-111l-40 -280h119zM451.999 886.001l20 -53l-206 -75l-14 34z" />
    <glyph glyph-name="racute" unicode="&#x155;" horiz-adv-x="371" 
d="M395 527l-16 -55c-12 4 -26 6 -42 6c-36.667 0 -68.167 -15 -94.5 -45s-50.833 -75 -73.5 -135l-43 -298h-58l74 523h50l-13 -127c40.667 92 96 138 166 138c19.333 0 36 -2.33301 50 -7zM386 783l20 -53l-206 -85l-15 33z" />
    <glyph glyph-name="Rcommaaccent" unicode="&#x156;" horiz-adv-x="587" 
d="M510 395c-29.333 -38.667 -75 -65 -137 -79l144 -316h-67l-136 307h-138l-43 -307h-60l97 685h168c144 0 216 -53.667 216 -161c0 -47.333 -14.667 -90.333 -44 -129zM302 356c66.667 0 114.833 16.668 144.5 50.001s44.5 72.666 44.5 117.999
c0 38.667 -12.5 67 -37.5 85s-64.833 27 -119.5 27h-111l-40 -280h119zM288.499 -95.999c7 -7.33301 10.5 -16.668 10.5 -28.001c0 -9.33301 -1.83301 -18.5 -5.5 -27.5s-11.834 -23.833 -24.501 -44.5l-52 -83h-36l49 115c-5.33301 4 -9.66602 9 -12.999 15
s-5 12.333 -5 19c0 12.667 4.5 23.334 13.5 32.001s20.167 13 33.5 13c12.667 0 22.5 -3.66699 29.5 -11z" />
    <glyph glyph-name="rcommaaccent" unicode="&#x157;" horiz-adv-x="371" 
d="M395 527l-16 -55c-12 4 -26 6 -42 6c-36.667 0 -68.167 -15 -94.5 -45s-50.833 -75 -73.5 -135l-43 -298h-58l74 523h50l-13 -127c40.667 92 96 138 166 138c19.333 0 36 -2.33301 50 -7zM112.5 -96c7 -7.33301 10.5 -16.668 10.5 -28.001
c0 -9.33301 -1.83301 -18.5 -5.5 -27.5s-11.834 -23.833 -24.501 -44.5l-52 -83h-36l49 115c-5.33301 4 -9.66602 9 -12.999 15s-5 12.333 -5 19c0 12.667 4.5 23.334 13.5 32.001s20.167 13 33.5 13c12.667 0 22.5 -3.66699 29.5 -11z" />
    <glyph glyph-name="Rcaron" unicode="&#x158;" horiz-adv-x="587" 
d="M510 395c-29.333 -38.667 -75 -65 -137 -79l144 -316h-67l-136 307h-138l-43 -307h-60l97 685h168c144 0 216 -53.667 216 -161c0 -47.333 -14.667 -90.333 -44 -129zM302 356c66.667 0 114.833 16.668 144.5 50.001s44.5 72.666 44.5 117.999
c0 38.667 -12.5 67 -37.5 85s-64.833 27 -119.5 27h-111l-40 -280h119zM498.999 888.001l23 -30l-142 -102h-36l-116 102l29 29l110 -79z" />
    <glyph glyph-name="rcaron" unicode="&#x159;" horiz-adv-x="371" 
d="M395 527l-16 -55c-12 4 -26 6 -42 6c-36.667 0 -68.167 -15 -94.5 -45s-50.833 -75 -73.5 -135l-43 -298h-58l74 523h50l-13 -127c40.667 92 96 138 166 138c19.333 0 36 -2.33301 50 -7zM421 769l23 -30l-143 -106h-36l-115 106l27 30l110 -84z" />
    <glyph glyph-name="Sacute" unicode="&#x15a;" horiz-adv-x="536" 
d="M429 676.5c30 -13 57.334 -32.165 82.001 -57.498l-38 -37c-21.333 22.667 -43.833 38.834 -67.5 48.501s-50.834 14.5 -81.501 14.5c-48 0 -87 -11.833 -117 -35.5s-45 -54.834 -45 -93.501c0 -31.333 10.167 -56 30.5 -74s56.5 -35.667 108.5 -53
c58 -18 101.5 -40.833 130.5 -68.5s43.5 -66.167 43.5 -115.5c0 -36 -9 -70.333 -27 -103s-46.167 -59.667 -84.5 -81s-85.833 -32 -142.5 -32c-45.333 0 -84.833 7.66699 -118.5 23s-63.5 37 -89.5 65l38 36c22.667 -24 47.667 -42 75 -54s59.333 -18 96 -18
c42 0 77.333 7.66699 106 23s50 35.166 64 59.499s21 50.5 21 78.5c0 34.667 -10.333 62.167 -31 82.5s-56.667 39.166 -108 56.499c-61.333 20.667 -105.333 43.667 -132 69s-40 60 -40 104c0 30.667 8.66699 60 26 88s42.833 50.667 76.5 68s73.5 26 119.5 26
c40 0 75 -6.5 105 -19.5zM430.001 886.002l20 -53l-206 -75l-14 34z" />
    <glyph glyph-name="sacute" unicode="&#x15b;" horiz-adv-x="461" 
d="M421 475l-31 -34.998c-20 15.333 -40.333 26.666 -61 33.999s-43.667 11 -69 11c-37.333 0 -67.333 -7.83301 -90 -23.5s-34 -37.167 -34 -64.5c0 -22.667 8.5 -41.167 25.5 -55.5s46.833 -27.833 89.5 -40.5c51.333 -16 88.5 -35.667 111.5 -59s34.5 -54 34.5 -92
c0 -48.667 -18.333 -87.667 -55 -117s-86 -44 -148 -44c-40.667 0 -75.834 6.33301 -105.501 19s-56.167 30 -79.5 52l33 34c22.667 -18.667 46 -32.667 70 -42s51.333 -14 82 -14c45.333 0 80.5 9.83301 105.5 29.5s37.5 45.5 37.5 77.5c0 28 -8.5 49.667 -25.5 65
s-48.5 30.333 -94.5 45c-51.333 16 -87.5 34.833 -108.5 56.5s-31.5 49.167 -31.5 82.5c0 25.333 7.33301 48.666 22 69.999s35.834 38.333 63.501 51s60.167 19 97.5 19c62 0 115.667 -19.667 161 -59zM387 783.002l20 -53l-206 -85l-15 33z" />
    <glyph glyph-name="Scircumflex" unicode="&#x15c;" horiz-adv-x="536" 
d="M429 676.5c30 -13 57.334 -32.165 82.001 -57.498l-38 -37c-21.333 22.667 -43.833 38.834 -67.5 48.501s-50.834 14.5 -81.501 14.5c-48 0 -87 -11.833 -117 -35.5s-45 -54.834 -45 -93.501c0 -31.333 10.167 -56 30.5 -74s56.5 -35.667 108.5 -53
c58 -18 101.5 -40.833 130.5 -68.5s43.5 -66.167 43.5 -115.5c0 -36 -9 -70.333 -27 -103s-46.167 -59.667 -84.5 -81s-85.833 -32 -142.5 -32c-45.333 0 -84.833 7.66699 -118.5 23s-63.5 37 -89.5 65l38 36c22.667 -24 47.667 -42 75 -54s59.333 -18 96 -18
c42 0 77.333 7.66699 106 23s50 35.166 64 59.499s21 50.5 21 78.5c0 34.667 -10.333 62.167 -31 82.5s-56.667 39.166 -108 56.499c-61.333 20.667 -105.333 43.667 -132 69s-40 60 -40 104c0 30.667 8.66699 60 26 88s42.833 50.667 76.5 68s73.5 26 119.5 26
c40 0 75 -6.5 105 -19.5zM217.001 762.002l-24 31l142 101h37l114 -102l-27 -30l-110 80z" />
    <glyph glyph-name="scircumflex" unicode="&#x15d;" horiz-adv-x="461" 
d="M421 475l-31 -34.998c-20 15.333 -40.333 26.666 -61 33.999s-43.667 11 -69 11c-37.333 0 -67.333 -7.83301 -90 -23.5s-34 -37.167 -34 -64.5c0 -22.667 8.5 -41.167 25.5 -55.5s46.833 -27.833 89.5 -40.5c51.333 -16 88.5 -35.667 111.5 -59s34.5 -54 34.5 -92
c0 -48.667 -18.333 -87.667 -55 -117s-86 -44 -148 -44c-40.667 0 -75.834 6.33301 -105.501 19s-56.167 30 -79.5 52l33 34c22.667 -18.667 46 -32.667 70 -42s51.333 -14 82 -14c45.333 0 80.5 9.83301 105.5 29.5s37.5 45.5 37.5 77.5c0 28 -8.5 49.667 -25.5 65
s-48.5 30.333 -94.5 45c-51.333 16 -87.5 34.833 -108.5 56.5s-31.5 49.167 -31.5 82.5c0 25.333 7.33301 48.666 22 69.999s35.834 38.333 63.501 51s60.167 19 97.5 19c62 0 115.667 -19.667 161 -59zM167 643.002l-26 31l144 106h36l114 -106l-28 -31l-110 85z" />
    <glyph glyph-name="Scedilla" unicode="&#x15e;" horiz-adv-x="536" 
d="M431.5 320.5c29 -27.667 43.501 -66.1641 43.501 -115.497c0 -34 -8.33301 -67 -25 -99s-42.5 -58.667 -77.5 -80s-78.5 -33.333 -130.5 -36l-9 -54c28 -2.66699 48.833 -10.167 62.5 -22.5s20.5 -29.166 20.5 -50.499c0 -26.667 -10.5 -48.334 -31.5 -65.001
s-48.167 -25 -81.5 -25c-32.667 0 -59.334 7.33301 -80.001 22l21 35c18.667 -10 38.334 -15 59.001 -15c18 0 32.833 4 44.5 12s17.5 19.667 17.5 35s-6 26.166 -18 32.499s-33.333 9.5 -64 9.5l19 85c-40.667 2.66699 -76.167 11.5 -106.5 26.5s-57.833 35.5 -82.5 61.5
l38 36c22.667 -24 47.667 -42 75 -54s59.333 -18 96 -18c42 0 77.333 7.66699 106 23s50 35.166 64 59.499s21 50.5 21 78.5c0 34.667 -10.333 62.167 -31 82.5s-56.667 39.166 -108 56.499c-61.333 20.667 -105.333 43.667 -132 69s-40 60 -40 104
c0 30.667 8.66699 60 26 88s42.833 50.667 76.5 68s73.5 26 119.5 26c40 0 75 -6.5 105 -19.5s57.333 -32.167 82 -57.5l-38 -37c-21.333 22.667 -43.833 38.834 -67.5 48.501s-50.834 14.5 -81.501 14.5c-48 0 -87 -11.833 -117 -35.5s-45 -54.834 -45 -93.501
c0 -31.333 10.167 -56 30.5 -74s56.5 -35.667 108.5 -53c58 -18 101.5 -40.833 130.5 -68.5z" />
    <glyph glyph-name="scedilla" unicode="&#x15f;" horiz-adv-x="461" 
d="M362.5 242c23 -23.333 34.499 -53.9961 34.499 -91.9961c0 -46.667 -17 -84.5 -51 -113.5s-80.333 -44.833 -139 -47.5l-9 -53c28 -2.66699 48.833 -10.167 62.5 -22.5s20.5 -29.166 20.5 -50.499c0 -26.667 -10.5 -48.334 -31.5 -65.001s-48.167 -25 -81.5 -25
c-32.667 0 -59.334 7.33301 -80.001 22l21 35c18.667 -10 38.334 -15 59.001 -15c18 0 32.833 4 44.5 12s17.5 19.667 17.5 35s-6 26.166 -18 32.499s-33.333 9.5 -64 9.5l19 86c-61.333 5.33301 -114 28.666 -158 69.999l33 34c22.667 -18.667 46 -32.667 70 -42
s51.333 -14 82 -14c45.333 0 80.5 9.83301 105.5 29.5s37.5 45.5 37.5 77.5c0 28 -8.5 49.667 -25.5 65s-48.5 30.333 -94.5 45c-51.333 16 -87.5 34.833 -108.5 56.5s-31.5 49.167 -31.5 82.5c0 25.333 7.33301 48.666 22 69.999s35.834 38.333 63.501 51
s60.167 19 97.5 19c62 0 115.667 -19.667 161 -59l-31 -35c-20 15.333 -40.333 26.666 -61 33.999s-43.667 11 -69 11c-37.333 0 -67.333 -7.83301 -90 -23.5s-34 -37.167 -34 -64.5c0 -22.667 8.5 -41.167 25.5 -55.5s46.833 -27.833 89.5 -40.5
c51.333 -16 88.5 -35.667 111.5 -59z" />
    <glyph glyph-name="Scaron" unicode="&#x160;" horiz-adv-x="536" 
d="M429 676.5c30 -13 57.334 -32.165 82.001 -57.498l-38 -37c-21.333 22.667 -43.833 38.834 -67.5 48.501s-50.834 14.5 -81.501 14.5c-48 0 -87 -11.833 -117 -35.5s-45 -54.834 -45 -93.501c0 -31.333 10.167 -56 30.5 -74s56.5 -35.667 108.5 -53
c58 -18 101.5 -40.833 130.5 -68.5s43.5 -66.167 43.5 -115.5c0 -36 -9 -70.333 -27 -103s-46.167 -59.667 -84.5 -81s-85.833 -32 -142.5 -32c-45.333 0 -84.833 7.66699 -118.5 23s-63.5 37 -89.5 65l38 36c22.667 -24 47.667 -42 75 -54s59.333 -18 96 -18
c42 0 77.333 7.66699 106 23s50 35.166 64 59.499s21 50.5 21 78.5c0 34.667 -10.333 62.167 -31 82.5s-56.667 39.166 -108 56.499c-61.333 20.667 -105.333 43.667 -132 69s-40 60 -40 104c0 30.667 8.66699 60 26 88s42.833 50.667 76.5 68s73.5 26 119.5 26
c40 0 75 -6.5 105 -19.5zM477.001 888.002l23 -30l-142 -102h-36l-116 102l29 29l110 -79z" />
    <glyph glyph-name="scaron" unicode="&#x161;" horiz-adv-x="461" 
d="M421 475l-31 -34.998c-20 15.333 -40.333 26.666 -61 33.999s-43.667 11 -69 11c-37.333 0 -67.333 -7.83301 -90 -23.5s-34 -37.167 -34 -64.5c0 -22.667 8.5 -41.167 25.5 -55.5s46.833 -27.833 89.5 -40.5c51.333 -16 88.5 -35.667 111.5 -59s34.5 -54 34.5 -92
c0 -48.667 -18.333 -87.667 -55 -117s-86 -44 -148 -44c-40.667 0 -75.834 6.33301 -105.501 19s-56.167 30 -79.5 52l33 34c22.667 -18.667 46 -32.667 70 -42s51.333 -14 82 -14c45.333 0 80.5 9.83301 105.5 29.5s37.5 45.5 37.5 77.5c0 28 -8.5 49.667 -25.5 65
s-48.5 30.333 -94.5 45c-51.333 16 -87.5 34.833 -108.5 56.5s-31.5 49.167 -31.5 82.5c0 25.333 7.33301 48.666 22 69.999s35.834 38.333 63.501 51s60.167 19 97.5 19c62 0 115.667 -19.667 161 -59zM422 769.002l23 -30l-143 -106h-36l-115 106l27 30l110 -84z" />
    <glyph glyph-name="uni0162" unicode="&#x162;" horiz-adv-x="493" 
d="M543 685l-15 -53h-200l-89 -632h1l-11 -64c55.333 -4.66699 83 -27.667 83 -69c0 -26 -10.667 -48.167 -32 -66.5s-49 -27.5 -83 -27.5c-30.667 0 -57 7.33301 -79 22l23 35c14.667 -10 33 -15 55 -15c17.333 0 32.333 4.33301 45 13s19 20.667 19 36
c0 14.667 -6 25 -18 31s-33.333 9 -64 9l21 96h-20l89 632h-202l8 53h469z" />
    <glyph glyph-name="uni0163" unicode="&#x163;" horiz-adv-x="339" 
d="M144 129c-1.33301 -12 -2 -20.3311 -2 -24.998c0 -43.333 20.667 -65 62 -65c25.333 0 53.666 8.33301 84.999 25l20 -43c-33.333 -18.667 -65.666 -29 -96.999 -31l-9 -54c28 -2.66699 48.833 -10.167 62.5 -22.5s20.5 -29.166 20.5 -50.499
c0 -26.667 -10.5 -48.334 -31.5 -65.001s-48.167 -25 -81.5 -25c-32.667 0 -59.334 7.33301 -80.001 22l21 35c18.667 -10 38.334 -15 59.001 -15c18 0 32.833 4 44.5 12s17.5 19.667 17.5 35s-6 26.166 -18 32.499s-33.333 9.5 -64 9.5l19 87
c-28 4 -49.667 15.167 -65 33.5s-23 43.166 -23 74.499c0 12.667 0.666992 22.667 2 30l49 347h-88l7 47h89l29 127l46 5l-19 -132h135l-14 -47h-127z" />
    <glyph glyph-name="Tcaron" unicode="&#x164;" horiz-adv-x="493" 
d="M543 685l-15 -53h-200l-89 -632h-60l89 632h-202l8 53h469zM452 888l23 -30l-142 -102h-36l-116 102l29 29l110 -79z" />
    <glyph glyph-name="tcaron" unicode="&#x165;" horiz-adv-x="339" 
d="M144 129c-1.33301 -12 -1.99902 -20.333 -1.99902 -25c0 -43.333 20.667 -65 62 -65c25.333 0 53.666 8.33301 84.999 25l20 -43c-36 -21.333 -73.333 -32 -112 -32c-35.333 0 -63 9.5 -83 28.5s-30 46.167 -30 81.5c0 6.66699 0.666992 16.667 2 30l49 347h-88l7 47h89
l29 127l46 5l-19 -132h135l-14 -47h-127zM314.001 746l55 -6l-60 -164l-35 5z" />
    <glyph glyph-name="Tbar" unicode="&#x166;" horiz-adv-x="493" 
d="M528 632h-200l-35 -247h122l-7 -47h-121l-48 -338h-60l48 338h-122l7 47h121l35 247h-202l8 53h469z" />
    <glyph glyph-name="tbar" unicode="&#x167;" horiz-adv-x="339" 
d="M193 476l-17.999 -126h127l-14 -47h-120l-24 -174c-1.33301 -12 -2 -20.333 -2 -25c0 -43.333 20.667 -65 62 -65c25.333 0 53.666 8.33301 84.999 25l20 -43c-36 -21.333 -73.333 -32 -112 -32c-35.333 0 -63 9.5 -83 28.5s-30 46.167 -30 81.5
c0 6.66699 0.666992 16.667 2 30l25 174h-80l7 47h79l18 126h-88l7 47h89l29 127l46 5l-19 -132h135l-14 -47h-127z" />
    <glyph glyph-name="Utilde" unicode="&#x168;" horiz-adv-x="649" 
d="M542 212c-9.33301 -68 -35.668 -122.168 -79.001 -162.501s-101.333 -60.5 -174 -60.5c-65.333 0 -114.666 16.333 -147.999 49s-50 77 -50 133c0 14 1 29 3 45l66 469h60l-66 -468c-2 -14.667 -3 -29 -3 -43c0 -88.667 46.667 -133 140 -133c56 0 100 15.833 132 47.5
s52 75.834 60 132.501l65 464h60zM428.498 798.499c-9.66699 4.33301 -20.834 10.832 -33.501 19.499c-8.66699 6.66699 -16.5 11.667 -23.5 15s-14.167 5 -21.5 5c-12 0 -22.333 -3.16699 -31 -9.5s-19.334 -17.166 -32.001 -32.499l-33 22c30 44 62.333 66 97 66
c12 0 22.5 -2.16699 31.5 -6.5s19.833 -10.5 32.5 -18.5c12 -7.33301 21 -12.5 27 -15.5s12.667 -4.5 20 -4.5c10.667 0 20.834 3.5 30.501 10.5s20.167 18.167 31.5 33.5l36 -21c-29.333 -46.667 -61.666 -70 -96.999 -70c-13.333 0 -24.833 2.16699 -34.5 6.5z" />
    <glyph glyph-name="utilde" unicode="&#x169;" horiz-adv-x="577" 
d="M114.5 22c-21.667 22 -32.501 53.001 -32.501 93.001c0 11.333 1 23.333 3 36l52 372h58l-52 -370c-1.33301 -8 -2 -18.667 -2 -32c0 -56 25.333 -84 76 -84c36.667 0 70.834 15.167 102.501 45.5s60.167 70.5 85.5 120.5l45 320h58l-74 -523h-48l14 133
c-24 -44.667 -52.167 -79.834 -84.5 -105.501s-68.833 -38.5 -109.5 -38.5c-39.333 0 -69.833 11 -91.5 33zM371.499 672.501c-9.66699 4.33301 -20.834 10.832 -33.501 19.499c-8.66699 6.66699 -16.5 11.667 -23.5 15s-14.167 5 -21.5 5c-12 0 -22.333 -3.16699 -31 -9.5
s-19.334 -17.166 -32.001 -32.499l-33 22c30 44 62.333 66 97 66c12 0 22.5 -2.16699 31.5 -6.5s19.833 -10.5 32.5 -18.5c12 -7.33301 21 -12.5 27 -15.5s12.667 -4.5 20 -4.5c10.667 0 20.834 3.5 30.501 10.5s20.167 18.167 31.5 33.5l36 -21
c-29.333 -46.667 -61.666 -70 -96.999 -70c-13.333 0 -24.833 2.16699 -34.5 6.5z" />
    <glyph glyph-name="Umacron" unicode="&#x16a;" horiz-adv-x="649" 
d="M542 212c-9.33301 -68 -35.668 -122.168 -79.001 -162.501s-101.333 -60.5 -174 -60.5c-65.333 0 -114.666 16.333 -147.999 49s-50 77 -50 133c0 14 1 29 3 45l66 469h60l-66 -468c-2 -14.667 -3 -29 -3 -43c0 -88.667 46.667 -133 140 -133c56 0 100 15.833 132 47.5
s52 75.834 60 132.501l65 464h60zM520.998 801.999h-240l7 47h240z" />
    <glyph glyph-name="umacron" unicode="&#x16b;" horiz-adv-x="577" 
d="M114.5 22c-21.667 22 -32.501 53.001 -32.501 93.001c0 11.333 1 23.333 3 36l52 372h58l-52 -370c-1.33301 -8 -2 -18.667 -2 -32c0 -56 25.333 -84 76 -84c36.667 0 70.834 15.167 102.501 45.5s60.167 70.5 85.5 120.5l45 320h58l-74 -523h-48l14 133
c-24 -44.667 -52.167 -79.834 -84.5 -105.501s-68.833 -38.5 -109.5 -38.5c-39.333 0 -69.833 11 -91.5 33zM463.999 676.001h-240l7 47h240z" />
    <glyph glyph-name="Ubreve" unicode="&#x16c;" horiz-adv-x="649" 
d="M542 212c-9.33301 -68 -35.668 -122.168 -79.001 -162.501s-101.333 -60.5 -174 -60.5c-65.333 0 -114.666 16.333 -147.999 49s-50 77 -50 133c0 14 1 29 3 45l66 469h60l-66 -468c-2 -14.667 -3 -29 -3 -43c0 -88.667 46.667 -133 140 -133c56 0 100 15.833 132 47.5
s52 75.834 60 132.501l65 464h60zM309.498 793.499c-21.667 19.667 -32.8311 44.167 -33.498 73.5l39 6c4 -19.333 12.667 -34.333 26 -45s31.333 -16 54 -16c23.333 0 43.666 5.83301 60.999 17.5s30.666 26.834 39.999 45.501l39 -12
c-8 -28.667 -25.167 -52.334 -51.5 -71.001s-56.166 -28 -89.499 -28c-34.667 0 -62.834 9.83301 -84.501 29.5z" />
    <glyph glyph-name="ubreve" unicode="&#x16d;" horiz-adv-x="577" 
d="M114.5 22c-21.667 22 -32.501 53.001 -32.501 93.001c0 11.333 1 23.333 3 36l52 372h58l-52 -370c-1.33301 -8 -2 -18.667 -2 -32c0 -56 25.333 -84 76 -84c36.667 0 70.834 15.167 102.501 45.5s60.167 70.5 85.5 120.5l45 320h58l-74 -523h-48l14 133
c-24 -44.667 -52.167 -79.834 -84.5 -105.501s-68.833 -38.5 -109.5 -38.5c-39.333 0 -69.833 11 -91.5 33zM254.999 684.001c-21.333 20.667 -32.002 47.667 -32.002 81l41 6c3.33301 -24 11.333 -41.667 24 -53s30.334 -17 53.001 -17c24 0 45 6.33301 63 19
s31.333 30.667 40 54l39 -12c-8.66699 -33.333 -26.167 -59.833 -52.5 -79.5s-56.5 -29.5 -90.5 -29.5c-35.333 0 -63.666 10.333 -84.999 31z" />
    <glyph glyph-name="Uring" unicode="&#x16e;" horiz-adv-x="649" 
d="M542 212c-9.33301 -68 -35.668 -122.168 -79.001 -162.501s-101.333 -60.5 -174 -60.5c-65.333 0 -114.666 16.333 -147.999 49s-50 77 -50 133c0 14 1 29 3 45l66 469h60l-66 -468c-2 -14.667 -3 -29 -3 -43c0 -88.667 46.667 -133 140 -133c56 0 100 15.833 132 47.5
s52 75.834 60 132.501l65 464h60zM483.498 923.499c16.333 -15.667 24.5 -35.5 24.5 -59.5c0 -30 -10.5 -55 -31.5 -75s-46.833 -30 -77.5 -30c-26.667 0 -48.167 7.83301 -64.5 23.5s-24.5 35.5 -24.5 59.5c0 30 10.667 55 32 75s47 30 77 30
c26.667 0 48.167 -7.83301 64.5 -23.5zM370.998 891.499c-11.333 -13 -17 -29.167 -17 -48.5c0 -15.333 4 -27.166 12 -35.499s19.333 -12.5 34 -12.5c20 0 35.833 6.66699 47.5 20s17.5 29.333 17.5 48c0 15.333 -4 27.166 -12 35.499s-19.667 12.5 -35 12.5
c-20 0 -35.667 -6.5 -47 -19.5z" />
    <glyph glyph-name="uring" unicode="&#x16f;" horiz-adv-x="577" 
d="M114.5 22c-21.667 22 -32.501 53.001 -32.501 93.001c0 11.333 1 23.333 3 36l52 372h58l-52 -370c-1.33301 -8 -2 -18.667 -2 -32c0 -56 25.333 -84 76 -84c36.667 0 70.834 15.167 102.501 45.5s60.167 70.5 85.5 120.5l45 320h58l-74 -523h-48l14 133
c-24 -44.667 -52.167 -79.834 -84.5 -105.501s-68.833 -38.5 -109.5 -38.5c-39.333 0 -69.833 11 -91.5 33zM426.499 797.501c16.333 -15.667 24.5 -35.5 24.5 -59.5c0 -30 -10.5 -55 -31.5 -75s-46.833 -30 -77.5 -30c-26.667 0 -48.167 7.83301 -64.5 23.5
s-24.5 35.5 -24.5 59.5c0 30 10.667 55 32 75s47 30 77 30c26.667 0 48.167 -7.83301 64.5 -23.5zM313.999 765.501c-11.333 -13 -17 -29.167 -17 -48.5c0 -15.333 4 -27.166 12 -35.499s19.333 -12.5 34 -12.5c20 0 35.833 6.66699 47.5 20s17.5 29.333 17.5 48
c0 15.333 -4 27.166 -12 35.499s-19.667 12.5 -35 12.5c-20 0 -35.667 -6.5 -47 -19.5z" />
    <glyph glyph-name="Uhungarumlaut" unicode="&#x170;" horiz-adv-x="649" 
d="M542 212c-9.33301 -68 -35.668 -122.168 -79.001 -162.501s-101.333 -60.5 -174 -60.5c-65.333 0 -114.666 16.333 -147.999 49s-50 77 -50 133c0 14 1 29 3 45l66 469h60l-66 -468c-2 -14.667 -3 -29 -3 -43c0 -88.667 46.667 -133 140 -133c56 0 100 15.833 132 47.5
s52 75.834 60 132.501l65 464h60zM400.998 936.999l49 -28l-103 -136l-36 17zM529.998 936.999l50 -27l-112 -142l-37 18z" />
    <glyph glyph-name="uhungarumlaut" unicode="&#x171;" horiz-adv-x="577" 
d="M114.5 22c-21.667 22 -32.501 53.001 -32.501 93.001c0 11.333 1 23.333 3 36l52 372h58l-52 -370c-1.33301 -8 -2 -18.667 -2 -32c0 -56 25.333 -84 76 -84c36.667 0 70.834 15.167 102.501 45.5s60.167 70.5 85.5 120.5l45 320h58l-74 -523h-48l14 133
c-24 -44.667 -52.167 -79.834 -84.5 -105.501s-68.833 -38.5 -109.5 -38.5c-39.333 0 -69.833 11 -91.5 33zM347.999 811.001l49 -28l-103 -136l-36 17zM476.999 811.001l50 -27l-112 -142l-37 18z" />
    <glyph glyph-name="Uogonek" unicode="&#x172;" horiz-adv-x="649" 
d="M608 685l-66.001 -473.003c-8 -56 -27.333 -102.833 -58 -140.5s-71.334 -62.5 -122.001 -74.5c-42 -19.333 -71.833 -37.666 -89.5 -54.999s-26.5 -37.333 -26.5 -60c0 -16 5.33301 -28.667 16 -38s26.667 -14 48 -14c17.333 0 36.333 2.33301 57 7l-6 -48
c-23.333 -4.66699 -42.666 -7 -57.999 -7c-35.333 0 -62.666 8.5 -81.999 25.5s-29 39.167 -29 66.5c0 48 31 86.333 93 115c-64 0.666992 -112.333 17.334 -145 50.001s-49 76.667 -49 132c0 14 1 29 3 45l66 469h60l-66 -468c-2 -14.667 -3 -29 -3 -43
c0 -88.667 46.667 -133 140 -133c56 0 100 15.833 132 47.5s52 75.834 60 132.501l65 464h60z" />
    <glyph glyph-name="uogonek" unicode="&#x173;" horiz-adv-x="577" 
d="M326 -61c-21.333 -19.333 -32.002 -40.333 -32.002 -63c0 -30 18.333 -45 55 -45c18 0 37.667 2.33301 59 7l-10 -49c-20 -4 -39 -6 -57 -6c-32.667 0 -57.667 7.5 -75 22.5s-26 34.5 -26 58.5c0 32 11.333 60 34 84s60.334 46 113.001 66l13 119
c-24 -44.667 -52.167 -79.834 -84.5 -105.501s-68.833 -38.5 -109.5 -38.5c-39.333 0 -69.833 11 -91.5 33s-32.5 53 -32.5 93c0 11.333 1 23.333 3 36l52 372h58l-52 -370c-1.33301 -8 -2 -18.667 -2 -32c0 -56 25.333 -84 76 -84c36.667 0 70.834 15.167 102.501 45.5
s60.167 70.5 85.5 120.5l45 320h58l-74 -523c-50.667 -21.333 -86.667 -41.666 -108 -60.999z" />
    <glyph glyph-name="Wcircumflex" unicode="&#x174;" horiz-adv-x="807" 
d="M836 685l-246 -685h-75l-62 617l-236 -617h-73l-54 685h59l41 -628l238 628h68l63 -629l220 629h57zM350 762l-24 31l142 101h37l114 -102l-27 -30l-110 80z" />
    <glyph glyph-name="wcircumflex" unicode="&#x175;" horiz-adv-x="696" 
d="M707 523l-200 -523h-78l-49 469l-183 -469h-77l-57 523h57l46 -478l187 478h68l51 -478l178 478h57zM283 643l-26 31l144 106h36l114 -106l-28 -31l-110 85z" />
    <glyph glyph-name="Ycircumflex" unicode="&#x176;" horiz-adv-x="520" 
d="M567 685l-275 -417l-38 -268h-61l38 267l-158 418h63l131 -362l233 362h67zM206 762l-24 31l142 101h37l114 -102l-27 -30l-110 80z" />
    <glyph glyph-name="ycircumflex" unicode="&#x177;" horiz-adv-x="465" 
d="M238 -4c-28.667 -60 -60.667 -105.5 -96 -136.5s-84.333 -52.167 -147 -63.5l-3 46c35.333 8 64 18.333 86 31s40.167 28.5 54.5 47.5s30.5 45.5 48.5 79.5h-22l-107 523h62l89 -479l222 479h62zM162 643l-26 31l144 106h36l114 -106l-28 -31l-110 85z" />
    <glyph glyph-name="Ydieresis" unicode="&#x178;" horiz-adv-x="520" 
d="M567 685l-275 -417l-38 -268h-61l38 267l-158 418h63l131 -362l233 362h67zM216.5 799c-7 6.66699 -10.5 15.001 -10.5 25.001c0 12.667 4.16699 23.167 12.5 31.5s18.833 12.5 31.5 12.5c10.667 0 19.5 -3.33301 26.5 -10s10.5 -15.334 10.5 -26.001
c0 -12 -4.16699 -22.167 -12.5 -30.5s-18.833 -12.5 -31.5 -12.5c-10.667 0 -19.5 3.33301 -26.5 10zM404.5 799.001c-7 6.66699 -10.502 15.001 -10.502 25.001c0 12.667 4.33301 23.167 13 31.5s19.334 12.5 32.001 12.5c10.667 0 19.334 -3.33301 26.001 -10
s10 -15.334 10 -26.001c0 -12 -4.16699 -22.167 -12.5 -30.5s-18.833 -12.5 -31.5 -12.5c-10.667 0 -19.5 3.33301 -26.5 10z" />
    <glyph glyph-name="Zacute" unicode="&#x179;" horiz-adv-x="513" 
d="M-2 0l7 50l445 583h-326l7 52h395l-7 -50l-443 -582h354l-15 -53h-417zM421 886l20 -53l-206 -75l-14 34z" />
    <glyph glyph-name="zacute" unicode="&#x17a;" horiz-adv-x="420" 
d="M423 523l-6 -45l-347 -428h284l-13 -50h-351l7 45l346 427h-262l7 51h335zM373 783l20 -53l-206 -85l-15 33z" />
    <glyph glyph-name="Zdotaccent" unicode="&#x17b;" horiz-adv-x="513" 
d="M-2 0l7 50l445 583h-326l7 52h395l-7 -50l-443 -582h354l-15 -53h-417zM311 805.5c-7.33301 7 -11 16.167 -11 27.5c0 13.333 4.5 24.333 13.5 33s20.167 13 33.5 13c12 0 21.667 -3.5 29 -10.5s11 -16.167 11 -27.5c0 -13.333 -4.5 -24.333 -13.5 -33
s-20.167 -13 -33.5 -13c-12 0 -21.667 3.5 -29 10.5z" />
    <glyph glyph-name="zdotaccent" unicode="&#x17c;" horiz-adv-x="420" 
d="M423 523l-6 -45l-347 -428h284l-13 -50h-351l7 45l346 427h-262l7 51h335zM250 679.5c-7.33301 7 -11 16.167 -11 27.5c0 13.333 4.5 24.333 13.5 33s20.167 13 33.5 13c12 0 21.667 -3.5 29 -10.5s11 -16.167 11 -27.5c0 -13.333 -4.5 -24.333 -13.5 -33
s-20.167 -13 -33.5 -13c-12 0 -21.667 3.5 -29 10.5z" />
    <glyph glyph-name="Zcaron" unicode="&#x17d;" horiz-adv-x="513" 
d="M-2 0l7 50l445 583h-326l7 52h395l-7 -50l-443 -582h354l-15 -53h-417zM468 888l23 -30l-142 -102h-36l-116 102l29 29l110 -79z" />
    <glyph glyph-name="zcaron" unicode="&#x17e;" horiz-adv-x="420" 
d="M423 523l-6 -45l-347 -428h284l-13 -50h-351l7 45l346 427h-262l7 51h335zM408 769l23 -30l-143 -106h-36l-115 106l27 30l110 -84z" />
    <glyph glyph-name="longs" unicode="&#x17f;" horiz-adv-x="319" 
d="M382 735c18.667 -6 37.668 -15 57.001 -27l-23 -40c-16.667 10 -32.334 17 -47.001 21s-30.334 6 -47.001 6c-62 0 -97 -29.667 -105 -89l-85 -606h-58l67 476h-91l7 47h91l12 87c5.33301 41.333 22.333 74 51 98s65.334 36 110.001 36c22 0 42.333 -3 61 -9z" />
    <glyph glyph-name="uni0180" unicode="&#x180;" horiz-adv-x="578" 
d="M478.5 482.5c27.667 -34.333 41.5 -83.167 41.5 -146.5c0 -53.333 -9 -106.5 -27 -159.5s-47.167 -97.5 -87.5 -133.5s-92.166 -54 -155.499 -54c-28.667 0 -55.834 2.5 -81.501 7.5s-55.834 13.833 -90.501 26.5l84 593h-76l6 47h77l10 73l58 8l-11 -81h169l-14 -47
h-161l-22 -158c50.667 50.667 105.334 76 164.001 76c50 0 88.833 -17.167 116.5 -51.5zM372.5 85.499c31 31.667 53.333 70.499 67 116.499s20.5 91.667 20.5 137c0 49.333 -9.5 86 -28.5 110s-46.167 36 -81.5 36c-31.333 0 -59.333 -7.5 -84 -22.5
s-50.334 -36.5 -77.001 -64.5l-47 -339c18 -7.33301 35.333 -12.666 52 -15.999s36.334 -5 59.001 -5c48.667 0 88.5 15.833 119.5 47.5z" />
    <glyph glyph-name="uni0181" unicode="&#x181;" horiz-adv-x="655" 
d="M555.5 319.5c25.667 -23 38.501 -56.8311 38.501 -101.498c0 -62 -21.333 -113.833 -64 -155.5s-112.334 -62.5 -209.001 -62.5h-188l90 636h-26c-28 0 -48.667 -7.33301 -62 -22s-20 -34.667 -20 -60c0 -14.667 4 -33.334 12 -56.001l-46 -21
c-7.33301 14 -13 27.167 -17 39.5s-6 26.166 -6 41.499c0 38 12.833 68.667 38.5 92s61.5 35 107.5 35h196c64 0 114.5 -12.667 151.5 -38s55.5 -63 55.5 -113c0 -46 -14 -84.167 -42 -114.5s-65 -49.5 -111 -57.5c42 -5.33301 75.833 -19.5 101.5 -42.5zM283.001 635.002
l-35 -250h131c52 0 92.833 13.5 122.5 40.5s44.5 62.833 44.5 107.5c0 68 -48 102 -144 102h-119zM485.001 98.502c31.333 31.667 47.001 71.833 47.001 120.5c0 40 -13.333 69.5 -40 88.5s-62.667 28.5 -108 28.5h-143l-40 -285h124c75.333 0 128.666 15.833 159.999 47.5z
" />
    <glyph glyph-name="uni0182" unicode="&#x182;" horiz-adv-x="567" 
d="M461.5 373c38.333 -30 57.5 -73.668 57.5 -131.001c0 -42 -8.66699 -81.167 -26 -117.5s-46.666 -66.166 -87.999 -89.499s-95.333 -35 -162 -35h-170l97 685h345l-16 -51h-277l-30 -216h108c69.333 0 123.166 -15 161.499 -45zM410 107.499
c30.667 37.667 45.999 82.5 45.999 134.5c0 84 -52.667 126 -158 126h-113l-44 -317h114c72.667 0 124.334 18.833 155.001 56.5z" />
    <glyph glyph-name="uni0183" unicode="&#x183;" horiz-adv-x="572" 
d="M473 483c27.333 -34 41 -83 41 -147c0 -53.333 -9 -106.5 -27 -159.5s-47.167 -97.5 -87.5 -133.5s-92.166 -54 -155.499 -54c-28.667 0 -55.834 2.5 -81.501 7.5s-55.834 13.833 -90.501 26.5l101 713h293l-16 -47h-226l-32 -231c50.667 50.667 105.334 76 164.001 76
c50.667 0 89.667 -17 117 -51zM366.5 85.5c31 31.667 53.334 70.667 67.001 117s20.5 92.166 20.5 137.499c0 96.667 -37 145 -111 145c-30.667 0 -58.334 -7.5 -83.001 -22.5s-50.334 -36.5 -77.001 -64.5l-47 -339c18 -7.33301 35.333 -12.666 52 -15.999
s36.334 -5 59.001 -5c48.667 0 88.5 15.833 119.5 47.5z" />
    <glyph glyph-name="uni0184" unicode="&#x184;" horiz-adv-x="559" 
d="M462.5 377c38.333 -30.667 57.499 -76.334 57.499 -137.001c0 -41.333 -9.16699 -80.166 -27.5 -116.499s-48.166 -66 -89.499 -89s-95 -34.5 -161 -34.5h-169l78 549l-48 35c29.333 25.333 54.333 59 75 101h52l-37 -262h107c70 0 124.167 -15.333 162.5 -46z
M409.999 107.5c31.333 37.667 47 81.833 47 132.5c0 46.667 -13.5 80.5 -40.5 101.5s-66.5 31.5 -118.5 31.5h-112l-45 -322h114c72 0 123.667 18.833 155 56.5z" />
    <glyph glyph-name="uni0185" unicode="&#x185;" horiz-adv-x="500" 
d="M407.5 307c30.333 -26.667 45.5 -63 45.5 -109c0 -35.333 -7.83301 -68.833 -23.5 -100.5s-40.5 -57.667 -74.5 -78s-76.667 -30.5 -128 -30.5c-50 0 -102 9 -156 27l54 381l-48 35c28 24 52.333 54.333 73 91h51l-25 -176h90c64 0 111.167 -13.333 141.5 -40zM353 84.5
c26.667 31.667 40 69.833 40 114.5c0 31.333 -10.5 55.833 -31.5 73.5s-54.167 26.5 -99.5 26.5h-93l-35 -248c33.333 -9.33301 63.666 -14 90.999 -14c58.667 0 101.334 15.833 128.001 47.5z" />
    <glyph glyph-name="uni0186" unicode="&#x186;" horiz-adv-x="546" 
d="M438 626.5c40 -46.333 59.999 -113.17 59.999 -200.503c0 -76 -12.833 -147.5 -38.5 -214.5s-63.167 -120.833 -112.5 -161.5s-107.333 -61 -174 -61c-39.333 0 -73 6.33301 -101 19s-54.333 30.334 -79 53.001l34 38c24 -19.333 46.5 -33.666 67.5 -42.999
s46.833 -14 77.5 -14c56.667 0 104.834 18.667 144.501 56s69.5 85.333 89.5 144s30 120 30 184c0 74.667 -14.833 129.834 -44.5 165.501s-69.167 53.5 -118.5 53.5c-31.333 0 -59.5 -4.16699 -84.5 -12.5s-51.5 -21.5 -79.5 -39.5l-29 41
c29.333 20.667 59.333 36.167 90 46.5s66.667 15.5 108 15.5c66.667 0 120 -23.167 160 -69.5z" />
    <glyph glyph-name="uni0187" unicode="&#x187;" horiz-adv-x="550" 
d="M758 789l-28.002 -36c-11.333 8 -22 13.833 -32 17.5s-22.667 5.5 -38 5.5c-22 0 -40.333 -6.83301 -55 -20.5s-24 -35.167 -28 -64.5l-8 -59l-31 -32c-21.333 15.333 -42.833 26.666 -64.5 33.999s-45.5 11 -71.5 11c-62 0 -113.167 -19.833 -153.5 -59.5
s-69.666 -89 -87.999 -148s-27.5 -118.167 -27.5 -177.5c0 -72 16 -126.333 48 -163s74.667 -55 128 -55c32.667 0 60.834 5 84.501 15s48.834 24.667 75.501 44l29 -43c-58 -46 -122.333 -69 -193 -69c-71.333 0 -128.166 23.833 -170.499 71.5s-63.5 115.167 -63.5 202.5
c0 66.667 11.5 133.334 34.5 200.001s59 122.167 108 166.5s110.167 66.5 183.5 66.5c45.333 0 84.666 -10 117.999 -30l3 25c6.66699 44 22.167 77.167 46.5 99.5s55.5 33.5 93.5 33.5c39.333 0 72.666 -11.667 99.999 -35z" />
    <glyph glyph-name="uni0188" unicode="&#x188;" horiz-adv-x="467" 
d="M617.5 734c15.667 -6.66699 30.165 -15.334 43.498 -26.001l-28 -36c-11.333 7.33301 -22.166 13 -32.499 17s-23.166 6 -38.499 6c-21.333 0 -39.5 -7 -54.5 -21s-24.5 -35.333 -28.5 -64l-18 -130l-26 -30c-38.667 23.333 -77.334 35 -116.001 35
c-46.667 0 -84.834 -15 -114.501 -45s-51.167 -67.167 -64.5 -111.5s-20 -88.166 -20 -131.499c0 -52.667 11.5 -92 34.5 -118s55.167 -39 96.5 -39c24 0 46.167 3.66699 66.5 11s41.166 18.333 62.499 33l25 -41c-47.333 -36 -99.666 -54 -156.999 -54
c-58.667 0 -104.667 18.5 -138 55.5s-50 88.833 -50 155.5c0 50.667 9 101.667 27 153s46.333 94.333 85 129s87.334 52 146.001 52c35.333 0 65 -7 89 -21l14 98c6.66699 44 22.334 77.167 47.001 99.5s55.667 33.5 93 33.5c22 0 40.833 -3.33301 56.5 -10z" />
    <glyph glyph-name="uni0189" unicode="&#x189;" horiz-adv-x="635" 
d="M510.5 629.5c51 -37 76.5 -103.832 76.5 -200.499c0 -76.667 -12.167 -147.334 -36.5 -212.001s-63.333 -117 -117 -157s-122.5 -60 -206.5 -60h-149l47 329h-87l6 48h87l44 308h134c83.333 0 150.5 -18.5 201.5 -55.5zM404 105.001
c43.333 36.667 74.501 83.668 93.501 141.001s28.5 118.666 28.5 183.999c0 80.667 -19.5 135 -58.5 163s-90.5 42 -154.5 42h-85l-36 -258h177l-6 -48h-178l-39 -279h89c69.333 0 125.666 18.333 168.999 55z" />
    <glyph glyph-name="uni018A" unicode="&#x18a;" horiz-adv-x="690" 
d="M565.5 629.5c51 -37 76.5 -103.83 76.5 -200.497c0 -76.667 -12.167 -147.334 -36.5 -212.001s-63.333 -117 -117 -157s-122.5 -60 -206.5 -60h-149l90 636h-26c-28 0 -48.667 -7.33301 -62 -22s-20 -34.667 -20 -60c0 -14.667 4 -33.334 12 -56.001l-46 -21
c-7.33301 14 -13 27.167 -17 39.5s-6 26.166 -6 41.499c0 38 12.833 68.667 38.5 92s61.5 35 107.5 35h160c83.333 0 150.5 -18.5 201.5 -55.5zM459 105.003c43.333 36.667 74.501 83.668 93.501 141.001s28.5 118.666 28.5 183.999c0 80.667 -19.5 135 -58.5 163
s-90.5 42 -154.5 42h-85l-82 -585h89c69.333 0 125.666 18.333 168.999 55z" />
    <glyph glyph-name="uni018B" unicode="&#x18b;" horiz-adv-x="568" 
d="M420 0h-175c-64 -0 -115.167 15.333 -153.5 46s-57.5 78.667 -57.5 144c0 72 24.833 128 74.5 168s117.167 60 202.5 60h109l30 216h-282l7 51h342zM368 51l44.999 317.001h-107c-67.333 0 -119.166 -15.5 -155.499 -46.5s-54.5 -75.167 -54.5 -132.5
c0 -48.667 13 -83.834 39 -105.501s65 -32.5 117 -32.5h116z" />
    <glyph glyph-name="uni018C" unicode="&#x18c;" horiz-adv-x="578" 
d="M435 0l-50.001 -0.000976562l8 106c-20.667 -35.333 -45.334 -63.666 -74.001 -84.999s-61.667 -32 -99 -32c-50.667 0 -90.167 18.333 -118.5 55s-42.5 87 -42.5 151c0 50.667 8.33301 102 25 154s43.334 95.833 80.001 131.5s83.334 53.5 140.001 53.5
c59.333 0 105.333 -24 138 -72l32 227h-231l7 47h289zM434.999 408.999c-14 24 -30.668 42.833 -50.001 56.5s-43.666 20.5 -72.999 20.5c-44.667 0 -81.5 -15.5 -110.5 -46.5s-49.833 -69 -62.5 -114s-19 -89.5 -19 -133.5c0 -50 9.5 -88.167 28.5 -114.5
s45.5 -39.5 79.5 -39.5c36 0 67.333 12 94 36s53.667 59.667 81 107z" />
    <glyph glyph-name="uni018D" unicode="&#x18d;" horiz-adv-x="566" 
d="M56 -149l34.001 35.0029c19.333 -16 38.833 -27.5 58.5 -34.5s42.5 -10.5 68.5 -10.5c40.667 0 71.167 8.16699 91.5 24.5s30.5 36.833 30.5 61.5c0 20.667 -7.83301 38.167 -23.5 52.5s-44.834 30.166 -87.501 47.499c-56.667 24 -98.334 52 -125.001 84
s-40 73.333 -40 124c0 42 8.33301 86 25 132s44 85.333 82 118s87 49 147 49c59.333 0 106 -18.667 140 -56s51 -87.333 51 -150c0 -66 -15.167 -122.833 -45.5 -170.5s-81.166 -85.834 -152.499 -114.501c31.333 -17.333 53.833 -34.833 67.5 -52.5s20.5 -38.5 20.5 -62.5
c0 -22.667 -6.83301 -44.334 -20.5 -65.001s-34.167 -37.5 -61.5 -50.5s-60.333 -19.5 -99 -19.5c-63.333 0 -117 19.333 -161 58zM407.501 172.503c26.333 44.333 39.5029 97.502 39.5029 159.502c0 47.333 -11.5 84.666 -34.5 111.999s-55.5 41 -97.5 41
c-46.667 0 -84.334 -14 -113.001 -42s-48.834 -61.333 -60.501 -100s-17.5 -75 -17.5 -109c0 -41.333 10.833 -74.833 32.5 -100.5s58.5 -49.5 110.5 -71.5c67.333 29.333 114.166 66.166 140.499 110.499z" />
    <glyph glyph-name="uni018E" unicode="&#x18e;" horiz-adv-x="510" 
d="M112 685h347l-96 -685h-354l8 51h293l39 279h-242l7 50h242l36 255h-287z" />
    <glyph glyph-name="uni018F" unicode="&#x18f;" horiz-adv-x="645" 
d="M539.5 633c39 -42 58.5 -105.998 58.5 -191.998c0 -80.667 -11.833 -155.334 -35.5 -224.001s-59.5 -123.834 -107.5 -165.501s-106.667 -62.5 -176 -62.5s-123.333 22 -162 66s-58 107.333 -58 190c0 19.333 1.5 42.5 4.5 69.5s6.16699 47.167 9.5 60.5h458
c3.33301 20.667 5 43.667 5 69c0 70 -14 121 -42 153s-69 48 -123 48c-35.333 0 -68.833 -5.83301 -100.5 -17.5s-64.167 -29.5 -97.5 -53.5l-28 41c36 28 72.5 48.5 109.5 61.5s76.833 19.5 119.5 19.5c71.333 0 126.5 -21 165.5 -63zM436 109.002c43.333 46 73 117 89 213
h-401c-4 -30 -6 -57 -6 -81c0 -68 14.167 -118.5 42.5 -151.5s68.5 -49.5 120.5 -49.5c60 0 111.667 23 155 69z" />
    <glyph glyph-name="uni0190" unicode="&#x190;" horiz-adv-x="519" 
d="M438 674.5c31.333 -14.333 60.668 -35.499 88.001 -63.499l-37 -34c-45.333 45.333 -98.333 68 -159 68c-48 0 -86.5 -13.333 -115.5 -40s-43.5 -60.667 -43.5 -102c0 -35.333 12 -62.666 36 -81.999s56.667 -29 98 -29h61l-14 -51h-53
c-60 0.666992 -107.333 -14 -142 -44s-52 -71.333 -52 -124c0 -42.667 13 -75.334 39 -98.001s62 -34 108 -34c67.333 0 129.333 25.667 186 77l34 -38c-65.333 -60.667 -140 -91 -224 -91c-62 0 -111.833 16.5 -149.5 49.5s-56.5 77.5 -56.5 133.5
c0 55.333 16.833 100.666 50.5 135.999s76.5 56 128.5 62c-33.333 8 -60.166 23.5 -80.499 46.5s-30.5 52.167 -30.5 87.5c0 37.333 9.5 70.5 28.5 99.5s45.167 51.667 78.5 68s70.666 24.5 111.999 24.5s77.666 -7.16699 108.999 -21.5z" />
    <glyph glyph-name="uni0191" unicode="&#x191;" horiz-adv-x="478" 
d="M223 635l-37.999 -267h237l-7 -50h-237l-45 -318h1l-11 -72c-6 -44.667 -21.5 -78 -46.5 -100s-56.5 -33 -94.5 -33c-37.333 0 -70.333 11.667 -99 35l28 38c10.667 -8 21.167 -13.833 31.5 -17.5s23.166 -5.5 38.499 -5.5c21.333 0 39.333 6.83301 54 20.5
s24 35.167 28 64.5l11 70h-1l97 685h340l-14 -50h-273z" />
    <glyph glyph-name="florin" unicode="&#x192;" horiz-adv-x="319" 
d="M217 606l-11.999 -83.002h137l-13 -47h-130l-64 -459c-6.66699 -45.333 -16.667 -81.333 -30 -108s-30.5 -48 -51.5 -64s-50.167 -32.333 -87.5 -49l-18 45c27.333 12.667 49 25.334 65 38.001s29.333 29.834 40 51.501s18.667 51.167 24 88.5l64 457h-91l7 47h91l12 87
c5.33301 41.333 22.333 74 51 98s65.334 36 110.001 36c22 0 42.333 -3 61 -9s37.667 -15 57 -27l-23 -40c-16.667 10 -32.334 17 -47.001 21s-30.334 6 -47.001 6c-62 0 -97 -29.667 -105 -89z" />
    <glyph glyph-name="uni0193" unicode="&#x193;" horiz-adv-x="571" 
d="M779 789l-28 -36c-11.333 8 -22 13.833 -32 17.5s-22.667 5.5 -38 5.5c-22 0 -40.333 -6.83301 -55 -20.5s-24 -35.167 -28 -64.5l-9 -64l-32 -30c-23.333 16 -47 28 -71 36s-50.667 12 -80 12c-60 0 -110.5 -19.333 -151.5 -58s-71.333 -88 -91 -148
s-29.5 -122 -29.5 -186c0 -71.333 15.667 -124.5 47 -159.5s76.333 -52.5 135 -52.5c52 0 101 12 147 36l35 242h-132l-1 51h199l-44 -323c-65.333 -38.667 -135.333 -58 -210 -58s-133.167 23.167 -175.5 69.5s-63.5 113.5 -63.5 201.5c0 70.667 12.5 139.5 37.5 206.5
s62.833 122 113.5 165s112 64.5 184 64.5c51.333 0 94.666 -11 129.999 -33l3 28c6.66699 43.333 22.334 76.333 47.001 99s56 34 94 34c38.667 0 71.667 -11.667 99 -35z" />
    <glyph glyph-name="uni0194" unicode="&#x194;" horiz-adv-x="544" 
d="M278 59c13.333 -38 22.833 -67.832 28.5 -89.499s8.5 -42.834 8.5 -63.501c0 -34 -9.66699 -61 -29 -81s-45.333 -30 -78 -30c-26.667 0 -47.5 7.16699 -62.5 21.5s-22.5 33.5 -22.5 57.5s6.5 49.5 19.5 76.5s34.833 64.5 65.5 112.5l-133 622h63l110 -579l276 579h63z
M254 -45.499c-3.33301 17 -9 38.833 -17 65.5c-19.333 -32.667 -33.833 -60.167 -43.5 -82.5s-14.5 -42.5 -14.5 -60.5c0 -22.667 10.333 -34 31 -34c16 0 28.167 5.66699 36.5 17s12.5 26.333 12.5 45c0 16 -1.66699 32.5 -5 49.5z" />
    <glyph glyph-name="uni0195" unicode="&#x195;" horiz-adv-x="883" 
d="M446 28c-26 26 -38.999 60.6689 -38.999 104.002c0 6 0.666992 16.333 2 31l29 204c1.33301 8 2 19.333 2 34c0 29.333 -6.16699 50.666 -18.5 63.999s-31.166 20 -56.499 20c-68 0 -133 -57.333 -195 -172l-44 -313h-58l104 736l59 7l-49 -347
c24.667 44 53.5 78 86.5 102s68.5 36 106.5 36c40 0 70.667 -11 92 -33s32 -53.333 32 -94c0 -10.667 -1 -22.667 -3 -36l-29 -209c-1.33301 -7.33301 -2 -17 -2 -29c0 -31.333 8.16699 -55 24.5 -71s39.166 -24 68.499 -24c74.667 0 126.167 37.333 154.5 112
s42.5 164.667 42.5 270c0 40 -1.33301 74.333 -4 103h57c3.33301 -38.667 5 -75.334 5 -110.001c0 -120.667 -19.333 -221.5 -58 -302.5s-105.334 -121.5 -200.001 -121.5c-46.667 0 -83 13 -109 39z" />
    <glyph glyph-name="uni0196" unicode="&#x196;" horiz-adv-x="333" 
d="M294 22c-30 -21.333 -65 -32 -105 -32c-34 0 -60.833 9 -80.5 27s-29.5 44.667 -29.5 80c0 6 0.666992 15.667 2 29l10 69l69 490h60l-69 -490l-10 -74c-1.33301 -10.667 -2 -18 -2 -22c0 -39.333 18 -59 54 -59c16 0 30 2 42 6s24.333 9.66699 37 17z" />
    <glyph glyph-name="uni0197" unicode="&#x197;" horiz-adv-x="316" 
d="M308 384l-7 -49h-100l-47 -335h-60l47 335h-104l8 49h103l43 301h60l-43 -301h100z" />
    <glyph glyph-name="uni0198" unicode="&#x198;" horiz-adv-x="582" 
d="M189 367l221.999 249.999c26.667 30 49.5 50.667 68.5 62s41.167 17 66.5 17c19.333 0 36 -3.5 50 -10.5s27.667 -17.167 41 -30.5l-33 -33c-12 8.66699 -21.667 14.834 -29 18.501s-16.666 5.5 -27.999 5.5c-15.333 0 -29.333 -4 -42 -12s-30.667 -25 -54 -51l-193 -216
l250 -367h-73zM72.999 -0.000976562l97 685h60l-96 -685h-61z" />
    <glyph glyph-name="uni0199" unicode="&#x199;" horiz-adv-x="523" 
d="M453 310.5c-29.333 -31.667 -72.001 -56.498 -128.001 -74.498l119 -236h-65l-125 254c61.333 17.333 107 39.333 137 66s45 59 45 97c0 22 -6 39.167 -18 51.5s-30 18.5 -54 18.5c-36 0 -70.833 -15.833 -104.5 -47.5s-63.834 -76.5 -90.501 -134.5l-43 -305h-58l74 522
l12 89c6 41.333 23.333 73.833 52 97.5s65 35.5 109 35.5c40.667 0 80.334 -9.66699 119.001 -29l-23 -43c-29.333 14.667 -60.666 22 -93.999 22c-62 0 -97 -29.667 -105 -89l-12 -83l-18 -126c26.667 47.333 56.667 82.166 90 104.499s68.333 33.5 105 33.5
c36 0 65 -10.167 87 -30.5s33 -47.5 33 -81.5c0 -42.667 -14.667 -79.834 -44 -111.501z" />
    <glyph glyph-name="uni019A" unicode="&#x19a;" horiz-adv-x="300" 
d="M153 88c-0.666992 -3.33301 -1.00098 -8.00098 -1.00098 -14.001c0 -12 2.66699 -20.833 8 -26.5s14 -8.5 26 -8.5c10.667 0 23.334 2.66699 38.001 8l13 -44c-20.667 -9.33301 -40.667 -14 -60 -14c-26 0 -46.167 6.83301 -60.5 20.5s-21.5 33.834 -21.5 60.501
c0 4.66699 0.666992 13.667 2 27l35 252h-102l8 47h101l48 340l58 8l-49 -348h105l-7 -47h-104z" />
    <glyph glyph-name="uni019B" unicode="&#x19b;" horiz-adv-x="470" 
d="M352.5 250c11 -57.333 23.333 -102.667 37 -136s31.167 -67.666 52.5 -102.999l-54 -19c-22 36 -39.833 71.167 -53.5 105.5s-25.834 80.166 -36.501 137.499s-18.667 131 -24 221l-225 -465l-54 14l253 510l23 -4c-3.33301 50 -10 86.667 -20 110l-81 -70l-39 19l97 89
c-19.333 19.333 -48.666 34 -87.999 44l11 41c50.667 -11.333 88 -29.333 112 -54l78 72l32 -31l-83 -76l-1 -1c20 -38 32.667 -98 38 -180c6 -92 14.5 -166.667 25.5 -224z" />
    <glyph glyph-name="uni019C" unicode="&#x19c;" horiz-adv-x="924" 
d="M873 685l-96.001 -684.999h-52l7 91c-25.333 -32.667 -53.333 -57.834 -84 -75.501s-63 -26.5 -97 -26.5c-37.333 0 -67.333 9.66699 -90 29s-37.334 46.333 -44.001 81c-60 -73.333 -124.333 -110 -193 -110c-44 0 -77.833 13.5 -101.5 40.5s-35.5 64.167 -35.5 111.5
c0 14 1 29 3 45l70 499h60l-71 -505c-2 -14 -3 -27 -3 -39c0 -32.667 7.33301 -57.5 22 -74.5s36.334 -25.5 65.001 -25.5c34 0 65.5 9.83301 94.5 29.5s57.5 48.167 85.5 85.5l3 30l70 499h61l-71 -505c-2 -14 -3 -27 -3 -39c0 -32.667 7.33301 -57.5 22 -74.5
s36.334 -25.5 65.001 -25.5c34 0 65.5 9.66699 94.5 29s57.167 47.333 84.5 84l74 531h60z" />
    <glyph glyph-name="uni019D" unicode="&#x19d;" horiz-adv-x="670" 
d="M619 685l-95.998 -684.999h-77l-236 631c-2 -62.667 -10.667 -146.334 -26 -251.001l-54 -380l-10 -72c-6 -44.667 -21.333 -78 -46 -100s-55.334 -33 -92.001 -33c-37.333 0 -70.333 11.667 -99 35l28 36c10.667 -7.33301 21.167 -12.833 31.5 -16.5
s23.166 -5.5 38.499 -5.5c21.333 0 39.333 6.83301 54 20.5s24 35.5 28 65.5l10 70l97 685h78l236 -629c2 67.333 8.66699 139 20 215l58 414h57z" />
    <glyph glyph-name="uni019E" unicode="&#x19e;" horiz-adv-x="581" 
d="M467 500.5c21.333 -22.333 32.002 -54.166 32.002 -95.499c0 -10.667 -1 -22.667 -3 -36l-81 -569l-59 -7l82 574c2 12 3 23.333 3 34c0 56 -25.667 84 -77 84c-67.333 0 -132 -57.333 -194 -172l-44 -313h-58l74 523h50l-14 -130
c27.333 45.333 57.666 80.166 90.999 104.499s69 36.5 107 36.5c39.333 0 69.666 -11.167 90.999 -33.5z" />
    <glyph glyph-name="uni019F" unicode="&#x19f;" horiz-adv-x="688" 
d="M577 625.5c42 -47 63 -114.167 63 -201.5c0 -66.667 -11 -133.334 -33 -200.001s-57.833 -122.5 -107.5 -167.5s-113.167 -67.5 -190.5 -67.5c-73.333 0 -131.333 23.667 -174 71s-64 114.666 -64 201.999c0 64.667 11.333 130.334 34 197.001s59 122.834 109 168.501
s113.333 68.5 190 68.5c73.333 0 131 -23.5 173 -70.5zM229 567c-42 -52 -70.667 -116.333 -86 -193h434c1.33301 24 2 41.667 2 53c0 73.333 -15.333 128 -46 164s-74.667 54 -132 54c-72.667 0 -130 -26 -172 -78zM488.5 123.5c42.333 55 69.833 122.499 82.5 202.499
h-435c-2.66699 -20.667 -4 -42.667 -4 -66c0 -73.333 15.667 -128.166 47 -164.499s75 -54.5 131 -54.5c76.667 0 136.167 27.5 178.5 82.5z" />
    <glyph glyph-name="Ohorn" unicode="&#x1a0;" horiz-adv-x="688" 
d="M598 597c28 -45.333 42 -102.999 42 -172.999c0 -66.667 -11 -133.334 -33 -200.001s-57.833 -122.5 -107.5 -167.5s-113.167 -67.5 -190.5 -67.5c-73.333 0 -131.333 23.667 -174 71s-64 114.666 -64 201.999c0 64.667 11.333 130.334 34 197.001
s59 122.834 109 168.501s113.333 68.5 190 68.5c70.667 0 126.667 -21.667 168 -65c25.333 4 43.333 12.667 54 26s16 31.666 16 54.999c0 16 -2.33301 31.667 -7 47l46 9c6.66699 -17.333 10 -36.333 10 -57c0 -62 -31 -100 -93 -114zM468 102.501
c40 41 68.334 90.832 85.001 149.499s25 117 25 175c0 72.667 -15.333 127.167 -46 163.5s-74.334 54.5 -131.001 54.5c-64 0 -115.833 -20.5 -155.5 -61.5s-68.167 -90.833 -85.5 -149.5s-26 -116.667 -26 -174c0 -73.333 15.5 -128.166 46.5 -164.499
s74.167 -54.5 129.5 -54.5c65.333 0 118 20.5 158 61.5z" />
    <glyph glyph-name="ohorn" unicode="&#x1a1;" horiz-adv-x="579" 
d="M491 430c12.667 -29.333 19 -64.668 19 -106.001c0 -49.333 -8.5 -99.666 -25.5 -150.999s-45.167 -94.833 -84.5 -130.5s-89.666 -53.5 -150.999 -53.5c-60 0 -106.5 18.667 -139.5 56s-49.5 89.333 -49.5 156c0 50 8.66699 100.5 26 151.5s45.5 94 84.5 129
s89.167 52.5 150.5 52.5c68 0 118.333 -23 151 -69c25.333 4 43.666 12.667 54.999 26s17 32 17 56c0 18 -2.33301 34.667 -7 50l46 9c6.66699 -17.333 10 -37.333 10 -60c0 -65.333 -34 -104 -102 -116zM366.5 83.998c29.667 30.667 50.833 68.168 63.5 112.501
s19 88.166 19 131.499c0 52 -11 91.333 -33 118s-54 40 -96 40c-48 0 -87 -15.5 -117 -46.5s-51.333 -68.833 -64 -113.5s-19 -88 -19 -130c0 -52 11.333 -91.333 34 -118s55 -40 97 -40c47.333 0 85.833 15.333 115.5 46z" />
    <glyph glyph-name="uni01A2" unicode="&#x1a2;" horiz-adv-x="900" 
d="M800.5 666.5c21 -20.333 31.499 -48.833 31.499 -85.5c0 -5.33301 -0.666992 -15.333 -2 -30l-105 -748h-60l105 749c2 11.333 3 21.333 3 30c0 22 -5.83301 38.5 -17.5 49.5s-29.5 16.5 -53.5 16.5c-38.667 0 -77.667 -10.667 -117 -32
c36.667 -47.333 55 -111.333 55 -192c0 -66.667 -11 -133.334 -33 -200.001s-57.833 -122.5 -107.5 -167.5s-113.167 -67.5 -190.5 -67.5c-73.333 0 -131.333 23.667 -174 71s-64 114.666 -64 201.999c0 64.667 11.333 130.334 34 197.001s59 122.834 109 168.501
s113.333 68.5 190 68.5c60.667 0 110.334 -16 149.001 -48c52.667 32.667 103.667 49 153 49c42 0 73.5 -10.167 94.5 -30.5zM467.999 102.5c40 41 68.334 90.832 85.001 149.499s25 117 25 175c0 72.667 -15.333 127.167 -46 163.5s-74.334 54.5 -131.001 54.5
c-64 0 -115.833 -20.5 -155.5 -61.5s-68.167 -90.833 -85.5 -149.5s-26 -116.667 -26 -174c0 -73.333 15.5 -128.166 46.5 -164.499s74.167 -54.5 129.5 -54.5c65.333 0 118 20.5 158 61.5z" />
    <glyph glyph-name="uni01A3" unicode="&#x1a3;" horiz-adv-x="759" 
d="M647 503c20.667 -20.667 30.999 -49.334 30.999 -86.001c0 -5.33301 -0.666992 -15.333 -2 -30l-82 -587l-60 -7l84 598c1.33301 13.333 2 22.333 2 27c0 22.667 -5.5 39.667 -16.5 51s-28.833 17 -53.5 17c-27.333 0 -55 -5.33301 -83 -16
c28.667 -36 43 -84.667 43 -146c0 -49.333 -8.5 -99.666 -25.5 -150.999s-45.167 -94.833 -84.5 -130.5s-89.666 -53.5 -150.999 -53.5c-60 0 -106.5 18.667 -139.5 56s-49.5 89.333 -49.5 156c0 50 8.66699 100.5 26 151.5s45.5 94 84.5 129s89.167 52.5 150.5 52.5
c43.333 0 80.666 -10.333 111.999 -31c41.333 20.667 82 31 122 31c40.667 0 71.334 -10.333 92.001 -31zM366.499 84c29.667 30.667 50.833 68.168 63.5 112.501s19 88.166 19 131.499c0 52 -11 91.333 -33 118s-54 40 -96 40c-48 0 -87 -15.5 -117 -46.5
s-51.333 -68.833 -64 -113.5s-19 -88 -19 -130c0 -52 11.333 -91.333 34 -118s55 -40 97 -40c47.333 0 85.833 15.333 115.5 46z" />
    <glyph glyph-name="uni01A4" unicode="&#x1a4;" horiz-adv-x="627" 
d="M558 642c39.333 -28.667 59 -71.998 59 -129.998c0 -70 -22.5 -128.333 -67.5 -175s-117.833 -70 -218.5 -70h-100l-38 -267h-60l90 636h-26c-28 0 -48.667 -7.33301 -62 -22s-20 -34.667 -20 -60c0 -14.667 4 -33.334 12 -56.001l-46 -21
c-7.33301 14 -13 27.167 -17 39.5s-6 26.166 -6 41.499c0 38 12.833 68.667 38.5 92s61.5 35 107.5 35h184c74 0 130.667 -14.333 170 -43zM503.5 371.502c33 36.333 49.5 83.167 49.5 140.5c0 44 -14.167 75.667 -42.5 95s-70.5 29 -126.5 29h-101l-45 -319h96
c80 0 136.5 18.167 169.5 54.5z" />
    <glyph glyph-name="uni01A5" unicode="&#x1a5;" horiz-adv-x="572" 
d="M473 483c27.333 -34 40.998 -83 40.998 -147c0 -53.333 -9 -106.5 -27 -159.5s-47.167 -97.5 -87.5 -133.5s-91.833 -54 -154.5 -54c-38.667 0 -77.667 7 -117 21l-29 -209l-59 -8l102 729l12 89c6 41.333 23.333 73.833 52 97.5s65 35.5 109 35.5
c40.667 0 80.334 -9.66699 119.001 -29l-23 -43c-29.333 14.667 -60.666 22 -93.999 22c-62 0 -97 -29.667 -105 -89l-12 -83h1l-8 -66c46.667 52 101 78 163 78c50.667 0 89.667 -17 117 -51zM365.998 85.5c31.333 31.667 53.833 70.667 67.5 117s20.5 92.166 20.5 137.499
c0 96.667 -37 145 -111 145c-30.667 0 -58.5 -7.5 -83.5 -22.5s-50.167 -36.833 -75.5 -65.5l-48 -338c18 -7.33301 35.333 -12.666 52 -15.999s36 -5 58 -5c48.667 0 88.667 15.833 120 47.5z" />
    <glyph glyph-name="uni01A6" unicode="&#x1a6;" horiz-adv-x="587" 
d="M493.5 270.5c-28.333 -38.333 -74.167 -65.166 -137.5 -80.499l143 -316h-66l-136 307h-138l-26 -181h-60l97 685h60l-18 -126h104c74.667 0 130 -13.333 166 -40s54 -66.334 54 -119.001c0 -48 -14.167 -91.167 -42.5 -129.5zM283.999 230
c66.667 0 114.833 16.833 144.5 50.5s44.5 73.5 44.5 119.5c0 38 -12.333 65.667 -37 83s-64.667 26 -120 26h-111l-39 -279h118z" />
    <glyph glyph-name="uni01A7" unicode="&#x1a7;" horiz-adv-x="528" 
d="M462.5 656c31 -26.667 46.5 -62.332 46.5 -106.999c0 -55.333 -17.667 -98.166 -53 -128.499s-91 -56.833 -167 -79.5c-46.667 -14 -83.5 -28.833 -110.5 -44.5s-46.667 -34.5 -59 -56.5s-18.5 -49.667 -18.5 -83c0 -37.333 12.333 -66 37 -86s57.334 -30 98.001 -30
c37.333 0 71.833 6.16699 103.5 18.5s62.5 30.166 92.5 53.499l31 -40c-68 -56 -144.667 -84 -230 -84c-58.667 0 -105.667 15.333 -141 46s-53 71.334 -53 122.001c0 60 18.333 108.167 55 144.5s93.667 65.5 171 87.5c44 13.333 78.833 26.333 104.5 39
s45.167 28.667 58.5 48s20 43.666 20 72.999c0 31.333 -10 55.166 -30 71.499s-48.333 24.5 -85 24.5c-33.333 0 -63.833 -5 -91.5 -15s-57.167 -26 -88.5 -48l-30 40c33.333 25.333 66.666 44 99.999 56s71 18 113 18c53.333 0 95.5 -13.333 126.5 -40z" />
    <glyph glyph-name="uni01A8" unicode="&#x1a8;" horiz-adv-x="461" 
d="M374.5 500c28.333 -22.667 42.5039 -52.001 42.5039 -88.001c0 -34.667 -11.833 -65.5 -35.5 -92.5s-68.5 -49.5 -134.5 -67.5c-44.667 -11.333 -78.334 -23.833 -101.001 -37.5s-37.5 -27.5 -44.5 -41.5s-10.5 -30 -10.5 -48c0 -26.667 10.167 -47.667 30.5 -63
s46.833 -23 79.5 -23c61.333 0 117.333 19 168 57l30 -40c-58.667 -44.667 -125.667 -67 -201 -67c-48.667 0 -89 12.167 -121 36.5s-48 57.5 -48 99.5c0 38.667 14.167 72.167 42.5 100.5s78.166 52.166 149.499 71.499c54.667 14.667 90.834 31.334 108.501 50.001
s26.5 40.334 26.5 65.001c0 22.667 -8.83301 40.667 -26.5 54s-40.834 20 -69.501 20c-25.333 0 -49.333 -4 -72 -12s-46.334 -20.667 -71.001 -38l-27 39c55.333 39.333 113.333 59 174 59c45.333 0 82.166 -11.333 110.499 -34z" />
    <glyph glyph-name="uni01A9" unicode="&#x1a9;" horiz-adv-x="492" 
d="M506 685l-7 -51h-328l173 -281l-3 -35l-249 -267h325l-7 -51h-401l6 44l272 295l-187 302l5 44h401z" />
    <glyph glyph-name="uni01AA" unicode="&#x1aa;" horiz-adv-x="285" 
d="M287 -173c-30 -21.333 -64.999 -32 -104.999 -32c-34 0 -61 9.16699 -81 27.5s-30 44.833 -30 79.5c0 6 0.666992 15.667 2 29l10 69l71 513c-18.667 -9.33301 -38.667 -14 -60 -14c-28.667 0 -52.334 9.16699 -71.001 27.5s-28 42.833 -28 73.5c0 27.333 6 52 18 74
s28.167 39.167 48.5 51.5s42.5 18.5 66.5 18.5c32 0 56.833 -8.83301 74.5 -26.5s26.5 -42.834 26.5 -75.501c0 -5.33301 -0.666992 -14.666 -2 -27.999l-86 -614l-10 -76c-1.33301 -10.667 -2 -18 -2 -22c0 -39.333 18.667 -59 56 -59c16 0 30 2 42 6s24.667 9.66699 38 17
zM161.001 559l9 64.998c0.666992 4.66699 1 11.334 1 20.001c0 34.667 -14.667 52 -44 52c-22.667 0 -40.667 -9.16699 -54 -27.5s-20 -41.166 -20 -68.499c0 -35.333 17 -53 51 -53c18.667 0 37.667 4 57 12z" />
    <glyph glyph-name="uni01AB" unicode="&#x1ab;" horiz-adv-x="339" 
d="M144 129c-1.33301 -12 -1.99707 -20.667 -1.99707 -26c0 -22 5 -38.167 15 -48.5s26 -15.5 48 -15.5c24 0 53 6.66699 87 20l17 -38l-13 -93c-6.66699 -44 -22.5 -77.167 -47.5 -99.5s-56.5 -33.5 -94.5 -33.5c-36.667 0 -69.334 11.667 -98.001 35l28 36
c11.333 -7.33301 22.333 -13 33 -17s23.667 -6 39 -6c22 0 40.667 6.83301 56 20.5s25 35.167 29 64.5l10 70c-16.667 -6 -35.334 -9 -56.001 -9c-34.667 0 -61.834 9.5 -81.501 28.5s-29.5 46.167 -29.5 81.5c0 12.667 0.666992 22.667 2 30l49 347h-88l7 47h89l29 127
l46 5l-19 -132h135l-14 -47h-127z" />
    <glyph glyph-name="uni01AC" unicode="&#x1ac;" horiz-adv-x="521" 
d="M556 632l-199 0.00195312l-89 -632h-60l89 632h-100c-28 0 -48.667 -7 -62 -21s-20 -33 -20 -57c0 -14.667 4 -33.334 12 -56.001l-46 -21c-7.33301 14 -13 27.167 -17 39.5s-6 26.166 -6 41.499c0 37.333 12.5 67.833 37.5 91.5s59.833 35.5 104.5 35.5h371z" />
    <glyph glyph-name="uni01AD" unicode="&#x1ad;" horiz-adv-x="339" 
d="M200 528l-1.00098 -5h135l-14 -47h-127l-49 -347c-1.33301 -12 -2 -20.667 -2 -26c0 -22 5 -38.167 15 -48.5s26 -15.5 48 -15.5c26 0 54 8.66699 84 26l20 -44c-36 -21.333 -73.667 -32 -113 -32c-35.333 0 -62.833 9.33301 -82.5 28s-29.5 46 -29.5 82
c0 12.667 0.666992 22.667 2 30l49 347h-88l7 47h87l1 5l11 77c6 46 22 80.667 48 104s59 35 99 35c36.667 0 71.334 -11.667 104.001 -35l-27 -38c-23.333 16 -48.333 24 -75 24c-52 0 -82.333 -30.333 -91 -91z" />
    <glyph glyph-name="uni01AE" unicode="&#x1ae;" horiz-adv-x="493" 
d="M229 -74c-1.33301 -10.667 -2 -18 -2 -22c0 -39.333 18 -59 54 -59c16 0 30 2 42 6s24.333 9.66699 37 17l22 -41c-30 -21.333 -65 -32 -105 -32c-34 0 -60.833 9 -80.5 27s-29.5 44.667 -29.5 80c0 6 0.666992 15.667 2 29l10 69l89 632h-202l8 53h469l-15 -53h-200
l-89 -632z" />
    <glyph glyph-name="Uhorn" unicode="&#x1af;" horiz-adv-x="649" 
d="M595 593l-53.001 -381.001c-9.33301 -68 -35.666 -122.167 -78.999 -162.5s-101.333 -60.5 -174 -60.5c-65.333 0 -114.666 16.333 -147.999 49s-50 77 -50 133c0 14 1 29 3 45l66 469h60l-66 -468c-2 -14.667 -3 -29 -3 -43c0 -88.667 46.667 -133 140 -133
c56 0 100 15.833 132 47.5s52 75.834 60 132.501l65 464h60l-7 -52c21.333 4.66699 36.666 13.5 45.999 26.5s14 30.5 14 52.5c0 16 -2.33301 31.667 -7 47l46 9c6.66699 -17.333 10 -36.333 10 -57c0 -70 -38.333 -109.333 -115 -118z" />
    <glyph glyph-name="uhorn" unicode="&#x1b0;" horiz-adv-x="595" 
d="M495 428l-61 -428h-48l14 133c-24 -44.667 -52.167 -79.834 -84.5 -105.501s-68.833 -38.5 -109.5 -38.5c-39.333 0 -69.833 11 -91.5 33s-32.5 53 -32.5 93c0 11.333 1 23.333 3 36l52 372h58l-52 -370c-1.33301 -8 -2 -18.667 -2 -32c0 -56 25.333 -84 76 -84
c36.667 0 70.834 15.167 102.501 45.5s60.167 70.5 85.5 120.5l45 320h58l-8 -56c21.333 4.66699 36.666 13.667 45.999 27s14 31 14 53c0 18 -2.33301 34.667 -7 50l46 9c6.66699 -17.333 10 -37.333 10 -60c0 -69.333 -38 -108.666 -114 -117.999z" />
    <glyph glyph-name="uni01B1" unicode="&#x1b1;" horiz-adv-x="688" 
d="M134 59.5c-42.667 47 -63.998 111.167 -63.998 192.5s16.167 154.833 48.5 220.5s79.166 119.834 140.499 162.501h-118l7 50h184l-6 -52c-64 -41.333 -112.333 -95.5 -145 -162.5s-49 -140.833 -49 -221.5c0 -67.333 15.667 -118.833 47 -154.5s75.333 -53.5 132 -53.5
c56 0 103.833 16.5 143.5 49.5s69.5 76.667 89.5 131s30 113.833 30 178.5c0 54.667 -9 100.667 -27 138s-43 69.666 -75 96.999l6 50h183l-7 -52h-116c30 -26 54 -57.333 72 -94s27 -82.667 27 -138c0 -75.333 -13.333 -144.333 -40 -207s-64.667 -112.5 -114 -149.5
s-107 -55.5 -173 -55.5c-74.667 0 -133.334 23.5 -176.001 70.5z" />
    <glyph glyph-name="uni01B2" unicode="&#x1b2;" horiz-adv-x="637" 
d="M573 674c15.333 -14.667 23 -35.999 23 -63.999c0 -4.66699 -0.666992 -13 -2 -25l-41 -293c-9.33301 -64 -27.333 -118.833 -54 -164.5s-60 -80.167 -100 -103.5s-84.333 -35 -133 -35c-54.667 0 -98 15.5 -130 46.5s-48 72.167 -48 123.5c0 12 1 24 3 36l69 490h60
l-69 -490c-2 -12 -3 -23.333 -3 -34c0 -38.667 10.5 -68.334 31.5 -89.001s50.5 -31 88.5 -31c58.667 0 108 22.167 148 66.5s66 108.833 78 193.5l40 289c0.666992 4 1 9.66699 1 17c0 26 -11.667 39 -35 39c-14.667 0 -29 -3 -43 -9l-15 43c20 10.667 42.667 16 68 16
c26.667 0 47.667 -7.33301 63 -22z" />
    <glyph glyph-name="uni01B3" unicode="&#x1b3;" horiz-adv-x="552" 
d="M231 267l-158.001 418h64l131 -362l173 287c18.667 32 37.5 54.333 56.5 67s42.167 19 69.5 19c36 0 68 -14 96 -42l-29 -34c-22 18.667 -43.667 28 -65 28c-16 0 -29.667 -4.33301 -41 -13s-23.666 -24 -36.999 -46l-199 -321l-38 -268h-61z" />
    <glyph glyph-name="uni01B4" unicode="&#x1b4;" horiz-adv-x="467" 
d="M-8 -158c35.333 8 64.167 18.5 86.5 31.5s41 29.167 56 48.5s30.5 45.333 46.5 78h-22l-107 523h62l89 -479l184 435c14 34 29.333 57.833 46 71.5s38.334 20.5 65.001 20.5c18 0 37 -5 57 -15l-19 -41c-10 4.66699 -21.667 7 -35 7c-14 0 -25.5 -4 -34.5 -12
s-17.833 -22 -26.5 -42l-203 -468c-26.667 -62 -57.834 -108.5 -93.501 -139.5s-85.167 -52.5 -148.5 -64.5z" />
    <glyph glyph-name="uni01B5" unicode="&#x1b5;" horiz-adv-x="513" 
d="M526 685l-7 -50l-202 -265h101l-9 -50h-130l-204 -267h355l-15 -53h-417l7 50l206 270h-105l9 50h134l201 263h-326l7 52h395z" />
    <glyph glyph-name="uni01B6" unicode="&#x1b6;" horiz-adv-x="420" 
d="M423 523l-6 -45l-152 -187h89l-7 -48h-122l-157 -193h286l-13 -50h-351l7 45l162 198h-89l8 48h120l148 181h-265l7 51h335z" />
    <glyph glyph-name="uni01B7" unicode="&#x1b7;" horiz-adv-x="493" 
d="M474 636l-257.998 -250h20c66.667 0 117.167 -14.167 151.5 -42.5s51.5 -68.833 51.5 -121.5c0 -46 -10.833 -86.667 -32.5 -122s-51.834 -62.666 -90.501 -81.999s-82.334 -29 -131.001 -29c-44.667 0 -82.5 7.33301 -113.5 22s-57.833 36.667 -80.5 66l38 32
c20.667 -24 43 -41.333 67 -52s53.667 -16 89 -16c58 0 104.333 16.5 139 49.5s52 76.833 52 131.5c0 41.333 -12.833 71.166 -38.5 89.499s-63.5 27.5 -113.5 27.5h-86l1 1l6 46l253 248h-306l7 51h381z" />
    <glyph glyph-name="uni01B8" unicode="&#x1b8;" horiz-adv-x="494" 
d="M506 634l-311 -0.000976562l187 -248l-6 -47h-82c-62 0 -110.333 -15.5 -145 -46.5s-52 -73.167 -52 -126.5c0 -39.333 11.833 -70 35.5 -92s57.5 -33 101.5 -33c38.667 0 72.167 5.33301 100.5 16s56.166 28.334 83.499 53.001l34 -36
c-30.667 -28.667 -63.5 -50 -98.5 -64s-75.833 -21 -122.5 -21c-59.333 0 -106.666 16 -141.999 48s-53 74.667 -53 128c0 44.667 10.5 83.667 31.5 117s50.667 59 89 77s82.833 27 133.5 27h30l-194 250l6 49h381z" />
    <glyph glyph-name="uni01B9" unicode="&#x1b9;" horiz-adv-x="462" 
d="M456 473l-303 0.000976562l176 -273l-6 -46l-3 2l2 -2h-61c-65.333 0 -115.833 -16 -151.5 -48s-53.5 -76.333 -53.5 -133c0 -40.667 11.333 -72.334 34 -95.001s55.667 -34 99 -34c34.667 0 65.667 5.5 93 16.5s54.666 28.833 81.999 53.5l33 -35
c-30 -28 -61.833 -49 -95.5 -63s-71.834 -21 -114.501 -21c-59.333 0 -106.333 16.333 -141 49s-52 76 -52 130c0 46 10.833 86 32.5 120s52.334 60.167 92.001 78.5s85.834 27.5 138.501 27.5h14l-182 278l5 45h368z" />
    <glyph glyph-name="uni01BA" unicode="&#x1ba;" horiz-adv-x="455" 
d="M-17 -92c0 35.333 15.1699 62.335 45.5029 81.002s77.833 33 142.5 43c41.333 6.66699 74.166 14 98.499 22s43.166 19.667 56.499 35s20 36.333 20 63c0 25.333 -7.33301 43.666 -22 54.999s-36.334 17 -65.001 17h-151l6 46l233 203h-286l6 50h364l-6 -45l-241 -208h83
c44 0 78.5 -10.167 103.5 -30.5s37.5 -49.166 37.5 -86.499c0 -50.667 -18.167 -88.834 -54.5 -114.501s-90.166 -43.834 -161.499 -54.501c-56.667 -8.66699 -95.834 -18.667 -117.501 -30s-32.5 -27 -32.5 -47c0 -14.667 5.16699 -27.5 15.5 -38.5
s26.833 -22.833 49.5 -35.5l-24 -39c-66.667 31.333 -100 69.333 -100 114z" />
    </font>
</defs>
</svg>
