<svg xmlns="http://www.w3.org/2000/svg" viewBox="0 0 512 512"><path d="M456 320c-35.064 0-56 23.92-56 64 0 29.52 23.184 62.088 38.096 80H48c-17.648 0-32-14.352-32-32s14.352-32 32-32h264c26.472 0 48-21.528 48-48s-21.528-48-48-48H152c-17.648 0-32-14.352-32-32s14.352-32 32-32h312c26.472 0 48-21.528 48-48s-21.528-48-48-48h-84.448a31.44 31.44 0 0 0 3.312-8H408c4.424 0 8-3.576 8-8V80c0-4.424-3.576-8-8-8h-18.584l-13.984-34.968A8.013 8.013 0 0 0 368 32h-32V8c0-4.424-3.576-8-8-8H200c-4.424 0-8 3.576-8 8v48h-16v16h16v16h-32v16h32v24c0 4.424 3.576 8 8 8h25.136a31.44 31.44 0 0 0 3.312 8H73.904C88.816 126.088 112 93.52 112 64c0-40.08-20.936-64-56-64S0 23.92 0 64c0 42.576 48.272 91.576 50.328 93.64A7.998 7.998 0 0 0 56 160h408c17.648 0 32 14.352 32 32s-14.352 32-32 32H152c-26.472 0-48 21.528-48 48s21.528 48 48 48h160c17.648 0 32 14.352 32 32s-14.352 32-32 32H48c-26.472 0-48 21.528-48 48s21.528 48 48 48h408a7.998 7.998 0 0 0 5.672-2.36C463.728 475.576 512 426.576 512 384c0-40.08-20.936-64-56-64zM16 64c0-30.952 14.2-48 40-48s40 17.048 40 48c0 28.184-27.768 62.488-40 76.232C43.768 126.488 16 92.184 16 64zm240 80c-8.824 0-16-7.176-16-16s7.176-16 16-16 16 7.176 16 16-7.176 16-16 16zm25.832-34.728c-.872-1.208-1.8-2.36-2.832-3.432-.472-.488-.984-.912-1.48-1.368-.92-.84-1.856-1.64-2.872-2.368-.592-.432-1.2-.824-1.824-1.208a32.558 32.558 0 0 0-3.208-1.744c-.656-.312-1.304-.624-1.992-.896-1.224-.48-2.496-.848-3.784-1.176-.624-.16-1.216-.36-1.848-.48-1.944-.368-3.936-.6-5.992-.6s-4.048.232-6 .608c-.632.12-1.232.328-1.848.48-1.296.328-2.56.696-3.784 1.176-.68.272-1.328.584-1.992.896a31.813 31.813 0 0 0-3.208 1.744 31.28 31.28 0 0 0-1.824 1.208 32.461 32.461 0 0 0-2.872 2.368c-.496.456-1.008.88-1.48 1.368-1.032 1.072-1.96 2.224-2.832 3.432-.248.344-.544.648-.784 1a31.723 31.723 0 0 0-2.728 5.024c-.216.496-.344 1.032-.536 1.544-.392 1.04-.824 2.064-1.104 3.16H208V16h112v104h-33.016c-.28-1.088-.712-2.112-1.104-3.16-.192-.512-.32-1.04-.536-1.544a32.021 32.021 0 0 0-2.728-5.024c-.232-.352-.528-.656-.784-1zm1.72 34.728a31.44 31.44 0 0 0 3.312-8h34.272a31.44 31.44 0 0 0 3.312 8h-40.896zM352 144c-8.824 0-16-7.176-16-16s7.176-16 16-16 16 7.176 16 16-7.176 16-16 16zm25.832-34.728c-.872-1.208-1.8-2.36-2.832-3.432-.472-.488-.984-.912-1.48-1.368-.92-.84-1.856-1.64-2.872-2.368-.592-.432-1.2-.824-1.824-1.208a32.558 32.558 0 0 0-3.208-1.744c-.656-.312-1.304-.624-1.992-.896-1.224-.48-2.496-.848-3.784-1.176-.624-.16-1.216-.36-1.848-.48-1.944-.368-3.936-.6-5.992-.6-1.968 0-3.872.24-5.744.584-.456.08-.904.176-1.36.272-1.816.416-3.6.928-5.288 1.648-.096.04-.184.096-.28.144a31.43 31.43 0 0 0-3.328 1.656V48h26.584l13.984 34.968A8.013 8.013 0 0 0 384 88h16v32h-17.016c-.28-1.088-.712-2.112-1.104-3.16-.192-.512-.32-1.04-.536-1.544a32.021 32.021 0 0 0-2.728-5.024c-.232-.352-.528-.656-.784-1zM456 460.232c-12.232-13.752-40-48.048-40-76.232 0-30.952 14.2-48 40-48s40 17.048 40 48c0 28.184-27.768 62.488-40 76.232z"/><path d="M56 32c-13.232 0-24 10.768-24 24s10.768 24 24 24 24-10.768 24-24-10.768-24-24-24zm0 32c-4.416 0-8-3.584-8-8s3.584-8 8-8 8 3.584 8 8-3.584 8-8 8zm400 288c-13.232 0-24 10.768-24 24s10.768 24 24 24 24-10.768 24-24-10.768-24-24-24zm0 32c-4.416 0-8-3.584-8-8s3.584-8 8-8 8 3.584 8 8-3.584 8-8 8zm40 112h16v16h-16zm-32 0h16v16h-16zm-32 0h16v16h-16z"/></svg>